<?xml version="1.0" encoding="UTF-8"?>
<svg id="Layer_2" data-name="Layer 2" xmlns="http://www.w3.org/2000/svg" viewBox="0 0 391.73 250">
  <defs>
    <style>
      .cls-1 {
        fill: #527695;
      }

      .cls-1, .cls-2, .cls-3, .cls-4, .cls-5, .cls-6 {
        stroke-width: 0px;
      }

      .cls-2 {
        fill: #ba4270;
      }

      .cls-3 {
        fill: #1b262f;
      }

      .cls-4 {
        fill: #36536b;
      }

      .cls-5 {
        fill: #fbfcfe;
      }

      .cls-6 {
        fill: #2e3f4d;
      }
    </style>
  </defs>
  <g id="Layer_1-2" data-name="Layer 1">
    <g id="Group_14" data-name="Group 14">
      <g id="Rectangle">
        <rect class="cls-3" width="391.73" height="250" rx="8" ry="8"/>
      </g>
      <path id="_form_id_form-id_m" data-name="&amp;lt;form id=&amp;quot;form-id&amp;quot; m" class="cls-5" d="m31.18,66.44l-.28.09.28.1,3.29,1.27v1.05l-4.55-2.03v-.79l4.55-2.03v1.05l-3.29,1.29Zm6.84,3.56v-5.04h-1.6v-.77h1.6v-.41c0-.37.05-.7.16-.98.11-.28.26-.52.46-.71.2-.19.44-.33.72-.43.28-.1.59-.15.93-.15.24,0,.47.02.69.06.23.04.46.09.69.15l-.12.82c-.15-.05-.32-.09-.52-.13-.19-.04-.4-.06-.62-.06-.47,0-.82.12-1.05.36-.23.23-.35.59-.35,1.06v.41h2.24v.77h-2.24v5.04h-1Zm4.84-2.96c0-.42.06-.81.18-1.17.12-.36.3-.68.52-.94.23-.26.51-.47.83-.62.33-.15.69-.23,1.1-.23s.78.08,1.11.23c.33.15.61.36.83.62.23.26.4.58.53.94.12.36.18.75.18,1.17v.12c0,.42-.06.81-.18,1.17-.12.36-.3.67-.53.94-.22.26-.5.47-.83.62-.33.15-.69.22-1.1.22s-.78-.08-1.11-.22c-.33-.15-.6-.36-.83-.62-.23-.26-.4-.58-.52-.94-.12-.36-.18-.75-.18-1.17v-.12Zm.99.12c0,.29.03.56.1.82.07.26.17.49.31.68.14.2.31.35.52.47.21.11.45.17.72.17s.51-.06.71-.17c.21-.11.38-.27.52-.47.14-.2.24-.43.31-.68.07-.26.1-.54.1-.82v-.12c0-.28-.04-.55-.11-.81-.07-.26-.17-.49-.31-.69-.14-.2-.31-.35-.52-.47-.2-.12-.44-.18-.72-.18s-.52.06-.72.18c-.2.11-.38.27-.52.47-.14.2-.24.43-.31.69-.07.26-.1.53-.1.81v.12Zm9.7-3.08c.09,0,.19,0,.29.01.1,0,.19.01.29.03.09,0,.18.02.25.04.08.02.14.04.19.06l-.14.97c-.19-.04-.38-.07-.55-.09-.17-.02-.35-.03-.54-.03-.47,0-.84.11-1.13.32-.29.21-.5.51-.63.89v3.73h-1v-5.81h.95l.05.92c.24-.32.52-.57.85-.75.33-.19.71-.28,1.13-.28Zm3.26.11l.03.55c.12-.2.27-.36.46-.48.19-.11.43-.17.7-.18.53,0,.89.21,1.07.62.11-.19.26-.33.45-.45.19-.11.42-.17.69-.18.43,0,.75.13.98.39.23.26.34.66.34,1.19v4.34h-.94v-4.35c0-.49-.22-.73-.67-.72-.12,0-.22.02-.31.05-.09.03-.16.08-.21.13-.06.05-.1.12-.13.19-.03.07-.05.15-.06.23v4.47h-.95v-4.36c0-.23-.05-.41-.15-.54-.1-.12-.27-.19-.49-.18-.21,0-.37.04-.48.12-.11.08-.2.19-.25.33v4.62h-.95v-5.81h.89Zm12.91,0h2.97v4.95h1.9v.86h-4.87v-.86h1.98v-4.09h-1.98v-.86Zm1.85-1.53c0-.17.05-.3.14-.41.1-.11.25-.17.45-.17s.35.06.45.17c.1.11.15.25.15.41s-.05.29-.15.4c-.1.11-.25.16-.45.16s-.35-.05-.45-.16c-.1-.11-.14-.24-.14-.4Zm4.42,4.38c0-.43.05-.83.16-1.19.11-.37.27-.68.47-.94.2-.26.45-.47.74-.61.29-.15.61-.22.96-.22s.65.06.91.18c.26.11.49.28.68.5v-3.01h.99v8.25h-.91l-.04-.61c-.19.24-.42.42-.69.54-.27.12-.58.18-.94.18s-.67-.08-.96-.22c-.28-.15-.52-.36-.73-.62-.2-.26-.36-.58-.47-.94-.11-.36-.17-.75-.17-1.17v-.11Zm.99.11c0,.28.03.55.09.81.06.26.15.48.28.67.13.19.29.35.49.46.2.11.43.17.71.17.17,0,.32-.02.46-.06s.26-.1.37-.17c.11-.08.21-.16.29-.26.09-.1.16-.22.23-.34v-2.7c-.13-.24-.3-.43-.52-.58-.22-.15-.49-.23-.82-.23-.28,0-.52.06-.72.17-.2.11-.36.27-.49.47-.12.19-.22.42-.28.68-.06.25-.09.52-.09.81v.11Zm10.59-1.35h-4.8v-.86h4.8v.86Zm0,2.23h-4.8v-.86h4.8v.86Zm3.59-5.71l-.11,1.99h-.7v-1.9s0-.67,0-.67h.8v.58Zm1.92,0l-.11,1.99h-.69v-1.9s0-.67,0-.67h.81v.58Zm4.39,7.67v-5.04h-1.6v-.77h1.6v-.41c0-.37.05-.7.16-.98.11-.28.26-.52.46-.71.2-.19.44-.33.72-.43.28-.1.59-.15.93-.15.24,0,.46.02.69.06.23.04.46.09.69.15l-.12.82c-.15-.05-.32-.09-.52-.13-.19-.04-.4-.06-.62-.06-.46,0-.82.12-1.05.36-.23.23-.35.59-.35,1.06v.41h2.24v.77h-2.24v5.04h-1Zm4.85-2.96c0-.42.06-.81.18-1.17.12-.36.29-.68.52-.94.23-.26.51-.47.83-.62.33-.15.69-.23,1.1-.23s.78.08,1.11.23c.33.15.61.36.83.62.23.26.41.58.53.94.12.36.18.75.18,1.17v.12c0,.42-.06.81-.18,1.17-.12.36-.3.67-.53.94-.22.26-.5.47-.83.62-.33.15-.69.22-1.1.22s-.78-.08-1.11-.22c-.33-.15-.6-.36-.83-.62-.23-.26-.4-.58-.52-.94-.12-.36-.18-.75-.18-1.17v-.12Zm.99.12c0,.29.03.56.1.82.07.26.17.49.31.68.14.2.31.35.52.47.21.11.45.17.73.17s.51-.06.71-.17c.21-.11.38-.27.52-.47.14-.2.24-.43.31-.68.07-.26.1-.54.1-.82v-.12c0-.28-.04-.55-.11-.81-.07-.26-.17-.49-.31-.69-.14-.2-.31-.35-.52-.47-.2-.12-.44-.18-.72-.18s-.51.06-.72.18c-.2.11-.38.27-.52.47-.14.2-.24.43-.31.69-.07.26-.1.53-.1.81v.12Zm9.7-3.08c.09,0,.19,0,.29.01.1,0,.2.01.29.03.09,0,.18.02.25.04.08.02.14.04.19.06l-.13.97c-.19-.04-.38-.07-.55-.09-.17-.02-.35-.03-.54-.03-.47,0-.84.11-1.13.32-.29.21-.5.51-.63.89v3.73h-1v-5.81h.95l.05.92c.24-.32.52-.57.85-.75.33-.19.71-.28,1.13-.28Zm3.25.11l.03.55c.12-.2.27-.36.46-.48.19-.11.43-.17.7-.18.53,0,.89.21,1.07.62.11-.19.26-.33.45-.45.19-.11.42-.17.69-.18.43,0,.75.13.98.39.23.26.34.66.34,1.19v4.34h-.95v-4.35c0-.49-.22-.73-.67-.72-.12,0-.22.02-.31.05-.09.03-.16.08-.21.13-.06.05-.1.12-.13.19-.03.07-.05.15-.06.23v4.47h-.95v-4.36c0-.23-.05-.41-.15-.54-.1-.12-.27-.19-.5-.18-.21,0-.37.04-.48.12-.11.08-.2.19-.25.33v4.62h-.95v-5.81h.89Zm10.5,2.8h-4.11v-.82h4.11v.82Zm2.42-2.8h2.97v4.95h1.9v.86h-4.87v-.86h1.98v-4.09h-1.98v-.86Zm1.85-1.53c0-.17.05-.3.14-.41.1-.11.25-.17.45-.17s.35.06.45.17c.1.11.15.25.15.41s-.05.29-.15.4c-.1.11-.25.16-.45.16s-.35-.05-.45-.16c-.1-.11-.14-.24-.14-.4Zm4.41,4.38c0-.43.05-.83.16-1.19.11-.37.27-.68.47-.94.2-.26.45-.47.74-.61.29-.15.61-.22.96-.22s.65.06.91.18c.26.11.49.28.68.5v-3.01h.99v8.25h-.91l-.04-.61c-.19.24-.42.42-.69.54-.27.12-.58.18-.94.18s-.67-.08-.96-.22c-.28-.15-.53-.36-.73-.62-.2-.26-.36-.58-.47-.94-.11-.36-.17-.75-.17-1.17v-.11Zm.99.11c0,.28.03.55.09.81.06.26.15.48.28.67.13.19.29.35.49.46.2.11.43.17.71.17.17,0,.32-.02.46-.06s.26-.1.37-.17c.11-.08.21-.16.29-.26.09-.1.16-.22.23-.34v-2.7c-.13-.24-.3-.43-.52-.58-.22-.15-.49-.23-.82-.23-.28,0-.52.06-.72.17-.2.11-.36.27-.49.47-.12.19-.22.42-.28.68-.06.25-.09.52-.09.81v.11Zm7.58-4.82l-.11,1.99h-.7v-1.9s0-.67,0-.67h.81v.58Zm1.92,0l-.11,1.99h-.69v-1.9s0-.67,0-.67h.81v.58Zm9.98,1.85l.03.55c.12-.2.27-.36.46-.48.19-.11.43-.17.7-.18.53,0,.89.21,1.07.62.11-.19.26-.33.45-.45.19-.11.42-.17.69-.18.43,0,.75.13.98.39.23.26.34.66.34,1.19v4.34h-.95v-4.35c0-.49-.22-.73-.67-.72-.12,0-.22.02-.31.05-.09.03-.16.08-.22.13-.06.05-.1.12-.13.19-.03.07-.05.15-.07.23v4.47h-.95v-4.36c0-.23-.05-.41-.16-.54-.1-.12-.27-.19-.49-.18-.21,0-.37.04-.48.12-.12.08-.2.19-.25.33v4.62h-.94v-5.81h.89Zm8.72,5.92c-.41,0-.78-.07-1.13-.21-.34-.14-.63-.33-.88-.59-.24-.25-.43-.55-.57-.89-.14-.34-.2-.72-.2-1.12v-.22c0-.47.07-.89.23-1.26.15-.37.35-.69.6-.94.25-.26.53-.46.85-.59.32-.14.65-.2.98-.2.42,0,.78.07,1.1.22.31.14.58.34.78.6.21.25.36.56.46.9.1.35.16.72.16,1.13v.45h-4.15c0,.26.06.51.15.75.09.23.22.44.38.61.16.17.35.31.58.41.22.1.47.15.74.15.35,0,.67-.07.95-.21.28-.14.5-.33.69-.57l.61.47c-.1.15-.22.29-.36.42-.14.13-.31.25-.5.36-.19.1-.4.19-.65.25-.24.06-.5.1-.78.1Zm-.13-5.21c-.2,0-.39.04-.57.11-.18.07-.34.18-.48.32-.14.14-.26.31-.37.52-.1.2-.16.44-.2.71h3.13v-.07c-.01-.19-.05-.39-.11-.57-.06-.19-.15-.36-.27-.51-.12-.15-.28-.27-.46-.36-.18-.09-.4-.14-.65-.14Zm6.52-2.12v1.41h2.21v.77h-2.21v3.16c0,.22.03.41.09.56.06.15.14.27.24.36.1.09.21.15.34.18.13.04.27.05.42.05.11,0,.22,0,.33-.02.11-.01.23-.03.33-.05.11-.02.21-.04.31-.05.1-.02.18-.04.24-.05l.14.7c-.08.05-.18.1-.3.13-.12.04-.25.07-.39.09-.14.03-.29.05-.45.06-.15.01-.31.02-.46.02-.26,0-.5-.04-.73-.11-.22-.07-.41-.19-.58-.35-.16-.16-.29-.37-.39-.62-.09-.25-.14-.56-.14-.92v-3.16h-1.52v-.77h1.52v-1.41h1Zm5.25,2.27c.21-.3.46-.54.77-.71.3-.17.65-.26,1.03-.26.3,0,.58.04.83.13.25.09.46.22.64.41.18.19.31.42.4.71.1.28.15.62.15,1.01v3.66h-.99v-3.67c0-.48-.11-.83-.34-1.06-.23-.23-.55-.35-.97-.34-.32,0-.61.08-.87.24-.26.15-.47.36-.63.62v4.22h-.99v-8.25h.99v3.3Zm5.33,1.99c0-.42.06-.81.18-1.17.12-.36.3-.68.52-.94.23-.26.51-.47.83-.62.32-.15.69-.23,1.1-.23s.78.08,1.11.23c.33.15.61.36.83.62.23.26.4.58.53.94.12.36.18.75.18,1.17v.12c0,.42-.06.81-.18,1.17-.12.36-.3.67-.53.94-.23.26-.5.47-.83.62-.33.15-.69.22-1.1.22s-.78-.08-1.11-.22c-.33-.15-.6-.36-.83-.62-.23-.26-.4-.58-.52-.94-.12-.36-.18-.75-.18-1.17v-.12Zm.99.12c0,.29.03.56.1.82.07.26.17.49.31.68.14.2.31.35.52.47.21.11.45.17.73.17s.51-.06.71-.17c.21-.11.38-.27.51-.47.14-.2.24-.43.31-.68.07-.26.1-.54.1-.82v-.12c0-.28-.04-.55-.11-.81-.07-.26-.17-.49-.31-.69-.14-.2-.31-.35-.52-.47-.2-.12-.44-.18-.72-.18s-.52.06-.72.18c-.2.11-.38.27-.52.47-.14.2-.24.43-.31.69-.07.26-.1.53-.1.81v.12Zm5.7-.11c0-.43.05-.83.16-1.19.11-.37.27-.68.47-.94.2-.26.45-.47.74-.61.29-.15.61-.22.96-.22s.65.06.91.18c.26.11.49.28.68.5v-3.01h.99v8.25h-.91l-.04-.61c-.19.24-.42.42-.69.54-.27.12-.58.18-.94.18s-.67-.08-.96-.22c-.28-.15-.52-.36-.73-.62-.2-.26-.36-.58-.47-.94-.11-.36-.17-.75-.17-1.17v-.11Zm.99.11c0,.28.03.55.09.81.06.26.15.48.28.67.13.19.29.35.49.46.2.11.43.17.71.17.17,0,.32-.02.46-.06.14-.04.26-.1.37-.17.11-.08.21-.16.3-.26.09-.1.16-.22.23-.34v-2.7c-.13-.24-.3-.43-.52-.58-.22-.15-.49-.23-.82-.23-.28,0-.52.06-.72.17-.2.11-.36.27-.49.47-.13.19-.22.42-.28.68-.06.25-.09.52-.09.81v.11Zm10.59-1.35h-4.8v-.86h4.8v.86Zm0,2.23h-4.8v-.86h4.8v.86Zm3.59-5.71l-.11,1.99h-.7v-1.9s0-.67,0-.67h.81v.58Zm1.92,0l-.11,1.99h-.69v-1.9s0-.67,0-.67h.81v.58Zm7.97,6.64c-.33.39-.71.67-1.13.86-.43.19-.89.28-1.4.27-.32,0-.62-.05-.89-.15-.27-.1-.51-.23-.73-.39-.21-.17-.4-.36-.56-.59-.16-.22-.3-.47-.41-.73-.11-.26-.19-.54-.25-.83-.05-.29-.08-.58-.09-.88v-.91c0-.29.03-.58.07-.86.05-.29.13-.57.23-.83s.23-.51.38-.74c.15-.23.33-.43.54-.59.21-.17.45-.3.71-.4.27-.1.56-.15.89-.15.37,0,.7.06,1.01.17.31.11.58.27.8.48.23.21.41.46.55.76.14.29.23.62.26.99h-.98c-.04-.22-.1-.43-.18-.62-.08-.19-.19-.36-.33-.49-.13-.14-.29-.24-.48-.32-.19-.08-.4-.12-.65-.12s-.45.04-.63.12c-.18.08-.34.19-.48.32-.14.14-.25.3-.34.48-.09.18-.16.37-.22.57-.06.2-.1.4-.12.61-.02.21-.04.41-.04.6v.92c0,.2.02.4.05.61.03.21.08.41.15.61.06.2.15.39.25.57.1.18.22.34.36.47.14.14.31.24.49.33.19.08.4.12.63.12.14,0,.28,0,.42-.02.15-.01.3-.04.43-.09.14-.04.27-.1.39-.17.12-.07.22-.17.31-.29v-1.76s-1.58,0-1.58,0v-.84h2.54l.02,2.87Zm5.85-2.59h-3.27v2.77h3.81v.84h-4.8v-7.82h4.75v.85h-3.76v2.51h3.27v.84Zm7.58-3.36h-2.42v6.97h-.97v-6.97h-2.42v-.85h5.8v.85Zm3.11-.69l-.11,1.99h-.7v-1.9s0-.67,0-.67h.81v.58Zm1.92,0l-.11,1.99h-.69v-1.9s0-.67,0-.67h.81v.58Zm2.93,2.78v-1.03l4.74,2.03v.78l-4.74,2.04v-1.03l3.47-1.31.32-.09-.32-.1-3.47-1.29Zm14.44,1.32l-.28.09.28.1,3.29,1.27v1.05l-4.55-2.03v-.79l4.55-2.03v1.05l-3.29,1.29Zm6.67,4.23h-.89l3.27-8.49h.89l-3.26,8.49Zm6.78-.67v-5.04h-1.6v-.77h1.6v-.41c0-.37.05-.7.16-.98.11-.28.27-.52.46-.71.2-.19.44-.33.72-.43.28-.1.59-.15.94-.15.24,0,.46.02.69.06.23.04.46.09.69.15l-.12.82c-.15-.05-.32-.09-.52-.13-.19-.04-.4-.06-.62-.06-.46,0-.82.12-1.05.36-.23.23-.35.59-.35,1.06v.41h2.24v.77h-2.24v5.04h-1Zm4.84-2.96c0-.42.06-.81.18-1.17.12-.36.29-.68.52-.94.23-.26.51-.47.83-.62.33-.15.69-.23,1.1-.23s.78.08,1.11.23c.33.15.61.36.83.62.23.26.4.58.53.94.12.36.18.75.18,1.17v.12c0,.42-.06.81-.18,1.17-.12.36-.3.67-.53.94-.22.26-.5.47-.83.62-.33.15-.69.22-1.1.22s-.78-.08-1.11-.22c-.33-.15-.6-.36-.83-.62-.23-.26-.4-.58-.52-.94-.12-.36-.18-.75-.18-1.17v-.12Zm.99.12c0,.29.03.56.1.82.07.26.17.49.31.68.14.2.31.35.52.47.21.11.45.17.73.17s.51-.06.71-.17c.21-.11.38-.27.51-.47.14-.2.24-.43.31-.68.07-.26.1-.54.1-.82v-.12c0-.28-.04-.55-.11-.81-.07-.26-.17-.49-.31-.69-.14-.2-.31-.35-.52-.47-.2-.12-.44-.18-.72-.18s-.52.06-.72.18c-.2.11-.38.27-.52.47-.14.2-.24.43-.31.69-.07.26-.1.53-.1.81v.12Zm9.7-3.08c.09,0,.19,0,.29.01.1,0,.19.01.29.03.09,0,.18.02.25.04.08.02.14.04.19.06l-.14.97c-.19-.04-.38-.07-.55-.09-.17-.02-.35-.03-.54-.03-.47,0-.84.11-1.13.32-.29.21-.5.51-.63.89v3.73h-1v-5.81h.95l.05.92c.24-.32.52-.57.85-.75.33-.19.71-.28,1.13-.28Zm3.26.11l.03.55c.12-.2.27-.36.46-.48.19-.11.43-.17.7-.18.53,0,.89.21,1.07.62.11-.19.27-.33.45-.45.19-.11.42-.17.69-.18.43,0,.75.13.98.39.23.26.34.66.34,1.19v4.34h-.95v-4.35c0-.49-.22-.73-.67-.72-.12,0-.22.02-.31.05-.09.03-.16.08-.21.13-.06.05-.1.12-.13.19-.03.07-.05.15-.06.23v4.47h-.95v-4.36c0-.23-.05-.41-.15-.54s-.27-.19-.49-.18c-.21,0-.37.04-.48.12-.11.08-.2.19-.25.33v4.62h-.95v-5.81h.89Zm6.17.93v-1.03l4.74,2.03v.78l-4.74,2.04v-1.03l3.48-1.31.32-.09-.32-.1-3.48-1.29ZM31.18,84.44l-.28.09.28.1,3.29,1.27v1.05l-4.55-2.04v-.79l4.55-2.03v1.05l-3.29,1.29Zm9.22,2.02c0-.12-.02-.22-.07-.32-.05-.1-.13-.18-.24-.26-.11-.08-.26-.15-.44-.21-.18-.07-.41-.13-.68-.18-.33-.07-.64-.15-.91-.25-.27-.1-.51-.21-.7-.34-.19-.14-.34-.29-.45-.47-.11-.18-.16-.39-.16-.63s.06-.46.17-.66c.11-.21.27-.39.47-.54.2-.15.44-.28.71-.37.28-.09.59-.13.92-.13.36,0,.68.05.97.14.29.09.53.22.73.39.2.17.35.36.46.58.11.22.17.45.17.71h-.99c0-.12-.03-.25-.1-.36-.06-.12-.15-.23-.27-.32s-.25-.17-.42-.23c-.16-.06-.34-.09-.55-.09s-.4.02-.56.07c-.16.05-.29.11-.4.19-.1.08-.18.17-.24.27-.05.1-.08.21-.08.32s.02.22.06.31c.04.09.12.17.22.24.11.07.25.14.42.19.18.06.4.11.68.17.36.07.68.16.96.26.28.1.52.21.71.35.19.14.34.3.44.48.1.18.16.39.16.63,0,.26-.06.49-.18.7-.11.21-.28.39-.48.54-.21.15-.46.27-.75.35-.29.08-.61.12-.95.12-.39,0-.74-.05-1.05-.15-.31-.11-.57-.25-.78-.42-.21-.18-.37-.38-.49-.61-.11-.23-.17-.47-.17-.71h.99c.01.21.07.38.16.52.1.14.21.25.35.34.14.09.3.15.47.18.17.04.34.05.51.05.42,0,.75-.08.99-.23.24-.15.37-.36.37-.61Zm5.22.84c.18,0,.35-.03.52-.09.17-.06.32-.14.46-.24.13-.1.24-.22.32-.36.08-.14.12-.29.13-.45h.94c0,.26-.07.51-.2.74-.13.23-.3.44-.52.62-.22.18-.47.32-.75.43-.28.1-.58.15-.89.15-.44,0-.83-.08-1.16-.24-.33-.16-.61-.37-.83-.63-.22-.27-.38-.58-.49-.92-.11-.35-.17-.72-.17-1.11v-.23c0-.38.06-.75.17-1.1s.28-.66.49-.92c.22-.27.5-.48.83-.64.33-.16.71-.24,1.16-.24.34,0,.66.06.94.17.29.11.54.26.75.44.21.19.38.41.49.67.12.26.18.53.18.83h-.94c0-.18-.04-.34-.12-.49-.07-.16-.17-.29-.3-.41-.12-.12-.28-.21-.45-.28-.17-.07-.36-.1-.56-.1-.31,0-.57.06-.78.19-.21.12-.38.28-.5.48-.13.2-.22.42-.28.67-.05.25-.08.5-.08.75v.23c0,.25.03.51.08.76.06.25.15.47.27.67.13.2.3.36.5.48.21.12.47.18.78.18Zm7.94-5.22c.09,0,.19,0,.29.01.1,0,.19.01.29.03.09,0,.18.02.25.04.08.02.14.04.19.06l-.14.97c-.19-.04-.38-.07-.55-.09-.17-.02-.35-.03-.54-.03-.47,0-.84.11-1.13.32-.29.21-.5.51-.63.89v3.73h-1v-5.81h.95l.05.92c.24-.32.52-.57.85-.75.33-.19.71-.28,1.13-.28Zm2.95.11h2.97v4.95h1.9v.86h-4.87v-.86h1.98v-4.09h-1.98v-.86Zm1.85-1.53c0-.16.05-.3.15-.41.1-.12.25-.17.45-.17s.35.06.45.17c.1.11.15.25.15.41s-.05.29-.15.4c-.1.11-.25.16-.45.16s-.35-.05-.45-.16c-.1-.11-.15-.24-.15-.4Zm9.51,4.5c0,.42-.05.8-.15,1.17-.1.36-.25.67-.44.93-.19.26-.43.47-.72.62-.28.15-.61.22-.97.22s-.67-.06-.94-.17c-.27-.12-.5-.28-.69-.5v2.79h-.99v-8.05h.91l.05.63c.19-.24.43-.42.7-.55.28-.13.59-.19.96-.19s.7.07.99.22c.29.15.53.35.72.61.19.26.34.57.44.94.1.36.15.76.15,1.19v.11Zm-.99-.11c0-.28-.03-.55-.1-.81-.06-.26-.16-.48-.29-.68-.13-.2-.29-.35-.49-.47-.2-.11-.44-.17-.72-.17-.32,0-.59.08-.81.23-.22.15-.39.34-.52.57v2.8c.13.23.3.42.52.56.21.14.49.21.82.21.28,0,.51-.06.71-.17.2-.12.37-.28.5-.47.13-.2.22-.42.28-.68.07-.26.1-.53.1-.81v-.11Zm5.05-4.26v1.41h2.21v.77h-2.21v3.16c0,.22.03.41.09.56.06.15.14.26.24.35.1.09.21.15.34.18.13.04.27.05.42.05.11,0,.22,0,.33-.02.11-.01.23-.03.33-.05.11-.02.21-.04.31-.05.1-.02.18-.04.24-.05l.14.7c-.08.05-.18.1-.3.13-.12.04-.25.07-.39.09-.14.03-.29.05-.45.07-.15.01-.31.02-.46.02-.26,0-.5-.03-.72-.11-.22-.07-.42-.19-.58-.35-.16-.16-.29-.37-.39-.62-.09-.25-.14-.56-.14-.92v-3.16h-1.53v-.77h1.53v-1.41h1Zm-24.92,23.68c0-.12-.02-.22-.07-.32-.05-.1-.12-.18-.24-.26-.11-.08-.26-.15-.44-.21-.18-.07-.41-.13-.68-.18-.33-.07-.64-.15-.91-.25-.27-.1-.51-.21-.7-.34-.19-.14-.34-.29-.45-.47-.11-.18-.16-.39-.16-.63s.06-.46.17-.66c.11-.21.27-.39.47-.54.2-.15.44-.28.71-.37.28-.09.59-.13.92-.13.36,0,.68.05.97.14.29.09.53.22.73.39.2.17.35.36.46.58.11.22.17.45.17.71h-.99c0-.12-.03-.25-.1-.36-.06-.12-.15-.23-.27-.32s-.25-.17-.42-.23c-.16-.06-.34-.09-.55-.09s-.4.02-.56.07c-.16.05-.29.11-.4.19-.1.08-.18.17-.24.27-.05.1-.08.21-.08.32s.02.22.06.31c.04.09.12.17.22.24.11.07.25.14.42.19.18.06.4.11.68.17.36.07.68.16.96.26.28.1.52.21.71.35.19.14.34.3.44.48.1.18.16.39.16.63,0,.26-.06.49-.18.7-.11.21-.28.39-.48.54-.21.15-.46.27-.75.35s-.61.12-.95.12c-.39,0-.74-.05-1.05-.15-.31-.11-.57-.25-.78-.42-.21-.18-.37-.38-.49-.61-.11-.23-.17-.47-.17-.71h.99c.01.21.07.38.16.52.1.14.21.25.35.34.14.09.3.15.47.18.17.04.34.05.51.05.42,0,.75-.08.99-.23.24-.15.37-.36.37-.61Zm6.55-4.38c.09,0,.19,0,.29.01.1,0,.19.01.29.03.09,0,.18.02.25.04.08.02.14.04.19.06l-.14.97c-.19-.04-.38-.07-.55-.09-.17-.02-.35-.03-.54-.03-.47,0-.84.11-1.13.32-.29.21-.5.51-.63.89v3.73h-1v-5.81h.95l.05.92c.24-.32.52-.57.85-.75.33-.19.71-.28,1.13-.28Zm5.27,5.22c.18,0,.35-.03.52-.09.17-.06.32-.14.46-.24.13-.1.24-.22.32-.36.08-.14.12-.29.13-.45h.94c0,.26-.07.51-.2.74-.13.23-.3.44-.52.62-.22.18-.47.32-.75.43-.28.1-.58.15-.89.15-.44,0-.82-.08-1.15-.24-.33-.16-.61-.37-.83-.63-.22-.27-.38-.58-.49-.92-.11-.35-.17-.72-.17-1.11v-.23c0-.38.06-.75.17-1.1s.28-.66.49-.92c.22-.27.5-.48.83-.64.33-.16.71-.24,1.15-.24.34,0,.66.06.95.17.29.11.54.26.75.44.21.19.38.41.49.67.12.26.18.53.18.83h-.94c0-.18-.04-.34-.12-.49-.07-.16-.17-.29-.3-.41-.12-.12-.28-.21-.45-.28-.17-.07-.36-.1-.56-.1-.31,0-.57.06-.78.19-.21.12-.38.28-.5.48-.13.2-.22.42-.28.67-.05.25-.08.5-.08.75v.23c0,.25.03.51.08.76.06.25.15.47.27.67.13.2.3.36.51.48.21.12.47.18.78.18Zm8.92-3.49h-4.8v-.87h4.8v.87Zm0,2.23h-4.8v-.86h4.8v.86Zm3.59-5.7l-.11,1.99h-.7v-1.9s0-.67,0-.67h.81v.59Zm1.92,0l-.11,1.99h-.69v-1.9s0-.67,0-.67h.81v.59Zm3.9,2.72c.21-.3.46-.54.77-.71.31-.17.65-.26,1.03-.26.31,0,.58.05.83.13.25.09.46.22.64.41.17.19.31.42.4.71.1.28.15.62.15,1.01v3.66h-.99v-3.67c0-.48-.12-.83-.34-1.06-.23-.23-.55-.35-.97-.34-.32,0-.61.08-.87.24-.26.15-.47.36-.63.62v4.22h-.99v-8.25h.99v3.3Zm7.97-2.27v1.41h2.21v.77h-2.21v3.16c0,.22.03.41.09.56.06.15.14.26.24.35.1.09.21.15.34.18.13.04.27.05.42.05.11,0,.22,0,.33-.02.11-.01.22-.03.33-.05.11-.02.21-.04.31-.05.1-.02.18-.04.24-.05l.14.7c-.08.05-.18.1-.3.13-.12.04-.25.07-.39.09-.14.03-.29.05-.45.07-.15.01-.31.02-.46.02-.26,0-.5-.03-.73-.11-.22-.07-.42-.19-.58-.35-.16-.16-.29-.37-.39-.62-.09-.25-.14-.56-.14-.92v-3.16h-1.53v-.77h1.53v-1.41h1Zm6.61,0v1.41h2.21v.77h-2.21v3.16c0,.22.03.41.09.56.06.15.14.26.24.35.1.09.21.15.34.18.13.04.27.05.42.05.11,0,.22,0,.33-.02.12-.01.23-.03.33-.05.11-.02.21-.04.31-.05.1-.02.18-.04.24-.05l.14.7c-.08.05-.18.1-.3.13-.12.04-.25.07-.39.09-.14.03-.29.05-.45.07-.15.01-.31.02-.46.02-.26,0-.5-.03-.72-.11-.22-.07-.42-.19-.58-.35-.16-.16-.3-.37-.39-.62-.09-.25-.14-.56-.14-.92v-3.16h-1.53v-.77h1.53v-1.41h1Zm9.16,4.38c0,.42-.05.8-.15,1.17-.1.36-.25.67-.44.93-.19.26-.43.47-.72.62-.28.15-.61.22-.97.22s-.67-.06-.94-.17c-.27-.12-.5-.28-.69-.5v2.79h-.99v-8.05h.91l.05.63c.19-.24.43-.42.7-.55.28-.13.59-.19.96-.19s.7.07.99.22c.29.15.53.35.72.61.19.26.34.57.44.94.1.36.15.76.15,1.19v.11Zm-.99-.11c0-.28-.03-.55-.1-.81-.06-.26-.16-.48-.29-.68-.13-.2-.29-.35-.49-.47-.2-.11-.44-.17-.72-.17-.32,0-.59.08-.81.23-.22.15-.39.34-.52.57v2.8c.13.23.3.42.52.56.21.14.49.21.82.21.28,0,.51-.06.71-.17.2-.12.37-.28.49-.47.13-.2.22-.42.28-.68.07-.26.1-.53.1-.81v-.11Zm6.56,1.41c0-.12-.02-.22-.07-.32-.05-.1-.12-.18-.24-.26-.11-.08-.26-.15-.44-.21-.18-.07-.41-.13-.68-.18-.33-.07-.64-.15-.91-.25-.27-.1-.51-.21-.7-.34-.19-.14-.34-.29-.45-.47-.11-.18-.16-.39-.16-.63s.06-.46.17-.66c.11-.21.27-.39.47-.54.2-.15.44-.28.72-.37.28-.09.58-.13.92-.13.36,0,.68.05.97.14.29.09.53.22.73.39.2.17.36.36.46.58.11.22.17.45.17.71h-.99c0-.12-.03-.25-.1-.36-.07-.12-.15-.23-.27-.32s-.25-.17-.42-.23c-.16-.06-.34-.09-.55-.09s-.4.02-.56.07c-.16.05-.29.11-.4.19-.1.08-.18.17-.24.27s-.08.21-.08.32.02.22.07.31c.04.09.12.17.22.24.11.07.25.14.42.19.18.06.41.11.68.17.36.07.68.16.96.26.28.1.52.21.72.35.19.14.34.3.44.48.1.18.16.39.16.63,0,.26-.06.49-.18.7-.11.21-.28.39-.48.54-.21.15-.46.27-.75.35s-.61.12-.95.12c-.39,0-.74-.05-1.05-.15-.31-.11-.57-.25-.78-.42-.21-.18-.37-.38-.49-.61-.11-.23-.17-.47-.17-.71h.99c.01.21.07.38.16.52.1.14.21.25.35.34.14.09.3.15.47.18s.34.05.51.05c.42,0,.75-.08.99-.23.24-.15.37-.36.37-.61Zm4.74.9c0-.11.02-.21.05-.3.04-.09.09-.17.15-.24.06-.07.15-.13.24-.17.1-.04.21-.06.34-.06s.24.02.34.06c.1.04.18.1.25.17.07.07.12.15.15.24.03.09.05.19.05.3s-.02.2-.05.3c-.03.09-.08.17-.15.24-.06.07-.15.12-.25.16-.1.04-.21.06-.34.06s-.24-.02-.34-.06c-.1-.04-.18-.09-.24-.16-.07-.07-.11-.15-.15-.24-.03-.09-.05-.19-.05-.3Zm0-4.71c0-.11.02-.21.05-.3.04-.09.09-.17.15-.24.06-.07.15-.13.24-.17.1-.04.21-.06.34-.06s.24.02.34.06c.1.04.18.1.25.17.07.07.12.15.15.24.03.09.05.19.05.3s-.02.2-.05.3c-.03.09-.08.17-.15.24-.06.07-.15.12-.25.16-.1.04-.21.05-.34.05s-.24-.02-.34-.05c-.1-.04-.18-.09-.24-.16-.07-.07-.11-.15-.15-.24-.03-.09-.05-.19-.05-.3Zm5.92,6.02h-.89l3.27-8.49h.89l-3.26,8.49Zm6.61,0h-.89l3.26-8.49h.89l-3.26,8.49Zm5.45-8.92h2.97v7.39h1.9v.86h-4.87v-.86h1.98v-6.53h-1.98v-.87Zm6.17,5.29c0-.42.06-.81.18-1.17.12-.36.29-.68.52-.94.23-.26.51-.47.83-.62.32-.15.69-.23,1.1-.23s.78.08,1.11.23c.33.15.61.36.83.62.23.26.4.58.53.94.12.36.18.75.18,1.17v.12c0,.42-.06.81-.18,1.17s-.3.67-.53.93c-.23.26-.5.47-.83.62-.32.15-.69.22-1.1.22s-.78-.07-1.11-.22c-.33-.15-.6-.36-.83-.62-.23-.26-.4-.58-.52-.93s-.18-.75-.18-1.17v-.12Zm.99.12c0,.29.03.56.1.82.07.26.17.49.31.68.14.2.31.35.52.47.21.11.45.17.72.17s.51-.06.71-.17c.21-.12.38-.27.51-.47.14-.2.24-.42.31-.68.07-.26.1-.53.1-.82v-.12c0-.28-.04-.55-.11-.81-.07-.26-.17-.49-.31-.69-.14-.2-.31-.35-.52-.47-.2-.12-.44-.18-.72-.18s-.52.06-.72.18c-.2.11-.38.27-.52.47-.14.2-.24.43-.31.69-.07.26-.1.53-.1.81v.12Zm9.7-3.08c.09,0,.19,0,.29.01.1,0,.2.01.29.03.09,0,.18.02.25.04.08.02.14.04.19.06l-.13.97c-.19-.04-.38-.07-.55-.09-.17-.02-.35-.03-.54-.03-.47,0-.84.11-1.13.32-.29.21-.5.51-.63.89v3.73h-1v-5.81h.95l.05.92c.24-.32.52-.57.85-.75.33-.19.71-.28,1.13-.28Zm5.37,6.03c-.41,0-.78-.07-1.13-.21-.34-.14-.63-.33-.88-.59-.24-.25-.43-.55-.57-.89-.14-.34-.2-.72-.2-1.12v-.23c0-.47.07-.89.23-1.26.15-.37.35-.69.6-.94.25-.26.53-.46.85-.59.32-.14.64-.2.98-.2.42,0,.78.07,1.1.22.32.14.58.34.78.6.21.25.36.55.46.9.1.35.16.72.16,1.13v.45h-4.15c.01.26.06.51.15.75.09.23.22.44.38.61.16.17.35.31.57.41.22.1.47.15.74.15.35,0,.67-.07.95-.21.28-.14.5-.33.69-.57l.61.47c-.1.15-.22.29-.37.42-.14.13-.31.25-.5.36-.19.1-.4.19-.65.25-.24.06-.5.1-.78.1Zm-.13-5.21c-.2,0-.39.04-.57.11-.18.07-.34.18-.48.32-.14.14-.26.31-.36.52-.1.2-.17.44-.2.71h3.13v-.07c-.01-.19-.05-.38-.11-.57-.06-.19-.15-.36-.27-.51-.12-.15-.28-.27-.46-.36-.18-.09-.4-.14-.65-.14Zm4.62-.71l.03.55c.12-.2.27-.36.46-.48.19-.11.43-.17.7-.18.53,0,.89.21,1.07.62.11-.19.26-.33.45-.45.19-.11.42-.17.69-.18.43,0,.75.13.98.39.23.26.34.66.34,1.19v4.34h-.95v-4.35c0-.49-.22-.73-.67-.73-.12,0-.22.02-.31.05-.09.03-.16.08-.22.13-.06.05-.1.12-.13.19-.03.07-.05.15-.07.23v4.47h-.95v-4.36c0-.23-.05-.41-.16-.54-.1-.12-.27-.19-.49-.18-.21,0-.37.04-.48.12-.12.08-.2.19-.25.33v4.62h-.94v-5.81h.89Zm6.3,0h2.97v4.95h1.9v.86h-4.87v-.86h1.98v-4.09h-1.98v-.86Zm1.85-1.53c0-.16.05-.3.15-.41.1-.12.25-.17.45-.17s.35.06.45.17c.1.11.15.25.15.41s-.05.29-.15.4c-.1.11-.25.16-.45.16s-.35-.05-.45-.16c-.1-.11-.15-.24-.15-.4Zm9.51,4.5c0,.42-.05.8-.15,1.17-.1.36-.25.67-.44.93-.19.26-.43.47-.72.62-.28.15-.61.22-.97.22s-.67-.06-.94-.17c-.27-.12-.5-.28-.69-.5v2.79h-.99v-8.05h.91l.05.63c.19-.24.43-.42.7-.55.28-.13.59-.19.96-.19s.7.07.99.22c.29.15.53.35.72.61.19.26.34.57.44.94.1.36.15.76.15,1.19v.11Zm-.99-.11c0-.28-.03-.55-.1-.81-.06-.26-.16-.48-.29-.68-.13-.2-.29-.35-.49-.47-.2-.11-.44-.17-.72-.17-.32,0-.59.08-.81.23-.21.15-.39.34-.52.57v2.8c.13.23.3.42.52.56.22.14.49.21.82.21.28,0,.51-.06.71-.17.2-.12.37-.28.49-.47.13-.2.22-.42.28-.68.07-.26.1-.53.1-.81v-.11Zm6.56,1.41c0-.12-.02-.22-.07-.32-.05-.1-.12-.18-.24-.26-.11-.08-.26-.15-.44-.21-.18-.07-.41-.13-.68-.18-.33-.07-.64-.15-.91-.25-.27-.1-.51-.21-.7-.34-.19-.14-.34-.29-.45-.47-.11-.18-.16-.39-.16-.63s.06-.46.17-.66c.11-.21.27-.39.47-.54.2-.15.44-.28.71-.37.28-.09.59-.13.92-.13.36,0,.68.05.97.14.29.09.53.22.73.39.2.17.35.36.46.58.11.22.17.45.17.71h-.99c0-.12-.03-.25-.1-.36-.06-.12-.15-.23-.27-.32-.12-.09-.25-.17-.42-.23-.16-.06-.34-.09-.55-.09s-.4.02-.56.07c-.16.05-.29.11-.4.19-.1.08-.18.17-.24.27-.05.1-.08.21-.08.32s.02.22.07.31c.04.09.12.17.22.24.11.07.25.14.42.19.18.06.4.11.68.17.36.07.68.16.96.26.28.1.52.21.71.35.19.14.34.3.44.48.1.18.16.39.16.63,0,.26-.06.49-.18.7-.12.21-.28.39-.48.54-.21.15-.46.27-.75.35-.29.08-.61.12-.95.12-.39,0-.74-.05-1.05-.15-.31-.11-.57-.25-.78-.42-.21-.18-.37-.38-.49-.61-.11-.23-.17-.47-.17-.71h.99c.01.21.07.38.16.52.1.14.21.25.35.34.14.09.3.15.47.18.17.04.34.05.51.05.42,0,.75-.08.99-.23.24-.15.37-.36.37-.61Zm6.51.74c-.19.29-.43.51-.73.67-.29.16-.62.24-1,.24-.3,0-.58-.05-.83-.14-.25-.1-.46-.25-.63-.45-.18-.2-.31-.46-.41-.76-.09-.31-.14-.68-.14-1.12v-3.45h.99v3.46c0,.32.03.58.07.78.05.21.12.37.23.5.1.12.22.21.37.26.15.05.32.08.51.08.4,0,.73-.08.98-.25.25-.16.44-.39.56-.67v-4.17h1v5.81h-.9l-.06-.8Zm3.29-5.01l.03.55c.12-.2.27-.36.46-.48.19-.11.43-.17.7-.18.53,0,.89.21,1.07.62.11-.19.26-.33.45-.45.19-.11.42-.17.69-.18.43,0,.75.13.98.39.23.26.34.66.34,1.19v4.34h-.95v-4.35c0-.49-.22-.73-.67-.73-.12,0-.22.02-.31.05-.09.03-.16.08-.21.13-.06.05-.1.12-.13.19-.03.07-.05.15-.06.23v4.47h-.95v-4.36c0-.23-.05-.41-.16-.54-.1-.12-.27-.19-.49-.18-.21,0-.37.04-.48.12-.12.08-.2.19-.25.33v4.62h-.95v-5.81h.89Zm7.88,5.17c0-.11.02-.21.05-.3.04-.09.09-.17.15-.24.06-.07.15-.13.24-.17.1-.04.21-.06.34-.06s.24.02.34.06c.1.04.18.1.25.17.07.07.12.15.15.24.04.09.05.19.05.3s-.02.2-.05.3c-.03.09-.08.17-.15.24-.06.07-.15.12-.25.16-.1.04-.21.06-.34.06s-.24-.02-.34-.06c-.1-.04-.18-.09-.24-.16-.07-.07-.12-.15-.15-.24-.03-.09-.05-.19-.05-.3Zm7.35-.05c.18,0,.35-.03.52-.09.17-.06.32-.14.46-.24.13-.1.24-.22.32-.36.08-.14.12-.29.13-.45h.94c0,.26-.07.51-.2.74-.13.23-.3.44-.52.62-.22.18-.47.32-.75.43-.28.1-.58.15-.89.15-.44,0-.83-.08-1.15-.24-.33-.16-.61-.37-.83-.63-.22-.27-.38-.58-.49-.92-.11-.35-.17-.72-.17-1.11v-.23c0-.38.05-.75.17-1.1s.28-.66.49-.92c.22-.27.5-.48.83-.64.33-.16.71-.24,1.15-.24.34,0,.66.06.95.17.29.11.54.26.75.44.21.19.38.41.49.67.12.26.18.53.18.83h-.94c0-.18-.04-.34-.12-.49-.07-.16-.17-.29-.3-.41-.12-.12-.28-.21-.45-.28-.17-.07-.36-.1-.56-.1-.31,0-.57.06-.78.19-.21.12-.38.28-.5.48-.13.2-.22.42-.28.67-.05.25-.08.5-.08.75v.23c0,.25.03.51.08.76.06.25.15.47.27.67.13.2.3.36.51.48.21.12.47.18.78.18Zm3.85-2.26c0-.42.06-.81.18-1.17.12-.36.29-.68.52-.94.23-.26.51-.47.83-.62.33-.15.69-.23,1.1-.23s.78.08,1.11.23c.33.15.61.36.83.62.23.26.4.58.53.94.12.36.18.75.18,1.17v.12c0,.42-.06.81-.18,1.17-.12.36-.3.67-.53.93-.23.26-.5.47-.83.62-.33.15-.69.22-1.1.22s-.78-.07-1.11-.22c-.33-.15-.6-.36-.83-.62-.23-.26-.4-.58-.52-.93s-.18-.75-.18-1.17v-.12Zm.99.12c0,.29.03.56.1.82.07.26.17.49.31.68.14.2.31.35.52.47.21.11.45.17.73.17s.51-.06.71-.17c.21-.12.38-.27.52-.47.14-.2.24-.42.31-.68.07-.26.1-.53.1-.82v-.12c0-.28-.04-.55-.11-.81-.07-.26-.17-.49-.31-.69-.14-.2-.31-.35-.52-.47-.2-.12-.44-.18-.72-.18s-.52.06-.72.18c-.2.11-.38.27-.52.47-.14.2-.24.43-.31.69-.07.26-.1.53-.1.81v.12Zm6.35-2.97l.03.55c.12-.2.27-.36.46-.48.19-.11.43-.17.7-.18.53,0,.89.21,1.07.62.11-.19.26-.33.45-.45.19-.11.42-.17.69-.18.43,0,.75.13.98.39.23.26.34.66.34,1.19v4.34h-.95v-4.35c0-.49-.22-.73-.67-.73-.12,0-.22.02-.31.05-.09.03-.16.08-.22.13-.06.05-.1.12-.13.19-.03.07-.05.15-.07.23v4.47h-.95v-4.36c0-.23-.05-.41-.16-.54s-.27-.19-.49-.18c-.21,0-.37.04-.48.12-.12.08-.2.19-.25.33v4.62h-.94v-5.81h.89Zm7.46,6.48h-.89l3.27-8.49h.89l-3.26,8.49Zm9.11-.67c-.04-.07-.07-.17-.1-.28-.02-.11-.04-.23-.05-.35-.1.1-.21.2-.34.29-.12.09-.26.17-.41.24-.15.07-.3.12-.47.16-.17.04-.35.06-.54.06-.31,0-.59-.04-.84-.13-.25-.09-.46-.21-.63-.36-.17-.15-.31-.34-.4-.54-.09-.21-.14-.44-.14-.68,0-.32.06-.6.19-.84.13-.24.31-.44.54-.6.23-.16.51-.28.84-.36.33-.08.7-.12,1.1-.12h1.09v-.46c0-.18-.03-.33-.1-.47-.06-.14-.16-.26-.27-.35-.12-.1-.26-.18-.43-.23-.17-.05-.36-.08-.57-.08-.2,0-.38.03-.53.08-.15.05-.29.12-.39.2-.11.08-.19.18-.25.3-.06.11-.09.23-.09.35h-1c0-.21.06-.42.16-.62.11-.2.26-.39.46-.55.2-.16.44-.3.73-.4.29-.1.61-.15.97-.15.33,0,.64.04.92.12.28.08.53.2.73.37.21.16.37.36.49.61.12.24.18.53.18.85v2.7c0,.19.02.4.05.62.04.21.09.4.15.56v.09h-1.04Zm-1.76-.76c.19,0,.38-.02.54-.08.17-.05.32-.12.46-.2.14-.08.26-.18.36-.28.1-.11.18-.22.24-.33v-1.18h-.92c-.58,0-1.03.09-1.35.26-.32.17-.48.44-.48.81,0,.14.02.28.07.4.05.12.12.23.22.32.1.09.22.15.36.2.15.05.32.08.51.08Zm9.45-2.08c0,.42-.05.8-.15,1.17-.1.36-.25.67-.44.93-.19.26-.43.47-.72.62-.28.15-.61.22-.97.22s-.67-.06-.94-.17c-.27-.12-.5-.28-.69-.5v2.79h-.99v-8.05h.91l.05.63c.19-.24.43-.42.7-.55.28-.13.6-.19.96-.19s.7.07.99.22c.29.15.53.35.72.61.19.26.34.57.44.94.1.36.15.76.15,1.19v.11Zm-.99-.11c0-.28-.03-.55-.1-.81-.06-.26-.16-.48-.29-.68-.13-.2-.29-.35-.49-.47-.2-.11-.44-.17-.72-.17-.32,0-.59.08-.81.23-.21.15-.39.34-.52.57v2.8c.13.23.3.42.52.56.21.14.49.21.82.21.27,0,.51-.06.71-.17.2-.12.36-.28.49-.47.13-.2.22-.42.29-.68.06-.26.1-.53.1-.81v-.11Zm2.85-2.86h2.97v4.95h1.9v.86h-4.87v-.86h1.98v-4.09h-1.98v-.86Zm1.85-1.53c0-.16.05-.3.15-.41.1-.12.25-.17.45-.17s.35.06.45.17c.1.11.15.25.15.41s-.05.29-.15.4c-.1.11-.25.16-.45.16s-.35-.05-.45-.16c-.1-.11-.15-.24-.15-.4Zm6.33,6.69c0-.11.02-.21.05-.3.04-.09.09-.17.15-.24.07-.07.15-.13.24-.17.1-.04.21-.06.34-.06s.24.02.34.06c.1.04.18.1.25.17.07.07.12.15.15.24.04.09.05.19.05.3s-.02.2-.05.3c-.03.09-.08.17-.15.24-.06.07-.15.12-.25.16-.1.04-.21.06-.34.06s-.24-.02-.34-.06c-.1-.04-.18-.09-.24-.16-.06-.07-.11-.15-.15-.24-.03-.09-.05-.19-.05-.3Zm5.55-5.17h2.93v5.85c0,.37-.05.7-.16.99-.1.29-.25.53-.45.72-.19.2-.43.35-.71.44-.28.1-.6.16-.96.16-.2,0-.4,0-.57-.02-.18-.01-.36-.03-.56-.07l.07-.82c.06.01.14.02.23.03.09.01.19.02.28.02.1,0,.19.01.27.01.09,0,.16,0,.21,0,.19,0,.36-.02.53-.07.16-.05.31-.13.43-.24.12-.11.22-.27.29-.46.07-.19.11-.42.11-.69v-4.99h-1.94v-.86Zm1.8-1.53c0-.16.05-.3.15-.41.1-.12.25-.17.45-.17s.35.06.45.17c.1.11.15.25.15.41s-.05.3-.15.41c-.1.11-.25.16-.45.16s-.35-.05-.45-.16c-.1-.11-.15-.25-.15-.41Zm8,5.8c0-.12-.02-.22-.07-.32-.05-.1-.12-.18-.24-.26-.11-.08-.26-.15-.44-.21-.18-.07-.41-.13-.68-.18-.33-.07-.64-.15-.91-.25-.27-.1-.51-.21-.7-.34-.19-.14-.34-.29-.45-.47-.11-.18-.16-.39-.16-.63s.06-.46.17-.66c.11-.21.27-.39.47-.54.2-.15.44-.28.71-.37.28-.09.59-.13.92-.13.36,0,.68.05.97.14.29.09.53.22.73.39.2.17.36.36.46.58.11.22.17.45.17.71h-.99c0-.12-.03-.25-.1-.36-.06-.12-.15-.23-.27-.32-.11-.09-.26-.17-.42-.23-.16-.06-.34-.09-.55-.09s-.4.02-.56.07c-.16.05-.29.11-.4.19-.1.08-.18.17-.24.27-.05.1-.08.21-.08.32s.02.22.06.31c.04.09.12.17.22.24.11.07.25.14.42.19.18.06.4.11.68.17.36.07.68.16.96.26.28.1.52.21.71.35.19.14.34.3.44.48.1.18.16.39.16.63,0,.26-.06.49-.18.7-.11.21-.28.39-.48.54-.21.15-.46.27-.75.35s-.61.12-.95.12c-.39,0-.74-.05-1.05-.15-.31-.11-.57-.25-.78-.42-.21-.18-.37-.38-.49-.61-.11-.23-.17-.47-.17-.71h.99c.02.21.07.38.16.52.1.14.21.25.35.34.14.09.3.15.47.18.17.04.34.05.51.05.42,0,.75-.08.99-.23.24-.15.37-.36.37-.61Zm4.52-6.12l-.11,1.99h-.7v-1.9s0-.67,0-.67h.8v.59Zm1.92,0l-.11,1.99h-.69v-1.9s0-.67,0-.67h.81v.59Zm-228.5,22.71c0-.43.05-.83.16-1.19.11-.37.27-.68.47-.94.2-.26.45-.47.74-.61.29-.15.61-.22.96-.22s.65.06.91.18c.26.12.49.28.68.51v-3.01h.99v8.25h-.91l-.04-.61c-.19.24-.42.41-.69.54-.27.12-.58.18-.94.18s-.67-.07-.96-.22c-.28-.15-.52-.36-.73-.62-.2-.26-.36-.58-.47-.93-.11-.36-.17-.75-.17-1.17v-.11Zm.99.11c0,.28.03.55.09.81.06.25.15.48.28.67.13.19.29.35.49.46.2.11.43.17.71.17.17,0,.32-.02.46-.06.14-.04.26-.1.37-.17.11-.08.21-.16.29-.26.09-.1.16-.22.23-.34v-2.7c-.13-.24-.3-.43-.52-.58-.22-.15-.49-.23-.82-.23-.28,0-.52.06-.72.17-.2.12-.36.27-.49.47-.13.19-.22.42-.28.68-.06.25-.09.52-.09.81v.11Zm9.62,2.84c-.04-.07-.07-.17-.1-.28-.02-.11-.04-.23-.05-.35-.1.1-.21.2-.34.29-.12.09-.26.17-.41.24-.15.07-.3.12-.47.16-.17.04-.35.06-.54.06-.31,0-.59-.04-.84-.13-.25-.09-.46-.21-.63-.36-.17-.15-.31-.34-.4-.54-.09-.21-.14-.44-.14-.68,0-.32.06-.6.19-.84.13-.24.31-.44.54-.6.23-.16.51-.28.84-.36.33-.08.7-.12,1.1-.12h1.08v-.46c0-.18-.03-.33-.1-.47-.07-.14-.16-.26-.27-.35-.12-.1-.26-.18-.43-.23-.17-.05-.36-.08-.57-.08-.2,0-.38.03-.53.08-.15.05-.28.12-.39.2-.11.08-.19.18-.25.3-.06.11-.09.23-.09.35h-1c0-.21.06-.42.16-.62.11-.2.26-.39.46-.55.2-.16.44-.3.72-.4.29-.1.61-.15.97-.15.33,0,.64.04.92.12.28.08.53.2.73.37.21.16.37.36.49.61.12.24.18.53.18.85v2.7c0,.19.02.4.05.62.04.21.09.4.15.56v.09h-1.04Zm-1.76-.76c.19,0,.38-.02.54-.08.17-.05.32-.12.46-.2.14-.08.26-.18.36-.28.1-.11.18-.22.24-.33v-1.18h-.92c-.58,0-1.03.09-1.35.26-.32.17-.48.44-.48.81,0,.14.02.28.07.4.05.12.12.23.22.32.1.09.22.15.36.2.15.05.32.08.51.08Zm6.9-6.46v1.41h2.21v.77h-2.21v3.16c0,.22.03.41.09.56.06.15.14.26.24.35.1.09.21.15.34.18.13.04.27.05.42.05.11,0,.22,0,.33-.02.11-.01.23-.03.33-.05.11-.02.21-.04.31-.05.1-.02.18-.04.24-.05l.14.7c-.08.05-.18.1-.3.13-.12.04-.25.07-.39.09-.14.03-.29.05-.44.07-.15.01-.31.02-.46.02-.26,0-.5-.03-.73-.11-.22-.07-.42-.19-.58-.35-.17-.16-.3-.37-.39-.62-.09-.25-.14-.56-.14-.92v-3.16h-1.53v-.77h1.53v-1.41h1Zm8.07,7.22c-.04-.07-.07-.17-.1-.28-.02-.11-.04-.23-.05-.35-.1.1-.21.2-.34.29-.12.09-.26.17-.41.24-.15.07-.3.12-.47.16-.17.04-.35.06-.54.06-.31,0-.59-.04-.84-.13-.25-.09-.46-.21-.63-.36-.17-.15-.31-.34-.4-.54-.09-.21-.14-.44-.14-.68,0-.32.06-.6.19-.84.13-.24.31-.44.54-.6.23-.16.51-.28.84-.36.33-.08.7-.12,1.1-.12h1.08v-.46c0-.18-.03-.33-.1-.47-.07-.14-.16-.26-.27-.35-.12-.1-.26-.18-.43-.23-.17-.05-.36-.08-.57-.08-.2,0-.38.03-.53.08-.15.05-.29.12-.39.2-.11.08-.19.18-.25.3-.06.11-.09.23-.09.35h-1c0-.21.06-.42.16-.62.11-.2.26-.39.46-.55.2-.16.44-.3.72-.4.29-.1.61-.15.97-.15.33,0,.64.04.92.12.28.08.53.2.73.37.21.16.37.36.49.61.12.24.18.53.18.85v2.7c0,.19.02.4.05.62.04.21.09.4.15.56v.09h-1.04Zm-1.76-.76c.19,0,.37-.02.54-.08.17-.05.32-.12.46-.2.14-.08.26-.18.36-.28.1-.11.18-.22.24-.33v-1.18h-.92c-.58,0-1.03.09-1.35.26s-.48.44-.48.81c0,.14.02.28.07.4.05.12.12.23.22.32.1.09.22.15.36.2.15.05.32.08.51.08Zm8.89-2.26h-4.11v-.82h4.11v.82Zm4.74,2.32c.18,0,.35-.03.52-.09.17-.06.32-.14.46-.24.13-.1.24-.22.32-.36.08-.14.13-.29.13-.45h.94c0,.26-.07.51-.2.74-.13.23-.3.44-.52.62-.22.18-.47.32-.75.43-.28.1-.58.15-.89.15-.44,0-.83-.08-1.15-.24-.33-.16-.61-.37-.83-.63-.22-.27-.38-.58-.49-.92-.11-.35-.17-.72-.17-1.11v-.23c0-.38.06-.75.17-1.1.11-.35.28-.66.49-.92.22-.27.5-.48.83-.64.33-.16.71-.24,1.15-.24.34,0,.66.06.94.17.29.11.54.26.75.44.21.19.38.41.49.67.12.26.18.53.18.83h-.94c0-.18-.04-.34-.12-.49-.07-.16-.17-.29-.29-.41-.13-.12-.28-.21-.45-.28-.17-.07-.36-.1-.56-.1-.31,0-.57.06-.78.19-.21.12-.38.28-.51.48-.13.2-.22.42-.28.67-.05.25-.08.5-.08.75v.23c0,.25.03.51.08.76.06.25.15.47.27.67.13.2.3.36.5.48.21.12.47.18.78.18Zm4.29-7.55h2.97v7.39h1.9v.86h-4.87v-.86h1.98v-6.53h-1.98v-.87Zm6.61,2.44h2.97v4.95h1.9v.86h-4.87v-.86h1.98v-4.09h-1.98v-.86Zm1.85-1.53c0-.16.05-.3.15-.41.1-.12.25-.17.45-.17s.35.06.45.17c.1.11.15.25.15.41s-.05.29-.15.4c-.1.11-.25.16-.45.16s-.35-.05-.45-.16c-.1-.11-.15-.24-.15-.4Zm7.17,7.44c-.41,0-.78-.07-1.13-.21-.34-.14-.63-.33-.88-.59-.24-.25-.43-.55-.57-.89-.14-.34-.2-.72-.2-1.12v-.23c0-.47.08-.89.23-1.26.15-.37.35-.69.6-.94.25-.26.53-.46.85-.59.32-.14.64-.2.98-.2.42,0,.78.07,1.1.22.32.14.58.34.78.6.21.25.36.55.46.9.1.35.16.72.16,1.13v.45h-4.15c.01.26.06.51.15.75.09.23.22.44.38.61.16.17.35.31.57.41.22.1.47.15.74.15.36,0,.67-.07.95-.21.28-.14.51-.33.69-.57l.61.47c-.1.15-.22.29-.37.42-.14.13-.31.25-.5.36-.19.1-.4.19-.64.25-.24.06-.5.1-.79.1Zm-.13-5.21c-.2,0-.39.04-.57.11-.18.07-.34.18-.48.32-.14.14-.26.31-.36.52-.1.2-.17.44-.21.71h3.13v-.07c0-.19-.05-.38-.11-.57-.06-.19-.15-.36-.27-.51-.12-.15-.28-.27-.46-.36-.18-.09-.4-.14-.65-.14Zm5.06-.71l.07.86c.21-.3.47-.54.78-.7.31-.17.65-.26,1.03-.26.3,0,.58.04.83.13.25.09.46.22.64.4.18.18.31.41.4.7.1.28.15.61.15,1v3.69h-.99v-3.67c0-.26-.03-.48-.09-.66-.06-.18-.14-.32-.26-.43-.11-.11-.25-.19-.41-.24-.16-.05-.35-.08-.56-.08-.33,0-.63.08-.88.25-.25.16-.45.38-.6.65v4.17h-.99v-5.81h.89Zm8.07-1.41v1.41h2.21v.77h-2.21v3.16c0,.22.03.41.09.56.06.15.14.26.24.35.1.09.22.15.34.18.13.04.27.05.42.05.11,0,.22,0,.33-.02.12-.01.23-.03.33-.05.11-.02.21-.04.31-.05.1-.02.18-.04.24-.05l.14.7c-.08.05-.18.1-.3.13-.12.04-.25.07-.39.09-.14.03-.29.05-.45.07-.15.01-.31.02-.46.02-.26,0-.5-.03-.72-.11-.22-.07-.42-.19-.58-.35-.16-.16-.29-.37-.39-.62-.09-.25-.14-.56-.14-.92v-3.16h-1.53v-.77h1.53v-1.41h1Zm8.6,4.21h-4.11v-.82h4.11v.82Zm3.15-2.8l.07.86c.21-.3.47-.54.78-.7.31-.17.65-.26,1.03-.26.31,0,.58.04.83.13.25.09.46.22.64.4.18.18.31.41.4.7.1.28.15.61.15,1v3.69h-.99v-3.67c0-.26-.03-.48-.09-.66-.06-.18-.14-.32-.26-.43-.11-.11-.25-.19-.41-.24-.16-.05-.35-.08-.56-.08-.33,0-.63.08-.88.25-.25.16-.45.38-.6.65v4.17h-.99v-5.81h.89Zm9.53,5.81c-.04-.07-.07-.17-.1-.28-.02-.11-.04-.23-.05-.35-.1.1-.21.2-.34.29-.12.09-.26.17-.41.24-.15.07-.3.12-.47.16-.17.04-.35.06-.54.06-.31,0-.59-.04-.84-.13-.25-.09-.46-.21-.63-.36-.17-.15-.31-.34-.4-.54-.09-.21-.14-.44-.14-.68,0-.32.06-.6.19-.84.13-.24.31-.44.54-.6.23-.16.51-.28.84-.36.33-.08.7-.12,1.1-.12h1.08v-.46c0-.18-.03-.33-.1-.47-.06-.14-.15-.26-.27-.35-.12-.1-.26-.18-.43-.23-.17-.05-.36-.08-.57-.08-.2,0-.37.03-.53.08-.15.05-.28.12-.39.2-.11.08-.19.18-.25.3-.06.11-.09.23-.09.35h-1c0-.21.06-.42.16-.62.11-.2.26-.39.46-.55.2-.16.44-.3.73-.4.29-.1.61-.15.97-.15.33,0,.64.04.92.12.28.08.53.2.73.37.21.16.37.36.49.61.12.24.18.53.18.85v2.7c0,.19.02.4.05.62.04.21.09.4.15.56v.09h-1.04Zm-1.76-.76c.19,0,.37-.02.54-.08.17-.05.32-.12.46-.2.14-.08.26-.18.36-.28.1-.11.18-.22.24-.33v-1.18h-.92c-.58,0-1.03.09-1.35.26-.32.17-.48.44-.48.81,0,.14.02.28.07.4.05.12.12.23.22.32.1.09.22.15.36.2.15.05.32.08.51.08Zm5-5.05l.03.55c.12-.2.27-.36.46-.48.19-.11.43-.17.7-.18.53,0,.89.21,1.07.62.11-.19.26-.33.45-.45.19-.11.42-.17.69-.18.43,0,.75.13.98.39.23.26.34.66.34,1.19v4.34h-.95v-4.35c0-.49-.22-.73-.67-.73-.12,0-.22.02-.31.05-.09.03-.16.08-.22.13-.06.05-.1.12-.13.19-.03.07-.05.15-.06.23v4.47h-.95v-4.36c0-.23-.05-.41-.16-.54-.1-.12-.27-.19-.49-.18-.21,0-.37.04-.48.12-.11.08-.2.19-.25.33v4.62h-.94v-5.81h.89Zm8.72,5.92c-.41,0-.79-.07-1.13-.21-.34-.14-.63-.33-.88-.59-.24-.25-.43-.55-.57-.89-.14-.34-.2-.72-.2-1.12v-.23c0-.47.07-.89.22-1.26.15-.37.35-.69.6-.94.25-.26.53-.46.85-.59.32-.14.65-.2.98-.2.42,0,.78.07,1.1.22.32.14.58.34.78.6.21.25.36.55.46.9.1.35.16.72.16,1.13v.45h-4.15c.01.26.06.51.15.75.09.23.22.44.38.61.16.17.35.31.57.41.22.1.47.15.74.15.35,0,.67-.07.95-.21.27-.14.5-.33.69-.57l.61.47c-.1.15-.22.29-.36.42-.14.13-.31.25-.5.36-.19.1-.4.19-.64.25-.24.06-.5.1-.78.1Zm-.13-5.21c-.2,0-.39.04-.57.11-.18.07-.34.18-.48.32-.14.14-.26.31-.37.52-.1.2-.16.44-.2.71h3.13v-.07c-.01-.19-.05-.38-.11-.57-.06-.19-.15-.36-.27-.51-.12-.15-.28-.27-.46-.36-.18-.09-.4-.14-.65-.14Zm8.96.91h-4.8v-.87h4.8v.87Zm0,2.23h-4.8v-.86h4.8v.86Zm3.59-5.7l-.11,1.99h-.7v-1.9s0-.67,0-.67h.81v.59Zm1.92,0l-.11,1.99h-.69v-1.9s0-.67,0-.67h.81v.59Zm5.22,3.77l1.78-3.93h1.13l-2.43,4.9-.02,2.92h-.92l-.02-2.92-2.43-4.9h1.13l1.78,3.93Zm4.02.93c0-.42.06-.81.18-1.17.12-.36.3-.68.52-.94.23-.26.51-.47.83-.62.33-.15.69-.23,1.1-.23s.78.08,1.11.23c.33.15.61.36.83.62.23.26.4.58.53.94.12.36.18.75.18,1.17v.12c0,.42-.06.81-.18,1.17-.12.36-.3.67-.53.93-.23.26-.5.47-.83.62-.33.15-.69.22-1.1.22s-.78-.07-1.11-.22c-.33-.15-.6-.36-.83-.62-.22-.26-.4-.58-.52-.93-.12-.36-.18-.75-.18-1.17v-.12Zm.99.12c0,.29.03.56.1.82.07.26.17.49.31.68.14.2.31.35.52.47.21.11.45.17.73.17s.51-.06.71-.17c.21-.12.38-.27.52-.47.14-.2.24-.42.31-.68.07-.26.1-.53.1-.82v-.12c0-.28-.04-.55-.11-.81-.07-.26-.17-.49-.31-.69-.14-.2-.31-.35-.51-.47-.21-.12-.44-.18-.72-.18s-.52.06-.72.18c-.2.11-.38.27-.52.47-.14.2-.24.43-.31.69-.07.26-.1.53-.1.81v.12Zm9.66,2.04c-.19.29-.43.51-.72.67-.29.16-.62.24-1.01.24-.3,0-.58-.05-.83-.14-.25-.1-.46-.25-.63-.45-.18-.2-.31-.46-.41-.76-.09-.31-.14-.68-.14-1.12v-3.45h.99v3.46c0,.32.02.58.07.78.05.21.13.37.23.5.1.12.22.21.37.26.15.05.32.08.51.08.4,0,.73-.08.98-.25.25-.16.44-.39.56-.67v-4.17h1v5.81h-.9l-.06-.8Zm6.64-5.12c.09,0,.19,0,.29.01.1,0,.19.01.29.03.09,0,.18.02.25.04.08.02.14.04.19.06l-.13.97c-.19-.04-.38-.07-.55-.09-.17-.02-.35-.03-.54-.03-.46,0-.84.11-1.13.32-.29.21-.5.51-.63.89v3.73h-1v-5.81h.95l.05.92c.24-.32.52-.57.85-.75.33-.19.71-.28,1.13-.28Zm14.47,3.57c-.05.36-.14.69-.28,1-.14.3-.32.56-.55.78-.22.21-.49.38-.79.5-.31.12-.65.18-1.02.18-.32,0-.62-.04-.88-.13-.26-.09-.5-.22-.7-.38-.21-.16-.38-.35-.53-.57-.15-.22-.27-.46-.37-.71-.1-.26-.17-.53-.22-.81-.05-.28-.07-.57-.08-.86v-1.09c0-.29.03-.58.08-.86.05-.28.12-.55.22-.81.1-.26.22-.5.37-.71.15-.22.33-.41.53-.57.21-.16.44-.29.7-.38.26-.09.56-.14.88-.14.39,0,.74.06,1.05.18.31.12.57.29.79.51.22.22.4.48.53.79.14.31.23.65.27,1.02h-.99c-.03-.24-.09-.46-.17-.66-.08-.2-.18-.38-.32-.54-.13-.15-.3-.27-.49-.36-.19-.09-.42-.14-.68-.14-.24,0-.45.04-.63.12-.18.08-.34.18-.47.31-.13.13-.24.29-.33.46-.09.18-.16.36-.21.56-.05.2-.09.4-.12.61-.02.21-.03.4-.03.6v1.1c0,.19.01.39.03.6.03.2.07.41.12.61.05.2.12.38.21.56.09.18.19.33.33.47.13.13.29.24.47.32.18.08.39.11.63.11.26,0,.49-.04.68-.12.19-.08.36-.2.49-.34.13-.15.24-.32.32-.53.08-.2.13-.42.17-.66h.99Zm1.26-.61c0-.42.06-.81.18-1.17.12-.36.3-.68.52-.94.23-.26.51-.47.83-.62.33-.15.69-.23,1.1-.23s.78.08,1.11.23c.33.15.61.36.83.62.23.26.4.58.53.94.12.36.18.75.18,1.17v.12c0,.42-.06.81-.18,1.17-.12.36-.3.67-.53.93-.23.26-.5.47-.83.62-.33.15-.69.22-1.1.22s-.78-.07-1.11-.22c-.33-.15-.6-.36-.83-.62-.23-.26-.4-.58-.52-.93-.12-.36-.18-.75-.18-1.17v-.12Zm.99.12c0,.29.03.56.1.82.07.26.17.49.31.68.14.2.31.35.52.47.21.11.45.17.73.17s.51-.06.71-.17c.21-.12.38-.27.52-.47.14-.2.24-.42.31-.68.07-.26.1-.53.1-.82v-.12c0-.28-.04-.55-.11-.81-.07-.26-.17-.49-.31-.69-.14-.2-.31-.35-.52-.47-.2-.12-.44-.18-.72-.18s-.52.06-.72.18c-.2.11-.38.27-.51.47-.14.2-.24.43-.31.69-.07.26-.1.53-.1.81v.12Zm6.35-2.97l.03.55c.12-.2.27-.36.46-.48.19-.11.43-.17.7-.18.53,0,.89.21,1.07.62.11-.19.27-.33.45-.45.19-.11.42-.17.69-.18.43,0,.75.13.98.39.23.26.34.66.34,1.19v4.34h-.95v-4.35c0-.49-.22-.73-.67-.73-.12,0-.22.02-.31.05-.08.03-.16.08-.21.13-.06.05-.1.12-.14.19-.03.07-.05.15-.06.23v4.47h-.95v-4.36c0-.23-.05-.41-.16-.54s-.27-.19-.49-.18c-.21,0-.37.04-.48.12-.11.08-.2.19-.25.33v4.62h-.95v-5.81h.89Zm11.05,2.97c0,.42-.05.8-.15,1.17-.1.36-.25.67-.44.93s-.43.47-.72.62c-.28.15-.61.22-.97.22s-.67-.06-.94-.17c-.27-.12-.5-.28-.69-.5v2.79h-.99v-8.05h.91l.05.63c.19-.24.43-.42.7-.55.28-.13.59-.19.96-.19s.7.07.99.22c.29.15.53.35.72.61.19.26.34.57.44.94.1.36.15.76.15,1.19v.11Zm-.99-.11c0-.28-.03-.55-.1-.81-.06-.26-.16-.48-.29-.68-.13-.2-.29-.35-.49-.47-.2-.11-.44-.17-.72-.17-.32,0-.59.08-.81.23-.21.15-.39.34-.52.57v2.8c.13.23.3.42.52.56.21.14.49.21.82.21.28,0,.51-.06.72-.17.2-.12.36-.28.49-.47.13-.2.22-.42.29-.68.06-.26.1-.53.1-.81v-.11Zm6.51,2.95c-.04-.07-.07-.17-.1-.28-.02-.11-.04-.23-.05-.35-.1.1-.21.2-.34.29-.12.09-.26.17-.41.24-.15.07-.3.12-.47.16-.17.04-.35.06-.54.06-.31,0-.59-.04-.84-.13-.25-.09-.46-.21-.63-.36-.17-.15-.31-.34-.4-.54-.09-.21-.14-.44-.14-.68,0-.32.06-.6.19-.84.13-.24.31-.44.54-.6.23-.16.51-.28.84-.36.33-.08.7-.12,1.1-.12h1.08v-.46c0-.18-.03-.33-.1-.47-.07-.14-.16-.26-.27-.35-.12-.1-.26-.18-.43-.23-.17-.05-.36-.08-.57-.08-.2,0-.37.03-.53.08-.15.05-.28.12-.39.2-.11.08-.19.18-.25.3-.06.11-.09.23-.09.35h-1c0-.21.06-.42.16-.62.11-.2.26-.39.46-.55.2-.16.44-.3.72-.4.29-.1.61-.15.97-.15.33,0,.64.04.92.12.28.08.53.2.73.37.21.16.37.36.49.61.12.24.18.53.18.85v2.7c0,.19.02.4.05.62.04.21.09.4.15.56v.09h-1.04Zm-1.76-.76c.19,0,.37-.02.54-.08.17-.05.32-.12.46-.2.14-.08.26-.18.36-.28.1-.11.18-.22.24-.33v-1.18h-.92c-.58,0-1.03.09-1.35.26-.32.17-.48.44-.48.81,0,.14.02.28.07.4.05.12.12.23.22.32.1.09.22.15.37.2.15.05.32.08.51.08Zm5.44-5.05l.07.86c.21-.3.47-.54.78-.7.31-.17.65-.26,1.03-.26.31,0,.58.04.83.13.25.09.46.22.64.4.17.18.31.41.4.7.1.28.14.61.14,1v3.69h-.99v-3.67c0-.26-.03-.48-.09-.66-.06-.18-.14-.32-.26-.43-.11-.11-.25-.19-.41-.24-.16-.05-.35-.08-.56-.08-.33,0-.63.08-.88.25-.25.16-.45.38-.6.65v4.17h-.99v-5.81h.89Zm7.85,3.75l.26.7,1.77-4.45h1.11l-2.95,6.71c-.07.15-.15.31-.26.48-.1.17-.23.32-.38.47-.15.14-.33.26-.53.36-.2.1-.43.15-.69.15-.05,0-.1,0-.16-.01-.06,0-.11,0-.17-.02-.06,0-.11-.02-.16-.03-.05-.01-.09-.02-.12-.03l.16-.81s.06,0,.1,0c.04,0,.09,0,.13.01.05,0,.09,0,.13,0,.04,0,.08,0,.1,0,.14,0,.26-.04.37-.11.11-.07.21-.16.3-.27.09-.1.16-.21.23-.32.07-.11.11-.2.15-.27l.4-.77-2.5-5.54h1.11l1.6,3.75Zm7.04-5.59l-.11,1.98h-.74v-1.89s0-.68,0-.68h.85v.6Zm7.89,6.11c0-.12-.02-.22-.07-.32-.05-.1-.12-.18-.24-.26-.11-.08-.26-.15-.44-.21-.18-.07-.41-.13-.68-.18-.33-.07-.64-.15-.91-.25-.27-.1-.51-.21-.7-.34-.19-.14-.34-.29-.45-.47-.11-.18-.16-.39-.16-.63s.06-.46.17-.66c.11-.21.27-.39.47-.54.2-.15.44-.28.71-.37.28-.09.58-.13.92-.13.36,0,.68.05.97.14.29.09.53.22.73.39.2.17.36.36.46.58.11.22.17.45.17.71h-.99c0-.12-.03-.25-.1-.36-.06-.12-.15-.23-.27-.32-.12-.09-.25-.17-.42-.23-.16-.06-.34-.09-.55-.09s-.4.02-.56.07c-.16.05-.29.11-.4.19-.1.08-.18.17-.24.27-.05.1-.08.21-.08.32s.02.22.06.31c.04.09.12.17.22.24.11.07.25.14.42.19.18.06.4.11.68.17.36.07.68.16.96.26.28.1.52.21.71.35.19.14.34.3.44.48.1.18.16.39.16.63,0,.26-.06.49-.18.7-.11.21-.27.39-.48.54-.21.15-.46.27-.75.35-.29.08-.61.12-.95.12-.39,0-.74-.05-1.05-.15-.31-.11-.57-.25-.78-.42-.21-.18-.37-.38-.49-.61-.11-.23-.17-.47-.17-.71h.99c.01.21.07.38.16.52.1.14.21.25.36.34.14.09.3.15.47.18.17.04.34.05.51.05.42,0,.75-.08.99-.23.24-.15.37-.36.37-.61Zm14.25,1.54h-1.01l-3.04-5.84-.02,5.84h-1v-7.82h1.01l3.04,5.83.02-5.83h1.01v7.82Zm5.53,0c-.04-.07-.07-.17-.1-.28-.02-.11-.04-.23-.05-.35-.1.1-.21.2-.34.29-.12.09-.26.17-.41.24-.15.07-.3.12-.47.16-.17.04-.35.06-.54.06-.31,0-.59-.04-.84-.13-.25-.09-.46-.21-.63-.36-.17-.15-.31-.34-.4-.54-.09-.21-.14-.44-.14-.68,0-.32.06-.6.19-.84.13-.24.31-.44.54-.6.23-.16.51-.28.84-.36.33-.08.7-.12,1.1-.12h1.09v-.46c0-.18-.03-.33-.1-.47-.07-.14-.16-.26-.27-.35-.12-.1-.26-.18-.43-.23-.17-.05-.36-.08-.57-.08-.2,0-.37.03-.53.08-.15.05-.29.12-.39.2-.11.08-.19.18-.25.3-.06.11-.09.23-.09.35h-1c0-.21.06-.42.16-.62.11-.2.26-.39.46-.55.2-.16.44-.3.73-.4.29-.1.61-.15.97-.15.33,0,.64.04.92.12.28.08.53.2.73.37.21.16.37.36.49.61.12.24.18.53.18.85v2.7c0,.19.02.4.05.62.04.21.09.4.15.56v.09h-1.04Zm-1.76-.76c.19,0,.37-.02.54-.08.17-.05.32-.12.46-.2.14-.08.26-.18.36-.28.1-.11.18-.22.24-.33v-1.18h-.92c-.58,0-1.03.09-1.35.26s-.48.44-.48.81c0,.14.02.28.07.4.05.12.12.23.22.32.1.09.22.15.36.2.15.05.32.08.51.08Zm5-5.05l.03.55c.12-.2.27-.36.46-.48.19-.11.43-.17.7-.18.53,0,.89.21,1.07.62.12-.19.27-.33.45-.45.19-.11.42-.17.69-.18.43,0,.75.13.98.39.23.26.34.66.34,1.19v4.34h-.95v-4.35c0-.49-.22-.73-.67-.73-.12,0-.22.02-.31.05-.09.03-.16.08-.21.13-.06.05-.1.12-.13.19-.03.07-.05.15-.07.23v4.47h-.94v-4.36c0-.23-.05-.41-.16-.54s-.27-.19-.49-.18c-.21,0-.37.04-.48.12-.11.08-.2.19-.25.33v4.62h-.95v-5.81h.89Zm8.72,5.92c-.41,0-.78-.07-1.13-.21-.34-.14-.63-.33-.88-.59-.24-.25-.43-.55-.57-.89-.14-.34-.2-.72-.2-1.12v-.23c0-.47.08-.89.23-1.26.15-.37.35-.69.6-.94.25-.26.53-.46.85-.59.32-.14.64-.2.98-.2.42,0,.78.07,1.1.22.32.14.58.34.78.6.21.25.36.55.46.9.1.35.16.72.16,1.13v.45h-4.15c0,.26.06.51.15.75.09.23.22.44.38.61.16.17.35.31.57.41.22.1.47.15.74.15.35,0,.67-.07.94-.21.28-.14.51-.33.69-.57l.61.47c-.1.15-.22.29-.36.42-.14.13-.31.25-.5.36-.19.1-.4.19-.65.25-.24.06-.5.1-.78.1Zm-.13-5.21c-.2,0-.39.04-.57.11-.18.07-.34.18-.48.32-.14.14-.26.31-.36.52-.1.2-.17.44-.2.71h3.13v-.07c-.01-.19-.05-.38-.11-.57-.06-.19-.15-.36-.27-.51-.12-.15-.28-.27-.46-.36-.18-.09-.4-.14-.65-.14Zm5.95-2.56l-.11,1.99h-.7v-1.9s0-.67,0-.67h.81v.59Zm1.92,0l-.11,1.99h-.69v-1.9s0-.67,0-.67h.81v.59Zm-248.32,22.71c0-.43.05-.83.16-1.19.11-.37.27-.68.47-.94.2-.26.45-.47.74-.61.29-.15.61-.22.96-.22s.65.06.91.18c.26.12.49.28.68.51v-3.01h.99v8.25h-.91l-.04-.61c-.19.24-.42.41-.69.54-.27.12-.58.18-.94.18s-.67-.07-.96-.22c-.28-.15-.52-.36-.73-.62-.2-.26-.36-.58-.47-.93-.11-.36-.17-.75-.17-1.17v-.11Zm.99.11c0,.28.03.55.09.81.06.25.15.48.28.67.13.19.29.35.49.46.2.11.43.17.71.17.17,0,.32-.02.46-.06.14-.04.26-.1.37-.17.11-.08.21-.16.29-.26.09-.1.16-.22.23-.34v-2.7c-.13-.24-.3-.43-.52-.58-.22-.15-.49-.23-.82-.23-.28,0-.52.06-.72.17-.2.12-.36.27-.49.47-.13.19-.22.42-.28.68-.06.25-.09.52-.09.81v.11Zm9.62,2.84c-.04-.07-.07-.17-.1-.28-.02-.11-.04-.23-.05-.35-.1.1-.21.2-.34.29-.12.09-.26.17-.41.24-.15.07-.3.12-.47.16-.17.04-.35.06-.54.06-.31,0-.59-.04-.84-.13-.25-.09-.46-.21-.63-.36-.17-.15-.31-.34-.4-.54-.09-.21-.14-.44-.14-.68,0-.32.06-.6.19-.84.13-.24.31-.44.54-.6.23-.16.51-.28.84-.36.33-.08.7-.12,1.1-.12h1.08v-.46c0-.18-.03-.33-.1-.47-.07-.14-.16-.26-.27-.35-.12-.1-.26-.18-.43-.23-.17-.05-.36-.08-.57-.08-.2,0-.38.03-.53.08-.15.05-.28.12-.39.2-.11.08-.19.18-.25.3-.06.11-.09.23-.09.35h-1c0-.21.06-.42.16-.62.11-.2.26-.39.46-.55.2-.16.44-.3.72-.4.29-.1.61-.15.97-.15.33,0,.64.04.92.12.28.08.53.2.73.37.21.16.37.36.49.61.12.24.18.53.18.85v2.7c0,.19.02.4.05.62.04.21.09.4.15.56v.09h-1.04Zm-1.76-.76c.19,0,.38-.02.54-.08.17-.05.32-.12.46-.2.14-.08.26-.18.36-.28.1-.11.18-.22.24-.33v-1.18h-.92c-.58,0-1.03.09-1.35.26-.32.17-.48.44-.48.81,0,.14.02.28.07.4.05.12.12.23.22.32.1.09.22.15.36.2.15.05.32.08.51.08Zm6.9-6.46v1.41h2.21v.77h-2.21v3.16c0,.22.03.41.09.56.06.15.14.26.24.35.1.09.21.15.34.18.13.04.27.05.42.05.11,0,.22,0,.33-.02.11-.01.23-.03.33-.05.11-.02.21-.04.31-.05.1-.02.18-.04.24-.05l.14.7c-.08.05-.18.1-.3.13-.12.04-.25.07-.39.09-.14.03-.29.05-.44.07-.15.01-.31.02-.46.02-.26,0-.5-.03-.73-.11-.22-.07-.42-.19-.58-.35-.17-.16-.3-.37-.39-.62-.09-.25-.14-.56-.14-.92v-3.16h-1.53v-.77h1.53v-1.41h1Zm8.07,7.22c-.04-.07-.07-.17-.1-.28-.02-.11-.04-.23-.05-.35-.1.1-.21.2-.34.29-.12.09-.26.17-.41.24-.15.07-.3.12-.47.16-.17.04-.35.06-.54.06-.31,0-.59-.04-.84-.13-.25-.09-.46-.21-.63-.36-.17-.15-.31-.34-.4-.54-.09-.21-.14-.44-.14-.68,0-.32.06-.6.19-.84.13-.24.31-.44.54-.6.23-.16.51-.28.84-.36.33-.08.7-.12,1.1-.12h1.08v-.46c0-.18-.03-.33-.1-.47-.07-.14-.16-.26-.27-.35-.12-.1-.26-.18-.43-.23-.17-.05-.36-.08-.57-.08-.2,0-.38.03-.53.08-.15.05-.29.12-.39.2-.11.08-.19.18-.25.3-.06.11-.09.23-.09.35h-1c0-.21.06-.42.16-.62.11-.2.26-.39.46-.55.2-.16.44-.3.72-.4.29-.1.61-.15.97-.15.33,0,.64.04.92.12.28.08.53.2.73.37.21.16.37.36.49.61.12.24.18.53.18.85v2.7c0,.19.02.4.05.62.04.21.09.4.15.56v.09h-1.04Zm-1.76-.76c.19,0,.37-.02.54-.08.17-.05.32-.12.46-.2.14-.08.26-.18.36-.28.1-.11.18-.22.24-.33v-1.18h-.92c-.58,0-1.03.09-1.35.26s-.48.44-.48.81c0,.14.02.28.07.4.05.12.12.23.22.32.1.09.22.15.36.2.15.05.32.08.51.08Zm8.89-2.26h-4.11v-.82h4.11v.82Zm3.74,3.01v-5.04h-1.6v-.77h1.6v-.41c0-.37.05-.7.16-.98.11-.28.26-.52.46-.71.2-.19.44-.33.72-.43.28-.1.59-.15.93-.15.24,0,.47.02.69.06.23.04.46.09.69.15l-.12.82c-.15-.05-.32-.09-.52-.13-.19-.04-.4-.06-.62-.06-.47,0-.82.12-1.05.35-.23.23-.35.59-.35,1.06v.41h2.24v.77h-2.24v5.04h-1Zm4.85-2.96c0-.42.06-.81.18-1.17.12-.36.3-.68.52-.94.23-.26.51-.47.83-.62.33-.15.69-.23,1.1-.23s.78.08,1.11.23c.33.15.61.36.83.62.23.26.41.58.53.94.12.36.18.75.18,1.17v.12c0,.42-.06.81-.18,1.17-.12.36-.3.67-.53.93-.23.26-.5.47-.83.62-.33.15-.69.22-1.1.22s-.78-.07-1.11-.22c-.33-.15-.6-.36-.83-.62-.23-.26-.4-.58-.52-.93-.12-.36-.18-.75-.18-1.17v-.12Zm.99.12c0,.29.04.56.1.82.07.26.17.49.31.68.14.2.31.35.52.47.21.11.45.17.73.17s.51-.06.71-.17c.21-.12.38-.27.52-.47.14-.2.24-.42.31-.68.07-.26.1-.53.1-.82v-.12c0-.28-.04-.55-.11-.81-.07-.26-.17-.49-.31-.69-.14-.2-.31-.35-.51-.47-.2-.12-.44-.18-.72-.18s-.52.06-.72.18c-.2.11-.38.27-.51.47-.14.2-.24.43-.31.69-.07.26-.1.53-.1.81v.12Zm9.7-3.08c.09,0,.19,0,.29.01.1,0,.2.01.28.03.09,0,.18.02.25.04.08.02.14.04.19.06l-.13.97c-.19-.04-.38-.07-.55-.09-.17-.02-.35-.03-.54-.03-.46,0-.84.11-1.13.32-.29.21-.5.51-.63.89v3.73h-1v-5.81h.94l.05.92c.24-.32.52-.57.85-.75.33-.19.71-.28,1.13-.28Zm3.25.11l.03.55c.12-.2.27-.36.46-.48.19-.11.43-.17.7-.18.53,0,.89.21,1.07.62.12-.19.26-.33.45-.45.19-.11.42-.17.69-.18.43,0,.75.13.98.39.23.26.34.66.34,1.19v4.34h-.95v-4.35c0-.49-.22-.73-.67-.73-.12,0-.22.02-.31.05-.09.03-.16.08-.21.13-.06.05-.1.12-.13.19-.03.07-.05.15-.07.23v4.47h-.94v-4.36c0-.23-.05-.41-.16-.54s-.27-.19-.49-.18c-.21,0-.37.04-.48.12-.11.08-.2.19-.25.33v4.62h-.95v-5.81h.89Zm10.5,2.8h-4.11v-.82h4.11v.82Zm2.42-2.8h2.97v4.95h1.9v.86h-4.87v-.86h1.98v-4.09h-1.98v-.86Zm1.85-1.53c0-.16.05-.3.15-.41.1-.12.25-.17.45-.17s.35.06.45.17c.1.11.15.25.15.41s-.05.29-.15.4c-.1.11-.25.16-.45.16s-.35-.05-.45-.16c-.1-.11-.15-.24-.15-.4Zm4.42,4.38c0-.43.05-.83.16-1.19.11-.37.27-.68.47-.94.2-.26.45-.47.74-.61.29-.15.61-.22.96-.22s.65.06.91.18c.26.12.49.28.68.51v-3.01h.99v8.25h-.91l-.04-.61c-.19.24-.42.41-.69.54-.27.12-.58.18-.94.18s-.67-.07-.96-.22c-.28-.15-.52-.36-.72-.62-.2-.26-.36-.58-.47-.93-.11-.36-.17-.75-.17-1.17v-.11Zm.99.11c0,.28.03.55.09.81.06.25.15.48.28.67.13.19.29.35.49.46.2.11.43.17.71.17.17,0,.32-.02.46-.06s.26-.1.37-.17c.11-.08.21-.16.29-.26.09-.1.16-.22.23-.34v-2.7c-.13-.24-.3-.43-.52-.58-.22-.15-.49-.23-.82-.23-.28,0-.52.06-.72.17-.2.12-.36.27-.49.47-.13.19-.22.42-.28.68-.06.25-.09.52-.09.81v.11Zm10.59-1.35h-4.8v-.87h4.8v.87Zm0,2.23h-4.8v-.86h4.8v.86Zm3.59-5.7l-.11,1.99h-.7v-1.9s0-.67,0-.67h.81v.59Zm1.92,0l-.11,1.99h-.69v-1.9s0-.67,0-.67h.81v.59Zm4.39,7.66v-5.04h-1.6v-.77h1.6v-.41c0-.37.05-.7.16-.98.11-.28.26-.52.46-.71.2-.19.44-.33.72-.43.28-.1.59-.15.93-.15.24,0,.47.02.69.06.23.04.46.09.69.15l-.12.82c-.15-.05-.32-.09-.52-.13-.19-.04-.4-.06-.62-.06-.46,0-.82.12-1.05.35-.23.23-.35.59-.35,1.06v.41h2.24v.77h-2.24v5.04h-1Zm4.85-2.96c0-.42.06-.81.18-1.17.12-.36.3-.68.52-.94.23-.26.51-.47.83-.62.33-.15.69-.23,1.1-.23s.78.08,1.11.23c.33.15.61.36.83.62.23.26.4.58.53.94.12.36.18.75.18,1.17v.12c0,.42-.06.81-.18,1.17-.12.36-.3.67-.53.93-.23.26-.5.47-.83.62-.33.15-.69.22-1.1.22s-.78-.07-1.11-.22c-.33-.15-.6-.36-.83-.62-.23-.26-.4-.58-.52-.93-.12-.36-.18-.75-.18-1.17v-.12Zm.99.12c0,.29.04.56.1.82.07.26.17.49.31.68.14.2.31.35.52.47.21.11.45.17.73.17s.51-.06.71-.17c.21-.12.38-.27.52-.47.14-.2.24-.42.31-.68.07-.26.1-.53.1-.82v-.12c0-.28-.04-.55-.11-.81-.07-.26-.17-.49-.31-.69-.14-.2-.31-.35-.51-.47-.2-.12-.44-.18-.72-.18s-.52.06-.72.18c-.2.11-.38.27-.51.47-.14.2-.24.43-.31.69-.07.26-.1.53-.1.81v.12Zm9.7-3.08c.09,0,.19,0,.29.01.1,0,.19.01.28.03.09,0,.18.02.25.04.08.02.14.04.19.06l-.13.97c-.19-.04-.38-.07-.55-.09-.17-.02-.35-.03-.54-.03-.47,0-.84.11-1.13.32-.29.21-.5.51-.63.89v3.73h-1v-5.81h.95l.05.92c.24-.32.52-.57.85-.75.33-.19.71-.28,1.13-.28Zm3.26.11l.03.55c.12-.2.27-.36.46-.48.19-.11.43-.17.7-.18.53,0,.89.21,1.07.62.11-.19.26-.33.45-.45.19-.11.42-.17.69-.18.43,0,.75.13.98.39.23.26.34.66.34,1.19v4.34h-.95v-4.35c0-.49-.22-.73-.67-.73-.12,0-.22.02-.31.05-.09.03-.16.08-.22.13-.06.05-.1.12-.13.19-.03.07-.05.15-.07.23v4.47h-.95v-4.36c0-.23-.05-.41-.16-.54-.1-.12-.27-.19-.49-.18-.21,0-.37.04-.48.12-.12.08-.2.19-.25.33v4.62h-.94v-5.81h.89Zm10.49,2.8h-4.11v-.82h4.11v.82Zm2.42-2.8h2.97v4.95h1.9v.86h-4.87v-.86h1.98v-4.09h-1.98v-.86Zm1.85-1.53c0-.16.05-.3.14-.41.1-.12.25-.17.45-.17s.35.06.44.17c.1.11.15.25.15.41s-.05.29-.15.4c-.1.11-.25.16-.44.16s-.35-.05-.45-.16c-.1-.11-.14-.24-.14-.4Zm4.41,4.38c0-.43.05-.83.16-1.19.11-.37.27-.68.47-.94.2-.26.45-.47.74-.61.29-.15.61-.22.96-.22s.65.06.91.18c.26.12.49.28.68.51v-3.01h.99v8.25h-.91l-.04-.61c-.19.24-.42.41-.69.54-.27.12-.58.18-.94.18s-.67-.07-.96-.22c-.28-.15-.52-.36-.73-.62-.2-.26-.36-.58-.47-.93-.11-.36-.17-.75-.17-1.17v-.11Zm.99.11c0,.28.03.55.09.81.06.25.15.48.28.67.13.19.29.35.49.46.2.11.43.17.71.17.17,0,.32-.02.46-.06s.26-.1.37-.17c.11-.08.21-.16.29-.26.09-.1.16-.22.23-.34v-2.7c-.13-.24-.3-.43-.52-.58-.22-.15-.49-.23-.82-.23-.28,0-.52.06-.72.17-.2.12-.36.27-.49.47-.13.19-.22.42-.28.68-.06.25-.09.52-.09.81v.11Zm7.58-4.82l-.11,1.99h-.7v-1.9s0-.67,0-.67h.81v.59Zm1.92,0l-.11,1.99h-.69v-1.9s0-.67,0-.67h.8v.59Zm-142.62,22.71c0-.43.05-.83.16-1.19.11-.37.27-.68.47-.94.2-.26.45-.47.74-.61.29-.15.61-.22.96-.22s.65.06.91.18c.26.12.49.28.68.51v-3.01h.99v8.25h-.91l-.04-.61c-.19.24-.42.41-.69.54-.27.12-.58.18-.94.18s-.67-.07-.96-.22c-.28-.15-.52-.36-.73-.62-.2-.26-.36-.58-.47-.93-.11-.36-.17-.75-.17-1.17v-.11Zm.99.11c0,.28.03.55.09.81.06.25.15.48.28.67.13.19.29.35.49.46.2.11.43.17.71.17.17,0,.32-.02.46-.06.14-.04.26-.1.37-.17.11-.08.21-.16.29-.26.09-.1.16-.22.23-.34v-2.7c-.13-.24-.3-.43-.52-.58-.22-.15-.49-.23-.82-.23-.28,0-.52.06-.72.17-.2.12-.36.27-.49.47-.13.19-.22.42-.28.68-.06.25-.09.52-.09.81v.11Zm9.62,2.84c-.04-.07-.07-.17-.1-.28-.02-.11-.04-.23-.05-.35-.1.1-.21.2-.34.29-.12.09-.26.17-.41.24-.15.07-.3.12-.47.16-.17.04-.35.06-.54.06-.31,0-.59-.04-.84-.13-.25-.09-.46-.21-.63-.36-.17-.15-.31-.34-.4-.54-.09-.21-.14-.44-.14-.68,0-.32.06-.6.19-.84.13-.24.31-.44.54-.6.23-.16.51-.28.84-.36.33-.08.7-.12,1.1-.12h1.08v-.46c0-.18-.03-.33-.1-.47-.07-.14-.16-.26-.27-.35-.12-.1-.26-.18-.43-.23-.17-.05-.36-.08-.57-.08-.2,0-.38.03-.53.08-.15.05-.28.12-.39.2-.11.08-.19.18-.25.3-.06.11-.09.23-.09.35h-1c0-.21.06-.42.16-.62.11-.2.26-.39.46-.55.2-.16.44-.3.72-.4.29-.1.61-.15.97-.15.33,0,.64.04.92.12.28.08.53.2.73.37.21.16.37.36.49.61.12.24.18.53.18.85v2.7c0,.19.02.4.05.62.04.21.09.4.15.56v.09h-1.04Zm-1.76-.76c.19,0,.38-.02.54-.08.17-.05.32-.12.46-.2.14-.08.26-.18.36-.28.1-.11.18-.22.24-.33v-1.18h-.92c-.58,0-1.03.09-1.35.26-.32.17-.48.44-.48.81,0,.14.02.28.07.4.05.12.12.23.22.32.1.09.22.15.36.2.15.05.32.08.51.08Zm6.9-6.46v1.41h2.21v.77h-2.21v3.16c0,.22.03.41.09.56.06.15.14.26.24.35.1.09.21.15.34.18.13.04.27.05.42.05.11,0,.22,0,.33-.02.11-.01.23-.03.33-.05.11-.02.21-.04.31-.05.1-.02.18-.04.24-.05l.14.7c-.08.05-.18.1-.3.13-.12.04-.25.07-.39.09-.14.03-.29.05-.44.07-.15.01-.31.02-.46.02-.26,0-.5-.03-.73-.11-.22-.07-.42-.19-.58-.35-.17-.16-.3-.37-.39-.62-.09-.25-.14-.56-.14-.92v-3.16h-1.53v-.77h1.53v-1.41h1Zm8.07,7.22c-.04-.07-.07-.17-.1-.28-.02-.11-.04-.23-.05-.35-.1.1-.21.2-.34.29-.12.09-.26.17-.41.24-.15.07-.3.12-.47.16-.17.04-.35.06-.54.06-.31,0-.59-.04-.84-.13-.25-.09-.46-.21-.63-.36-.17-.15-.31-.34-.4-.54-.09-.21-.14-.44-.14-.68,0-.32.06-.6.19-.84.13-.24.31-.44.54-.6.23-.16.51-.28.84-.36.33-.08.7-.12,1.1-.12h1.08v-.46c0-.18-.03-.33-.1-.47-.07-.14-.16-.26-.27-.35-.12-.1-.26-.18-.43-.23-.17-.05-.36-.08-.57-.08-.2,0-.38.03-.53.08-.15.05-.29.12-.39.2-.11.08-.19.18-.25.3-.06.11-.09.23-.09.35h-1c0-.21.06-.42.16-.62.11-.2.26-.39.46-.55.2-.16.44-.3.72-.4.29-.1.61-.15.97-.15.33,0,.64.04.92.12.28.08.53.2.73.37.21.16.37.36.49.61.12.24.18.53.18.85v2.7c0,.19.02.4.05.62.04.21.09.4.15.56v.09h-1.04Zm-1.76-.76c.19,0,.37-.02.54-.08.17-.05.32-.12.46-.2.14-.08.26-.18.36-.28.1-.11.18-.22.24-.33v-1.18h-.92c-.58,0-1.03.09-1.35.26s-.48.44-.48.81c0,.14.02.28.07.4.05.12.12.23.22.32.1.09.22.15.36.2.15.05.32.08.51.08Zm8.89-2.26h-4.11v-.82h4.11v.82Zm4,.3l-.73.7v2.01h-1v-8.25h1v5.05l.65-.7,1.91-1.91h1.21l-2.35,2.42,2.71,3.39h-1.26l-2.13-2.71Zm7.43,2.82c-.41,0-.79-.07-1.13-.21-.34-.14-.63-.33-.88-.59-.24-.25-.43-.55-.57-.89-.14-.34-.2-.72-.2-1.12v-.23c0-.47.07-.89.23-1.26.15-.37.35-.69.6-.94.25-.26.53-.46.85-.59.32-.14.65-.2.98-.2.42,0,.78.07,1.1.22.31.14.58.34.78.6.21.25.36.55.46.9.1.35.16.72.16,1.13v.45h-4.15c.01.26.06.51.15.75.09.23.22.44.38.61.16.17.35.31.57.41.22.1.47.15.74.15.35,0,.67-.07.95-.21.28-.14.5-.33.69-.57l.61.47c-.1.15-.22.29-.37.42-.14.13-.31.25-.5.36-.19.1-.4.19-.64.25-.24.06-.5.1-.78.1Zm-.13-5.21c-.2,0-.39.04-.57.11-.18.07-.34.18-.48.32-.14.14-.26.31-.36.52-.1.2-.17.44-.2.71h3.13v-.07c-.01-.19-.05-.38-.11-.57-.06-.19-.15-.36-.27-.51-.12-.15-.28-.27-.46-.36-.18-.09-.4-.14-.65-.14Zm6.3,3.04l.26.7,1.77-4.45h1.11l-2.95,6.71c-.07.15-.16.31-.26.48-.1.17-.23.32-.38.47-.15.14-.33.26-.53.36-.2.1-.43.15-.69.15-.05,0-.1,0-.16-.01-.06,0-.11,0-.17-.02-.06,0-.11-.02-.16-.03s-.09-.02-.12-.03l.16-.81s.06,0,.1,0c.04,0,.09,0,.13.01.05,0,.09,0,.13,0,.04,0,.08,0,.1,0,.14,0,.26-.04.37-.11.12-.07.21-.16.3-.27.09-.1.16-.21.23-.32.07-.11.12-.2.15-.27l.4-.77-2.5-5.54h1.11l1.6,3.75Zm9.26-2.13h-4.8v-.87h4.8v.87Zm0,2.23h-4.8v-.86h4.8v.86Zm3.59-5.7l-.11,1.99h-.7v-1.9s0-.67,0-.67h.8v.59Zm1.92,0l-.11,1.99h-.69v-1.9s0-.67,0-.67h.81v.59Zm5.26.45v1.41h2.21v.77h-2.21v3.16c0,.22.03.41.09.56.06.15.14.26.24.35.1.09.22.15.34.18.13.04.27.05.42.05.11,0,.22,0,.33-.02.12-.01.23-.03.33-.05.11-.02.21-.04.31-.05.1-.02.18-.04.24-.05l.14.7c-.08.05-.18.1-.3.13-.12.04-.25.07-.39.09-.14.03-.29.05-.45.07-.15.01-.31.02-.46.02-.26,0-.5-.03-.72-.11-.22-.07-.42-.19-.58-.35-.16-.16-.29-.37-.39-.62-.09-.25-.14-.56-.14-.92v-3.16h-1.53v-.77h1.53v-1.41h1Zm6.82,7.33c-.41,0-.78-.07-1.13-.21-.34-.14-.63-.33-.88-.59-.24-.25-.43-.55-.57-.89-.14-.34-.2-.72-.2-1.12v-.23c0-.47.08-.89.23-1.26.15-.37.35-.69.6-.94.25-.26.53-.46.85-.59.32-.14.64-.2.98-.2.42,0,.78.07,1.1.22.32.14.58.34.78.6.21.25.36.55.46.9.1.35.15.72.15,1.13v.45h-4.15c.01.26.06.51.15.75.09.23.22.44.38.61.16.17.35.31.57.41.22.1.47.15.74.15.36,0,.67-.07.95-.21.28-.14.51-.33.69-.57l.61.47c-.1.15-.22.29-.37.42-.14.13-.31.25-.5.36-.19.1-.4.19-.64.25-.24.06-.5.1-.78.1Zm-.13-5.21c-.2,0-.39.04-.57.11-.18.07-.34.18-.48.32-.14.14-.26.31-.36.52-.1.2-.17.44-.2.71h3.13v-.07c-.01-.19-.05-.38-.11-.57-.06-.19-.15-.36-.27-.51-.12-.15-.28-.27-.46-.36-.18-.09-.4-.14-.65-.14Zm8.03,3.56c0-.12-.02-.22-.07-.32-.05-.1-.13-.18-.24-.26-.11-.08-.26-.15-.44-.21-.18-.07-.41-.13-.68-.18-.33-.07-.64-.15-.91-.25-.27-.1-.51-.21-.7-.34-.19-.14-.34-.29-.45-.47-.11-.18-.16-.39-.16-.63s.06-.46.17-.66c.11-.21.27-.39.47-.54.2-.15.44-.28.71-.37.28-.09.58-.13.92-.13.36,0,.68.05.97.14.29.09.53.22.73.39.2.17.35.36.46.58.11.22.17.45.17.71h-.99c0-.12-.03-.25-.1-.36-.07-.12-.15-.23-.27-.32-.11-.09-.25-.17-.42-.23-.16-.06-.34-.09-.55-.09s-.4.02-.56.07c-.16.05-.29.11-.4.19-.1.08-.18.17-.24.27s-.08.21-.08.32.02.22.06.31c.04.09.12.17.22.24.11.07.25.14.43.19.18.06.4.11.68.17.36.07.68.16.96.26.28.1.52.21.71.35.19.14.34.3.44.48.1.18.15.39.15.63,0,.26-.06.49-.18.7-.11.21-.28.39-.48.54-.21.15-.46.27-.75.35-.29.08-.61.12-.95.12-.39,0-.74-.05-1.05-.15-.31-.11-.57-.25-.78-.42-.21-.18-.37-.38-.49-.61-.11-.23-.17-.47-.17-.71h.99c.01.21.07.38.16.52.1.14.21.25.35.34.14.09.3.15.47.18s.34.05.51.05c.42,0,.75-.08.99-.23.24-.15.37-.36.37-.61Zm5.1-5.68v1.41h2.21v.77h-2.21v3.16c0,.22.03.41.09.56.06.15.14.26.24.35.1.09.22.15.34.18.13.04.27.05.42.05.11,0,.22,0,.33-.02.11-.01.22-.03.33-.05.11-.02.21-.04.31-.05.1-.02.18-.04.24-.05l.14.7c-.08.05-.18.1-.3.13-.12.04-.25.07-.39.09-.14.03-.29.05-.44.07-.15.01-.31.02-.46.02-.26,0-.5-.03-.73-.11-.22-.07-.42-.19-.58-.35-.17-.16-.3-.37-.39-.62-.09-.25-.14-.56-.14-.92v-3.16h-1.53v-.77h1.53v-1.41h1Zm9.08,8.03h-4.93v-.81h4.93v.81Zm3.52-3.52l-.73.7v2.01h-1v-8.25h1v5.05l.65-.7,1.91-1.91h1.21l-2.35,2.42,2.71,3.39h-1.26l-2.13-2.71Zm7.43,2.82c-.41,0-.78-.07-1.13-.21-.34-.14-.63-.33-.88-.59-.24-.25-.43-.55-.57-.89-.14-.34-.2-.72-.2-1.12v-.23c0-.47.07-.89.23-1.26.15-.37.35-.69.6-.94.25-.26.53-.46.85-.59.32-.14.64-.2.98-.2.42,0,.78.07,1.1.22.32.14.58.34.78.6.21.25.36.55.46.9.1.35.16.72.16,1.13v.45h-4.15c.01.26.06.51.15.75.09.23.22.44.38.61.16.17.35.31.57.41.22.1.47.15.74.15.35,0,.67-.07.95-.21.28-.14.5-.33.69-.57l.61.47c-.1.15-.22.29-.37.42-.14.13-.31.25-.5.36-.19.1-.4.19-.65.25-.24.06-.5.1-.78.1Zm-.13-5.21c-.2,0-.39.04-.57.11-.18.07-.34.18-.48.32-.14.14-.26.31-.36.52-.1.2-.17.44-.2.71h3.13v-.07c-.01-.19-.05-.38-.11-.57-.06-.19-.15-.36-.27-.51-.12-.15-.28-.27-.46-.36-.18-.09-.4-.14-.65-.14Zm6.31,3.04l.26.7,1.77-4.45h1.11l-2.95,6.71c-.07.15-.16.31-.26.48-.1.17-.23.32-.38.47-.15.14-.33.26-.53.36-.2.1-.43.15-.69.15-.05,0-.1,0-.15-.01-.06,0-.11,0-.17-.02-.06,0-.11-.02-.16-.03-.05-.01-.09-.02-.12-.03l.16-.81s.06,0,.1,0c.04,0,.09,0,.13.01.05,0,.09,0,.13,0,.04,0,.08,0,.1,0,.14,0,.26-.04.37-.11.12-.07.22-.16.3-.27.09-.1.16-.21.23-.32.06-.11.11-.2.15-.27l.4-.77-2.5-5.54h1.11l1.6,3.75Zm6.25-5.6l-.11,1.99h-.7v-1.9s0-.67,0-.67h.81v.59Zm1.92,0l-.11,1.99h-.69v-1.9s0-.67,0-.67h.81v.59Zm-122.8,22.71c0-.43.05-.83.16-1.19.11-.37.27-.68.47-.94.2-.26.45-.47.74-.61.29-.15.61-.22.96-.22s.65.06.91.18c.26.12.49.28.68.51v-3.01h.99v8.25h-.91l-.04-.61c-.19.24-.42.41-.69.54-.27.12-.58.18-.94.18s-.67-.07-.96-.22c-.28-.15-.52-.36-.73-.62-.2-.26-.36-.58-.47-.93-.11-.36-.17-.75-.17-1.17v-.11Zm.99.11c0,.28.03.55.09.81.06.25.15.48.28.67.13.19.29.35.49.46.2.11.43.17.71.17.17,0,.32-.02.46-.06.14-.04.26-.1.37-.17.11-.08.21-.16.29-.26.09-.1.16-.22.23-.34v-2.7c-.13-.24-.3-.43-.52-.58-.22-.15-.49-.23-.82-.23-.28,0-.52.06-.72.17-.2.12-.36.27-.49.47-.13.19-.22.42-.28.68-.06.25-.09.52-.09.81v.11Zm9.62,2.84c-.04-.07-.07-.17-.1-.28-.02-.11-.04-.23-.05-.35-.1.1-.21.2-.34.29-.12.09-.26.17-.41.24-.15.07-.3.12-.47.16-.17.04-.35.06-.54.06-.31,0-.59-.04-.84-.13-.25-.09-.46-.21-.63-.36-.17-.15-.31-.34-.4-.54-.09-.21-.14-.44-.14-.68,0-.32.06-.6.19-.84.13-.24.31-.44.54-.6.23-.16.51-.28.84-.36.33-.08.7-.12,1.1-.12h1.08v-.46c0-.18-.03-.33-.1-.47-.07-.14-.16-.26-.27-.35-.12-.1-.26-.18-.43-.23-.17-.05-.36-.08-.57-.08-.2,0-.38.03-.53.08-.15.05-.28.12-.39.2-.11.08-.19.18-.25.3-.06.11-.09.23-.09.35h-1c0-.21.06-.42.16-.62.11-.2.26-.39.46-.55.2-.16.44-.3.72-.4.29-.1.61-.15.97-.15.33,0,.64.04.92.12.28.08.53.2.73.37.21.16.37.36.49.61.12.24.18.53.18.85v2.7c0,.19.02.4.05.62.04.21.09.4.15.56v.09h-1.04Zm-1.76-.76c.19,0,.38-.02.54-.08.17-.05.32-.12.46-.2.14-.08.26-.18.36-.28.1-.11.18-.22.24-.33v-1.18h-.92c-.58,0-1.03.09-1.35.26-.32.17-.48.44-.48.81,0,.14.02.28.07.4.05.12.12.23.22.32.1.09.22.15.36.2.15.05.32.08.51.08Zm6.9-6.46v1.41h2.21v.77h-2.21v3.16c0,.22.03.41.09.56.06.15.14.26.24.35.1.09.21.15.34.18.13.04.27.05.42.05.11,0,.22,0,.33-.02.11-.01.23-.03.33-.05.11-.02.21-.04.31-.05.1-.02.18-.04.24-.05l.14.7c-.08.05-.18.1-.3.13-.12.04-.25.07-.39.09-.14.03-.29.05-.44.07-.15.01-.31.02-.46.02-.26,0-.5-.03-.73-.11-.22-.07-.42-.19-.58-.35-.17-.16-.3-.37-.39-.62-.09-.25-.14-.56-.14-.92v-3.16h-1.53v-.77h1.53v-1.41h1Zm8.07,7.22c-.04-.07-.07-.17-.1-.28-.02-.11-.04-.23-.05-.35-.1.1-.21.2-.34.29-.12.09-.26.17-.41.24-.15.07-.3.12-.47.16-.17.04-.35.06-.54.06-.31,0-.59-.04-.84-.13-.25-.09-.46-.21-.63-.36-.17-.15-.31-.34-.4-.54-.09-.21-.14-.44-.14-.68,0-.32.06-.6.19-.84.13-.24.31-.44.54-.6.23-.16.51-.28.84-.36.33-.08.7-.12,1.1-.12h1.08v-.46c0-.18-.03-.33-.1-.47-.07-.14-.16-.26-.27-.35-.12-.1-.26-.18-.43-.23-.17-.05-.36-.08-.57-.08-.2,0-.38.03-.53.08-.15.05-.29.12-.39.2-.11.08-.19.18-.25.3-.06.11-.09.23-.09.35h-1c0-.21.06-.42.16-.62.11-.2.26-.39.46-.55.2-.16.44-.3.72-.4.29-.1.61-.15.97-.15.33,0,.64.04.92.12.28.08.53.2.73.37.21.16.37.36.49.61.12.24.18.53.18.85v2.7c0,.19.02.4.05.62.04.21.09.4.15.56v.09h-1.04Zm-1.76-.76c.19,0,.37-.02.54-.08.17-.05.32-.12.46-.2.14-.08.26-.18.36-.28.1-.11.18-.22.24-.33v-1.18h-.92c-.58,0-1.03.09-1.35.26s-.48.44-.48.81c0,.14.02.28.07.4.05.12.12.23.22.32.1.09.22.15.36.2.15.05.32.08.51.08Zm8.89-2.26h-4.11v-.82h4.11v.82Zm7.16.17c0,.42-.05.8-.15,1.17-.1.36-.25.67-.44.93-.19.26-.43.47-.72.62-.28.15-.61.22-.97.22s-.67-.06-.94-.17c-.27-.12-.5-.28-.69-.5v2.79h-.99v-8.05h.91l.05.63c.19-.24.43-.42.7-.55.28-.13.59-.19.96-.19s.7.07.99.22c.29.15.53.35.72.61.19.26.34.57.44.94.1.36.15.76.15,1.19v.11Zm-.99-.11c0-.28-.03-.55-.1-.81-.06-.26-.16-.48-.29-.68-.13-.2-.29-.35-.49-.47-.2-.11-.44-.17-.72-.17-.32,0-.59.08-.8.23-.22.15-.39.34-.52.57v2.8c.13.23.3.42.52.56.21.14.49.21.82.21.28,0,.51-.06.71-.17.2-.12.37-.28.49-.47.13-.2.22-.42.29-.68.07-.26.1-.53.1-.81v-.11Zm6.5-2.97c.09,0,.19,0,.29.01.1,0,.19.01.29.03.09,0,.18.02.25.04.08.02.14.04.19.06l-.14.97c-.19-.04-.38-.07-.55-.09-.17-.02-.35-.03-.54-.03-.47,0-.84.11-1.13.32-.29.21-.5.51-.63.89v3.73h-1v-5.81h.94l.05.92c.24-.32.52-.57.85-.75.33-.19.71-.28,1.13-.28Zm2.52,2.96c0-.42.06-.81.18-1.17.12-.36.29-.68.52-.94.23-.26.51-.47.83-.62.33-.15.69-.23,1.1-.23s.78.08,1.11.23c.33.15.61.36.83.62.23.26.4.58.53.94.12.36.18.75.18,1.17v.12c0,.42-.06.81-.18,1.17-.12.36-.3.67-.53.93-.22.26-.5.47-.83.62-.33.15-.69.22-1.1.22s-.78-.07-1.11-.22c-.32-.15-.6-.36-.83-.62-.23-.26-.4-.58-.52-.93-.12-.36-.18-.75-.18-1.17v-.12Zm.99.12c0,.29.03.56.1.82.07.26.17.49.31.68.14.2.31.35.52.47.21.11.45.17.73.17s.51-.06.71-.17c.21-.12.38-.27.51-.47.14-.2.24-.42.31-.68.07-.26.1-.53.1-.82v-.12c0-.28-.04-.55-.11-.81-.07-.26-.17-.49-.31-.69-.14-.2-.31-.35-.52-.47-.2-.12-.44-.18-.72-.18s-.51.06-.72.18c-.2.11-.38.27-.52.47-.14.2-.24.43-.31.69-.07.26-.1.53-.1.81v.12Zm5.7-.11c0-.43.05-.83.16-1.19.11-.37.27-.68.47-.94.21-.26.45-.47.74-.61.29-.15.61-.22.96-.22s.65.06.91.18c.26.12.49.28.68.51v-3.01h.99v8.25h-.91l-.04-.61c-.19.24-.43.41-.69.54-.27.12-.58.18-.94.18s-.67-.07-.96-.22c-.28-.15-.52-.36-.72-.62-.2-.26-.36-.58-.47-.93-.11-.36-.17-.75-.17-1.17v-.11Zm.99.11c0,.28.03.55.09.81.06.25.15.48.28.67.13.19.29.35.49.46.2.11.43.17.71.17.17,0,.32-.02.46-.06s.26-.1.37-.17c.11-.08.21-.16.3-.26.09-.1.16-.22.22-.34v-2.7c-.13-.24-.3-.43-.52-.58-.22-.15-.49-.23-.82-.23-.28,0-.52.06-.72.17-.2.12-.36.27-.49.47-.12.19-.22.42-.28.68-.06.25-.09.52-.09.81v.11Zm9.57,2.04c-.19.29-.44.51-.73.67-.29.16-.62.24-1.01.24-.3,0-.58-.05-.83-.14-.25-.1-.46-.25-.63-.45-.18-.2-.31-.46-.41-.76-.09-.31-.14-.68-.14-1.12v-3.45h.99v3.46c0,.32.03.58.08.78.05.21.12.37.23.5.1.12.22.21.36.26.15.05.32.08.51.08.4,0,.73-.08.98-.25.25-.16.44-.39.56-.67v-4.17h1v5.81h-.9l-.06-.8Zm5.31.1c.18,0,.35-.03.52-.09.17-.06.32-.14.46-.24.13-.1.24-.22.32-.36.08-.14.13-.29.13-.45h.94c0,.26-.07.51-.2.74-.13.23-.3.44-.52.62-.22.18-.47.32-.75.43-.28.1-.58.15-.89.15-.44,0-.82-.08-1.15-.24-.33-.16-.61-.37-.83-.63-.22-.27-.38-.58-.49-.92-.11-.35-.17-.72-.17-1.11v-.23c0-.38.06-.75.17-1.1.11-.35.28-.66.49-.92.22-.27.5-.48.83-.64.33-.16.71-.24,1.15-.24.34,0,.66.06.94.17.29.11.54.26.75.44.21.19.38.41.49.67.12.26.18.53.18.83h-.94c0-.18-.04-.34-.12-.49-.07-.16-.17-.29-.29-.41-.13-.12-.28-.21-.45-.28-.17-.07-.36-.1-.56-.1-.31,0-.57.06-.78.19-.21.12-.38.28-.5.48-.13.2-.22.42-.28.67-.05.25-.08.5-.08.75v.23c0,.25.03.51.08.76.06.25.15.47.27.67.13.2.3.36.51.48.21.12.47.18.78.18Zm6.48-6.52v1.41h2.21v.77h-2.21v3.16c0,.22.03.41.09.56.06.15.14.26.24.35.1.09.21.15.34.18.13.04.27.05.42.05.11,0,.22,0,.33-.02.11-.01.22-.03.33-.05.11-.02.21-.04.31-.05.1-.02.18-.04.24-.05l.14.7c-.08.05-.18.1-.3.13-.12.04-.25.07-.39.09-.14.03-.29.05-.45.07-.15.01-.31.02-.46.02-.26,0-.5-.03-.73-.11-.22-.07-.42-.19-.58-.35-.16-.16-.3-.37-.39-.62-.09-.25-.14-.56-.14-.92v-3.16h-1.53v-.77h1.53v-1.41h1Zm9.04,3.03h-4.8v-.87h4.8v.87Zm0,2.23h-4.8v-.86h4.8v.86Zm3.59-5.7l-.11,1.99h-.7v-1.9s0-.67,0-.67h.81v.59Zm1.92,0l-.11,1.99h-.69v-1.9s0-.67,0-.67h.81v.59Zm5.26.45v1.41h2.21v.77h-2.21v3.16c0,.22.03.41.09.56.06.15.14.26.24.35.1.09.21.15.34.18.13.04.27.05.42.05.11,0,.22,0,.33-.02.11-.01.23-.03.33-.05.11-.02.21-.04.31-.05.1-.02.18-.04.24-.05l.14.7c-.08.05-.18.1-.3.13-.12.04-.25.07-.39.09-.14.03-.29.05-.45.07-.15.01-.31.02-.46.02-.26,0-.5-.03-.73-.11-.22-.07-.41-.19-.58-.35-.16-.16-.29-.37-.39-.62-.09-.25-.14-.56-.14-.92v-3.16h-1.52v-.77h1.52v-1.41h1Zm8.06,1.3c.09,0,.19,0,.29.01.1,0,.2.01.29.03.09,0,.18.02.25.04.08.02.14.04.19.06l-.13.97c-.19-.04-.38-.07-.55-.09-.17-.02-.35-.03-.54-.03-.47,0-.84.11-1.13.32-.29.21-.5.51-.63.89v3.73h-1v-5.81h.95l.05.92c.24-.32.52-.57.85-.75.33-.19.71-.28,1.13-.28Zm6.62,5.92c-.04-.07-.07-.17-.1-.28-.02-.11-.04-.23-.05-.35-.1.1-.21.2-.34.29-.12.09-.26.17-.41.24-.15.07-.3.12-.47.16-.17.04-.35.06-.54.06-.31,0-.59-.04-.84-.13-.25-.09-.46-.21-.63-.36-.17-.15-.31-.34-.4-.54-.09-.21-.14-.44-.14-.68,0-.32.06-.6.19-.84.13-.24.31-.44.54-.6.23-.16.51-.28.84-.36.33-.08.7-.12,1.1-.12h1.08v-.46c0-.18-.03-.33-.1-.47-.07-.14-.16-.26-.27-.35-.12-.1-.26-.18-.43-.23-.17-.05-.36-.08-.57-.08-.2,0-.37.03-.53.08-.15.05-.29.12-.39.2-.11.08-.19.18-.25.3-.06.11-.09.23-.09.35h-1c0-.21.06-.42.16-.62.11-.2.26-.39.46-.55.2-.16.44-.3.72-.4.29-.1.61-.15.97-.15.33,0,.64.04.92.12.28.08.53.2.73.37.21.16.37.36.49.61.12.24.18.53.18.85v2.7c0,.19.02.4.05.62.04.21.09.4.15.56v.09h-1.04Zm-1.76-.76c.19,0,.37-.02.54-.08.17-.05.32-.12.46-.2.14-.08.26-.18.36-.28.1-.11.18-.22.24-.33v-1.18h-.92c-.58,0-1.03.09-1.35.26-.32.17-.48.44-.48.81,0,.14.02.28.07.4.05.12.12.23.22.32.1.09.22.15.37.2.15.05.32.08.51.08Zm5.44-5.05l.07.86c.21-.3.47-.54.78-.7.31-.17.65-.26,1.03-.26.3,0,.58.04.83.13.25.09.46.22.64.4.17.18.31.41.4.7.1.28.14.61.14,1v3.69h-.99v-3.67c0-.26-.03-.48-.09-.66-.06-.18-.14-.32-.26-.43-.11-.11-.25-.19-.41-.24-.16-.05-.35-.08-.56-.08-.33,0-.63.08-.88.25-.25.16-.45.38-.6.65v4.17h-.99v-5.81h.89Zm9.58,4.27c0-.12-.02-.22-.07-.32-.05-.1-.12-.18-.24-.26-.11-.08-.26-.15-.44-.21-.18-.07-.41-.13-.68-.18-.33-.07-.64-.15-.91-.25-.27-.1-.51-.21-.7-.34-.19-.14-.34-.29-.45-.47-.11-.18-.16-.39-.16-.63s.05-.46.17-.66c.11-.21.27-.39.47-.54.2-.15.44-.28.71-.37.28-.09.59-.13.92-.13.36,0,.68.05.97.14.29.09.53.22.73.39.2.17.35.36.46.58.11.22.17.45.17.71h-.99c0-.12-.03-.25-.1-.36-.07-.12-.15-.23-.27-.32-.12-.09-.25-.17-.42-.23-.16-.06-.34-.09-.55-.09s-.4.02-.56.07c-.16.05-.29.11-.4.19-.1.08-.18.17-.24.27s-.08.21-.08.32.02.22.07.31c.04.09.12.17.22.24.11.07.25.14.42.19.18.06.4.11.68.17.36.07.68.16.96.26.28.1.52.21.71.35.19.14.34.3.44.48.1.18.16.39.16.63,0,.26-.06.49-.18.7-.12.21-.28.39-.48.54-.21.15-.46.27-.75.35-.29.08-.61.12-.95.12-.39,0-.75-.05-1.05-.15-.31-.11-.57-.25-.78-.42-.21-.18-.37-.38-.49-.61-.11-.23-.17-.47-.17-.71h.99c.01.21.07.38.16.52.1.14.21.25.35.34.14.09.3.15.47.18.17.04.34.05.51.05.42,0,.75-.08.99-.23.24-.15.37-.36.37-.61Zm6.56,1.54c-.04-.07-.07-.17-.1-.28-.02-.11-.04-.23-.05-.35-.1.1-.21.2-.34.29-.12.09-.26.17-.41.24-.15.07-.3.12-.47.16-.17.04-.35.06-.54.06-.31,0-.59-.04-.84-.13-.25-.09-.46-.21-.63-.36-.17-.15-.31-.34-.4-.54-.09-.21-.14-.44-.14-.68,0-.32.06-.6.19-.84.13-.24.31-.44.54-.6.23-.16.51-.28.84-.36.33-.08.7-.12,1.1-.12h1.09v-.46c0-.18-.03-.33-.1-.47-.06-.14-.16-.26-.27-.35-.12-.1-.26-.18-.43-.23-.17-.05-.36-.08-.57-.08-.2,0-.38.03-.53.08-.15.05-.29.12-.39.2-.11.08-.19.18-.25.3-.06.11-.09.23-.09.35h-1c0-.21.06-.42.16-.62.11-.2.26-.39.46-.55.2-.16.44-.3.72-.4.29-.1.61-.15.97-.15.33,0,.64.04.92.12.28.08.53.2.73.37.21.16.37.36.49.61.12.24.18.53.18.85v2.7c0,.19.02.4.05.62.04.21.09.4.15.56v.09h-1.04Zm-1.76-.76c.19,0,.38-.02.54-.08.17-.05.32-.12.46-.2.14-.08.26-.18.36-.28.1-.11.18-.22.24-.33v-1.18h-.92c-.58,0-1.03.09-1.35.26-.32.17-.48.44-.48.81,0,.14.02.28.07.4.05.12.12.23.22.32.1.09.22.15.37.2.15.05.32.08.51.08Zm7.02.06c.18,0,.35-.03.52-.09.17-.06.32-.14.46-.24.13-.1.24-.22.32-.36.08-.14.12-.29.13-.45h.94c0,.26-.07.51-.2.74-.13.23-.3.44-.52.62-.22.18-.47.32-.75.43-.28.1-.58.15-.89.15-.44,0-.82-.08-1.15-.24-.33-.16-.61-.37-.83-.63-.22-.27-.38-.58-.49-.92-.11-.35-.17-.72-.17-1.11v-.23c0-.38.05-.75.17-1.1.11-.35.28-.66.49-.92.22-.27.5-.48.83-.64.33-.16.71-.24,1.15-.24.34,0,.66.06.95.17.29.11.54.26.75.44.21.19.38.41.49.67.12.26.18.53.18.83h-.94c0-.18-.04-.34-.12-.49-.07-.16-.17-.29-.3-.41-.12-.12-.28-.21-.45-.28-.17-.07-.36-.1-.56-.1-.31,0-.57.06-.78.19-.21.12-.38.28-.51.48-.13.2-.22.42-.28.67-.05.25-.08.5-.08.75v.23c0,.25.03.51.08.76.06.25.15.47.27.67.13.2.3.36.51.48.21.12.47.18.78.18Zm6.48-6.52v1.41h2.21v.77h-2.21v3.16c0,.22.03.41.09.56.06.15.14.26.24.35.1.09.21.15.34.18.13.04.27.05.42.05.11,0,.22,0,.33-.02.12-.01.23-.03.33-.05.11-.02.21-.04.31-.05.1-.02.18-.04.24-.05l.14.7c-.08.05-.18.1-.3.13-.12.04-.25.07-.39.09-.14.03-.29.05-.45.07-.15.01-.31.02-.46.02-.26,0-.5-.03-.72-.11-.22-.07-.42-.19-.58-.35-.17-.16-.29-.37-.39-.62-.09-.25-.14-.56-.14-.92v-3.16h-1.52v-.77h1.52v-1.41h1Zm4.41,1.41h2.97v4.95h1.9v.86h-4.87v-.86h1.98v-4.09h-1.98v-.86Zm1.85-1.53c0-.16.05-.3.15-.41.1-.12.25-.17.45-.17s.35.06.45.17c.1.11.15.25.15.41s-.05.29-.15.4c-.1.11-.25.16-.45.16s-.35-.05-.45-.16c-.1-.11-.15-.24-.15-.4Zm4.32,4.38c0-.42.06-.81.18-1.17.12-.36.3-.68.52-.94.23-.26.51-.47.83-.62.32-.15.69-.23,1.1-.23s.78.08,1.11.23c.33.15.61.36.83.62.23.26.4.58.53.94.12.36.18.75.18,1.17v.12c0,.42-.06.81-.18,1.17-.12.36-.3.67-.53.93-.23.26-.5.47-.83.62-.32.15-.69.22-1.1.22s-.78-.07-1.11-.22c-.33-.15-.6-.36-.83-.62-.23-.26-.4-.58-.52-.93-.12-.36-.18-.75-.18-1.17v-.12Zm.99.12c0,.29.03.56.1.82.07.26.17.49.31.68.14.2.31.35.52.47.21.11.45.17.73.17s.51-.06.71-.17c.21-.12.38-.27.51-.47.14-.2.24-.42.31-.68.07-.26.1-.53.1-.82v-.12c0-.28-.04-.55-.11-.81-.07-.26-.17-.49-.31-.69-.14-.2-.31-.35-.52-.47-.2-.12-.44-.18-.72-.18s-.52.06-.72.18c-.2.11-.38.27-.52.47-.14.2-.24.43-.31.69-.07.26-.1.53-.1.81v.12Zm6.78-2.97l.07.86c.21-.3.47-.54.78-.7.31-.17.65-.26,1.03-.26.3,0,.58.04.83.13.25.09.46.22.64.4.17.18.31.41.4.7.1.28.15.61.15,1v3.69h-.99v-3.67c0-.26-.03-.48-.09-.66-.06-.18-.14-.32-.26-.43-.11-.11-.25-.19-.41-.24-.16-.05-.35-.08-.56-.08-.33,0-.63.08-.88.25-.25.16-.45.38-.6.65v4.17h-.99v-5.81h.89Zm9.58,4.27c0-.12-.02-.22-.07-.32-.05-.1-.13-.18-.24-.26-.11-.08-.26-.15-.44-.21-.18-.07-.41-.13-.68-.18-.33-.07-.64-.15-.91-.25-.27-.1-.51-.21-.7-.34-.19-.14-.34-.29-.45-.47-.11-.18-.16-.39-.16-.63s.05-.46.17-.66c.11-.21.27-.39.47-.54.2-.15.44-.28.71-.37.28-.09.59-.13.92-.13.36,0,.68.05.97.14.29.09.53.22.73.39.2.17.35.36.46.58.11.22.17.45.17.71h-.99c0-.12-.03-.25-.1-.36-.07-.12-.15-.23-.27-.32-.11-.09-.25-.17-.42-.23-.16-.06-.34-.09-.55-.09s-.4.02-.56.07c-.16.05-.29.11-.4.19-.1.08-.18.17-.24.27-.05.1-.08.21-.08.32s.02.22.07.31c.04.09.12.17.22.24.11.07.25.14.42.19.18.06.4.11.68.17.36.07.68.16.96.26.28.1.52.21.71.35.19.14.34.3.44.48.1.18.16.39.16.63,0,.26-.06.49-.18.7-.11.21-.28.39-.48.54-.21.15-.46.27-.75.35-.29.08-.61.12-.95.12-.39,0-.74-.05-1.05-.15-.31-.11-.57-.25-.78-.42-.21-.18-.37-.38-.49-.61-.11-.23-.17-.47-.17-.71h.99c.01.21.07.38.16.52.1.14.21.25.35.34.14.09.3.15.47.18s.34.05.51.05c.42,0,.75-.08.99-.23.24-.15.37-.36.37-.61Zm4.52-6.12l-.11,1.99h-.7v-1.9s0-.67,0-.67h.81v.59Zm1.92,0l-.11,1.99h-.69v-1.9s0-.67,0-.67h.81v.59Zm-175.65,22.71c0-.43.05-.83.16-1.19.11-.37.27-.68.47-.94.2-.26.45-.47.74-.61.29-.15.61-.22.96-.22s.65.06.91.18c.26.12.49.28.68.51v-3.01h.99v8.25h-.91l-.04-.61c-.19.24-.42.41-.69.54-.27.12-.58.18-.94.18s-.67-.07-.96-.22c-.28-.15-.52-.36-.73-.62-.2-.26-.36-.58-.47-.93-.11-.36-.17-.75-.17-1.17v-.11Zm.99.11c0,.28.03.55.09.81.06.25.15.48.28.67.13.19.29.35.49.46.2.11.43.17.71.17.17,0,.32-.02.46-.06.14-.04.26-.1.37-.17.11-.08.21-.16.29-.26.09-.1.16-.22.23-.34v-2.7c-.13-.24-.3-.43-.52-.58-.22-.15-.49-.23-.82-.23-.28,0-.52.06-.72.17-.2.12-.36.27-.49.47-.13.19-.22.42-.28.68-.06.25-.09.52-.09.81v.11Zm9.62,2.84c-.04-.07-.07-.17-.1-.28-.02-.11-.04-.23-.05-.35-.1.1-.21.2-.34.29-.12.09-.26.17-.41.24-.15.07-.3.12-.47.16-.17.04-.35.06-.54.06-.31,0-.59-.04-.84-.13-.25-.09-.46-.21-.63-.36-.17-.15-.31-.34-.4-.54-.09-.21-.14-.44-.14-.68,0-.32.06-.6.19-.84.13-.24.31-.44.54-.6.23-.16.51-.28.84-.36.33-.08.7-.12,1.1-.12h1.08v-.46c0-.18-.03-.33-.1-.47-.07-.14-.16-.26-.27-.35-.12-.1-.26-.18-.43-.23-.17-.05-.36-.08-.57-.08-.2,0-.38.03-.53.08-.15.05-.28.12-.39.2-.11.08-.19.18-.25.3-.06.11-.09.23-.09.35h-1c0-.21.06-.42.16-.62.11-.2.26-.39.46-.55.2-.16.44-.3.72-.4.29-.1.61-.15.97-.15.33,0,.64.04.92.12.28.08.53.2.73.37.21.16.37.36.49.61.12.24.18.53.18.85v2.7c0,.19.02.4.05.62.04.21.09.4.15.56v.09h-1.04Zm-1.76-.76c.19,0,.38-.02.54-.08.17-.05.32-.12.46-.2.14-.08.26-.18.36-.28.1-.11.18-.22.24-.33v-1.18h-.92c-.58,0-1.03.09-1.35.26-.32.17-.48.44-.48.81,0,.14.02.28.07.4.05.12.12.23.22.32.1.09.22.15.36.2.15.05.32.08.51.08Zm6.9-6.46v1.41h2.21v.77h-2.21v3.16c0,.22.03.41.09.56.06.15.14.26.24.35.1.09.21.15.34.18.13.04.27.05.42.05.11,0,.22,0,.33-.02.11-.01.23-.03.33-.05.11-.02.21-.04.31-.05.1-.02.18-.04.24-.05l.14.7c-.08.05-.18.1-.3.13-.12.04-.25.07-.39.09-.14.03-.29.05-.44.07-.15.01-.31.02-.46.02-.26,0-.5-.03-.73-.11-.22-.07-.42-.19-.58-.35-.17-.16-.3-.37-.39-.62-.09-.25-.14-.56-.14-.92v-3.16h-1.53v-.77h1.53v-1.41h1Zm8.07,7.22c-.04-.07-.07-.17-.1-.28-.02-.11-.04-.23-.05-.35-.1.1-.21.2-.34.29-.12.09-.26.17-.41.24-.15.07-.3.12-.47.16-.17.04-.35.06-.54.06-.31,0-.59-.04-.84-.13-.25-.09-.46-.21-.63-.36-.17-.15-.31-.34-.4-.54-.09-.21-.14-.44-.14-.68,0-.32.06-.6.19-.84.13-.24.31-.44.54-.6.23-.16.51-.28.84-.36.33-.08.7-.12,1.1-.12h1.08v-.46c0-.18-.03-.33-.1-.47-.07-.14-.16-.26-.27-.35-.12-.1-.26-.18-.43-.23-.17-.05-.36-.08-.57-.08-.2,0-.38.03-.53.08-.15.05-.29.12-.39.2-.11.08-.19.18-.25.3-.06.11-.09.23-.09.35h-1c0-.21.06-.42.16-.62.11-.2.26-.39.46-.55.2-.16.44-.3.72-.4.29-.1.61-.15.97-.15.33,0,.64.04.92.12.28.08.53.2.73.37.21.16.37.36.49.61.12.24.18.53.18.85v2.7c0,.19.02.4.05.62.04.21.09.4.15.56v.09h-1.04Zm-1.76-.76c.19,0,.37-.02.54-.08.17-.05.32-.12.46-.2.14-.08.26-.18.36-.28.1-.11.18-.22.24-.33v-1.18h-.92c-.58,0-1.03.09-1.35.26s-.48.44-.48.81c0,.14.02.28.07.4.05.12.12.23.22.32.1.09.22.15.36.2.15.05.32.08.51.08Zm8.89-2.26h-4.11v-.82h4.11v.82Zm4.83,3.12c-.41,0-.78-.07-1.13-.21-.34-.14-.63-.33-.88-.59-.24-.25-.43-.55-.57-.89-.14-.34-.2-.72-.2-1.12v-.23c0-.47.07-.89.23-1.26.15-.37.35-.69.6-.94.25-.26.53-.46.85-.59.32-.14.64-.2.98-.2.42,0,.78.07,1.1.22.32.14.58.34.78.6.21.25.36.55.46.9.1.35.16.72.16,1.13v.45h-4.15c.01.26.06.51.15.75.09.23.22.44.38.61.16.17.35.31.57.41.22.1.47.15.74.15.35,0,.67-.07.95-.21.28-.14.51-.33.69-.57l.61.47c-.1.15-.22.29-.37.42-.14.13-.31.25-.5.36-.19.1-.4.19-.64.25-.24.06-.5.1-.78.1Zm-.13-5.21c-.2,0-.39.04-.57.11-.18.07-.34.18-.48.32-.14.14-.26.31-.37.52-.1.2-.16.44-.2.71h3.13v-.07c-.01-.19-.05-.38-.11-.57-.06-.19-.15-.36-.27-.51-.12-.15-.27-.27-.46-.36-.18-.09-.4-.14-.65-.14Zm5.06-.71l.07.86c.21-.3.47-.54.78-.7.31-.17.65-.26,1.03-.26.3,0,.58.04.83.13.25.09.46.22.64.4.18.18.31.41.4.7.1.28.15.61.15,1v3.69h-.99v-3.67c0-.26-.03-.48-.09-.66-.06-.18-.14-.32-.26-.43-.11-.11-.25-.19-.41-.24-.16-.05-.35-.08-.56-.08-.33,0-.63.08-.88.25-.25.16-.45.38-.6.65v4.17h-.99v-5.81h.89Zm7.99,4.38l.09.36.1-.36,1.63-4.38h1.01l-2.37,5.81h-.76l-2.39-5.81h1.02l1.66,4.38Zm9.12-2.76h-4.8v-.87h4.8v.87Zm0,2.23h-4.8v-.86h4.8v.86Zm3.59-5.7l-.11,1.99h-.7v-1.9s0-.67,0-.67h.8v.59Zm1.92,0l-.11,1.99h-.69v-1.9s0-.67,0-.67h.81v.59Zm6.77,6.12c0-.12-.02-.22-.07-.32-.05-.1-.12-.18-.24-.26-.11-.08-.26-.15-.44-.21-.18-.07-.41-.13-.68-.18-.33-.07-.64-.15-.91-.25-.27-.1-.51-.21-.7-.34-.19-.14-.34-.29-.45-.47-.11-.18-.16-.39-.16-.63s.06-.46.17-.66c.11-.21.27-.39.47-.54.2-.15.44-.28.71-.37.28-.09.59-.13.92-.13.36,0,.68.05.97.14.29.09.53.22.73.39.2.17.35.36.46.58.11.22.17.45.17.71h-.99c0-.12-.03-.25-.1-.36-.06-.12-.15-.23-.27-.32-.11-.09-.25-.17-.42-.23-.16-.06-.34-.09-.55-.09s-.4.02-.56.07c-.16.05-.29.11-.4.19-.1.08-.18.17-.24.27-.05.1-.08.21-.08.32s.02.22.06.31c.04.09.12.17.22.24.11.07.25.14.43.19.18.06.4.11.68.17.36.07.68.16.96.26.28.1.52.21.71.35.19.14.34.3.44.48.1.18.15.39.15.63,0,.26-.06.49-.18.7-.11.21-.28.39-.48.54-.21.15-.46.27-.75.35-.29.08-.61.12-.95.12-.39,0-.74-.05-1.05-.15-.31-.11-.57-.25-.78-.42-.21-.18-.38-.38-.49-.61-.11-.23-.17-.47-.17-.71h.99c.01.21.07.38.16.52.1.14.22.25.36.34.14.09.3.15.47.18.17.04.34.05.51.05.42,0,.75-.08.99-.23.24-.15.37-.36.37-.61Zm6.56,1.54c-.04-.07-.07-.17-.1-.28-.02-.11-.04-.23-.05-.35-.1.1-.21.2-.34.29-.12.09-.26.17-.41.24-.15.07-.31.12-.47.16-.17.04-.35.06-.54.06-.31,0-.59-.04-.84-.13-.25-.09-.46-.21-.63-.36-.17-.15-.31-.34-.4-.54-.09-.21-.14-.44-.14-.68,0-.32.06-.6.19-.84.13-.24.31-.44.54-.6.23-.16.51-.28.84-.36.33-.08.7-.12,1.1-.12h1.08v-.46c0-.18-.03-.33-.1-.47-.06-.14-.15-.26-.27-.35-.12-.1-.26-.18-.43-.23-.17-.05-.36-.08-.57-.08-.2,0-.37.03-.53.08-.15.05-.28.12-.39.2-.11.08-.19.18-.25.3-.06.11-.09.23-.09.35h-1c0-.21.06-.42.16-.62.11-.2.26-.39.46-.55.2-.16.44-.3.73-.4.29-.1.61-.15.97-.15.33,0,.63.04.92.12.28.08.53.2.73.37.21.16.37.36.49.61.12.24.18.53.18.85v2.7c0,.19.02.4.05.62.04.21.09.4.15.56v.09h-1.04Zm-1.76-.76c.19,0,.37-.02.54-.08.17-.05.32-.12.46-.2.14-.08.26-.18.36-.28.1-.11.18-.22.24-.33v-1.18h-.92c-.58,0-1.03.09-1.35.26-.32.17-.48.44-.48.81,0,.14.02.28.07.4.05.12.12.23.22.32.1.09.22.15.37.2.15.05.32.08.51.08Zm5.43-5.05l.07.86c.21-.3.47-.54.78-.7.31-.17.65-.26,1.03-.26.31,0,.58.04.83.13.25.09.46.22.64.4.18.18.31.41.4.7.1.28.15.61.15,1v3.69h-.99v-3.67c0-.26-.03-.48-.09-.66-.06-.18-.14-.32-.26-.43-.11-.11-.25-.19-.41-.24-.16-.05-.35-.08-.56-.08-.33,0-.63.08-.88.25-.25.16-.45.38-.6.65v4.17h-.99v-5.81h.89Zm5.53,2.86c0-.43.05-.83.16-1.19.11-.37.27-.68.47-.94.2-.26.45-.47.74-.61.29-.15.61-.22.96-.22s.65.06.91.18c.26.12.49.28.68.51v-3.01h.99v8.25h-.91l-.04-.61c-.19.24-.42.41-.69.54-.27.12-.58.18-.94.18s-.67-.07-.96-.22c-.28-.15-.52-.36-.72-.62-.2-.26-.36-.58-.47-.93-.11-.36-.17-.75-.17-1.17v-.11Zm.99.11c0,.28.03.55.09.81.06.25.15.48.28.67.13.19.29.35.49.46.2.11.43.17.71.17.17,0,.32-.02.46-.06s.26-.1.37-.17c.11-.08.21-.16.3-.26.09-.1.16-.22.23-.34v-2.7c-.13-.24-.3-.43-.52-.58-.22-.15-.49-.23-.82-.23-.28,0-.52.06-.72.17-.2.12-.36.27-.49.47-.13.19-.22.42-.28.68-.06.25-.09.52-.09.81v.11Zm10.73,0c0,.42-.05.8-.15,1.17-.1.36-.25.67-.44.93-.19.26-.43.47-.72.62-.28.15-.61.22-.98.22s-.7-.07-.97-.2c-.27-.13-.5-.32-.7-.57l-.05.66h-.91v-8.25h.99v3.06c.19-.24.42-.42.69-.54.27-.12.58-.19.94-.19s.7.07.99.22c.29.15.53.35.72.61.19.26.34.57.44.94.1.36.15.76.15,1.19v.11Zm-.99-.11c0-.28-.03-.55-.09-.81-.05-.26-.14-.48-.26-.68-.12-.2-.28-.35-.48-.47-.2-.11-.44-.17-.73-.17-.17,0-.33.02-.47.07-.14.04-.27.11-.39.19-.11.08-.21.17-.3.28-.09.11-.16.23-.22.35v2.54c.06.13.14.25.23.36.09.11.19.2.31.28.12.08.24.15.39.19.14.04.3.06.47.06.27,0,.51-.06.7-.17.2-.12.36-.27.48-.46.12-.19.22-.42.27-.67.06-.25.09-.52.09-.81v-.11Zm2.4,0c0-.42.06-.81.18-1.17.12-.36.3-.68.52-.94.23-.26.51-.47.83-.62.33-.15.69-.23,1.1-.23s.78.08,1.11.23c.33.15.61.36.83.62.23.26.4.58.53.94.12.36.18.75.18,1.17v.12c0,.42-.06.81-.18,1.17-.12.36-.3.67-.53.93-.23.26-.5.47-.83.62-.33.15-.69.22-1.1.22s-.78-.07-1.11-.22c-.33-.15-.6-.36-.83-.62-.23-.26-.4-.58-.52-.93-.12-.36-.18-.75-.18-1.17v-.12Zm.99.12c0,.29.04.56.1.82.07.26.17.49.31.68.14.2.31.35.52.47.21.11.45.17.73.17s.51-.06.71-.17c.21-.12.38-.27.52-.47.14-.2.24-.42.31-.68.07-.26.1-.53.1-.82v-.12c0-.28-.04-.55-.11-.81-.07-.26-.17-.49-.31-.69-.14-.2-.31-.35-.51-.47-.2-.12-.44-.18-.72-.18s-.52.06-.72.18c-.2.11-.38.27-.51.47-.14.2-.24.43-.31.69-.07.26-.1.53-.1.81v.12Zm8.29-.82l1.55-2.15h1.16l-2.16,2.87,2.22,2.94h-1.15l-1.61-2.21-1.61,2.21h-1.16l2.22-2.94-2.16-2.87h1.15l1.54,2.15Zm5.98-4.01l-.11,1.99h-.7v-1.9s0-.67,0-.67h.81v.59Zm1.92,0l-.11,1.99h-.69v-1.9s0-.67,0-.67h.81v.59Zm2.93,2.78v-1.03l4.74,2.03v.78l-4.74,2.04v-1.03l3.47-1.31.32-.09-.32-.1-3.47-1.29Zm-130.9,19.32l-.28.09.28.1,3.29,1.27v1.05l-4.55-2.04v-.78l4.55-2.03v1.05l-3.29,1.29Zm6.67,4.23h-.89l3.27-8.49h.89l-3.26,8.49Zm9.16-2.21c0-.12-.02-.22-.07-.32-.05-.1-.12-.18-.24-.26-.11-.08-.26-.15-.44-.21-.18-.07-.41-.13-.68-.18-.33-.07-.64-.15-.91-.25-.27-.1-.51-.21-.7-.34-.19-.14-.34-.29-.45-.47-.11-.18-.16-.39-.16-.63s.06-.46.17-.66c.11-.21.27-.39.47-.54.2-.15.44-.28.71-.37.28-.09.59-.13.92-.13.36,0,.68.05.97.14.29.09.53.22.73.39.2.17.35.36.46.58.11.22.17.45.17.71h-.99c0-.12-.03-.25-.1-.36-.06-.12-.15-.23-.27-.32-.11-.09-.25-.17-.42-.23-.16-.06-.34-.09-.55-.09s-.4.02-.56.07c-.16.05-.29.11-.4.19-.1.08-.18.17-.24.27-.05.1-.08.21-.08.32s.02.22.06.31c.04.09.12.17.22.24.11.07.25.14.42.19.18.06.4.11.68.17.36.08.68.16.96.26.28.1.52.21.71.36.19.14.34.29.44.48.1.18.16.39.16.63,0,.26-.06.49-.18.7-.11.21-.28.39-.48.54-.21.15-.46.27-.75.35s-.61.12-.95.12c-.39,0-.74-.05-1.05-.15-.31-.11-.57-.25-.78-.42-.21-.18-.37-.38-.49-.61-.11-.23-.17-.47-.17-.71h.99c.01.2.07.38.16.52.1.14.21.25.35.34.14.09.3.15.47.18.17.04.34.05.51.05.42,0,.75-.08.99-.23.24-.15.37-.36.37-.61Zm5.22.84c.18,0,.35-.03.52-.09.17-.06.32-.14.46-.24.13-.1.24-.22.32-.36.08-.14.13-.29.13-.45h.94c0,.26-.07.51-.2.74-.13.23-.3.44-.52.62-.22.18-.47.32-.75.42-.28.1-.58.15-.89.15-.44,0-.83-.08-1.16-.24-.33-.16-.6-.37-.83-.63-.22-.27-.38-.58-.49-.92-.11-.35-.17-.72-.17-1.11v-.23c0-.38.06-.75.17-1.1.11-.35.28-.66.49-.92.22-.27.5-.48.83-.64.33-.16.72-.24,1.16-.24.34,0,.66.06.94.17.29.11.54.26.75.45.21.19.38.41.49.67.12.26.18.53.18.83h-.94c0-.18-.04-.34-.12-.5-.07-.16-.17-.29-.3-.41-.13-.12-.28-.21-.45-.28-.17-.07-.36-.1-.56-.1-.31,0-.57.06-.78.19-.21.12-.38.28-.5.48-.13.2-.22.42-.28.67-.05.25-.08.5-.08.75v.23c0,.25.03.51.08.76.06.25.15.47.27.67.13.2.3.36.5.48.21.12.47.18.78.18Zm7.94-5.22c.09,0,.19,0,.29.01.1,0,.2.01.28.03.09.01.18.03.25.04.08.02.14.04.19.06l-.13.97c-.19-.04-.38-.07-.55-.09-.17-.02-.35-.03-.54-.03-.47,0-.84.11-1.13.32-.29.21-.5.51-.63.89v3.73h-1v-5.81h.94l.05.92c.24-.32.52-.57.85-.75.33-.19.71-.28,1.13-.28Zm2.96.11h2.97v4.95h1.9v.86h-4.87v-.86h1.98v-4.09h-1.98v-.87Zm1.85-1.52c0-.17.05-.3.14-.41.1-.11.25-.17.45-.17s.35.06.45.17c.1.11.15.25.15.41s-.05.3-.15.4c-.1.11-.25.16-.45.16s-.35-.05-.45-.16c-.1-.11-.14-.24-.14-.4Zm9.51,4.5c0,.42-.05.8-.15,1.17-.1.36-.25.67-.44.93-.19.26-.43.47-.72.62-.28.15-.61.23-.97.23s-.67-.06-.94-.17c-.27-.11-.5-.28-.69-.49v2.79h-.99v-8.05h.91l.05.63c.19-.24.43-.42.7-.55.28-.13.6-.19.96-.19s.7.07.99.22c.29.15.53.35.72.61.19.26.34.57.44.94.1.36.15.76.15,1.19v.11Zm-.99-.11c0-.28-.03-.55-.1-.81-.06-.26-.16-.48-.29-.68-.13-.2-.29-.35-.49-.47-.2-.11-.44-.17-.72-.17-.32,0-.59.08-.81.23-.22.15-.39.34-.52.57v2.8c.13.23.3.42.52.56.21.14.49.21.82.21.28,0,.51-.06.71-.17.2-.12.36-.28.49-.47.13-.2.22-.42.28-.68.06-.26.1-.53.1-.81v-.11Zm5.05-4.26v1.41h2.21v.77h-2.21v3.16c0,.23.03.41.09.56.06.15.14.26.24.36.1.09.21.15.34.18.13.04.27.05.42.05.11,0,.22,0,.33-.02.12-.01.23-.03.33-.05.11-.02.21-.04.31-.05.1-.02.18-.04.24-.05l.14.7c-.08.05-.18.1-.3.13-.12.04-.25.07-.39.09-.14.03-.29.05-.45.07-.15.01-.31.02-.46.02-.26,0-.5-.04-.72-.11-.22-.08-.42-.19-.58-.35-.17-.16-.29-.37-.39-.62-.09-.25-.14-.56-.14-.92v-3.16h-1.53v-.77h1.53v-1.41h1Zm4.28,2.34v-1.03l4.74,2.03v.78l-4.74,2.04v-1.03l3.48-1.31.32-.09-.32-.1-3.48-1.29Z"/>
      <g id="Group_13" data-name="Group 13">
        <g id="Group_11" data-name="Group 11">
          <path id="Rectangle_Copy" data-name="Rectangle Copy" class="cls-6" d="m0,8C0,3.58,3.58,0,8,0h375.73c4.42,0,8,3.58,8,8v27.21H0V8Z"/>
          <g id="Group_10" data-name="Group 10">
            <circle id="Oval" class="cls-2" cx="21.13" cy="17.61" r="7.04"/>
            <circle id="Oval_Copy" data-name="Oval Copy" class="cls-1" cx="40.85" cy="17.61" r="7.04"/>
            <circle id="Oval_Copy_2" data-name="Oval Copy 2" class="cls-4" cx="60.56" cy="17.61" r="7.04"/>
          </g>
        </g>
      </g>
    </g>
  </g>
</svg>