<?xml version="1.0" encoding="UTF-8"?>
<svg id="Layer_2" data-name="Layer 2" xmlns="http://www.w3.org/2000/svg" xmlns:xlink="http://www.w3.org/1999/xlink" viewBox="0 0 525 998.86">
  <defs>
    <style>
      .cls-1 {
        fill: #ba4270;
      }

      .cls-1, .cls-2, .cls-3, .cls-4, .cls-5, .cls-6, .cls-7, .cls-8, .cls-9, .cls-10, .cls-11, .cls-12, .cls-13 {
        stroke-width: 0px;
      }

      .cls-14 {
        clip-path: url(#clippath-2);
      }

      .cls-2 {
        fill: url(#linear-gradient-3);
      }

      .cls-2, .cls-3, .cls-5, .cls-12 {
        isolation: isolate;
      }

      .cls-2, .cls-3, .cls-8, .cls-9, .cls-11, .cls-12 {
        fill-rule: evenodd;
      }

      .cls-2, .cls-12 {
        opacity: .75;
      }

      .cls-3 {
        fill: url(#linear-gradient);
        fill-opacity: .65;
        opacity: .6;
      }

      .cls-4 {
        fill: none;
      }

      .cls-15 {
        clip-path: url(#clippath-1);
      }

      .cls-5 {
        opacity: .5;
      }

      .cls-5, .cls-7 {
        fill: #36536b;
      }

      .cls-6, .cls-8 {
        fill: #fff;
      }

      .cls-16 {
        clip-path: url(#clippath);
      }

      .cls-9 {
        fill: #213648;
      }

      .cls-10 {
        fill: #fbfcfe;
      }

      .cls-11 {
        fill: #2e423c;
      }

      .cls-17 {
        mask: url(#mask);
      }

      .cls-12 {
        fill: url(#linear-gradient-2);
      }

      .cls-13 {
        fill: url(#linear-gradient-4);
      }
    </style>
    <linearGradient id="linear-gradient" x1="262.67" y1="1097.89" x2="262.67" y2="1073.24" gradientTransform="translate(0 1097.89) scale(1 -1)" gradientUnits="userSpaceOnUse">
      <stop offset="0" stop-color="#454545"/>
      <stop offset=".23" stop-color="#999"/>
      <stop offset="1" stop-color="#fff"/>
    </linearGradient>
    <linearGradient id="linear-gradient-2" x1="520.21" y1="600.24" x2="501.28" y2="600.24" gradientTransform="translate(0 1097.89) scale(1 -1)" gradientUnits="userSpaceOnUse">
      <stop offset="0" stop-color="#fff" stop-opacity="0"/>
      <stop offset=".22" stop-color="#bababa"/>
      <stop offset=".55" stop-color="#fff" stop-opacity="0"/>
      <stop offset="1" stop-color="#fff" stop-opacity="0"/>
    </linearGradient>
    <linearGradient id="linear-gradient-3" x1="5.14" y1="600.24" x2="24.09" y2="600.24" xlink:href="#linear-gradient-2"/>
    <clipPath id="clippath">
      <rect class="cls-4" x="30.15" y="24.89" width="466" height="930"/>
    </clipPath>
    <mask id="mask" x="30" y="24.89" width="466" height="930" maskUnits="userSpaceOnUse">
      <g id="mask0_0_4910" data-name="mask0 0 4910">
        <path id="Screen_Mask_2" data-name="Screen Mask_2" class="cls-8" d="m217.35,24.89H68.54c-22.21,0-38.39,15.13-38.39,34.88v844.78c0,25.76,25.01,48.58,53.28,48.58h358.67c27.23,0,53.28-23,53.28-48.58V62.05c0-23.68-17.58-37.02-38.39-37.17h-151.17c-.57.09-10.96,4.36-15.35,15.13-4.39,10.76-13.22,19.34-22.89,19.34h-11.23c-4.6,0-16.7-4.46-22.82-19.34-6.13-14.88-15.6-15.03-16.17-15.13Z"/>
      </g>
    </mask>
    <linearGradient id="linear-gradient-4" x1="263" y1="1073" x2="263" y2="150.24" gradientTransform="translate(0 1097.89) scale(1 -1)" gradientUnits="userSpaceOnUse">
      <stop offset="0" stop-color="#9cb6cd"/>
      <stop offset=".42" stop-color="#9ab3ca"/>
      <stop offset=".72" stop-color="#557496"/>
      <stop offset="1" stop-color="#475178"/>
    </linearGradient>
    <clipPath id="clippath-1">
      <rect class="cls-4" x="44" y="334" width="436" height="174"/>
    </clipPath>
    <clipPath id="clippath-2">
      <rect class="cls-4" x="76" y="366" width="374" height="22"/>
    </clipPath>
  </defs>
  <g id="Layer_1-2" data-name="Layer 1">
    <g id="Group_30" data-name="Group 30">
      <g id="Group_2" data-name="Group 2">
        <g id="iPhone-X-Mockup">
          <g id="phone">
            <g id="body">
              <path class="cls-9" d="m71.55,1.14h382.47c36.68,0,66.42,28.47,66.42,63.59v870.54c0,35.12-29.74,63.59-66.42,63.59H71.55c-36.68,0-66.42-28.47-66.42-63.59V64.73C5.14,29.61,34.87,1.14,71.55,1.14Z"/>
            </g>
            <g id="frame">
              <path id="reflect-frame-top" class="cls-3" d="m455.5,0H69.85c-18.01,1.1-34.61,9.31-49.82,24.65,9.78-8.54,27.22-19.96,50.28-19.96h384.72c23.06,0,40.5,11.42,50.28,19.96-15.21-15.33-31.81-23.55-49.82-24.65Z"/>
              <path id="reflect-frame-right" class="cls-12" d="m510,925.34V69.96c0-22.95-8.43-31.43-13.47-36.88-5.03-5.45-5.25-8.23,1.98-4.11,7.23,4.11,21.69,16.09,21.69,41v855.38c0,24.9-14.46,36.88-21.69,41-7.23,4.11-7.02,1.33-1.98-4.12,5.03-5.44,13.47-13.93,13.47-36.88Z"/>
              <path id="reflect-frame-left" class="cls-2" d="m15.34,925.34V69.96c0-22.95,8.44-31.43,13.47-36.88,5.03-5.45,5.25-8.23-1.98-4.11-7.23,4.11-21.69,16.09-21.69,41v855.38c0,24.9,14.46,36.88,21.69,41,7.23,4.11,7.01,1.33,1.98-4.12-5.03-5.44-13.47-13.93-13.47-36.88Z"/>
            </g>
            <g id="controls">
              <path id="vol_" data-name="vol+" class="cls-11" d="m0,207.11c0-2.21,1.79-4,4-4h1.93c2.21,0,4,1.79,4,4v120.7c0,2.21-1.79,4-4,4h-1.93c-2.21,0-4-1.79-4-4v-120.7Z"/>
              <path id="power" class="cls-11" d="m515.07,312.09c0-2.21,1.79-4,4-4h1.93c2.21,0,4,1.79,4,4v85.9c0,2.21-1.79,4-4,4h-1.93c-2.21,0-4-1.79-4-4v-85.9Z"/>
            </g>
          </g>
          <g class="cls-16">
            <g id="Screen">
              <path id="Screen_Mask" data-name="Screen Mask" class="cls-8" d="m217.35,24.89H68.54c-22.21,0-38.39,15.13-38.39,34.88v844.78c0,25.76,25.01,48.58,53.28,48.58h358.67c27.23,0,53.28-23,53.28-48.58V62.05c0-23.68-17.58-37.02-38.39-37.17h-151.17c-.57.09-10.96,4.36-15.35,15.13-4.39,10.76-13.22,19.34-22.89,19.34h-11.23c-4.6,0-16.7-4.46-22.82-19.34-6.13-14.88-15.6-15.03-16.17-15.13Z"/>
              <g class="cls-17">
                <g>
                  <rect id="Rectangle" class="cls-13" x="30" y="24.89" width="466" height="930"/>
                  <path id="_12:49" data-name="12:49" class="cls-6" d="m189.01,282v-34.66h-8.26v-5.28c2.64,0,4.78-.24,6.4-.74,1.64-.51,2.87-1.24,3.68-2.18.81-.96,1.29-2.1,1.44-3.42h6.21v46.27h-9.47Zm19.98,0v-6.98c0-2.35.44-4.37,1.31-6.08.88-1.73,2.03-3.22,3.46-4.48,1.45-1.28,3.03-2.4,4.74-3.36,1.73-.96,3.46-1.87,5.18-2.72,1.73-.85,3.31-1.71,4.74-2.56,1.45-.88,2.61-1.85,3.49-2.91.88-1.07,1.31-2.32,1.31-3.78,0-1.86-.65-3.37-1.95-4.54-1.28-1.17-3.04-1.76-5.28-1.76s-4.3.67-5.92,2.02-2.62,3.37-3.01,6.08h-8.93c.04-2.94.72-5.61,2.05-8,1.34-2.41,3.35-4.32,6.02-5.73,2.67-1.41,6.02-2.11,10.05-2.11,3.46,0,6.43.59,8.93,1.76,2.52,1.17,4.46,2.81,5.82,4.9,1.36,2.09,2.05,4.53,2.05,7.33,0,2.33-.43,4.33-1.28,6.02s-1.98,3.12-3.39,4.32c-1.41,1.2-2.96,2.24-4.64,3.14s-3.37,1.73-5.06,2.5c-1.66.77-3.2,1.56-4.61,2.37-1.41.79-2.54,1.68-3.39,2.69-.85,1-1.28,2.21-1.28,3.62v.42h23.58v7.87h-33.98Zm50.42-32.29v10.02h-10.24v-10.02h10.24Zm0,22.11v9.98h-10.24v-9.98h10.24Zm27.5-36.1h9.18v28.19h7.14v7.84h-7.14v10.24h-8.99l.03-10.24h-21.31v-7.68l21.09-28.35Zm-12.45,28.19h12.67v-16.96l-12.67,16.96Zm50.42,18.78c-2.88,0-5.57-.56-8.06-1.66-2.5-1.11-4.53-2.67-6.11-4.67-1.58-2.03-2.46-4.4-2.66-7.1h8.9c.38,1.79,1.24,3.25,2.56,4.38,1.32,1.11,2.99,1.66,4.99,1.66,2.22,0,4.16-.52,5.82-1.57,1.68-1.04,2.94-2.71,3.78-4.99.85-2.28,1.15-5.27.9-8.96-.6,1.13-1.43,2.12-2.5,2.98-1.05.83-2.27,1.48-3.68,1.95-1.41.45-2.98.67-4.7.67-3.14,0-5.92-.59-8.35-1.76-2.41-1.19-4.31-2.88-5.7-5.06-1.37-2.2-2.05-4.8-2.05-7.81s.73-5.73,2.18-8.1c1.45-2.37,3.48-4.22,6.08-5.57,2.6-1.34,5.65-2.02,9.15-2.02,3.92,0,7.31.94,10.14,2.82,2.86,1.86,5.05,4.5,6.56,7.94,1.54,3.41,2.3,7.43,2.3,12.06,0,5.52-.79,10.13-2.37,13.82-1.56,3.67-3.8,6.42-6.72,8.26-2.92,1.81-6.41,2.72-10.46,2.72Zm.83-24.74c1.3,0,2.56-.29,3.78-.86,1.24-.6,2.25-1.34,3.04-2.24.79-.9,1.18-1.82,1.18-2.78.02-2.07-.31-3.84-.99-5.31-.66-1.49-1.6-2.64-2.82-3.42-1.19-.79-2.59-1.18-4.19-1.18-1.47,0-2.78.34-3.94,1.02-1.15.68-2.06,1.64-2.72,2.88-.66,1.24-.99,2.67-.99,4.29,0,2.41.7,4.29,2.11,5.63,1.41,1.32,3.25,1.98,5.54,1.98Z"/>
                </g>
              </g>
            </g>
          </g>
        </g>
      </g>
      <g class="cls-15">
        <g id="Group_29" data-name="Group 29">
          <g id="Rectangle_2" data-name="Rectangle 2">
            <rect class="cls-10" x="44" y="334" width="436" height="174" rx="5" ry="5"/>
          </g>
          <g class="cls-14">
            <g id="Group_28" data-name="Group 28">
              <path id="PayAPI" class="cls-1" d="m77.62,386v-14.46h5.32c1.05,0,2,.18,2.83.55.83.36,1.49.89,1.97,1.6.49.71.73,1.57.73,2.59,0,.96-.21,1.78-.64,2.46-.43.68-1.03,1.2-1.8,1.56-.77.36-1.67.54-2.71.54h-2.76v5.16h-2.94Zm2.91-7.42h2.71c.73,0,1.33-.23,1.8-.7.47-.47.7-1.06.7-1.75s-.25-1.29-.74-1.71c-.49-.43-1.09-.64-1.8-.64h-2.67v4.8Zm12.49,7.62c-.66,0-1.25-.12-1.78-.37-.53-.25-.94-.6-1.25-1.07-.31-.47-.46-1.05-.46-1.72,0-1.13.42-1.99,1.27-2.58.85-.59,2.18-.9,4.01-.92l1.29-.02v-.62c0-.47-.14-.84-.42-1.09-.27-.26-.7-.39-1.28-.38-.43,0-.83.11-1.22.3-.38.19-.64.53-.78,1.01h-2.43c.04-.75.26-1.36.65-1.84.39-.49.93-.85,1.6-1.08.68-.24,1.45-.36,2.31-.36,1.06,0,1.91.13,2.55.4.64.26,1.1.64,1.39,1.13.29.49.43,1.07.43,1.74v7.27h-2.44l-.24-1.78c-.35.75-.8,1.26-1.33,1.55-.53.29-1.15.43-1.87.43Zm.98-1.92c.27,0,.52-.05.77-.14.25-.1.48-.23.67-.39.2-.17.36-.35.48-.56.12-.21.18-.42.18-.64v-1.53l-1.05.02c-.49,0-.94.07-1.36.18-.42.11-.76.28-1.02.53-.25.25-.38.58-.38,1,0,.48.17.86.5,1.13.33.27.74.4,1.21.4Zm8.72,5.02c-.71,0-1.21-.06-1.5-.18-.29-.11-.43-.17-.43-.17v-1.86l1.02.04c.45.03.81,0,1.08-.07.27-.07.48-.16.62-.27.15-.11.25-.23.31-.36.06-.12.1-.22.13-.29l.19-.57-4.02-9.91h2.89l2.48,6.74,2.51-6.74h2.85l-4.19,10.4c-.36.88-.74,1.55-1.14,2.02-.4.47-.83.79-1.3.96-.46.17-.96.26-1.5.26Zm7.73-3.3l5.18-14.46h3.08l5.17,14.46h-2.91l-1.18-3.35h-5.2l-1.21,3.35h-2.93Zm4.79-5.9h3.85l-1.91-5.74-1.94,5.74Zm10.81,5.9v-14.46h5.32c1.05,0,2,.18,2.83.55.83.36,1.49.89,1.97,1.6.49.71.73,1.57.73,2.59,0,.96-.21,1.78-.64,2.46-.43.68-1.03,1.2-1.8,1.56-.77.36-1.67.54-2.71.54h-2.76v5.16h-2.94Zm2.91-7.42h2.71c.73,0,1.33-.23,1.8-.7.47-.47.7-1.06.7-1.75s-.25-1.29-.74-1.71c-.49-.43-1.09-.64-1.8-.64h-2.67v4.8Zm10.14-7.04h2.91v14.46h-2.91v-14.46Z"/>
              <path id="Just_Now" data-name="Just Now" class="cls-5" d="m371.22,382.59c0,.77-.09,1.42-.26,1.96-.17.54-.48.95-.93,1.23-.44.28-1.07.42-1.88.42-.51,0-1-.06-1.45-.18-.45-.12-.74-.21-.89-.27l.13-1.77c.21.07.44.17.71.28.27.11.61.16,1.01.16.65,0,1.1-.18,1.34-.54.25-.36.37-.97.37-1.82v-10.52h1.85v11.05Zm6.86,3.61c-.54,0-1.05-.08-1.53-.23-.47-.15-.89-.38-1.26-.67-.37-.29-.66-.66-.87-1.09-.21-.44-.31-.95-.31-1.53v-7.02h1.85v6.83c0,.67.21,1.22.62,1.64.42.42,1.05.63,1.89.63.76,0,1.37-.2,1.83-.59.47-.4.7-.99.7-1.78v-6.73h1.84v10.34h-1.47l-.19-1.98c-.13.52-.34.94-.65,1.26-.3.32-.66.56-1.09.71-.42.15-.87.22-1.36.21Zm11.32,0c-.72,0-1.39-.11-2.01-.33-.61-.23-1.12-.58-1.53-1.05-.41-.48-.66-1.09-.77-1.83h1.68c.09.41.26.75.5,1.02.25.27.55.47.92.61.37.13.77.2,1.2.2.69,0,1.25-.13,1.68-.39.43-.26.64-.66.64-1.2,0-.38-.11-.68-.34-.91-.22-.23-.56-.4-1.03-.51l-2.14-.53c-.83-.2-1.5-.51-2-.94s-.75-1.02-.75-1.79c0-.61.14-1.14.43-1.6.29-.46.73-.82,1.32-1.09.59-.27,1.32-.4,2.19-.4,1.12,0,2.02.25,2.71.76.69.5,1.05,1.24,1.08,2.21h-1.63c-.07-.49-.29-.88-.67-1.17-.37-.29-.88-.44-1.51-.44s-1.2.13-1.61.4c-.41.26-.62.67-.62,1.22,0,.37.15.66.44.87.29.21.73.38,1.3.52l2.07.52c.48.13.87.29,1.18.5.31.21.56.44.74.69.19.25.32.52.39.8.08.27.12.54.12.79,0,.63-.16,1.18-.48,1.64-.31.45-.77.81-1.36,1.06-.59.25-1.3.37-2.14.37Zm11.6-9.19h-2.33v6.43c0,.37.04.64.11.81.08.17.21.27.39.32.19.05.44.07.76.07h1.13v1.24c-.13.05-.32.09-.58.12-.25.03-.57.05-.95.05-.71,0-1.27-.1-1.66-.29-.39-.19-.67-.48-.83-.86-.15-.38-.23-.85-.23-1.4v-6.49h-1.68v-1.35h1.73l.45-3.01h1.36v3h2.33v1.36Zm17.06-5.47h1.85v14.46h-1.65l-7.76-11.4v11.4h-1.85v-14.46h1.77l7.64,11.24v-11.24Zm9.26,14.66c-.95,0-1.79-.2-2.5-.61-.71-.41-1.27-1.02-1.66-1.81-.39-.79-.59-1.76-.59-2.91,0-1.08.18-2.03.55-2.84.37-.81.9-1.44,1.61-1.89.71-.45,1.58-.68,2.59-.68.95,0,1.78.21,2.48.63.71.41,1.25,1.02,1.64,1.83.39.81.58,1.79.58,2.95,0,1.05-.18,1.98-.54,2.78-.35.8-.88,1.43-1.58,1.88-.69.45-1.55.67-2.58.67Zm0-1.46c.62,0,1.14-.16,1.57-.47.43-.31.75-.76.97-1.35.22-.59.33-1.28.33-2.09,0-.74-.1-1.4-.29-1.99-.19-.59-.5-1.06-.93-1.41-.42-.35-.97-.52-1.65-.52-.63,0-1.16.16-1.59.47-.43.31-.76.75-.99,1.34-.22.59-.33,1.29-.33,2.11,0,.73.1,1.39.3,1.98.2.59.51,1.06.94,1.41.43.35.98.52,1.67.52Zm20.35-9.08l-3.13,10.34h-1.82l-2.36-7.63-2.24,7.63h-1.81l-3.19-10.34h1.71l2.37,7.95h.16l2.33-7.95h1.4l2.42,7.93h.16l2.27-7.93h1.73Z"/>
            </g>
          </g>
          <path id="The_payment_has_been" data-name="The payment has been" class="cls-7" d="m76.46,405.24v-1.7h10.94v1.7h-4.41v12.76h-1.86v-12.76h-4.67Zm12.94,12.76v-14.86h1.8v6.04c.17-.29.41-.55.7-.8.29-.25.65-.46,1.07-.61.42-.16.91-.24,1.46-.24.67,0,1.28.13,1.83.38.55.25.98.6,1.3,1.06.32.46.48,1.01.48,1.64v7.39h-1.85v-7.02c0-.62-.21-1.1-.64-1.43-.42-.34-.97-.51-1.65-.51-.46,0-.89.08-1.3.23-.41.15-.74.37-.99.68-.25.3-.37.68-.37,1.15v6.9h-1.84Zm12.84-4.74c0,.65.11,1.25.32,1.78.22.53.55.95.99,1.26.45.31,1,.47,1.67.47s1.23-.15,1.7-.46c.48-.31.79-.75.92-1.33h1.75c-.13.7-.41,1.29-.84,1.77-.43.48-.96.84-1.57,1.09-.61.24-1.25.36-1.92.36-.97,0-1.82-.21-2.55-.63-.73-.42-1.31-1.02-1.72-1.81-.41-.79-.62-1.73-.62-2.83s.19-2.04.56-2.86c.37-.82.91-1.46,1.62-1.92.71-.46,1.57-.69,2.57-.69s1.8.21,2.47.63c.67.42,1.18,1.01,1.53,1.78.35.76.53,1.66.53,2.71v.68h-7.41Zm0-1.25h5.62c0-.59-.1-1.13-.3-1.6-.2-.48-.51-.86-.92-1.13-.41-.28-.92-.42-1.54-.42s-1.18.16-1.61.47c-.42.31-.74.7-.95,1.19-.21.48-.31.98-.3,1.49Zm14.41,9.21v-13.56h1.84l.02,1.8c.12-.21.27-.44.46-.67.19-.23.43-.45.7-.65.28-.2.6-.36.97-.49.37-.13.8-.19,1.27-.19.83,0,1.55.19,2.18.57.63.37,1.13.95,1.48,1.72.35.77.53,1.75.53,2.94s-.17,2.19-.52,3.01c-.34.81-.83,1.43-1.48,1.86-.65.43-1.43.64-2.34.64-.46,0-.87-.07-1.23-.2-.35-.13-.66-.29-.93-.5-.26-.21-.48-.44-.66-.68-.17-.24-.32-.47-.43-.69v5.09h-1.86Zm4.76-4.46c.85,0,1.55-.32,2.09-.97.54-.65.81-1.67.81-3.04,0-1.18-.25-2.12-.74-2.81-.49-.69-1.21-1.04-2.16-1.04s-1.69.36-2.18,1.07c-.49.71-.74,1.63-.74,2.78,0,.74.11,1.41.33,2.02s.55,1.09.98,1.45c.43.36.97.54,1.61.54Zm9.84,1.44c-.67,0-1.26-.12-1.77-.35-.51-.24-.92-.58-1.21-1.03-.29-.45-.43-.99-.43-1.62,0-1.15.4-2,1.2-2.56.8-.56,2.08-.86,3.85-.9l1.85-.05v-.81c0-.63-.19-1.13-.57-1.5-.38-.37-.97-.56-1.77-.56-.59,0-1.12.15-1.57.42-.45.27-.74.72-.87,1.34h-1.63c.04-.67.23-1.24.57-1.7.34-.47.81-.82,1.42-1.06.61-.24,1.34-.36,2.17-.36.9,0,1.65.13,2.24.38.6.25,1.05.63,1.34,1.12.3.49.45,1.1.45,1.82v7.22h-1.58l-.13-1.94c-.4.81-.91,1.37-1.53,1.68-.61.31-1.29.46-2.03.46Zm.56-1.33c.35,0,.69-.06,1.03-.19.35-.13.66-.3.95-.51.29-.22.51-.46.68-.73.17-.27.26-.55.27-.84v-1.77l-1.54.03c-.79.01-1.45.09-1.98.24-.53.15-.92.38-1.19.69-.26.31-.39.72-.39,1.23,0,.58.2,1.03.6,1.36.41.33.93.49,1.57.49Zm8.56,4.43c-.61,0-1.02-.04-1.25-.13-.23-.09-.34-.13-.34-.13v-1.2l1.05.02c.39.01.71-.01.96-.08.25-.07.46-.16.61-.27.15-.11.27-.24.35-.38.09-.14.16-.27.21-.4l.36-.98-4.04-10.09h1.87l3.05,7.98,3.03-7.98h1.81l-4.36,11.12c-.27.65-.57,1.16-.9,1.53-.33.37-.69.62-1.1.77-.4.15-.84.22-1.31.22Zm9.64-3.3v-10.34h1.78v1.5c.29-.45.68-.85,1.18-1.19.5-.34,1.15-.51,1.95-.51.37,0,.75.06,1.14.19.39.13.75.32,1.08.57.33.25.58.56.76.93.32-.51.75-.91,1.3-1.22.55-.31,1.16-.47,1.85-.47.36,0,.74.06,1.13.17.39.11.76.3,1.09.58.34.27.62.66.83,1.15.21.49.32,1.11.32,1.88v6.76h-1.86v-6.58c0-.63-.1-1.11-.3-1.45-.2-.35-.46-.59-.79-.73-.32-.14-.66-.21-1.03-.21-.32,0-.66.06-1.02.19-.36.13-.67.34-.92.64-.25.3-.38.71-.38,1.23v6.91h-1.84v-7.12c0-.41-.11-.75-.33-1.02-.21-.27-.48-.48-.81-.62-.32-.14-.64-.21-.96-.21-.35,0-.71.07-1.07.21-.35.14-.65.36-.9.67-.24.3-.36.69-.36,1.18v6.91h-1.84Zm18.62-4.74c0,.65.11,1.25.32,1.78.22.53.55.95.99,1.26.45.31,1,.47,1.67.47s1.23-.15,1.7-.46c.48-.31.79-.75.92-1.33h1.75c-.13.7-.41,1.29-.84,1.77-.43.48-.96.84-1.57,1.09-.61.24-1.25.36-1.92.36-.97,0-1.82-.21-2.55-.63-.73-.42-1.31-1.02-1.72-1.81-.41-.79-.62-1.73-.62-2.83s.19-2.04.56-2.86c.37-.82.91-1.46,1.62-1.92.71-.46,1.57-.69,2.57-.69s1.8.21,2.47.63c.67.42,1.18,1.01,1.53,1.78.35.76.53,1.66.53,2.71v.68h-7.41Zm.01-1.25h5.62c0-.59-.1-1.13-.3-1.6-.2-.48-.51-.86-.92-1.13-.41-.28-.92-.42-1.54-.42s-1.18.16-1.61.47c-.42.31-.74.7-.95,1.19-.21.48-.31.98-.3,1.49Zm9.94,5.99v-10.34h1.79v1.5c.17-.29.4-.56.69-.81.3-.25.66-.46,1.08-.61.43-.15.92-.23,1.47-.23.65,0,1.25.13,1.8.39.55.26.99.67,1.32,1.22.33.55.5,1.25.5,2.12v6.76h-1.85v-6.58c0-.81-.21-1.4-.64-1.79-.42-.39-.97-.59-1.64-.59-.47,0-.9.08-1.31.23-.41.15-.74.37-.99.68-.25.3-.38.68-.38,1.14v6.91h-1.84Zm16.31-8.99h-2.33v6.43c0,.37.04.64.11.81.08.17.21.27.39.32.19.05.44.07.76.07h1.13v1.24c-.13.05-.32.09-.58.12-.25.03-.57.05-.95.05-.71,0-1.27-.1-1.66-.29-.39-.19-.67-.48-.83-.86-.15-.38-.23-.85-.23-1.4v-6.49h-1.68v-1.35h1.73l.45-3.01h1.36v3h2.33v1.36Zm7.27,8.99v-14.86h1.8v6.04c.17-.29.41-.55.7-.8.29-.25.65-.46,1.07-.61.42-.16.91-.24,1.46-.24.67,0,1.28.13,1.83.38.55.25.98.6,1.3,1.06.32.46.48,1.01.48,1.64v7.39h-1.85v-7.02c0-.62-.21-1.1-.64-1.43-.42-.34-.97-.51-1.65-.51-.46,0-.89.08-1.3.23-.41.15-.74.37-.99.68-.25.3-.37.68-.37,1.15v6.9h-1.84Zm14.35.2c-.67,0-1.26-.12-1.77-.35-.51-.24-.92-.58-1.21-1.03-.29-.45-.43-.99-.43-1.62,0-1.15.4-2,1.2-2.56.8-.56,2.08-.86,3.85-.9l1.85-.05v-.81c0-.63-.19-1.13-.57-1.5-.38-.37-.97-.56-1.77-.56-.59,0-1.12.15-1.57.42-.45.27-.74.72-.87,1.34h-1.63c.04-.67.23-1.24.57-1.7.34-.47.81-.82,1.42-1.06.61-.24,1.34-.36,2.17-.36.9,0,1.65.13,2.24.38.6.25,1.05.63,1.34,1.12.3.49.45,1.1.45,1.82v7.22h-1.58l-.13-1.94c-.4.81-.91,1.37-1.53,1.68-.61.31-1.29.46-2.03.46Zm.56-1.33c.35,0,.69-.06,1.03-.19.35-.13.66-.3.95-.51.29-.22.51-.46.68-.73.17-.27.26-.55.27-.84v-1.77l-1.54.03c-.79.01-1.45.09-1.98.24-.53.15-.92.38-1.19.69-.26.31-.39.72-.39,1.23,0,.58.2,1.03.6,1.36.41.33.93.49,1.57.49Zm11.36,1.33c-.72,0-1.39-.11-2.01-.33-.61-.23-1.12-.58-1.53-1.05-.41-.48-.66-1.09-.77-1.83h1.68c.09.41.26.75.5,1.02.25.27.55.47.92.61.37.13.77.2,1.2.2.69,0,1.25-.13,1.68-.39s.64-.66.64-1.2c0-.38-.11-.68-.34-.91-.22-.23-.56-.4-1.03-.51l-2.14-.53c-.83-.2-1.5-.51-2-.94s-.75-1.02-.75-1.79c0-.61.14-1.14.43-1.6.29-.46.73-.82,1.32-1.09.59-.27,1.32-.4,2.19-.4,1.12,0,2.02.25,2.71.76.69.5,1.05,1.24,1.08,2.21h-1.63c-.07-.49-.29-.88-.67-1.17-.37-.29-.88-.44-1.51-.44s-1.2.13-1.61.4c-.41.26-.62.67-.62,1.22,0,.37.15.66.44.87.29.21.73.38,1.3.52l2.07.52c.48.13.87.29,1.18.5.31.21.56.44.74.69.19.25.32.52.39.8.08.27.12.54.12.79,0,.63-.16,1.18-.48,1.64-.31.45-.77.81-1.36,1.06-.59.25-1.3.37-2.14.37Zm16.21,0c-.61,0-1.12-.08-1.54-.24-.41-.16-.75-.36-1.02-.61-.27-.25-.47-.51-.62-.77-.15-.27-.25-.5-.32-.7l-.2,2.12h-1.41v-14.86h1.86v6.16c.09-.17.22-.36.39-.57.18-.21.41-.41.69-.6s.61-.35.99-.48c.39-.13.83-.19,1.32-.19,1.29,0,2.32.45,3.08,1.35.77.9,1.15,2.23,1.15,3.98,0,1.09-.16,2.04-.49,2.85-.33.81-.81,1.44-1.46,1.89-.65.45-1.45.67-2.42.67Zm-.33-1.42c.84,0,1.52-.32,2.05-.97.53-.65.79-1.69.79-3.11,0-1.21-.25-2.14-.74-2.8-.49-.67-1.2-1-2.14-1-.69,0-1.24.15-1.66.45-.41.29-.72.72-.92,1.29-.19.57-.29,1.25-.3,2.06,0,1.45.22,2.49.67,3.13.45.63,1.2.95,2.25.95Zm8.43-3.52c0,.65.11,1.25.32,1.78.22.53.55.95.99,1.26.45.31,1,.47,1.67.47s1.23-.15,1.7-.46c.48-.31.79-.75.92-1.33h1.75c-.13.7-.41,1.29-.84,1.77-.43.48-.96.84-1.57,1.09-.61.24-1.25.36-1.92.36-.97,0-1.82-.21-2.55-.63-.73-.42-1.31-1.02-1.72-1.81-.41-.79-.62-1.73-.62-2.83s.19-2.04.56-2.86c.37-.82.91-1.46,1.62-1.92.71-.46,1.57-.69,2.57-.69s1.8.21,2.47.63c.67.42,1.18,1.01,1.53,1.78.35.76.53,1.66.53,2.71v.68h-7.41Zm0-1.25h5.62c0-.59-.1-1.13-.3-1.6-.2-.48-.51-.86-.92-1.13-.41-.28-.92-.42-1.54-.42s-1.18.16-1.61.47c-.42.31-.74.7-.95,1.19-.21.48-.31.98-.3,1.49Zm11.26,1.25c0,.65.11,1.25.32,1.78.22.53.55.95.99,1.26.45.31,1,.47,1.67.47s1.23-.15,1.7-.46c.48-.31.79-.75.92-1.33h1.75c-.13.7-.41,1.29-.84,1.77-.43.48-.96.84-1.57,1.09-.61.24-1.25.36-1.92.36-.97,0-1.82-.21-2.55-.63-.73-.42-1.31-1.02-1.72-1.81-.41-.79-.62-1.73-.62-2.83s.19-2.04.56-2.86c.37-.82.91-1.46,1.62-1.92.71-.46,1.57-.69,2.57-.69s1.8.21,2.47.63c.67.42,1.18,1.01,1.53,1.78.35.76.53,1.66.53,2.71v.68h-7.41Zm.01-1.25h5.62c0-.59-.1-1.13-.3-1.6-.2-.48-.51-.86-.92-1.13-.41-.28-.92-.42-1.54-.42s-1.18.16-1.61.47c-.42.31-.74.7-.95,1.19-.21.48-.31.98-.3,1.49Zm9.94,5.99v-10.34h1.79v1.5c.17-.29.4-.56.69-.81.3-.25.66-.46,1.08-.61.43-.15.92-.23,1.47-.23.65,0,1.25.13,1.8.39.55.26.99.67,1.32,1.22.33.55.5,1.25.5,2.12v6.76h-1.85v-6.58c0-.81-.21-1.4-.64-1.79-.42-.39-.97-.59-1.64-.59-.47,0-.9.08-1.31.23-.41.15-.74.37-.99.68-.25.3-.38.68-.38,1.14v6.91h-1.84Zm16.15,3.22v-13.56h1.84l.02,1.8c.12-.21.27-.44.46-.67.19-.23.43-.45.7-.65.28-.2.6-.36.97-.49.37-.13.8-.19,1.27-.19.83,0,1.55.19,2.18.57.63.37,1.13.95,1.48,1.72.35.77.53,1.75.53,2.94s-.17,2.19-.52,3.01c-.34.81-.83,1.43-1.48,1.86-.65.43-1.43.64-2.34.64-.46,0-.87-.07-1.23-.2-.35-.13-.66-.29-.93-.5-.26-.21-.48-.44-.66-.68-.17-.24-.32-.47-.43-.69v5.09h-1.86Zm4.76-4.46c.85,0,1.55-.32,2.09-.97.54-.65.81-1.67.81-3.04,0-1.18-.25-2.12-.74-2.81-.49-.69-1.21-1.04-2.16-1.04s-1.69.36-2.18,1.07c-.49.71-.74,1.63-.74,2.78,0,.74.11,1.41.33,2.02s.55,1.09.98,1.45c.43.36.97.54,1.61.54Zm7.11,1.24v-10.34h1.76v1.99c.17-.49.42-.9.73-1.22.31-.33.67-.57,1.07-.73.41-.16.83-.24,1.26-.24.15,0,.3,0,.45.03.15.02.26.05.34.1v1.79c-.1-.05-.23-.08-.39-.09-.15-.02-.28-.03-.39-.03-.41-.03-.8,0-1.16.08-.36.07-.68.2-.95.39-.27.19-.49.43-.65.74-.15.3-.23.67-.23,1.1v6.43h-1.84Zm11.63.2c-.95,0-1.79-.2-2.5-.61-.71-.41-1.27-1.02-1.66-1.81-.39-.79-.59-1.76-.59-2.91,0-1.08.18-2.03.55-2.84.37-.81.9-1.44,1.61-1.89.71-.45,1.58-.68,2.59-.68.95,0,1.78.21,2.48.63.71.41,1.25,1.02,1.64,1.83.39.81.58,1.79.58,2.95,0,1.05-.18,1.98-.54,2.78-.35.8-.88,1.43-1.58,1.88-.69.45-1.55.67-2.58.67Zm0-1.46c.62,0,1.14-.16,1.57-.47.43-.31.75-.76.97-1.35.22-.59.33-1.28.33-2.09,0-.74-.1-1.4-.29-1.99-.19-.59-.5-1.06-.93-1.41-.42-.35-.97-.52-1.65-.52-.63,0-1.16.16-1.59.47-.43.31-.76.75-.99,1.34-.22.59-.33,1.29-.33,2.11,0,.73.1,1.39.3,1.98.2.59.51,1.06.94,1.41.43.35.98.52,1.67.52Zm11.24-9.28c.74,0,1.41.14,2,.43.59.28,1.08.68,1.45,1.2.38.52.62,1.13.71,1.84h-1.64c-.06-.36-.2-.69-.42-.99-.21-.3-.5-.54-.85-.72-.35-.18-.77-.27-1.24-.27-.89,0-1.61.32-2.16.96-.55.64-.83,1.62-.83,2.94,0,1.19.25,2.15.76,2.87.51.71,1.27,1.07,2.26,1.07.47,0,.88-.09,1.23-.27.35-.19.64-.43.85-.73.21-.31.35-.63.41-.98h1.61c-.09.69-.32,1.29-.7,1.8-.38.51-.87.9-1.46,1.18-.59.27-1.25.41-1.98.41-.93,0-1.75-.2-2.47-.61-.71-.41-1.27-1.01-1.68-1.8-.41-.79-.61-1.77-.61-2.92,0-1.08.18-2.02.55-2.83.37-.81.91-1.45,1.62-1.9.71-.45,1.58-.68,2.59-.68Zm7.98,5.8c0,.65.11,1.25.32,1.78.22.53.55.95.99,1.26.45.31,1,.47,1.67.47s1.23-.15,1.7-.46c.48-.31.79-.75.92-1.33h1.75c-.13.7-.41,1.29-.84,1.77-.43.48-.96.84-1.57,1.09-.61.24-1.25.36-1.92.36-.97,0-1.82-.21-2.55-.63s-1.31-1.02-1.72-1.81-.62-1.73-.62-2.83.19-2.04.56-2.86c.37-.82.91-1.46,1.62-1.92.71-.46,1.57-.69,2.57-.69s1.8.21,2.47.63c.67.42,1.18,1.01,1.53,1.78.35.76.53,1.66.53,2.71v.68h-7.41Zm.01-1.25h5.62c0-.59-.1-1.13-.3-1.6-.2-.48-.51-.86-.92-1.13-.41-.28-.92-.42-1.54-.42s-1.18.16-1.61.47c-.42.31-.74.7-.95,1.19-.21.48-.31.98-.3,1.49Zm13.53,6.19c-.72,0-1.39-.11-2.01-.33-.61-.23-1.12-.58-1.53-1.05-.41-.48-.66-1.09-.77-1.83h1.68c.09.41.26.75.5,1.02.25.27.55.47.92.61.37.13.77.2,1.2.2.69,0,1.25-.13,1.68-.39.43-.26.64-.66.64-1.2,0-.38-.11-.68-.34-.91-.22-.23-.56-.4-1.03-.51l-2.14-.53c-.83-.2-1.5-.51-2-.94s-.75-1.02-.75-1.79c0-.61.14-1.14.43-1.6.29-.46.73-.82,1.32-1.09.59-.27,1.32-.4,2.19-.4,1.12,0,2.02.25,2.71.76.69.5,1.05,1.24,1.08,2.21h-1.63c-.07-.49-.29-.88-.67-1.17-.37-.29-.88-.44-1.51-.44s-1.2.13-1.61.4c-.41.26-.62.67-.62,1.22,0,.37.15.66.44.87.29.21.73.38,1.3.52l2.07.52c.48.13.87.29,1.18.5.31.21.56.44.74.69.19.25.32.52.39.8.08.27.12.54.12.79,0,.63-.16,1.18-.48,1.64-.31.45-.77.81-1.36,1.06-.59.25-1.3.37-2.14.37Zm10.06,0c-.72,0-1.39-.11-2.01-.33-.61-.23-1.12-.58-1.53-1.05-.41-.48-.66-1.09-.77-1.83h1.68c.09.41.26.75.5,1.02.25.27.55.47.92.61.37.13.77.2,1.2.2.69,0,1.25-.13,1.68-.39s.64-.66.64-1.2c0-.38-.11-.68-.34-.91-.22-.23-.56-.4-1.03-.51l-2.14-.53c-.83-.2-1.5-.51-2-.94s-.75-1.02-.75-1.79c0-.61.14-1.14.43-1.6.29-.46.73-.82,1.32-1.09.59-.27,1.32-.4,2.19-.4,1.12,0,2.02.25,2.71.76.69.5,1.05,1.24,1.08,2.21h-1.63c-.07-.49-.29-.88-.67-1.17-.37-.29-.88-.44-1.51-.44s-1.2.13-1.61.4c-.41.26-.62.67-.62,1.22,0,.37.15.66.44.87.29.21.73.38,1.3.52l2.07.52c.48.13.87.29,1.18.5.31.21.56.44.74.69.19.25.32.52.39.8.08.27.12.54.12.79,0,.63-.16,1.18-.48,1.64-.31.45-.77.81-1.36,1.06-.59.25-1.3.37-2.14.37Zm7.88-4.94c0,.65.11,1.25.32,1.78.22.53.55.95.99,1.26.45.31,1,.47,1.67.47s1.23-.15,1.7-.46c.48-.31.79-.75.92-1.33h1.75c-.13.7-.41,1.29-.84,1.77-.43.48-.96.84-1.57,1.09-.61.24-1.25.36-1.92.36-.97,0-1.82-.21-2.55-.63-.73-.42-1.31-1.02-1.72-1.81-.41-.79-.62-1.73-.62-2.83s.19-2.04.56-2.86c.37-.82.91-1.46,1.62-1.92.71-.46,1.57-.69,2.57-.69s1.8.21,2.47.63c.67.42,1.18,1.01,1.53,1.78.35.76.53,1.66.53,2.71v.68h-7.41Zm0-1.25h5.62c0-.59-.1-1.13-.3-1.6-.2-.48-.51-.86-.92-1.13-.41-.28-.92-.42-1.54-.42s-1.18.16-1.61.47c-.42.31-.74.7-.95,1.19-.21.48-.31.98-.3,1.49Zm13.67,6.19c-1.34,0-2.4-.46-3.19-1.38-.79-.92-1.18-2.26-1.18-4.03,0-1.07.16-2.01.47-2.81.32-.8.79-1.42,1.42-1.86.63-.44,1.41-.66,2.34-.66.49,0,.93.06,1.31.19.39.13.72.29,1,.48s.51.39.68.6c.18.21.31.4.4.57v-6.16h1.86v14.86h-1.41l-.2-2.12c-.07.2-.17.43-.32.7-.15.26-.35.52-.62.77-.27.25-.61.45-1.03.61-.41.16-.92.24-1.53.24Zm.33-1.42c1.05,0,1.79-.32,2.24-.95.45-.64.68-1.68.68-3.13,0-.81-.11-1.49-.31-2.06-.19-.57-.5-1-.92-1.29-.41-.3-.96-.45-1.65-.45-.85,0-1.55.3-2.08.91-.53.61-.8,1.57-.8,2.89s.24,2.3.72,3.01c.49.71,1.19,1.07,2.12,1.07Zm7.4,1.22v-2.36h2.2v2.36h-2.2Zm8.34-12.76v-1.7h10.94v1.7h-4.41v12.76h-1.86v-12.76h-4.67Zm12.95,12.76v-14.86h1.8v6.04c.17-.29.41-.55.7-.8.29-.25.65-.46,1.07-.61.42-.16.91-.24,1.46-.24.67,0,1.28.13,1.83.38.55.25.98.6,1.3,1.06.32.46.48,1.01.48,1.64v7.39h-1.85v-7.02c0-.62-.21-1.1-.64-1.43-.42-.34-.97-.51-1.65-.51-.46,0-.89.08-1.3.23-.41.15-.74.37-.99.68-.25.3-.37.68-.37,1.15v6.9h-1.84Zm12.84-4.74c0,.65.11,1.25.32,1.78.22.53.55.95.99,1.26.45.31,1,.47,1.67.47s1.23-.15,1.7-.46c.48-.31.79-.75.92-1.33h1.75c-.13.7-.41,1.29-.84,1.77-.43.48-.96.84-1.57,1.09-.61.24-1.25.36-1.92.36-.97,0-1.82-.21-2.55-.63-.73-.42-1.31-1.02-1.72-1.81-.41-.79-.62-1.73-.62-2.83s.19-2.04.56-2.86.91-1.46,1.62-1.92c.71-.46,1.57-.69,2.57-.69s1.8.21,2.47.63c.67.42,1.18,1.01,1.53,1.78.35.76.53,1.66.53,2.71v.68h-7.41Zm.01-1.25h5.62c0-.59-.1-1.13-.3-1.6-.2-.48-.51-.86-.92-1.13-.41-.28-.92-.42-1.54-.42s-1.18.16-1.61.47c-.42.31-.74.7-.95,1.19-.21.48-.31.98-.3,1.49Zm-336.98,25h-2.33v6.43c0,.37.04.64.11.81.08.17.21.27.39.32.19.05.44.07.76.07h1.13v1.24c-.13.05-.32.09-.58.12-.25.03-.57.05-.95.05-.71,0-1.27-.1-1.66-.29-.39-.19-.67-.48-.83-.86-.15-.38-.23-.85-.23-1.4v-6.49h-1.68v-1.35h1.73l.45-3.01h1.36v3h2.33v1.36Zm6.49,9.19c-.95,0-1.79-.2-2.5-.61-.71-.41-1.27-1.02-1.66-1.81-.39-.79-.59-1.76-.59-2.91,0-1.08.18-2.03.55-2.84.37-.81.9-1.44,1.61-1.89.71-.45,1.58-.68,2.59-.68.95,0,1.78.21,2.48.63.71.41,1.25,1.02,1.64,1.83.39.81.58,1.79.58,2.95,0,1.05-.18,1.98-.54,2.78-.35.8-.88,1.43-1.58,1.88-.69.45-1.55.67-2.58.67Zm0-1.46c.62,0,1.14-.16,1.57-.47.43-.31.75-.76.97-1.35.22-.59.33-1.28.33-2.09,0-.74-.1-1.4-.29-1.99-.19-.59-.5-1.06-.93-1.41-.42-.35-.97-.52-1.65-.52-.63,0-1.16.16-1.59.47-.43.31-.76.75-.99,1.34-.22.59-.33,1.29-.33,2.11,0,.73.1,1.39.3,1.98.2.59.51,1.06.94,1.41.43.35.98.52,1.67.52Zm12.04-7.73h-2.33v6.43c0,.37.04.64.11.81.08.17.21.27.39.32.19.05.44.07.76.07h1.13v1.24c-.13.05-.32.09-.58.12-.25.03-.57.05-.95.05-.71,0-1.27-.1-1.66-.29-.39-.19-.67-.48-.83-.86-.15-.38-.23-.85-.23-1.4v-6.49h-1.68v-1.35h1.73l.45-3.01h1.36v3h2.33v1.36Zm5.44,9.19c-.67,0-1.26-.12-1.77-.35-.51-.24-.92-.58-1.21-1.03-.29-.45-.43-.99-.43-1.62,0-1.15.4-2,1.2-2.56.8-.56,2.08-.86,3.85-.9l1.85-.05v-.81c0-.63-.19-1.13-.57-1.5-.38-.37-.97-.56-1.77-.56-.59,0-1.12.15-1.57.42-.45.27-.74.72-.87,1.34h-1.63c.04-.67.23-1.24.57-1.7.34-.47.81-.82,1.42-1.06.61-.24,1.34-.36,2.17-.36.9,0,1.65.13,2.24.38.6.25,1.05.63,1.34,1.12.3.49.45,1.1.45,1.82v7.22h-1.58l-.13-1.94c-.4.81-.91,1.37-1.53,1.68-.61.31-1.29.46-2.03.46Zm.56-1.33c.35,0,.69-.06,1.03-.19.35-.13.66-.3.95-.51.29-.22.51-.46.68-.73.17-.27.26-.55.27-.84v-1.77l-1.54.03c-.79.01-1.45.09-1.98.24-.53.15-.92.38-1.19.69-.26.31-.39.72-.39,1.23,0,.58.2,1.03.6,1.36.41.33.93.49,1.57.49Zm10.48,1.26c-.56,0-1.01-.08-1.36-.23-.34-.15-.6-.36-.79-.62-.18-.26-.3-.56-.37-.89-.06-.34-.09-.69-.09-1.05v-12.2h1.82v12.02c0,.52.1.91.3,1.17.21.26.49.4.86.43h.56v1.21c-.15.05-.31.08-.48.11-.17.03-.32.05-.45.05Zm10.82.07c-.67,0-1.26-.12-1.77-.35-.51-.24-.92-.58-1.21-1.03-.29-.45-.43-.99-.43-1.62,0-1.15.4-2,1.2-2.56s2.08-.86,3.85-.9l1.85-.05v-.81c0-.63-.19-1.13-.57-1.5-.38-.37-.97-.56-1.77-.56-.59,0-1.12.15-1.57.42-.45.27-.74.72-.87,1.34h-1.63c.04-.67.23-1.24.57-1.7.34-.47.81-.82,1.42-1.06.61-.24,1.34-.36,2.17-.36.9,0,1.65.13,2.24.38.6.25,1.05.63,1.34,1.12.3.49.45,1.1.45,1.82v7.22h-1.58l-.13-1.94c-.4.81-.91,1.37-1.53,1.68-.61.31-1.29.46-2.03.46Zm.56-1.33c.35,0,.69-.06,1.03-.19.35-.13.66-.3.95-.51.29-.22.51-.46.68-.73.17-.27.26-.55.27-.84v-1.77l-1.54.03c-.79.01-1.45.09-1.98.24-.53.15-.92.38-1.19.69-.26.31-.39.72-.39,1.23,0,.58.2,1.03.6,1.36.41.33.93.49,1.57.49Zm7.87,1.13v-10.34h1.78v1.5c.29-.45.68-.85,1.18-1.19.5-.34,1.15-.51,1.95-.51.37,0,.75.06,1.14.19.39.13.75.32,1.08.57.33.25.58.56.76.93.32-.51.75-.91,1.3-1.22.55-.31,1.16-.47,1.85-.47.36,0,.74.06,1.13.17.39.11.76.3,1.09.58.34.27.62.66.83,1.15.21.49.32,1.11.32,1.88v6.76h-1.86v-6.58c0-.63-.1-1.11-.3-1.45-.2-.35-.46-.59-.79-.73-.32-.14-.66-.21-1.03-.21-.32,0-.66.06-1.02.19-.36.13-.67.34-.92.64-.25.3-.38.71-.38,1.23v6.91h-1.84v-7.12c0-.41-.11-.75-.33-1.02-.21-.27-.48-.48-.81-.62-.32-.14-.64-.21-.96-.21-.35,0-.71.07-1.07.21-.35.14-.65.36-.9.67-.24.3-.36.69-.36,1.18v6.91h-1.84Zm21.41.2c-.95,0-1.79-.2-2.5-.61-.71-.41-1.27-1.02-1.66-1.81-.39-.79-.59-1.76-.59-2.91,0-1.08.18-2.03.55-2.84.37-.81.9-1.44,1.61-1.89.71-.45,1.58-.68,2.59-.68.95,0,1.78.21,2.48.63.71.41,1.25,1.02,1.64,1.83.39.81.58,1.79.58,2.95,0,1.05-.18,1.98-.54,2.78-.35.8-.88,1.43-1.58,1.88-.69.45-1.55.67-2.58.67Zm0-1.46c.62,0,1.14-.16,1.57-.47.43-.31.75-.76.97-1.35.22-.59.33-1.28.33-2.09,0-.74-.1-1.4-.29-1.99-.19-.59-.5-1.06-.93-1.41-.42-.35-.97-.52-1.65-.52-.63,0-1.16.16-1.59.47-.43.31-.76.75-.99,1.34-.22.59-.33,1.29-.33,2.11,0,.73.1,1.39.3,1.98s.51,1.06.94,1.41c.43.35.98.52,1.67.52Zm10.75,1.46c-.54,0-1.05-.08-1.53-.23-.47-.15-.89-.38-1.26-.67-.37-.29-.66-.66-.87-1.09-.21-.44-.31-.95-.31-1.53v-7.02h1.85v6.83c0,.67.21,1.22.62,1.64.42.42,1.05.63,1.89.63.76,0,1.37-.2,1.83-.59.47-.4.7-.99.7-1.78v-6.73h1.84v10.34h-1.47l-.19-1.98c-.13.52-.34.94-.65,1.26-.3.32-.66.56-1.09.71-.42.15-.87.22-1.36.21Zm7.78-.2v-10.34h1.79v1.5c.17-.29.4-.56.69-.81.3-.25.66-.46,1.08-.61.43-.15.92-.23,1.47-.23.65,0,1.25.13,1.8.39.55.26.99.67,1.32,1.22.33.55.5,1.25.5,2.12v6.76h-1.85v-6.58c0-.81-.21-1.4-.64-1.79-.42-.39-.97-.59-1.64-.59-.47,0-.9.08-1.31.23-.41.15-.74.37-.99.68-.25.3-.38.68-.38,1.14v6.91h-1.84Zm16.31-8.99h-2.33v6.43c0,.37.04.64.11.81.08.17.21.27.39.32.19.05.44.07.76.07h1.13v1.24c-.13.05-.32.09-.58.12-.25.03-.57.05-.95.05-.71,0-1.27-.1-1.66-.29-.39-.19-.67-.48-.83-.86-.15-.38-.23-.85-.23-1.4v-6.49h-1.68v-1.35h1.73l.45-3.01h1.36v3h2.33v1.36Zm10.74,9.19c-1.34,0-2.4-.46-3.19-1.38-.79-.92-1.18-2.26-1.18-4.03,0-1.07.16-2.01.47-2.81.32-.8.79-1.42,1.42-1.86.63-.44,1.41-.66,2.34-.66.49,0,.93.06,1.31.19.39.13.72.29,1,.48s.51.39.68.6c.18.21.31.4.4.57v-6.16h1.86v14.86h-1.41l-.2-2.12c-.07.2-.17.43-.32.7-.15.26-.35.52-.62.77-.27.25-.61.45-1.03.61-.41.16-.92.24-1.53.24Zm.33-1.42c1.05,0,1.79-.32,2.24-.95.45-.64.68-1.68.68-3.13,0-.81-.11-1.49-.31-2.06-.19-.57-.5-1-.92-1.29-.41-.3-.96-.45-1.65-.45-.85,0-1.55.3-2.08.91-.53.61-.8,1.57-.8,2.89s.24,2.3.72,3.01c.49.71,1.19,1.07,2.12,1.07Zm9.15-3.52c0,.65.11,1.25.32,1.78.22.53.55.95.99,1.26.45.31,1,.47,1.67.47s1.23-.15,1.7-.46c.48-.31.79-.75.92-1.33h1.75c-.13.7-.41,1.29-.84,1.77-.43.48-.96.84-1.57,1.09-.61.24-1.25.36-1.92.36-.97,0-1.82-.21-2.55-.63-.73-.42-1.31-1.02-1.72-1.81-.41-.79-.62-1.73-.62-2.83s.19-2.04.56-2.86c.37-.82.91-1.46,1.62-1.92.71-.46,1.57-.69,2.57-.69s1.8.21,2.47.63c.67.42,1.18,1.01,1.53,1.78.35.76.53,1.66.53,2.71v.68h-7.41Zm.01-1.25h5.62c0-.59-.1-1.13-.3-1.6-.2-.48-.51-.86-.92-1.13-.41-.28-.92-.42-1.54-.42s-1.18.16-1.61.47c-.42.31-.74.7-.95,1.19-.21.48-.31.98-.3,1.49Zm13.67,6.19c-1.34,0-2.4-.46-3.19-1.38-.79-.92-1.18-2.26-1.18-4.03,0-1.07.16-2.01.47-2.81.32-.8.79-1.42,1.42-1.86.63-.44,1.41-.66,2.34-.66.49,0,.93.06,1.31.19.39.13.72.29,1,.48s.51.39.68.6c.18.21.31.4.4.57v-6.16h1.86v14.86h-1.41l-.2-2.12c-.07.2-.17.43-.32.7-.15.26-.35.52-.62.77-.27.25-.61.45-1.03.61-.41.16-.92.24-1.53.24Zm.33-1.42c1.05,0,1.79-.32,2.24-.95.45-.64.68-1.68.68-3.13,0-.81-.11-1.49-.31-2.06-.19-.57-.5-1-.92-1.29-.41-.3-.96-.45-1.65-.45-.85,0-1.55.3-2.08.91-.53.61-.8,1.57-.8,2.89s.24,2.3.72,3.01c.49.71,1.19,1.07,2.12,1.07Zm11.64,1.42c-.54,0-1.05-.08-1.53-.23-.47-.15-.89-.38-1.26-.67-.37-.29-.66-.66-.87-1.09-.21-.44-.31-.95-.31-1.53v-7.02h1.85v6.83c0,.67.21,1.22.62,1.64.42.42,1.05.63,1.89.63.76,0,1.37-.2,1.83-.59.47-.4.7-.99.7-1.78v-6.73h1.84v10.34h-1.47l-.19-1.98c-.13.52-.34.94-.65,1.26-.3.32-.66.56-1.09.71-.42.15-.87.22-1.36.21Zm11.76-10.74c.74,0,1.41.14,2,.43.59.28,1.08.68,1.45,1.2.38.52.62,1.13.71,1.84h-1.64c-.06-.36-.2-.69-.42-.99-.21-.3-.5-.54-.85-.72-.35-.18-.77-.27-1.24-.27-.89,0-1.61.32-2.16.96-.55.64-.83,1.62-.83,2.94,0,1.19.25,2.15.76,2.87.51.71,1.27,1.07,2.26,1.07.47,0,.88-.09,1.23-.27.35-.19.64-.43.85-.73.21-.31.35-.63.41-.98h1.61c-.09.69-.32,1.29-.7,1.8-.38.51-.87.9-1.46,1.18-.59.27-1.25.41-1.98.41-.93,0-1.75-.2-2.47-.61-.71-.41-1.27-1.01-1.68-1.8-.41-.79-.61-1.77-.61-2.92,0-1.08.18-2.02.55-2.83.37-.81.91-1.45,1.62-1.9.71-.45,1.58-.68,2.59-.68Zm11.58,1.55h-2.33v6.43c0,.37.04.64.11.81.08.17.21.27.39.32.19.05.44.07.76.07h1.13v1.24c-.13.05-.32.09-.58.12-.25.03-.57.05-.95.05-.71,0-1.27-.1-1.66-.29-.39-.19-.67-.48-.83-.86-.15-.38-.23-.85-.23-1.4v-6.49h-1.68v-1.35h1.73l.45-3.01h1.36v3h2.33v1.36Zm3.7,4.25c0,.65.11,1.25.32,1.78.22.53.55.95.99,1.26.45.31,1,.47,1.67.47s1.23-.15,1.7-.46c.48-.31.79-.75.92-1.33h1.75c-.13.7-.41,1.29-.84,1.77-.43.48-.96.84-1.57,1.09-.61.24-1.25.36-1.92.36-.97,0-1.82-.21-2.55-.63s-1.31-1.02-1.72-1.81-.62-1.73-.62-2.83.19-2.04.56-2.86c.37-.82.91-1.46,1.62-1.92.71-.46,1.57-.69,2.57-.69s1.8.21,2.47.63c.67.42,1.18,1.01,1.53,1.78.35.76.53,1.66.53,2.71v.68h-7.41Zm0-1.25h5.62c0-.59-.1-1.13-.3-1.6-.2-.48-.51-.86-.92-1.13-.41-.28-.92-.42-1.54-.42s-1.18.16-1.61.47c-.42.31-.74.7-.95,1.19-.21.48-.31.98-.3,1.49Zm13.67,6.19c-1.34,0-2.4-.46-3.19-1.38-.79-.92-1.18-2.26-1.18-4.03,0-1.07.16-2.01.47-2.81.32-.8.79-1.42,1.42-1.86.63-.44,1.41-.66,2.34-.66.49,0,.93.06,1.31.19.39.13.72.29,1,.48s.51.39.68.6c.18.21.31.4.4.57v-6.16h1.86v14.86h-1.41l-.2-2.12c-.07.2-.17.43-.32.7-.15.26-.35.52-.62.77-.27.25-.61.45-1.03.61-.41.16-.92.24-1.53.24Zm.33-1.42c1.05,0,1.79-.32,2.24-.95.45-.64.68-1.68.68-3.13,0-.81-.11-1.49-.31-2.06-.19-.57-.5-1-.92-1.29-.41-.3-.96-.45-1.65-.45-.85,0-1.55.3-2.08.91-.53.61-.8,1.57-.8,2.89s.24,2.3.72,3.01c.49.71,1.19,1.07,2.12,1.07Zm18.28-9.12v1.35h-2.51v8.99h-1.86v-8.99h-2.18v-1.35h2.18v-1.6c0-.82.21-1.44.63-1.87.42-.43,1.05-.65,1.88-.65h1.95v1.31s-1.54,0-1.54,0c-.42,0-.71.11-.86.34-.15.23-.23.57-.23,1.03v1.44h2.54Zm2.29,10.34v-10.34h1.76v1.99c.17-.49.42-.9.73-1.22.31-.33.67-.57,1.07-.73.41-.16.83-.24,1.26-.24.15,0,.3,0,.45.03.15.02.26.05.34.1v1.79c-.1-.05-.23-.08-.39-.09-.15-.02-.28-.03-.39-.03-.41-.03-.8,0-1.16.08-.36.07-.68.2-.95.39-.27.19-.49.43-.65.74-.15.3-.23.67-.23,1.1v6.43h-1.84Zm11.63.2c-.95,0-1.79-.2-2.5-.61-.71-.41-1.27-1.02-1.66-1.81-.39-.79-.59-1.76-.59-2.91,0-1.08.18-2.03.55-2.84.37-.81.9-1.44,1.61-1.89.71-.45,1.58-.68,2.59-.68.95,0,1.78.21,2.48.63.71.41,1.25,1.02,1.64,1.83.39.81.58,1.79.58,2.95,0,1.05-.18,1.98-.54,2.78-.35.8-.88,1.43-1.58,1.88-.69.45-1.55.67-2.58.67Zm0-1.46c.62,0,1.14-.16,1.57-.47.43-.31.75-.76.97-1.35.22-.59.33-1.28.33-2.09,0-.74-.1-1.4-.29-1.99-.19-.59-.5-1.06-.93-1.41-.42-.35-.97-.52-1.65-.52-.63,0-1.16.16-1.59.47-.43.31-.76.75-.99,1.34-.22.59-.33,1.29-.33,2.11,0,.73.1,1.39.3,1.98s.51,1.06.94,1.41c.43.35.98.52,1.67.52Zm7.12,1.26v-10.34h1.78v1.5c.29-.45.68-.85,1.18-1.19.5-.34,1.15-.51,1.95-.51.37,0,.75.06,1.14.19.39.13.75.32,1.08.57.33.25.58.56.76.93.32-.51.75-.91,1.3-1.22.55-.31,1.16-.47,1.85-.47.36,0,.74.06,1.13.17.39.11.76.3,1.09.58.34.27.62.66.83,1.15.21.49.32,1.11.32,1.88v6.76h-1.86v-6.58c0-.63-.1-1.11-.3-1.45-.2-.35-.46-.59-.79-.73-.32-.14-.66-.21-1.03-.21-.32,0-.66.06-1.02.19-.36.13-.67.34-.92.64-.25.3-.38.71-.38,1.23v6.91h-1.84v-7.12c0-.41-.11-.75-.33-1.02-.21-.27-.48-.48-.81-.62-.32-.14-.64-.21-.96-.21-.35,0-.71.07-1.07.21-.35.14-.65.36-.9.67-.24.3-.36.69-.36,1.18v6.91h-1.84Zm22.8,3.3c-.61,0-1.02-.04-1.25-.13-.23-.09-.34-.13-.34-.13v-1.2l1.05.02c.39.01.71-.01.96-.08.25-.07.46-.16.61-.27.15-.11.27-.24.35-.38.09-.14.16-.27.21-.4l.36-.98-4.04-10.09h1.87l3.05,7.98,3.03-7.98h1.81l-4.36,11.12c-.27.65-.57,1.16-.9,1.53-.33.37-.69.62-1.1.77-.4.15-.84.22-1.31.22Zm13.38-3.1c-.95,0-1.79-.2-2.5-.61-.71-.41-1.27-1.02-1.66-1.81-.39-.79-.59-1.76-.59-2.91,0-1.08.18-2.03.55-2.84.37-.81.9-1.44,1.61-1.89.71-.45,1.58-.68,2.59-.68.95,0,1.78.21,2.48.63.71.41,1.25,1.02,1.64,1.83.39.81.58,1.79.58,2.95,0,1.05-.18,1.98-.54,2.78-.35.8-.88,1.43-1.58,1.88-.69.45-1.55.67-2.58.67Zm0-1.46c.62,0,1.14-.16,1.57-.47.43-.31.75-.76.97-1.35.22-.59.33-1.28.33-2.09,0-.74-.1-1.4-.29-1.99-.19-.59-.5-1.06-.93-1.41-.42-.35-.97-.52-1.65-.52-.63,0-1.16.16-1.59.47-.43.31-.76.75-.99,1.34-.22.59-.33,1.29-.33,2.11,0,.73.1,1.39.3,1.98.2.59.51,1.06.94,1.41.43.35.98.52,1.67.52Zm10.74,1.46c-.54,0-1.05-.08-1.53-.23-.47-.15-.89-.38-1.26-.67-.37-.29-.66-.66-.87-1.09-.21-.44-.31-.95-.31-1.53v-7.02h1.85v6.83c0,.67.21,1.22.62,1.64.42.42,1.05.63,1.89.63.76,0,1.37-.2,1.83-.59.47-.4.7-.99.7-1.78v-6.73h1.84v10.34h-1.47l-.19-1.98c-.13.52-.34.94-.65,1.26-.3.32-.66.56-1.09.71-.42.15-.87.22-1.36.21Zm7.78-.2v-10.34h1.76v1.99c.17-.49.42-.9.73-1.22.31-.33.67-.57,1.07-.73.41-.16.83-.24,1.26-.24.15,0,.3,0,.45.03.15.02.26.05.34.1v1.79c-.1-.05-.23-.08-.39-.09-.15-.02-.28-.03-.39-.03-.41-.03-.8,0-1.16.08-.36.07-.68.2-.95.39-.27.19-.49.43-.65.74-.15.3-.23.67-.23,1.1v6.43h-1.84Zm-294,28.2c-.67,0-1.26-.12-1.77-.35-.51-.24-.92-.58-1.21-1.03-.29-.45-.43-.99-.43-1.62,0-1.15.4-2,1.2-2.56.8-.56,2.08-.86,3.85-.9l1.85-.05v-.81c0-.63-.19-1.13-.57-1.5-.38-.37-.97-.56-1.77-.56-.59,0-1.12.15-1.57.42-.45.27-.74.72-.87,1.34h-1.63c.04-.67.23-1.24.57-1.7.34-.47.81-.82,1.42-1.06.61-.24,1.34-.36,2.17-.36.9,0,1.65.13,2.24.38.6.25,1.05.63,1.34,1.12.3.49.45,1.1.45,1.82v7.22h-1.58l-.13-1.94c-.4.81-.91,1.37-1.53,1.68-.61.31-1.29.46-2.03.46Zm.56-1.33c.35,0,.69-.06,1.03-.19.35-.13.66-.3.95-.51.29-.22.51-.46.68-.73.17-.27.26-.55.27-.84v-1.77l-1.54.03c-.79.01-1.45.09-1.98.24-.53.15-.92.38-1.19.69-.26.31-.39.72-.39,1.23,0,.58.2,1.03.6,1.36.41.33.93.49,1.57.49Zm11.99-9.41c.74,0,1.41.14,2,.43.59.28,1.08.68,1.45,1.2.38.52.62,1.13.71,1.84h-1.64c-.06-.36-.2-.69-.42-.99-.21-.3-.5-.54-.85-.72-.35-.18-.77-.27-1.24-.27-.89,0-1.61.32-2.16.96-.55.64-.83,1.62-.83,2.94,0,1.19.25,2.15.76,2.87.51.71,1.27,1.07,2.26,1.07.47,0,.88-.09,1.23-.27.35-.19.64-.43.85-.73.21-.31.35-.63.41-.98h1.61c-.09.69-.32,1.29-.7,1.8-.38.51-.87.9-1.46,1.18-.59.27-1.25.41-1.98.41-.93,0-1.75-.2-2.47-.61-.71-.41-1.27-1.01-1.68-1.8-.41-.79-.61-1.77-.61-2.92,0-1.08.18-2.02.55-2.83.37-.81.91-1.45,1.62-1.9.71-.45,1.58-.68,2.59-.68Zm10.78,0c.74,0,1.41.14,2,.43.59.28,1.08.68,1.45,1.2.38.52.62,1.13.71,1.84h-1.64c-.06-.36-.2-.69-.42-.99-.21-.3-.5-.54-.85-.72-.35-.18-.77-.27-1.24-.27-.89,0-1.61.32-2.16.96-.55.64-.83,1.62-.83,2.94,0,1.19.25,2.15.76,2.87.51.71,1.27,1.07,2.26,1.07.47,0,.88-.09,1.23-.27.35-.19.64-.43.85-.73.21-.31.35-.63.41-.98h1.61c-.09.69-.32,1.29-.7,1.8-.38.51-.87.9-1.46,1.18-.59.27-1.25.41-1.98.41-.93,0-1.75-.2-2.47-.61-.71-.41-1.27-1.01-1.68-1.8-.41-.79-.61-1.77-.61-2.92,0-1.08.18-2.02.55-2.83.37-.81.91-1.45,1.62-1.9.71-.45,1.58-.68,2.59-.68Zm10.77,10.74c-.95,0-1.79-.2-2.5-.61-.71-.41-1.27-1.02-1.66-1.81-.39-.79-.59-1.76-.59-2.91,0-1.08.18-2.03.55-2.84.37-.81.9-1.44,1.61-1.89.71-.45,1.58-.68,2.59-.68.95,0,1.78.21,2.48.63.71.41,1.25,1.02,1.64,1.83.39.81.58,1.79.58,2.95,0,1.05-.18,1.98-.54,2.78-.35.8-.88,1.43-1.58,1.88-.69.45-1.55.67-2.58.67Zm0-1.46c.62,0,1.14-.16,1.57-.47.43-.31.75-.76.97-1.35.22-.59.33-1.28.33-2.09,0-.74-.1-1.4-.29-1.99-.19-.59-.5-1.06-.93-1.41-.42-.35-.97-.52-1.65-.52-.63,0-1.16.16-1.59.47-.43.31-.76.75-.99,1.34-.22.59-.33,1.29-.33,2.11,0,.73.1,1.39.3,1.98s.51,1.06.94,1.41c.43.35.98.52,1.67.52Zm10.74,1.46c-.54,0-1.05-.08-1.53-.23-.47-.15-.89-.38-1.26-.67-.37-.29-.66-.66-.87-1.09-.21-.44-.31-.95-.31-1.53v-7.02h1.85v6.83c0,.67.21,1.22.62,1.64.42.42,1.05.63,1.89.63.76,0,1.37-.2,1.83-.59.47-.4.7-.99.7-1.78v-6.73h1.84v10.34h-1.47l-.19-1.98c-.13.52-.34.94-.65,1.26-.3.32-.66.56-1.09.71-.42.15-.87.22-1.36.21Zm7.78-.2v-10.34h1.79v1.5c.17-.29.4-.56.69-.81.3-.25.66-.46,1.08-.61.43-.15.92-.23,1.47-.23.65,0,1.25.13,1.8.39.55.26.99.67,1.32,1.22.33.55.5,1.25.5,2.12v6.76h-1.85v-6.58c0-.81-.21-1.4-.64-1.79-.42-.39-.97-.59-1.64-.59-.47,0-.9.08-1.31.23-.41.15-.74.37-.99.68-.25.3-.38.68-.38,1.14v6.91h-1.84Zm16.31-8.99h-2.33v6.43c0,.37.04.64.11.81.08.17.21.27.39.32.19.05.44.07.76.07h1.13v1.24c-.13.05-.32.09-.58.12-.25.03-.57.05-.95.05-.71,0-1.27-.1-1.66-.29-.39-.19-.67-.48-.83-.86-.15-.38-.23-.85-.23-1.4v-6.49h-1.68v-1.35h1.73l.45-3.01h1.36v3h2.33v1.36Zm9.27-1.35v10.34h-1.79v-10.34h1.79Zm.04-4.11v1.92h-1.89v-1.92h1.89Zm6.88,14.65c-.72,0-1.39-.11-2.01-.33-.61-.23-1.12-.58-1.53-1.05-.41-.48-.66-1.09-.77-1.83h1.68c.09.41.26.75.5,1.02.25.27.55.47.92.61.37.13.77.2,1.2.2.69,0,1.25-.13,1.68-.39.43-.26.64-.66.64-1.2,0-.38-.11-.68-.34-.91-.22-.23-.56-.4-1.03-.51l-2.14-.53c-.83-.2-1.5-.51-2-.94s-.75-1.02-.75-1.79c0-.61.14-1.14.43-1.6.29-.46.73-.82,1.32-1.09.59-.27,1.32-.4,2.19-.4,1.12,0,2.02.25,2.71.76.69.5,1.05,1.24,1.08,2.21h-1.63c-.07-.49-.29-.88-.67-1.17-.37-.29-.88-.44-1.51-.44s-1.2.13-1.61.4c-.41.26-.62.67-.62,1.22,0,.37.15.66.44.87.29.21.73.38,1.3.52l2.07.52c.48.13.87.29,1.18.5.31.21.56.44.74.69.19.25.32.52.39.8.08.27.12.54.12.79,0,.63-.16,1.18-.48,1.64-.31.45-.77.81-1.36,1.06-.59.25-1.3.37-2.14.37Zm22.46-5.71c0,1.17-.19,2.18-.57,3.04-.38.85-1,1.51-1.85,1.98-.85.46-1.97.69-3.37.69s-2.53-.23-3.38-.7c-.85-.47-1.46-1.14-1.84-2.01-.37-.87-.56-1.9-.56-3.1v-8.85h2.97v9.07c0,1.08.26,1.87.78,2.37.52.49,1.2.74,2.03.74.55,0,1.04-.11,1.47-.32.43-.22.76-.56,1-1.01.25-.46.37-1.05.37-1.78v-9.07h2.95v8.95Zm8.33,5.71c-.71,0-1.41-.09-2.1-.27-.69-.18-1.31-.45-1.88-.81-.57-.36-1.04-.81-1.41-1.35-.37-.54-.59-1.17-.66-1.9h2.99c.1.44.29.81.57,1.11.28.3.63.53,1.06.69.43.16.9.24,1.42.24s1.02-.07,1.46-.2.79-.33,1.06-.6c.27-.27.4-.61.4-1.02,0-.37-.11-.67-.33-.9-.21-.23-.5-.42-.87-.57-.37-.15-.78-.27-1.25-.36l-2.5-.51c-1.09-.21-1.96-.64-2.6-1.3-.64-.67-.97-1.55-.99-2.66,0-.91.23-1.69.72-2.35.49-.67,1.16-1.18,2-1.54.85-.36,1.79-.54,2.84-.54,1.25,0,2.29.2,3.14.59.85.39,1.5.91,1.94,1.58.45.66.68,1.4.69,2.21h-2.93c-.05-.51-.21-.91-.46-1.21-.25-.3-.58-.52-.98-.65-.39-.13-.84-.2-1.35-.2-.39,0-.74.04-1.06.13-.31.09-.58.21-.8.37-.22.15-.39.34-.51.55-.12.21-.18.45-.18.72,0,.42.14.76.42,1.02.28.26.8.47,1.57.64l2.48.51c.89.17,1.59.43,2.11.77.53.34.92.72,1.18,1.15.27.43.44.86.52,1.31.09.44.13.85.13,1.22,0,.78-.25,1.48-.74,2.11-.49.62-1.17,1.11-2.04,1.48-.87.36-1.89.54-3.06.54Zm18.12,0c-1.73,0-3.14-.35-4.22-1.04-1.08-.7-1.7-1.78-1.86-3.23l3.04-.06c.16.66.5,1.16,1.03,1.51.53.34,1.2.51,2,.51.48,0,.9-.08,1.27-.23.37-.16.67-.37.88-.64.21-.27.32-.58.32-.93,0-.53-.17-.93-.51-1.19-.34-.27-.86-.48-1.57-.64l-2.37-.51c-1.1-.22-1.98-.66-2.65-1.31-.66-.66-1-1.54-1.01-2.65,0-.91.24-1.69.73-2.35.5-.67,1.18-1.18,2.03-1.54.86-.36,1.82-.54,2.89-.54s2.04.2,2.83.59c.8.39,1.41.91,1.84,1.57.43.65.64,1.38.63,2.17l-2.95.05c-.09-.64-.31-1.14-.64-1.51-.33-.37-.89-.55-1.66-.55-.4,0-.76.04-1.07.13-.31.09-.58.21-.81.37-.23.15-.4.34-.52.55-.11.21-.17.45-.17.72,0,.42.14.75.42,1,.29.24.82.46,1.61.67l2.33.57c1.31.31,2.26.85,2.84,1.61.59.76.88,1.68.88,2.77,0,.83-.23,1.56-.69,2.18-.45.62-1.1,1.1-1.93,1.44-.83.34-1.81.51-2.94.51Zm-1.25-16.73h2.53v2.6h-2.53v-2.6Zm-.05,15.84h2.52v2.6h-2.52v-2.6Zm11.28.69v-10.83h-2.58v-1.65c.83,0,1.49-.08,2-.23.51-.16.9-.39,1.15-.68.25-.3.4-.66.45-1.07h1.94v14.46h-2.96Zm11.57-14.66c1.72,0,3.08.64,4.07,1.93.99,1.28,1.49,3.12,1.49,5.53s-.49,4.23-1.47,5.51c-.98,1.27-2.34,1.91-4.09,1.91s-3.12-.64-4.11-1.91c-.98-1.27-1.47-3.11-1.47-5.5,0-1.6.23-2.96.68-4.07.45-1.11,1.1-1.96,1.93-2.53.83-.58,1.82-.87,2.97-.87Zm0,12.49c.86,0,1.49-.38,1.89-1.15.4-.77.6-2.06.6-3.87s-.2-3.17-.61-3.97c-.41-.8-1.04-1.2-1.89-1.2s-1.49.4-1.91,1.21c-.41.81-.62,2.13-.62,3.96s.21,3.09.62,3.86c.41.77,1.05,1.16,1.92,1.16Zm13.8-12.29h2.87v8.81h2.23v2.45h-2.23v3.2h-2.81v-3.2s-6.65,0-6.65,0v-2.4l6.59-8.86Zm-3.89,8.81h3.96v-5.3l-3.96,5.3Zm10.56,5.65v-3.18h3.2v3.18h-3.2Zm10.59.22c-.9,0-1.74-.17-2.52-.52s-1.42-.83-1.91-1.46c-.49-.63-.77-1.37-.83-2.22h2.78c.12.56.39,1.02.8,1.37.41.35.93.52,1.56.52.69,0,1.3-.16,1.82-.49.53-.33.92-.85,1.18-1.56.27-.71.36-1.65.28-2.8-.19.35-.45.66-.78.93-.33.26-.71.46-1.15.61-.44.14-.93.21-1.47.21-.98,0-1.85-.18-2.61-.55-.75-.37-1.35-.9-1.78-1.58-.43-.69-.64-1.5-.64-2.44s.23-1.79.68-2.53c.45-.74,1.09-1.32,1.9-1.74.81-.42,1.77-.63,2.86-.63,1.23,0,2.28.29,3.17.88.89.58,1.58,1.41,2.05,2.48.48,1.07.72,2.32.72,3.77,0,1.73-.25,3.17-.74,4.32-.49,1.15-1.19,2.01-2.1,2.58-.91.57-2,.85-3.27.85Zm.26-7.73c.41,0,.8-.09,1.18-.27.39-.19.7-.42.95-.7.25-.28.37-.57.37-.87,0-.65-.1-1.2-.31-1.66-.21-.47-.5-.82-.88-1.07-.37-.25-.81-.37-1.31-.37-.46,0-.87.11-1.23.32-.36.21-.64.51-.85.9-.21.39-.31.83-.31,1.34,0,.75.22,1.34.66,1.76.44.41,1.02.62,1.73.62Zm13.14-7.15c1.72,0,3.08.64,4.07,1.93.99,1.28,1.49,3.12,1.49,5.53s-.49,4.23-1.47,5.51c-.98,1.27-2.34,1.91-4.09,1.91s-3.12-.64-4.11-1.91c-.98-1.27-1.47-3.11-1.47-5.5,0-1.6.23-2.96.68-4.07.45-1.11,1.1-1.96,1.93-2.53.83-.58,1.82-.87,2.97-.87Zm0,12.49c.86,0,1.49-.38,1.89-1.15.4-.77.6-2.06.6-3.87s-.2-3.17-.61-3.97c-.41-.8-1.04-1.2-1.89-1.2s-1.49.4-1.91,1.21c-.41.81-.62,2.13-.62,3.96s.21,3.09.62,3.86c.41.77,1.05,1.16,1.92,1.16Zm7.53,2.17v-2.36h2.2v2.36h-2.2Z"/>
        </g>
      </g>
    </g>
  </g>
</svg>