<?xml version="1.0" encoding="UTF-8"?>
<svg id="Layer_2" data-name="Layer 2" xmlns="http://www.w3.org/2000/svg" xmlns:xlink="http://www.w3.org/1999/xlink" viewBox="0 0 168 320.64">
  <defs>
    <style>
      .cls-1 {
        fill: #ba4270;
      }

      .cls-1, .cls-2, .cls-3, .cls-4, .cls-5, .cls-6, .cls-7, .cls-8, .cls-9, .cls-10, .cls-11, .cls-12, .cls-13, .cls-14, .cls-15 {
        stroke-width: 0px;
      }

      .cls-1, .cls-3, .cls-4, .cls-5, .cls-9, .cls-10, .cls-12, .cls-13, .cls-14, .cls-15 {
        fill-rule: evenodd;
      }

      .cls-2 {
        opacity: .25;
      }

      .cls-2, .cls-3, .cls-4, .cls-6, .cls-14, .cls-15 {
        isolation: isolate;
      }

      .cls-2, .cls-6, .cls-7, .cls-9 {
        fill: #fff;
      }

      .cls-3 {
        fill: url(#linear-gradient-3);
      }

      .cls-3, .cls-14 {
        opacity: .75;
      }

      .cls-4 {
        fill: url(#linear-gradient);
        fill-opacity: .65;
        opacity: .6;
      }

      .cls-5, .cls-8, .cls-15 {
        fill: #36536b;
      }

      .cls-6 {
        opacity: .5;
      }

      .cls-10 {
        fill: #213648;
      }

      .cls-11 {
        fill: #fbfcfe;
      }

      .cls-12 {
        fill: #2e423c;
      }

      .cls-16 {
        mask: url(#mask);
      }

      .cls-13 {
        fill: #edf3f8;
      }

      .cls-14 {
        fill: url(#linear-gradient-2);
      }

      .cls-15 {
        opacity: .7;
      }
    </style>
    <linearGradient id="linear-gradient" x1="84.05" y1="369.89" x2="84.05" y2="362" gradientTransform="translate(0 369.89) scale(1 -1)" gradientUnits="userSpaceOnUse">
      <stop offset="0" stop-color="#454545"/>
      <stop offset=".23" stop-color="#999"/>
      <stop offset="1" stop-color="#fff"/>
    </linearGradient>
    <linearGradient id="linear-gradient-2" x1="166.47" y1="210.64" x2="160.41" y2="210.64" gradientTransform="translate(0 369.89) scale(1 -1)" gradientUnits="userSpaceOnUse">
      <stop offset="0" stop-color="#fff" stop-opacity="0"/>
      <stop offset=".22" stop-color="#bababa"/>
      <stop offset=".55" stop-color="#fff" stop-opacity="0"/>
      <stop offset="1" stop-color="#fff" stop-opacity="0"/>
    </linearGradient>
    <linearGradient id="linear-gradient-3" x1="1.64" y1="210.64" x2="7.71" y2="210.64" xlink:href="#linear-gradient-2"/>
    <mask id="mask" x="9.65" y="7.96" width="149.12" height="312.68" maskUnits="userSpaceOnUse">
      <g id="mask1_0_3002" data-name="mask1 0 3002">
        <path class="cls-9" d="m69.55,7.96H21.93c-7.11,0-12.29,4.84-12.29,11.16v270.33c0,8.24,8,15.55,17.05,15.55h114.77c8.71,0,17.05-7.36,17.05-15.55V19.86c0-7.58-5.62-11.85-12.29-11.89h-48.38c-.18.03-3.51,1.4-4.91,4.84-1.4,3.44-4.23,6.19-7.32,6.19h-3.59c-1.47,0-5.34-1.43-7.3-6.19-1.96-4.76-4.99-4.81-5.17-4.84Z"/>
      </g>
    </mask>
  </defs>
  <g id="Layer_1-2" data-name="Layer 1">
    <path class="cls-10" d="m22.9.36h122.39c11.74,0,21.25,9.11,21.25,20.35v278.57c0,11.24-9.51,20.35-21.25,20.35H22.9c-11.74,0-21.25-9.11-21.25-20.35V20.71C1.64,9.47,11.16.36,22.9.36Z"/>
    <path class="cls-4" d="m145.76,0H22.35c-5.76.35-11.08,2.98-15.94,7.89C9.54,5.16,15.12,1.5,22.5,1.5h123.11c7.38,0,12.96,3.66,16.09,6.39-4.87-4.91-10.18-7.54-15.94-7.89Z"/>
    <path class="cls-14" d="m163.2,296.11V22.39c0-7.34-2.7-10.06-4.31-11.8-1.61-1.74-1.68-2.63.63-1.32,2.31,1.32,6.94,5.15,6.94,13.12v273.72c0,7.97-4.63,11.8-6.94,13.12-2.31,1.32-2.24.43-.63-1.32,1.61-1.74,4.31-4.46,4.31-11.8Z"/>
    <path class="cls-3" d="m4.91,296.11V22.39c0-7.34,2.7-10.06,4.31-11.8,1.61-1.74,1.68-2.63-.63-1.32-2.31,1.32-6.94,5.15-6.94,13.12v273.72c0,7.97,4.63,11.8,6.94,13.12,2.31,1.32,2.25.43.63-1.32-1.61-1.74-4.31-4.46-4.31-11.8Z"/>
    <path class="cls-12" d="m0,66.58c0-.88.71-1.59,1.59-1.59s1.59.71,1.59,1.59v38.01c0,.88-.71,1.59-1.59,1.59s-1.59-.71-1.59-1.59v-38.01Z"/>
    <path class="cls-12" d="m164.82,100.18c0-.88.71-1.59,1.59-1.59s1.59.71,1.59,1.59v26.87c0,.88-.71,1.59-1.59,1.59s-1.59-.71-1.59-1.59v-26.87Z"/>
    <path class="cls-13" d="m69.55,7.96H21.93c-7.11,0-12.29,4.84-12.29,11.16v270.33c0,8.24,8,15.55,17.05,15.55h114.77c8.71,0,17.05-7.36,17.05-15.55V19.86c0-7.58-5.62-11.85-12.29-11.89h-48.38c-.18.03-3.51,1.4-4.91,4.84-1.4,3.44-4.23,6.19-7.32,6.19h-3.59c-1.47,0-5.34-1.43-7.3-6.19-1.96-4.76-4.99-4.81-5.17-4.84Z"/>
    <g class="cls-16">
      <g>
        <rect class="cls-11" x="19.2" y="110.72" width="130.56" height="25.6" rx="5" ry="5"/>
        <path class="cls-15" d="m51.22,125.55c-.3.4-.71.6-1.23.6s-.93-.2-1.24-.6c-.3-.4-.45-.99-.45-1.77,0-.52.07-.96.21-1.32.14-.35.33-.62.59-.8.25-.18.55-.27.89-.27.52,0,.92.2,1.23.61.3.4.46,1,.46,1.78s-.15,1.37-.45,1.77Zm-4.36-.95l-.22,1.5-.4-.06.22-1.44h-.92l-.22,1.5-.4-.06.22-1.44h-.74v-.39h.8l.14-.92h-.74v-.39h.79l.22-1.45.39.05-.21,1.4h.92l.22-1.45.4.05-.21,1.4h.69v.39h-.75l-.14.92h.68v.39h-.74Zm-16.15-3.14v4.63h-.68v-4.63h.68Zm2.59,4.63c-.08.01-.19.02-.32.02-.25,0-.44-.03-.57-.1-.14-.07-.23-.16-.28-.29-.05-.12-.08-.28-.08-.45v-2h-.54v-.49h.56l.17-.97h.5v.97h.74v.5h-.74v1.97c0,.11.01.19.04.24.02.05.06.08.12.1.05.01.13.02.22.02h.39v.44s-.11.03-.19.04Zm2.25.06c.22,0,.43-.04.63-.12.2-.08.37-.2.51-.36.14-.16.23-.35.27-.58h-.63c-.04.18-.14.31-.28.4s-.31.13-.51.13-.36-.04-.49-.14c-.13-.09-.23-.21-.3-.37-.07-.16-.1-.33-.1-.53h2.33v-.23c0-.34-.06-.62-.17-.87-.11-.25-.28-.44-.5-.57-.22-.14-.49-.21-.81-.21s-.6.07-.83.22-.41.36-.53.62c-.12.26-.18.57-.18.91s.07.65.2.9c.13.25.32.44.56.58.24.14.52.2.83.2Zm-.9-2h1.68c0-.17-.03-.33-.09-.47-.06-.14-.15-.25-.27-.34-.12-.08-.28-.12-.46-.12s-.35.05-.47.14c-.13.09-.22.21-.28.35-.06.14-.09.29-.09.44Zm3.73,1.94v-2.19c0-.14.04-.26.11-.35.07-.09.16-.16.27-.2.11-.04.21-.06.32-.06.1,0,.19.02.29.06.1.04.18.1.24.19.07.08.1.19.1.31v2.24h.68v-2.19c0-.15.04-.27.11-.36.07-.09.17-.15.27-.19.11-.04.21-.06.31-.06.11,0,.21.02.31.06.1.04.18.11.24.22.06.1.09.24.09.43v2.1h.69v-2.17c0-.24-.03-.44-.1-.59-.07-.15-.15-.28-.26-.37-.11-.09-.22-.15-.35-.19-.13-.04-.25-.06-.36-.06-.22,0-.41.05-.59.15-.17.1-.31.23-.42.39-.06-.12-.14-.22-.24-.3-.1-.08-.22-.14-.34-.18-.12-.04-.24-.06-.36-.06-.26,0-.46.05-.63.16-.16.11-.29.23-.38.38v-.48h-.67v3.31h.68Zm8.13-1.88h-.92l.14-.92h.92l-.14.92Zm3.48,1.37c-.31,0-.56-.14-.72-.42-.16-.28-.25-.74-.25-1.37s.08-1.11.25-1.4c.16-.29.4-.43.71-.43s.55.14.71.43c.16.29.24.75.24,1.4s-.08,1.09-.24,1.37c-.16.28-.4.42-.71.42Zm5.12-.02c-.3.4-.71.6-1.23.6s-.93-.2-1.24-.6c-.3-.4-.45-.99-.45-1.77,0-.52.07-.96.21-1.32.14-.35.33-.62.59-.8.25-.18.55-.27.89-.27.51,0,.92.2,1.23.61.3.4.46,1,.46,1.78s-.15,1.37-.45,1.77Zm-1.23.02c-.32,0-.56-.14-.72-.42-.16-.28-.25-.74-.25-1.37s.08-1.11.25-1.4.4-.43.71-.43.55.14.71.43c.16.29.24.75.24,1.4s-.08,1.09-.24,1.37c-.16.28-.39.42-.71.42Zm3.8-4.11v4.63h-.7v-3.62h-.88v-.43c.27,0,.49-.02.64-.07.16-.04.27-.11.34-.2.07-.09.11-.19.12-.32h.48Z"/>
        <path class="cls-5" d="m126.73,126.13v.74h-1.05v-.74h-.02c-.47-.06-.87-.19-1.2-.4-.45-.29-.71-.74-.77-1.34l1.26-.02c.07.27.21.48.43.63.22.14.5.21.83.21.2,0,.38-.03.53-.1.15-.07.27-.15.36-.27.09-.11.13-.24.13-.38,0-.22-.07-.39-.21-.5-.14-.11-.36-.2-.65-.26l-.99-.21c-.46-.09-.82-.27-1.1-.55s-.42-.64-.42-1.1c0-.38.1-.7.31-.98.21-.28.49-.49.84-.64l.16-.06c.16-.05.32-.1.5-.12h.03v-.83h1.05v.83l.1.02c.2.04.38.1.54.18.33.16.59.38.76.65.18.27.27.57.26.9l-1.23.02c-.04-.27-.13-.48-.27-.63-.14-.15-.37-.23-.69-.23-.17,0-.32.02-.45.05-.13.04-.24.09-.34.15-.09.07-.17.14-.21.23-.05.09-.07.19-.07.3,0,.18.06.31.18.41.12.1.34.2.67.28l.97.24c.55.13.94.35,1.18.67.24.32.36.7.36,1.15,0,.35-.1.65-.28.91-.19.26-.46.46-.81.6l-.15.06c-.16.05-.32.09-.5.12h-.06Zm7.04-1.07v1.02h-4.42v-.91c0-.31.06-.57.17-.79.11-.22.26-.42.45-.58.19-.17.39-.31.62-.43.22-.12.45-.24.67-.35.22-.11.43-.22.62-.33s.34-.24.45-.38c.11-.14.17-.3.17-.49,0-.24-.08-.44-.25-.59-.17-.15-.4-.23-.69-.23s-.56.09-.77.26c-.21.18-.34.44-.39.79h-1.16c0-.38.1-.73.27-1.04.17-.31.43-.56.78-.74s.78-.27,1.31-.27c.45,0,.84.08,1.16.23.33.15.58.36.75.64.18.27.27.59.27.95,0,.3-.05.56-.17.78-.11.22-.26.41-.44.56s-.38.29-.6.41c-.22.12-.44.22-.65.32-.22.1-.42.2-.6.31s-.33.22-.44.35c-.11.13-.17.29-.17.47v.05h3.07Zm2.91,1.11c.53,0,.98-.12,1.36-.36.38-.24.67-.6.88-1.07.2-.48.31-1.08.31-1.79,0-.6-.1-1.13-.3-1.57-.2-.44-.48-.79-.85-1.03-.37-.24-.81-.36-1.32-.36-.45,0-.85.09-1.19.26-.34.17-.6.42-.79.72-.19.31-.28.66-.28,1.05s.09.73.27,1.01c.18.28.43.5.74.66.31.15.68.23,1.08.23.22,0,.43-.03.61-.09.18-.06.34-.15.48-.25.14-.11.24-.24.32-.39.03.48,0,.87-.11,1.17-.11.3-.27.51-.49.65-.22.14-.47.2-.76.2-.26,0-.48-.07-.65-.22-.17-.15-.28-.34-.33-.57h-1.16c.02.35.14.66.34.92.21.26.47.47.8.61.32.15.67.22,1.05.22Zm-.61-3.48c.18.17.42.26.72.26.17,0,.33-.04.49-.11.16-.08.29-.17.39-.29.1-.12.15-.24.15-.36,0-.27-.04-.5-.13-.69-.09-.19-.21-.34-.37-.44-.16-.1-.34-.15-.55-.15-.19,0-.36.04-.51.13-.15.09-.27.21-.35.37-.09.16-.13.35-.13.56,0,.31.09.56.28.73Z"/>
        <rect class="cls-11" x="19.2" y="141.44" width="130.56" height="25.6" rx="5" ry="5"/>
        <path class="cls-15" d="m51.22,156.27c-.3.4-.71.6-1.23.6s-.93-.2-1.24-.6c-.3-.4-.45-.99-.45-1.77,0-.52.07-.96.21-1.32.14-.36.33-.62.59-.81s.55-.27.89-.27c.52,0,.92.2,1.23.61.3.4.46,1,.46,1.78s-.15,1.37-.45,1.77Zm-4.36-.95l-.22,1.5-.4-.06.22-1.44h-.92l-.22,1.5-.4-.06.22-1.44h-.74v-.39h.8l.14-.92h-.74v-.39h.79l.22-1.45.39.04-.21,1.4h.92l.22-1.45.4.04-.21,1.4h.69v.39h-.75l-.14.92h.68v.39h-.74Zm-16.15-3.14v4.63h-.68v-4.63h.68Zm2.59,4.63c-.08.01-.19.02-.32.02-.25,0-.44-.03-.57-.1-.14-.07-.23-.16-.28-.29s-.08-.28-.08-.45v-2h-.54v-.49h.56l.17-.97h.5v.97h.74v.5h-.74v1.97c0,.11.01.19.04.24.02.05.06.08.12.1.05.01.13.02.22.02h.39v.44s-.11.03-.19.04Zm2.25.06c.22,0,.43-.04.63-.12.2-.08.37-.2.51-.36.14-.16.23-.35.27-.58h-.63c-.04.18-.14.31-.28.4-.14.09-.31.13-.51.13s-.36-.05-.49-.14c-.13-.09-.23-.22-.3-.37-.07-.16-.1-.33-.1-.53h2.33v-.23c0-.33-.06-.62-.17-.87-.11-.25-.28-.44-.5-.57-.22-.14-.49-.21-.81-.21s-.6.07-.83.22c-.23.15-.41.36-.53.62-.12.26-.18.57-.18.91s.07.65.2.9c.13.25.32.44.56.58.24.14.52.2.83.2Zm-.9-2h1.68c0-.17-.03-.33-.09-.47-.06-.14-.15-.25-.27-.34-.12-.08-.28-.12-.46-.12s-.35.05-.47.14c-.13.09-.22.21-.28.35-.06.14-.09.29-.09.44Zm3.73,1.94v-2.19c0-.14.04-.26.11-.35.07-.09.16-.16.27-.2.11-.04.21-.06.32-.06.1,0,.19.02.29.06.1.04.18.1.24.19.07.08.1.18.1.31v2.24h.68v-2.19c0-.15.04-.27.11-.36.07-.09.17-.15.27-.19.11-.04.21-.06.31-.06.11,0,.21.02.31.06.1.04.18.11.24.22.06.1.09.24.09.43v2.1h.69v-2.17c0-.24-.03-.44-.1-.59-.07-.15-.15-.28-.26-.37-.11-.09-.22-.15-.35-.19-.13-.04-.25-.06-.36-.06-.22,0-.41.05-.59.15-.17.1-.31.23-.42.39-.06-.12-.14-.22-.24-.3-.1-.08-.22-.14-.34-.18-.12-.04-.24-.06-.36-.06-.26,0-.46.05-.63.16-.16.11-.29.23-.38.38v-.48h-.67v3.31h.68Zm8.13-1.88h-.92l.14-.92h.92l-.14.92Zm3.48,1.37c-.31,0-.56-.14-.72-.42-.16-.28-.25-.74-.25-1.37s.08-1.11.25-1.4c.16-.29.4-.43.71-.43s.55.14.71.43c.16.29.24.75.24,1.4s-.08,1.09-.24,1.37c-.16.28-.4.42-.71.42Zm5.12-.02c-.3.4-.71.6-1.23.6s-.93-.2-1.24-.6c-.3-.4-.45-.99-.45-1.77,0-.52.07-.96.21-1.32.14-.36.33-.62.59-.81.25-.18.55-.27.89-.27.51,0,.92.2,1.23.61.3.4.46,1,.46,1.78s-.15,1.37-.45,1.77Zm-1.23.02c-.32,0-.56-.14-.72-.42-.16-.28-.25-.74-.25-1.37s.08-1.11.25-1.4c.16-.29.4-.43.71-.43s.55.14.71.43c.16.29.24.75.24,1.4s-.08,1.09-.24,1.37c-.16.28-.39.42-.71.42Zm5.5-.08v.6h-3.18v-.59c0-.23.04-.44.13-.61.09-.17.21-.32.35-.45.15-.13.3-.24.48-.34.17-.1.35-.2.52-.29.17-.09.33-.19.48-.29.14-.1.26-.21.35-.34.09-.12.13-.27.13-.44,0-.22-.08-.4-.23-.54-.16-.14-.37-.21-.63-.21-.28,0-.51.08-.69.24-.18.16-.28.38-.31.66h-.67c0-.27.07-.53.2-.75s.32-.41.57-.54c.25-.13.56-.2.93-.2.32,0,.6.06.83.17.23.11.41.27.54.47.13.2.19.43.19.7,0,.24-.04.44-.13.61-.09.17-.2.32-.34.44-.14.12-.3.23-.47.33-.17.1-.34.19-.51.27-.17.09-.33.18-.47.27-.14.1-.26.2-.35.32-.09.12-.13.26-.13.43v.08h2.42Z"/>
        <path class="cls-5" d="m123.02,157.6v-.74s.06,0,.06,0c.18-.03.35-.07.5-.12l.15-.06c.35-.14.62-.34.81-.6.19-.26.28-.56.28-.91,0-.45-.12-.84-.36-1.15-.24-.32-.64-.54-1.18-.67l-.97-.24c-.33-.09-.55-.18-.67-.28-.12-.1-.18-.24-.18-.41,0-.11.02-.21.07-.3.05-.09.12-.17.21-.23.09-.07.21-.12.34-.15.13-.04.28-.05.45-.05.32,0,.55.08.69.23.14.15.23.36.27.63l1.23-.02c0-.33-.08-.63-.26-.9-.18-.27-.43-.49-.76-.65-.17-.08-.35-.14-.54-.18l-.1-.02v-.83s-1.05,0-1.05,0v.82h-.03c-.17.03-.34.07-.5.13l-.15.06c-.36.15-.64.36-.84.64-.21.28-.31.6-.31.98,0,.46.15.83.42,1.1s.64.46,1.1.55l.99.21c.29.07.51.15.65.26.14.11.21.27.21.5,0,.14-.04.27-.13.39-.09.11-.21.2-.36.27-.15.07-.33.1-.53.1-.33,0-.61-.07-.83-.22-.22-.14-.36-.35-.43-.63l-1.26.02c.07.61.32,1.05.77,1.34.33.21.72.35,1.2.4h.02v.74h1.05Zm4.81-.79v-6.01h-.81c-.02.17-.08.32-.19.44-.11.12-.26.22-.48.28-.21.07-.49.1-.83.1v.69h1.07v4.51h1.23Zm5.22-.71c-.41.53-.98.8-1.7.8s-1.3-.26-1.71-.79c-.41-.53-.61-1.29-.61-2.29,0-.67.09-1.23.28-1.69.19-.46.46-.82.8-1.05.35-.24.76-.36,1.24-.36.72,0,1.28.27,1.69.8.41.53.62,1.3.62,2.3s-.2,1.76-.61,2.29Zm-1.7-.2c-.36,0-.63-.16-.8-.48-.17-.32-.26-.86-.26-1.61s.09-1.31.26-1.65c.17-.34.44-.5.79-.5s.62.17.79.5c.17.33.25.88.25,1.65s-.08,1.29-.25,1.61c-.17.32-.43.48-.79.48Zm6.76.74c-.35.17-.77.25-1.25.25-.39,0-.76-.06-1.1-.18-.34-.12-.63-.29-.88-.5-.25-.21-.43-.46-.56-.73l.95-.56c.11.19.23.36.37.51.14.15.29.27.47.36.18.09.39.13.63.13.36,0,.65-.1.87-.29.22-.19.33-.44.33-.75,0-.19-.05-.37-.15-.52-.1-.15-.23-.28-.4-.36-.17-.09-.37-.13-.6-.13-.12,0-.24.01-.35.03-.11.02-.22.06-.33.12-.11.06-.24.14-.37.24-.04.02-.07.02-.08.02s-.04,0-.08-.03l-.88-.41.27-3.05h3.86l-.05.99h-2.86l-.12,1.45c.22-.12.43-.21.63-.27.2-.06.42-.08.66-.08.4,0,.76.08,1.08.23.32.15.57.37.75.66.19.29.28.65.28,1.06s-.1.79-.29,1.1-.46.54-.81.71Z"/>
        <rect class="cls-11" x="19.2" y="172.16" width="130.56" height="25.6" rx="5" ry="5"/>
        <path class="cls-15" d="m51.22,186.99c-.3.4-.71.6-1.23.6s-.93-.2-1.24-.6c-.3-.4-.45-.99-.45-1.77,0-.52.07-.96.21-1.32.14-.35.33-.62.59-.8.25-.18.55-.27.89-.27.52,0,.92.2,1.23.61.3.4.46,1,.46,1.78s-.15,1.37-.45,1.77Zm-4.36-.95l-.22,1.5-.4-.06.22-1.44h-.92l-.22,1.5-.4-.06.22-1.44h-.74v-.39h.8l.14-.92h-.74v-.39h.79l.22-1.45.39.04-.21,1.4h.92l.22-1.45.4.04-.21,1.4h.69v.39h-.75l-.14.92h.68v.39h-.74Zm-16.15-3.14v4.63h-.68v-4.63h.68Zm2.59,4.63c-.08.01-.19.02-.32.02-.25,0-.44-.03-.57-.1-.14-.07-.23-.16-.28-.29-.05-.12-.08-.28-.08-.45v-2h-.54v-.49h.56l.17-.97h.5v.97h.74v.5h-.74v1.97c0,.11.01.19.04.24.02.05.06.08.12.1.05.01.13.02.22.02h.39v.44s-.11.03-.19.04Zm2.25.06c.22,0,.43-.04.63-.12.2-.08.37-.2.51-.36.14-.16.23-.35.27-.58h-.63c-.04.18-.14.31-.28.4s-.31.13-.51.13-.36-.04-.49-.14c-.13-.09-.23-.21-.3-.37-.07-.16-.1-.33-.1-.53h2.33v-.23c0-.34-.06-.62-.17-.87-.11-.25-.28-.44-.5-.57-.22-.14-.49-.21-.81-.21s-.6.07-.83.22-.41.36-.53.62c-.12.26-.18.57-.18.91s.07.65.2.9c.13.25.32.44.56.58.24.14.52.2.83.2Zm-.9-2h1.68c0-.17-.03-.33-.09-.47-.06-.14-.15-.25-.27-.34-.12-.08-.28-.12-.46-.12s-.35.05-.47.14c-.13.09-.22.21-.28.35-.06.14-.09.29-.09.44Zm3.73,1.94v-2.19c0-.14.04-.26.11-.35.07-.09.16-.16.27-.2.11-.04.21-.06.32-.06.1,0,.19.02.29.06.1.04.18.1.24.19.07.08.1.19.1.31v2.24h.68v-2.19c0-.15.04-.27.11-.37.07-.09.17-.15.27-.19.11-.04.21-.06.31-.06.11,0,.21.02.31.06.1.04.18.11.24.22.06.1.09.24.09.43v2.1h.69v-2.17c0-.24-.03-.44-.1-.59-.07-.16-.15-.28-.26-.37-.11-.09-.22-.15-.35-.19-.13-.04-.25-.06-.36-.06-.22,0-.41.05-.59.15-.17.1-.31.23-.42.39-.06-.12-.14-.22-.24-.3-.1-.08-.22-.14-.34-.18-.12-.04-.24-.06-.36-.06-.26,0-.46.05-.63.16-.16.11-.29.23-.38.38v-.48h-.67v3.31h.68Zm8.13-1.88h-.92l.14-.92h.92l-.14.92Zm3.48,1.37c-.31,0-.56-.14-.72-.42-.16-.28-.25-.74-.25-1.37s.08-1.11.25-1.4c.16-.29.4-.43.71-.43s.55.14.71.43c.16.29.24.75.24,1.4s-.08,1.09-.24,1.37c-.16.28-.4.42-.71.42Zm5.12-.02c-.3.4-.71.6-1.23.6s-.93-.2-1.24-.6c-.3-.4-.45-.99-.45-1.77,0-.52.07-.96.21-1.32.14-.35.33-.62.59-.8.25-.18.55-.27.89-.27.51,0,.92.2,1.23.61.3.4.46,1,.46,1.78s-.15,1.37-.45,1.77Zm-1.23.02c-.32,0-.56-.14-.72-.42-.16-.28-.25-.74-.25-1.37s.08-1.11.25-1.4c.16-.29.4-.43.71-.43s.55.14.71.43c.16.29.24.75.24,1.4s-.08,1.09-.24,1.37c-.16.28-.39.42-.71.42Zm4.59.5c-.22.06-.46.09-.72.09-.33,0-.62-.06-.87-.18-.25-.12-.44-.28-.58-.49-.14-.21-.21-.46-.22-.76h.67c.05.28.16.49.34.64s.41.22.67.22c.22,0,.41-.03.56-.1.16-.07.28-.16.37-.28.09-.12.13-.26.13-.41,0-.17-.05-.32-.14-.44-.1-.12-.22-.21-.39-.27-.17-.06-.35-.1-.56-.1h-.43v-.58h.4c.19-.02.37-.05.52-.12.15-.07.27-.16.35-.27.09-.11.13-.24.13-.37,0-.12-.04-.24-.11-.34-.08-.1-.18-.18-.33-.24-.14-.06-.31-.09-.51-.09-.16,0-.31.03-.46.09-.14.06-.26.15-.35.28-.09.13-.14.3-.15.5h-.67c0-.31.07-.57.22-.78.15-.21.35-.37.6-.49.25-.11.52-.17.83-.17.33,0,.61.04.87.14.25.09.45.23.59.41.14.18.22.4.22.66,0,.23-.07.43-.21.62-.14.18-.36.32-.66.43.19.05.37.13.51.24.15.1.27.23.35.39.08.15.13.33.13.53,0,.22-.05.41-.14.58-.09.17-.22.31-.38.43-.17.12-.36.21-.58.27Z"/>
        <path class="cls-5" d="m123.06,188.32v-.74h.06c.18-.03.35-.07.5-.12l.15-.06c.35-.14.62-.34.81-.6.19-.26.29-.56.29-.91,0-.45-.12-.84-.36-1.15-.24-.32-.64-.54-1.18-.67l-.97-.24c-.33-.09-.55-.18-.67-.28-.12-.1-.18-.24-.18-.41,0-.11.02-.21.07-.3.05-.09.12-.17.21-.23.1-.07.21-.12.34-.15.13-.04.28-.05.45-.05.32,0,.55.08.69.23.14.15.23.36.27.63l1.23-.02c0-.33-.08-.63-.26-.9-.18-.27-.43-.49-.76-.65-.17-.08-.35-.14-.54-.18l-.1-.02v-.83h-1.05v.82h-.03c-.17.03-.34.07-.5.13l-.16.06c-.36.15-.64.36-.84.64s-.31.6-.31.98c0,.46.15.83.42,1.1s.64.46,1.1.55l.99.21c.29.07.51.15.65.26.14.11.21.28.21.5,0,.14-.04.27-.13.38-.09.11-.21.2-.36.27-.15.07-.33.1-.53.1-.33,0-.61-.07-.83-.21-.22-.14-.36-.35-.43-.63l-1.26.02c.07.61.32,1.05.77,1.34.33.21.72.34,1.2.4h.02s0,.74,0,.74h1.05Zm4.94-.71c.49,0,.92-.07,1.28-.21.36-.14.65-.35.85-.61.2-.26.3-.57.3-.93,0-.23-.06-.45-.17-.65-.11-.21-.26-.38-.43-.52-.18-.14-.36-.23-.54-.27.25-.12.45-.28.62-.5s.25-.48.25-.79c0-.37-.1-.68-.28-.93-.19-.25-.45-.44-.77-.57-.33-.13-.7-.2-1.11-.2s-.77.07-1.1.2c-.33.13-.59.32-.78.57-.19.25-.29.56-.29.93,0,.31.09.57.26.79s.38.38.63.5c-.19.04-.37.13-.54.27-.17.14-.32.32-.43.52-.11.21-.17.42-.17.65,0,.36.1.67.3.93.2.26.48.47.85.61.36.14.79.21,1.27.21Zm-.68-3.9c.18.15.41.22.68.22s.51-.07.68-.22c.18-.15.27-.35.27-.62s-.09-.47-.27-.62c-.18-.15-.41-.23-.68-.23s-.5.08-.68.23c-.18.15-.27.36-.27.62s.09.47.27.62Zm.68,2.99c-.35,0-.62-.08-.82-.24-.2-.16-.3-.37-.3-.63,0-.18.05-.33.14-.47.09-.13.22-.24.39-.32.17-.08.37-.12.6-.12s.44.04.61.12c.17.08.3.18.39.32.09.13.14.29.14.47,0,.26-.1.48-.3.63-.2.16-.48.24-.83.24Zm5.39-5.19v6.01h-1.23v-4.51h-1.07v-.69c.34,0,.62-.03.83-.1.21-.07.37-.16.48-.28.1-.12.17-.27.19-.44h.81Zm3.52,6.11c.73,0,1.29-.27,1.7-.8.41-.53.61-1.29.61-2.29s-.21-1.77-.62-2.3c-.41-.53-.98-.8-1.69-.8-.48,0-.89.12-1.24.36-.35.24-.61.59-.8,1.05-.19.46-.28,1.03-.28,1.69,0,1,.2,1.76.61,2.29.41.53.98.79,1.71.79Zm-.8-1.48c.17.32.44.48.8.48s.62-.16.79-.48c.17-.32.25-.86.25-1.61s-.09-1.32-.25-1.65c-.17-.33-.43-.5-.79-.5s-.62.17-.79.5c-.17.33-.26.88-.26,1.65s.09,1.28.26,1.61Z"/>
        <rect class="cls-11" x="19.2" y="202.88" width="130.56" height="25.6" rx="5" ry="5"/>
        <path class="cls-15" d="m49.99,218.31c.52,0,.93-.2,1.23-.6s.45-.99.45-1.77-.15-1.38-.46-1.78-.71-.61-1.23-.61c-.34,0-.64.09-.89.27-.25.18-.45.45-.59.8-.14.35-.21.79-.21,1.32,0,.78.15,1.37.45,1.77.3.4.71.6,1.24.6Zm-3.35-.06l.22-1.5h.74v-.39h-.68l.14-.92h.75v-.39h-.69l.21-1.4-.4-.05-.22,1.45h-.92l.21-1.4-.39-.05-.22,1.45h-.79v.39h.74l-.14.92h-.8v.39h.74l-.22,1.44.4.06.22-1.5h.92l-.22,1.44.4.06Zm-15.93-.01v-4.63h-.68v4.63h.68Zm2.27.02c.13,0,.24,0,.32-.02.08-.01.15-.03.19-.05v-.44h-.39c-.09,0-.17,0-.22-.02s-.09-.05-.12-.1c-.02-.05-.03-.13-.03-.24v-1.97s.74,0,.74,0v-.5h-.74v-.97h-.5l-.17.97h-.56v.49h.54v2c0,.18.03.33.08.45s.15.22.28.29.33.1.57.1Zm3.21-.08c-.2.08-.41.12-.63.12-.31,0-.59-.07-.83-.2-.24-.14-.43-.33-.56-.58-.13-.25-.2-.55-.2-.9s.06-.65.18-.91c.12-.26.3-.47.53-.62.23-.15.51-.22.83-.22s.59.07.81.2c.22.14.38.33.5.57.11.25.17.54.17.87v.23h-2.33c0,.2.03.38.1.53.07.16.16.28.3.37.13.09.3.14.49.14s.37-.05.51-.14c.14-.09.24-.22.28-.4h.63c-.04.23-.13.42-.27.58-.14.16-.31.28-.51.36Zm.15-1.88h-1.68c0-.15.03-.3.09-.44.06-.14.16-.26.28-.35.13-.09.28-.14.47-.14s.34.04.46.12c.12.08.21.19.27.34.06.14.09.3.09.47Zm2.05-.25v2.19h-.68v-3.31h.67v.48c.09-.14.22-.27.38-.38.16-.11.37-.16.63-.16.12,0,.24.02.36.06.12.04.24.1.34.18.1.08.19.18.24.3.1-.16.24-.29.42-.39.18-.1.37-.15.59-.15.12,0,.24.02.36.06.13.04.24.1.35.19.11.09.2.21.26.37.07.16.1.35.1.59v2.17h-.69v-2.1c0-.18-.03-.32-.09-.43-.06-.1-.14-.17-.24-.22-.1-.04-.2-.06-.31-.06-.1,0-.2.02-.31.06-.11.04-.2.1-.27.19-.07.09-.11.21-.11.36v2.19h-.68v-2.24c0-.12-.03-.22-.1-.31-.06-.08-.15-.15-.24-.19-.1-.04-.19-.06-.29-.06-.11,0-.21.02-.32.06-.11.04-.2.11-.27.2-.07.09-.11.21-.11.35Zm7.21.31h.92l.14-.92h-.92l-.14.92Zm3.68.95c.16.28.4.42.72.42s.55-.14.71-.42c.16-.28.24-.73.24-1.37s-.08-1.11-.24-1.4c-.16-.29-.4-.43-.71-.43s-.55.14-.71.43c-.17.29-.25.75-.25,1.4s.08,1.09.25,1.37Zm4.6,1c.52,0,.93-.2,1.23-.6.3-.4.45-.99.45-1.77s-.15-1.38-.46-1.78-.71-.61-1.23-.61c-.34,0-.64.09-.89.27-.25.18-.45.45-.59.8-.14.35-.21.79-.21,1.32,0,.78.15,1.37.45,1.77.3.4.71.6,1.24.6Zm-.71-1c.16.28.4.42.72.42s.55-.14.71-.42c.16-.28.24-.73.24-1.37s-.08-1.11-.24-1.4c-.16-.29-.4-.43-.71-.43s-.55.14-.71.43c-.16.29-.25.75-.25,1.4s.08,1.09.25,1.37Zm5.76.93v-1.14h.75v-.59h-.75v-2.9h-.69l-2.14,2.89v.6h2.17v1.14h.67Zm-2.19-1.73h1.51v-2.03l-1.51,2.03Z"/>
        <path class="cls-5" d="m117.82,218.29v.74h-1.05v-.74h-.02c-.47-.06-.87-.19-1.2-.4-.45-.29-.71-.74-.77-1.34l1.26-.02c.07.27.21.48.43.63.22.14.5.21.83.21.2,0,.38-.03.53-.1.15-.07.27-.15.36-.27.09-.11.13-.24.13-.38,0-.22-.07-.39-.21-.5-.14-.11-.36-.2-.65-.27l-.99-.21c-.46-.09-.82-.27-1.1-.55-.28-.27-.42-.64-.42-1.1,0-.38.1-.7.31-.98s.49-.49.84-.64l.16-.06c.16-.05.32-.1.5-.12h.03s0-.83,0-.83h1.05v.83l.1.02c.2.04.38.1.54.18.33.16.59.38.76.65.18.27.27.58.26.9l-1.23.02c-.04-.27-.13-.48-.27-.63-.14-.15-.37-.23-.69-.23-.17,0-.31.02-.45.05-.13.04-.24.09-.34.15-.09.06-.17.14-.21.23-.05.09-.07.19-.07.3,0,.17.06.31.18.41.12.1.34.19.67.28l.97.24c.55.13.94.35,1.18.67.24.32.36.7.36,1.15,0,.35-.1.65-.29.91s-.46.46-.8.6l-.15.06c-.16.05-.32.09-.5.12h-.06Zm4.81-6.07v6.01h-1.23v-4.51h-1.07v-.69c.34,0,.62-.03.83-.1.21-.07.37-.16.48-.28.11-.12.17-.27.19-.44h.81Zm3.52,6.11c.73,0,1.29-.27,1.7-.8.41-.53.61-1.29.61-2.29s-.21-1.77-.62-2.3c-.41-.53-.98-.8-1.69-.8-.48,0-.89.12-1.24.36-.35.24-.61.59-.8,1.05-.19.46-.28,1.03-.28,1.69,0,1,.21,1.76.61,2.29.41.53.98.8,1.71.8Zm-.8-1.48c.17.32.44.48.8.48s.62-.16.79-.48c.17-.32.25-.86.25-1.61s-.08-1.32-.25-1.65c-.17-.33-.43-.5-.79-.5s-.62.17-.79.5c-.17.34-.26.89-.26,1.65s.09,1.28.26,1.61Zm7.67,1.38v-1.33h.93v-1.02h-.93v-3.67h-1.19l-2.74,3.69v1h2.77v1.33s1.16,0,1.16,0Zm-2.81-2.35h1.65v-2.21l-1.65,2.21Zm8.21,2.35v-1.33h.93v-1.02h-.93v-3.67h-1.19l-2.74,3.69v1h2.77v1.33s1.16,0,1.16,0Zm-2.81-2.35h1.65v-2.21l-1.65,2.21Z"/>
        <rect class="cls-11" x="19.2" y="233.6" width="130.56" height="25.6" rx="5" ry="5"/>
        <path class="cls-15" d="m51.22,248.43c-.3.4-.71.6-1.23.6s-.93-.2-1.24-.6c-.3-.4-.45-.99-.45-1.77,0-.52.07-.96.21-1.32.14-.36.33-.62.59-.8.25-.18.55-.27.89-.27.52,0,.92.2,1.23.61s.46,1,.46,1.78-.15,1.37-.45,1.77Zm-4.36-.95l-.22,1.5-.4-.06.22-1.44h-.92l-.22,1.5-.4-.06.22-1.44h-.74v-.39h.8l.14-.92h-.74v-.39h.79l.22-1.45.39.05-.21,1.4h.92l.22-1.45.4.05-.21,1.4h.69v.39h-.75l-.14.92h.68v.39h-.74Zm-16.15-3.14v4.63h-.68v-4.63h.68Zm2.59,4.63c-.08.01-.19.02-.32.02-.25,0-.44-.03-.57-.1s-.23-.16-.28-.29c-.05-.12-.08-.28-.08-.45v-2h-.54v-.49h.56l.17-.97h.5v.97h.74v.5h-.74v1.97c0,.11.01.19.04.24.02.05.06.08.12.1.05.01.13.02.22.02h.39v.45s-.11.03-.19.05Zm2.25.06c.22,0,.43-.04.63-.12.2-.08.37-.2.51-.36.14-.16.23-.35.27-.58h-.63c-.04.18-.14.31-.28.4s-.31.13-.51.13-.36-.05-.49-.14c-.13-.09-.23-.21-.3-.37-.07-.16-.1-.33-.1-.53h2.33v-.23c0-.33-.06-.62-.17-.87-.11-.25-.28-.44-.5-.57-.22-.14-.49-.2-.81-.2s-.6.07-.83.22c-.23.15-.41.36-.53.62-.12.26-.18.57-.18.91s.07.65.2.9c.13.25.32.45.56.58.24.13.52.2.83.2Zm-.9-2h1.68c0-.17-.03-.33-.09-.47-.06-.14-.15-.25-.27-.34-.12-.08-.28-.12-.46-.12s-.35.05-.47.14c-.13.09-.22.21-.28.35-.06.14-.09.29-.09.44Zm3.73,1.94v-2.19c0-.14.04-.26.11-.35.07-.09.16-.16.27-.2.11-.04.21-.06.32-.06.1,0,.19.02.29.06.1.04.18.1.24.19.07.08.1.19.1.31v2.24h.68v-2.19c0-.15.04-.27.11-.36.07-.09.17-.15.27-.19.11-.04.21-.06.31-.06.11,0,.21.02.31.06.1.04.18.11.24.22.06.1.09.24.09.43v2.1h.69v-2.17c0-.24-.03-.44-.1-.59s-.15-.28-.26-.37c-.11-.09-.22-.15-.35-.19-.13-.04-.25-.06-.36-.06-.22,0-.41.05-.59.15-.17.1-.31.23-.42.39-.06-.12-.14-.22-.24-.3-.1-.08-.22-.14-.34-.18-.12-.04-.24-.06-.36-.06-.26,0-.46.05-.63.16-.16.11-.29.23-.38.38v-.48h-.67v3.31h.68Zm8.13-1.88h-.92l.14-.92h.92l-.14.92Zm3.48,1.37c-.31,0-.56-.14-.72-.42-.16-.28-.25-.74-.25-1.37s.08-1.11.25-1.4c.16-.29.4-.43.71-.43s.55.14.71.43c.16.29.24.75.24,1.4s-.08,1.09-.24,1.37c-.16.28-.4.42-.71.42Zm5.12-.02c-.3.4-.71.6-1.23.6s-.93-.2-1.24-.6c-.3-.4-.45-.99-.45-1.77,0-.52.07-.96.21-1.32.14-.36.33-.62.59-.8.25-.18.55-.27.89-.27.51,0,.92.2,1.23.61s.46,1,.46,1.78-.15,1.37-.45,1.77Zm-1.23.02c-.32,0-.56-.14-.72-.42-.16-.28-.25-.74-.25-1.37s.08-1.11.25-1.4c.16-.29.4-.43.71-.43s.55.14.71.43c.16.29.24.75.24,1.4s-.08,1.09-.24,1.37c-.16.28-.39.42-.71.42Zm4.98.39c-.26.13-.56.2-.91.2-.29,0-.56-.05-.81-.15-.25-.1-.46-.24-.64-.41-.18-.17-.31-.38-.4-.6l.57-.27c.08.17.17.32.28.45s.25.23.4.31c.15.07.33.11.53.11.31,0,.57-.09.76-.27.19-.18.29-.42.29-.72,0-.19-.04-.36-.13-.5-.09-.14-.21-.25-.36-.33-.15-.08-.32-.12-.51-.12-.12,0-.23,0-.33.03-.1.02-.2.06-.31.12-.1.06-.21.14-.32.26-.02,0-.03.01-.04.01,0,0-.02,0-.04-.02l-.55-.2.21-2.39h2.82l-.02.58h-2.23l-.11,1.39c.16-.13.32-.22.5-.28.17-.06.36-.09.57-.09.29,0,.55.06.79.17.24.12.43.28.57.51.14.22.21.5.21.82s-.07.6-.21.84c-.14.24-.34.42-.6.55Z"/>
        <path class="cls-5" d="m126.68,249.76v-.74s.06,0,.06,0c.18-.03.35-.07.5-.12l.15-.06c.35-.14.62-.34.81-.6s.28-.56.28-.91c0-.45-.12-.84-.36-1.15-.24-.32-.64-.54-1.18-.67l-.97-.24c-.33-.09-.55-.18-.67-.28-.12-.1-.18-.24-.18-.41,0-.11.02-.21.07-.3.05-.09.12-.17.21-.23.09-.06.21-.12.34-.15.13-.04.28-.05.45-.05.32,0,.55.08.69.23.14.15.23.36.27.63l1.23-.02c0-.33-.08-.63-.26-.9-.18-.27-.43-.49-.76-.65-.17-.08-.35-.14-.54-.18l-.1-.02v-.83s-1.05,0-1.05,0v.82h-.03c-.17.03-.34.07-.5.13l-.16.06c-.36.15-.64.36-.84.64-.21.28-.31.6-.31.98,0,.46.15.83.42,1.1.28.27.64.46,1.1.55l.99.21c.29.07.51.15.65.26.14.11.21.28.21.5,0,.14-.05.27-.13.38-.09.11-.21.2-.36.27-.15.07-.33.1-.53.1-.33,0-.61-.07-.83-.21-.22-.14-.36-.35-.43-.63l-1.26.02c.07.6.32,1.05.77,1.34.33.21.73.35,1.2.4h.02v.74h1.05Zm6.44-.8v-1.33h.93v-1.02h-.93v-3.66h-1.19l-2.74,3.68v1h2.77v1.33s1.17,0,1.17,0Zm-2.81-2.35h1.65v-2.2l-1.65,2.2Zm6.6,2.44c.73,0,1.29-.26,1.7-.8.41-.53.61-1.3.61-2.29s-.21-1.77-.62-2.3c-.41-.53-.98-.8-1.69-.8-.48,0-.89.12-1.24.36-.35.24-.61.59-.8,1.05-.19.46-.28,1.03-.28,1.69,0,1,.2,1.76.61,2.29.41.53.98.79,1.71.79Zm-.8-1.48c.17.32.44.48.8.48s.62-.16.79-.48c.17-.32.25-.86.25-1.61s-.09-1.32-.25-1.65c-.17-.33-.43-.5-.79-.5s-.62.17-.79.5c-.17.34-.26.88-.26,1.65s.09,1.28.26,1.61Z"/>
        <rect class="cls-11" x="19.2" y="264.32" width="130.56" height="25.6" rx="5" ry="5"/>
        <path class="cls-15" d="m49.99,279.75c.52,0,.93-.2,1.23-.6s.45-.99.45-1.77-.15-1.38-.46-1.78-.71-.61-1.23-.61c-.34,0-.64.09-.89.27-.25.18-.45.45-.59.81-.14.35-.21.79-.21,1.32,0,.78.15,1.37.45,1.77.3.4.71.6,1.24.6Zm-3.35-.06l.22-1.5h.74v-.39h-.68l.14-.92h.75v-.39h-.69l.21-1.4-.4-.05-.22,1.45h-.92l.21-1.4-.39-.05-.22,1.45h-.79v.39h.74l-.14.92h-.8v.39h.74l-.22,1.44.4.06.22-1.5h.92l-.22,1.44.4.06Zm-15.93-.01v-4.63h-.68v4.63h.68Zm2.27.02c.13,0,.24,0,.32-.02.08-.01.15-.03.19-.05v-.44h-.39c-.09,0-.17,0-.22-.02s-.09-.05-.12-.1c-.02-.05-.03-.13-.03-.24v-1.97s.74,0,.74,0v-.5h-.74v-.97h-.5l-.17.97h-.56v.49h.54v2c0,.18.03.33.08.45s.15.22.28.29.33.1.57.1Zm3.21-.08c-.2.08-.41.12-.63.12-.31,0-.59-.07-.83-.2-.24-.14-.43-.33-.56-.58-.13-.25-.2-.55-.2-.9s.06-.65.18-.91c.12-.26.3-.47.53-.62.23-.15.51-.22.83-.22s.59.07.81.2c.22.14.38.33.5.57.11.25.17.54.17.87v.23h-2.33c0,.2.03.38.1.53.07.16.16.28.3.37.13.09.3.14.49.14s.37-.05.51-.14c.14-.09.24-.22.28-.4h.63c-.04.23-.13.42-.27.58-.14.16-.31.28-.51.36Zm.15-1.88h-1.68c0-.15.03-.3.09-.44.06-.14.16-.26.28-.35.13-.09.28-.14.47-.14s.34.04.46.12c.12.08.21.19.27.34.06.14.09.3.09.47Zm2.05-.25v2.19h-.68v-3.31h.67v.48c.09-.14.22-.27.38-.38.16-.11.37-.16.63-.16.12,0,.24.02.36.06.12.04.24.1.34.18.1.08.19.18.24.3.1-.16.24-.29.42-.39.18-.1.37-.15.59-.15.12,0,.24.02.36.06.13.04.24.1.35.19.11.09.2.21.26.37.07.16.1.35.1.59v2.17h-.69v-2.1c0-.18-.03-.32-.09-.43-.06-.1-.14-.17-.24-.22-.1-.04-.2-.06-.31-.06-.1,0-.2.02-.31.06-.11.04-.2.1-.27.19-.07.09-.11.21-.11.36v2.19h-.68v-2.24c0-.12-.03-.22-.1-.31-.06-.08-.15-.15-.24-.19-.1-.04-.19-.06-.29-.06-.11,0-.21.02-.32.06-.11.04-.2.11-.27.2-.07.09-.11.21-.11.35Zm7.21.31h.92l.14-.92h-.92l-.14.92Zm3.68.95c.16.28.4.42.72.42s.55-.14.71-.42c.16-.28.24-.73.24-1.37s-.08-1.11-.24-1.4c-.16-.29-.4-.43-.71-.43s-.55.14-.71.43c-.17.29-.25.75-.25,1.4s.08,1.09.25,1.37Zm4.6,1c.52,0,.93-.2,1.23-.6.3-.4.45-.99.45-1.77s-.15-1.38-.46-1.78-.71-.61-1.23-.61c-.34,0-.64.09-.89.27-.25.18-.45.45-.59.81-.14.35-.21.79-.21,1.32,0,.78.15,1.37.45,1.77.3.4.71.6,1.24.6Zm-.71-1c.16.28.4.42.72.42s.55-.14.71-.42c.16-.28.24-.73.24-1.37s-.08-1.11-.24-1.4c-.16-.29-.4-.43-.71-.43s-.55.14-.71.43c-.16.29-.25.75-.25,1.4s.08,1.09.25,1.37Zm4.71,1c.33,0,.63-.07.87-.2.25-.14.44-.32.57-.56.14-.24.2-.51.2-.82s-.07-.56-.19-.78c-.13-.22-.31-.38-.54-.5-.23-.12-.5-.18-.81-.18-.17,0-.33.03-.49.09-.15.06-.28.14-.4.24-.12.11-.2.23-.26.37-.03-.39,0-.73.08-1.01.08-.28.2-.49.38-.64.17-.15.39-.22.65-.22.23,0,.43.06.58.18.16.12.26.29.32.5h.64c-.03-.26-.11-.49-.26-.67-.15-.18-.33-.33-.56-.42-.23-.1-.47-.15-.74-.15-.39,0-.73.1-1,.3-.28.2-.49.48-.63.85s-.21.8-.21,1.3.07.89.22,1.23c.15.34.35.61.62.8.27.19.59.28.96.28Zm-.52-.7c.14.1.31.15.5.15.18,0,.34-.04.48-.13.14-.08.25-.2.33-.35.08-.15.12-.32.12-.52s-.04-.37-.11-.51c-.07-.14-.18-.25-.32-.32-.14-.07-.31-.11-.5-.11-.16,0-.31.04-.46.11-.14.07-.26.17-.35.29-.09.12-.14.25-.14.39,0,.23.03.43.11.6.08.17.19.31.34.4Z"/>
        <path class="cls-5" d="m115.76,280.48v-.74h.06c.18-.03.35-.07.5-.12l.15-.06c.35-.14.62-.34.8-.6.19-.26.29-.56.29-.91,0-.45-.12-.84-.36-1.15-.24-.32-.64-.54-1.18-.67l-.97-.24c-.33-.09-.55-.18-.67-.28-.12-.1-.18-.24-.18-.41,0-.11.02-.21.07-.3.05-.09.12-.17.21-.23.1-.06.21-.12.34-.15.13-.04.28-.05.44-.05.32,0,.55.08.69.23.14.15.23.36.27.63l1.23-.02c0-.33-.08-.63-.26-.9-.18-.27-.43-.49-.76-.65-.17-.08-.35-.14-.54-.18l-.1-.02v-.83h-1.05v.82h-.03c-.17.03-.34.07-.5.13l-.16.06c-.36.15-.64.36-.84.64-.21.28-.31.6-.31.98,0,.46.15.83.42,1.1.28.27.64.46,1.1.55l.99.21c.29.07.51.15.65.27.14.11.21.27.21.5,0,.14-.04.27-.13.38-.09.11-.21.2-.36.27-.15.07-.33.1-.53.1-.33,0-.61-.07-.83-.21-.22-.14-.36-.35-.43-.63l-1.26.02c.07.61.32,1.05.77,1.34.33.21.73.35,1.2.4h.02v.74h1.05Zm7.04-.8v-1.02h-3.07v-.05c0-.18.06-.34.17-.47.11-.13.26-.25.44-.35s.38-.21.6-.31c.22-.1.44-.21.65-.32.22-.12.42-.25.6-.41.18-.15.33-.34.44-.56.11-.22.17-.48.17-.78,0-.36-.09-.68-.27-.95-.18-.27-.43-.48-.76-.64-.33-.15-.71-.23-1.16-.23-.52,0-.96.09-1.31.27-.35.18-.61.43-.78.74-.17.31-.26.66-.27,1.04h1.16c.05-.35.18-.62.39-.79.21-.17.47-.26.77-.26s.52.08.69.23c.17.15.25.35.25.59,0,.19-.06.35-.17.49-.11.14-.26.26-.45.38-.19.11-.39.22-.62.33-.23.11-.45.23-.67.35-.22.12-.43.27-.62.43-.19.16-.34.36-.45.58-.11.22-.17.49-.17.79v.91h4.42Zm4.48-.16c-.35.17-.77.25-1.25.25-.39,0-.76-.06-1.1-.18-.34-.12-.63-.29-.88-.5-.25-.21-.43-.46-.56-.73l.95-.56c.11.19.23.36.37.51s.29.27.47.36.39.13.63.13c.36,0,.65-.1.87-.29.22-.19.33-.44.33-.75,0-.19-.05-.37-.15-.52-.1-.15-.23-.27-.41-.36-.17-.09-.37-.13-.6-.13-.12,0-.24,0-.35.03-.11.02-.22.06-.33.12-.11.06-.24.14-.37.24-.04.02-.07.02-.08.02s-.04-.01-.09-.03l-.88-.41.27-3.05h3.86l-.05.99h-2.86l-.12,1.45c.22-.12.43-.21.63-.27.2-.06.42-.08.66-.08.4,0,.76.08,1.08.23.32.15.57.37.76.66.18.29.28.65.28,1.07s-.1.79-.29,1.1c-.19.31-.46.54-.81.71Zm4.24.25c.45,0,.85-.09,1.19-.27.34-.18.61-.42.8-.73.19-.31.29-.66.29-1.05,0-.37-.09-.7-.26-.97-.17-.28-.41-.49-.72-.64-.3-.15-.66-.23-1.07-.23-.19,0-.37.02-.54.08-.18.05-.33.12-.47.21-.14.09-.26.21-.35.34-.04-.39-.02-.73.07-1.03.08-.29.22-.52.41-.69.19-.16.43-.24.72-.24.26,0,.48.07.65.2.17.13.29.32.37.58h1.11c-.02-.36-.13-.67-.33-.93-.2-.26-.46-.46-.78-.59-.32-.14-.67-.21-1.04-.21-.53,0-.98.13-1.36.39-.38.26-.67.63-.87,1.11-.2.48-.3,1.05-.3,1.71,0,.6.1,1.13.3,1.57.2.45.48.79.86,1.04.37.25.81.37,1.32.37Zm-.59-1.09c.16.1.34.16.54.16.19,0,.37-.04.53-.14.16-.09.28-.22.38-.38.09-.16.14-.35.14-.55,0-.22-.05-.41-.14-.55-.09-.15-.22-.26-.37-.33-.16-.07-.33-.11-.53-.11-.17,0-.34.04-.5.11-.16.08-.29.17-.39.29-.1.12-.15.24-.15.36,0,.27.04.5.13.69.09.19.21.34.37.44Zm5.99,1.09c.45,0,.85-.09,1.19-.27.34-.18.61-.42.81-.73.19-.31.29-.66.29-1.05,0-.37-.09-.7-.26-.97-.17-.28-.41-.49-.72-.64-.3-.15-.66-.23-1.07-.23-.19,0-.37.02-.54.08-.18.05-.33.12-.47.21-.14.09-.26.21-.35.34-.04-.39-.02-.73.07-1.03.08-.29.22-.52.41-.69.19-.16.43-.24.72-.24.26,0,.48.07.65.2.17.13.29.32.37.58h1.11c-.02-.36-.13-.67-.33-.93-.2-.26-.46-.46-.78-.59-.32-.14-.67-.21-1.04-.21-.53,0-.98.13-1.36.39-.38.26-.67.63-.87,1.11-.2.48-.3,1.05-.3,1.71,0,.6.1,1.13.3,1.57.2.45.48.79.85,1.04.37.25.81.37,1.32.37Zm-.58-1.09c.16.1.34.16.54.16s.37-.04.53-.14c.16-.09.28-.22.38-.38s.14-.35.14-.55c0-.22-.05-.41-.14-.55-.09-.15-.21-.26-.37-.33-.16-.07-.33-.11-.53-.11-.17,0-.34.04-.5.11-.16.08-.29.17-.39.29-.1.12-.15.24-.15.36,0,.27.04.5.13.69.09.19.21.34.37.44Z"/>
        <rect class="cls-11" x="19.2" y="295.04" width="130.56" height="25.6" rx="5" ry="5"/>
        <path class="cls-5" d="m117.67,310.45v.74h-1.05v-.74h-.02c-.47-.06-.87-.19-1.2-.4-.45-.29-.71-.74-.77-1.34l1.26-.02c.07.27.21.48.43.63.22.14.5.21.83.21.2,0,.38-.03.53-.1.15-.07.27-.15.36-.27s.13-.24.13-.38c0-.22-.07-.39-.21-.5-.14-.11-.36-.2-.65-.26l-.99-.21c-.46-.09-.82-.27-1.1-.55-.28-.27-.42-.64-.42-1.1,0-.38.1-.7.31-.98.21-.28.49-.49.85-.64l.15-.06c.16-.05.32-.1.5-.12h.03s0-.83,0-.83h1.05v.83l.1.02c.2.04.38.1.54.18.33.16.59.38.77.65.18.27.26.58.26.9l-1.23.02c-.04-.27-.13-.48-.27-.63-.14-.15-.37-.23-.69-.23-.17,0-.32.02-.45.05-.13.04-.24.09-.34.15-.09.07-.16.14-.21.23-.05.09-.07.19-.07.3,0,.18.06.31.18.41.12.1.34.2.67.28l.97.24c.55.13.94.35,1.18.67.24.32.36.7.36,1.15,0,.35-.1.65-.29.91s-.46.46-.81.6l-.15.06c-.16.05-.32.09-.5.12h-.06Zm6.44-1.38v1.33h-1.17v-1.33s-2.77,0-2.77,0v-1l2.74-3.68h1.19v3.66h.93v1.02h-.93Zm-1.16-1.02h-1.65l1.65-2.2v2.2Zm4.93-3.66v6.01h-1.23v-4.51h-1.07v-.69c.34,0,.62-.03.83-.1.21-.06.37-.16.48-.28.11-.12.17-.27.19-.44h.81Zm3.41,6.11c.53,0,.98-.12,1.36-.36.38-.24.67-.6.88-1.07.2-.48.31-1.08.31-1.8,0-.6-.1-1.12-.3-1.57-.2-.44-.48-.79-.85-1.03-.37-.24-.81-.36-1.32-.36-.46,0-.85.09-1.19.26-.34.18-.6.42-.79.72-.19.31-.28.66-.28,1.05s.09.73.27,1.01c.18.28.43.5.74.66.32.15.68.23,1.08.23.22,0,.43-.03.61-.09.18-.06.34-.14.48-.25.14-.11.24-.24.32-.39.03.48,0,.87-.12,1.17-.11.3-.27.51-.49.65-.22.14-.47.2-.76.2-.26,0-.48-.07-.65-.22-.17-.15-.28-.34-.33-.57h-1.16c.03.35.14.66.35.92.21.26.47.47.79.61.32.14.67.22,1.05.22Zm-.61-3.48c.18.17.42.26.72.26.17,0,.33-.04.49-.11.16-.08.29-.17.39-.29.1-.12.15-.24.15-.36,0-.27-.04-.5-.13-.69-.09-.19-.21-.34-.37-.44-.16-.1-.34-.15-.55-.15-.19,0-.36.04-.51.13-.15.09-.27.21-.35.37s-.13.35-.13.56c0,.31.09.56.28.73Zm6,3.48c.53,0,.98-.12,1.36-.36s.67-.6.88-1.07c.2-.48.31-1.08.31-1.8,0-.6-.1-1.12-.3-1.57-.2-.44-.48-.79-.85-1.03-.37-.24-.81-.36-1.32-.36-.45,0-.85.09-1.19.26-.34.18-.6.42-.79.72-.19.31-.28.66-.28,1.05s.09.73.27,1.01c.18.28.43.5.74.66.32.15.68.23,1.08.23.22,0,.43-.03.61-.09.18-.06.34-.14.48-.25.14-.11.24-.24.32-.39.03.48,0,.87-.11,1.17-.11.3-.27.51-.49.65-.22.14-.47.2-.76.2-.26,0-.48-.07-.65-.22-.17-.15-.28-.34-.33-.57h-1.16c.02.35.14.66.34.92.21.26.47.47.8.61.32.14.67.22,1.05.22Zm-.61-3.48c.18.17.42.26.72.26.17,0,.33-.04.49-.11.16-.08.29-.17.39-.29.1-.12.15-.24.15-.36,0-.27-.04-.5-.13-.69-.09-.19-.21-.34-.37-.44-.16-.1-.34-.15-.55-.15-.19,0-.36.04-.51.13-.15.09-.27.21-.35.37-.09.16-.13.35-.13.56,0,.31.09.56.28.73Z"/>
        <rect class="cls-8" x="9.65" y="7.96" width="149.12" height="72.96"/>
        <rect class="cls-11" x="19.2" y="59.52" width="130.56" height="35.84" rx="5" ry="5"/>
        <path class="cls-15" d="m43.98,80.03c-.06,0-.11.02-.16.02-.2,0-.35-.03-.47-.08s-.21-.12-.27-.21c-.06-.09-.1-.18-.12-.29-.02-.11-.03-.22-.03-.34v-3.88h.68v3.81c0,.15.03.27.09.35.06.08.15.13.28.14h.17v.44c-.05.02-.11.03-.16.04Zm-12.1-.03v-4h1.4v-.62h-3.56v.62h1.47v4h.69Zm2.84.06c.33,0,.61-.07.84-.22.23-.14.4-.34.52-.6s.18-.55.18-.89c0-.37-.06-.68-.19-.94-.13-.26-.3-.46-.53-.59-.23-.13-.5-.2-.81-.2s-.6.07-.84.22-.41.35-.53.61c-.12.26-.18.57-.18.91s.06.67.19.92c.13.25.31.45.54.58.23.13.5.2.81.2Zm-.5-.69c.13.11.3.16.5.16.19,0,.35-.05.47-.15.13-.1.22-.24.29-.42.06-.18.1-.39.1-.63,0-.22-.03-.42-.08-.6-.06-.18-.15-.32-.27-.43-.13-.11-.29-.16-.5-.16-.19,0-.35.05-.48.15s-.22.24-.29.41c-.07.18-.1.39-.1.63,0,.22.03.41.09.6.06.18.15.33.28.44Zm3.89.65c.13,0,.24,0,.32-.02.08-.01.15-.03.19-.05v-.44h-.39c-.09,0-.17,0-.22-.02-.05-.01-.09-.05-.12-.1-.02-.05-.03-.13-.03-.24v-1.97s.74,0,.74,0v-.5h-.74v-.97h-.5l-.17.97h-.56v.49h.54v2c0,.18.03.33.08.45.05.12.15.22.28.29.14.07.33.1.57.1Zm2.8-.1c-.19.1-.4.15-.64.15-.21,0-.4-.04-.57-.11-.17-.08-.29-.19-.39-.33-.09-.15-.14-.32-.14-.52,0-.37.13-.64.39-.82.26-.18.68-.28,1.24-.29l.54-.02v-.24c0-.19-.06-.34-.17-.45-.11-.11-.29-.16-.52-.16-.18,0-.33.04-.47.12-.14.08-.23.21-.27.4h-.6c.01-.22.08-.4.19-.56.11-.15.27-.26.47-.34.2-.08.44-.12.71-.12.3,0,.55.04.74.12s.34.2.43.36.14.35.14.58v2.31h-.58l-.05-.61c-.12.25-.28.43-.47.53Zm-.42-.33c-.19,0-.34-.05-.47-.15-.12-.1-.19-.24-.19-.41,0-.16.04-.28.13-.38.08-.09.21-.16.36-.21.16-.04.35-.07.58-.07h.45s0,.54,0,.54c0,.09-.03.17-.08.25-.05.08-.12.15-.2.22-.08.07-.18.12-.28.15-.1.04-.21.06-.31.06Zm6.42,1.44v-1.6c.04.07.09.15.15.22.06.07.13.14.21.21s.18.11.29.15c.11.04.23.06.37.06.28,0,.53-.07.74-.2.21-.13.37-.33.48-.59.11-.26.17-.58.17-.97s-.06-.7-.17-.95c-.11-.25-.27-.43-.47-.55-.2-.12-.43-.18-.69-.18-.14,0-.26.02-.38.05-.11.04-.22.09-.3.15-.09.06-.17.13-.23.2-.06.07-.12.14-.16.22v-.55h-.69v4.34h.69Zm.39-1.65c.13.11.29.17.48.17.25,0,.46-.1.62-.3.16-.2.24-.51.24-.93,0-.36-.07-.65-.22-.86-.15-.21-.37-.32-.64-.32s-.51.11-.65.33c-.15.22-.22.5-.22.84,0,.22.03.43.1.61.06.18.16.33.29.44Zm3.58.69c.24,0,.45-.05.64-.15.19-.1.35-.27.47-.53l.05.61h.58v-2.31c0-.23-.05-.42-.14-.58s-.24-.28-.43-.36-.44-.12-.74-.12c-.27,0-.51.04-.71.12-.2.08-.36.19-.47.34-.11.15-.18.34-.19.56h.6c.04-.18.13-.32.27-.4.14-.08.29-.12.47-.12.24,0,.41.05.52.16.11.11.17.26.17.45v.24l-.54.02c-.57,0-.98.11-1.25.29-.26.18-.39.46-.39.82,0,.21.05.38.14.52s.22.26.39.33c.17.08.36.11.57.11Zm-.25-.63c.12.1.28.15.47.15.1,0,.21-.02.31-.06.1-.04.19-.09.28-.15.08-.07.15-.14.2-.22.05-.08.08-.16.08-.25v-.55h-.45c-.23.01-.42.04-.58.08-.16.04-.28.12-.37.21-.08.09-.13.22-.13.38,0,.18.06.32.19.41Zm3.17,1.62c.16,0,.3-.02.44-.07.13-.05.26-.14.37-.26.11-.13.22-.3.31-.54l1.38-3.49h-.67l-.92,2.45-.93-2.45h-.68l1.29,3.21-.1.28s-.03.08-.06.12c-.03.04-.06.08-.11.12-.05.04-.11.07-.19.09-.08.02-.19.03-.31.02h-.34s0,.43,0,.43l.12.04c.08.03.22.04.42.04Zm3.72-3.24v2.19h-.68v-3.31h.67v.48c.09-.15.22-.27.38-.38.16-.11.37-.16.63-.16.12,0,.24.02.36.06.12.04.24.1.34.18.1.08.19.18.24.3.1-.16.25-.29.42-.39.18-.1.37-.15.59-.15.12,0,.24.02.37.06s.24.1.35.19c.11.09.19.21.26.37.07.16.1.35.1.59v2.17h-.69v-2.1c0-.18-.03-.32-.09-.43-.06-.1-.14-.17-.24-.22-.1-.04-.2-.06-.31-.06-.1,0-.2.02-.31.06-.11.04-.2.1-.27.19-.07.09-.11.21-.11.36v2.19h-.68v-2.24c0-.12-.03-.22-.1-.31-.07-.08-.15-.15-.24-.19-.1-.04-.19-.06-.29-.06-.11,0-.21.02-.32.06-.11.04-.2.11-.27.2-.07.09-.11.21-.11.35Zm6.27,2.25c.22,0,.43-.04.63-.12.2-.08.37-.2.51-.36.14-.16.23-.35.27-.58h-.63c-.04.18-.14.31-.28.4-.14.09-.32.13-.51.13s-.36-.04-.49-.14c-.13-.09-.23-.21-.3-.37-.07-.16-.1-.33-.1-.53h2.33v-.23c0-.34-.06-.62-.17-.87-.11-.25-.28-.44-.5-.57-.22-.14-.49-.21-.81-.21s-.6.07-.83.22c-.23.15-.41.36-.53.62-.12.26-.18.57-.18.91s.07.65.2.9c.13.25.32.45.56.58.24.14.51.2.83.2Zm-.9-2h1.68c0-.17-.03-.33-.09-.47-.06-.14-.15-.25-.27-.34-.12-.08-.28-.12-.46-.12s-.35.05-.47.14c-.12.09-.22.21-.28.35-.06.14-.09.29-.09.44Zm3.73,1.94v-2.19c0-.14.04-.25.11-.34.07-.09.17-.16.29-.2.12-.04.25-.07.38-.07.2,0,.36.06.49.17.13.11.19.29.19.53v2.1h.68v-2.17c0-.28-.05-.5-.16-.67-.11-.17-.25-.3-.42-.38-.18-.08-.37-.12-.57-.12-.18,0-.33.02-.46.07-.13.05-.24.11-.34.19-.09.08-.16.16-.22.25v-.48h-.67v3.31h.68Zm4.43,0c-.08.01-.19.02-.32.02-.25,0-.44-.03-.57-.1-.14-.07-.23-.16-.28-.29-.05-.12-.08-.28-.08-.45v-2h-.54v-.49h.56l.17-.97h.5v.97h.74v.5h-.74v1.97c0,.11.01.19.04.24.02.05.06.08.11.1.05.01.13.02.22.02h.39v.44s-.11.03-.19.05Z"/>
        <path class="cls-1" d="m103.44,82v1.14h-1.61v-1.14h-.01c-.73-.09-1.35-.3-1.86-.62-.69-.45-1.09-1.13-1.19-2.06l1.95-.04c.1.42.32.74.66.96s.76.33,1.28.33c.31,0,.58-.05.82-.15.24-.1.42-.24.56-.41.14-.17.2-.37.2-.59,0-.34-.11-.6-.33-.76-.22-.17-.55-.3-1.01-.41l-1.52-.33c-.7-.14-1.27-.42-1.69-.84-.43-.42-.64-.98-.65-1.69,0-.58.15-1.08.47-1.51.32-.42.75-.75,1.3-.98l.19-.07c.25-.09.51-.16.79-.2h.07v-1.28h1.62v1.27h.06c.34.07.65.17.94.31.51.25.9.58,1.18,1,.27.42.41.88.4,1.39l-1.89.03c-.06-.41-.2-.73-.41-.97-.21-.23-.57-.35-1.06-.35-.26,0-.48.03-.68.08-.2.06-.37.13-.52.23-.15.1-.26.22-.33.35-.07.14-.11.29-.11.46,0,.27.09.48.27.64.18.16.52.3,1.03.43l1.49.37c.84.2,1.45.54,1.82,1.03.37.49.56,1.08.56,1.77,0,.53-.15,1-.44,1.4-.29.4-.71.7-1.24.92l-.18.07c-.25.09-.51.15-.79.19l-.12.02Zm9.36-.49c-.58.36-1.28.55-2.09.55-.58,0-1.11-.11-1.61-.33-.5-.22-.91-.53-1.22-.94-.32-.4-.49-.88-.53-1.42h1.78c.08.36.25.65.51.87.26.22.6.34,1,.34.44,0,.83-.1,1.17-.31.33-.21.59-.54.76-1,.17-.46.23-1.05.18-1.79-.12.23-.29.42-.5.59-.21.17-.46.3-.74.39-.28.09-.6.14-.94.14-.63,0-1.18-.12-1.67-.36s-.86-.57-1.14-1.01c-.28-.44-.41-.96-.41-1.56s.15-1.15.43-1.62c.29-.47.7-.84,1.22-1.11.52-.27,1.13-.4,1.83-.4.79,0,1.46.19,2.03.56.57.37,1.01.9,1.31,1.59.31.68.46,1.49.46,2.42,0,1.1-.16,2.03-.47,2.76-.31.74-.76,1.29-1.35,1.65Zm-1.93-4.4c-.46,0-.83-.13-1.11-.4-.28-.27-.42-.64-.42-1.12,0-.32.07-.61.2-.86.13-.25.31-.44.54-.58.23-.14.49-.21.79-.21.32,0,.6.08.84.24.24.16.43.39.56.68.13.3.2.65.2,1.07,0,.19-.08.38-.24.56-.16.18-.36.33-.61.45-.24.12-.5.18-.76.18Zm11.73,3.23v1.57h-6.8v-1.4c0-.47.09-.88.26-1.22.18-.34.41-.64.7-.9.29-.25.6-.48.95-.67s.69-.37,1.03-.54c.35-.17.66-.34.95-.51.29-.17.52-.37.69-.58.17-.21.26-.47.26-.76,0-.37-.13-.67-.39-.91-.26-.23-.61-.35-1.06-.35s-.86.13-1.18.4c-.32.27-.52.67-.6,1.22h-1.79c0-.59.15-1.12.41-1.6.27-.48.67-.86,1.2-1.14.53-.28,1.2-.42,2.01-.42.69,0,1.29.12,1.79.35.5.23.89.56,1.16.98s.41.91.41,1.46c0,.46-.09.87-.26,1.2-.17.34-.4.62-.68.86-.28.24-.59.45-.93.63-.34.18-.67.34-1.01.5-.34.15-.64.31-.93.47-.28.16-.51.34-.68.54-.17.2-.26.44-.26.72v.08h4.72Zm4.64,1.72c1.12,0,1.99-.41,2.62-1.23.63-.82.94-1.99.94-3.52s-.32-2.72-.95-3.54c-.64-.82-1.5-1.23-2.6-1.23-.73,0-1.37.18-1.9.55s-.94.91-1.24,1.62c-.29.71-.43,1.58-.43,2.6,0,1.53.31,2.71.94,3.52.63.82,1.51,1.22,2.63,1.22Zm-1.23-2.27c.26.49.67.74,1.23.74s.95-.25,1.21-.74c.26-.49.38-1.32.38-2.47s-.13-2.03-.39-2.54c-.26-.51-.66-.77-1.21-.77s-.95.26-1.22.77c-.27.52-.4,1.36-.4,2.53s.13,1.98.4,2.47Zm11.81,2.13v-2.05h1.43v-1.57h-1.43v-5.64h-1.84l-4.22,5.67v1.54h4.26v2.05s1.79,0,1.79,0Zm-4.33-3.62h2.54v-3.39l-2.54,3.39Z"/>
        <path class="cls-9" d="m111.39,32.91v-1.33h-.49v1.33h.49Zm-34,10.24v-3.17h.03c.23.33.51.58.86.74.35.17.73.25,1.15.25.49,0,.92-.09,1.29-.28.37-.19.67-.44.92-.76.24-.32.43-.69.55-1.1.12-.41.18-.85.18-1.29,0-.47-.06-.93-.18-1.36-.12-.44-.31-.82-.56-1.14-.25-.33-.57-.59-.94-.79-.38-.2-.83-.3-1.36-.3-.41,0-.79.08-1.14.25-.34.16-.63.43-.85.79h-.03v-.85h-1.75v9.03h1.84Zm1.54-3.54c-.29,0-.54-.06-.75-.18-.21-.12-.37-.28-.5-.47-.12-.19-.21-.42-.27-.68-.06-.26-.08-.52-.08-.79s.03-.54.08-.8c.05-.26.14-.49.27-.69.12-.2.29-.36.49-.49s.46-.19.76-.19.54.06.74.19c.2.12.37.29.5.49.13.2.22.43.28.69.06.26.08.52.08.79s-.03.53-.08.79c-.05.26-.14.49-.26.68-.12.19-.29.35-.49.47-.2.12-.46.18-.76.18Zm7.64,1.19c-.4.12-.8.18-1.22.18-.32,0-.62-.04-.89-.12-.28-.08-.52-.2-.73-.36-.21-.16-.37-.37-.49-.62-.12-.25-.17-.55-.17-.89,0-.38.07-.69.2-.94.13-.25.31-.44.52-.59.21-.15.45-.26.72-.33.27-.07.54-.13.82-.17s.55-.08.82-.1c.27-.03.51-.06.71-.12.21-.05.37-.13.49-.23.12-.1.18-.24.17-.43,0-.2-.03-.36-.1-.47-.06-.12-.15-.21-.26-.27-.11-.06-.23-.11-.38-.13-.14-.02-.3-.03-.46-.03-.36,0-.65.08-.85.23-.21.16-.33.41-.36.78h-1.84c.03-.43.13-.79.32-1.07.19-.28.43-.51.72-.69.29-.17.62-.3.99-.37.37-.07.74-.11,1.11-.11.34,0,.68.02,1.02.07.34.05.66.14.94.28.28.14.52.33.7.58.18.25.27.57.27.98v3.48c0,.3.02.59.05.87.03.28.1.48.18.62h-1.86c-.03-.1-.06-.21-.08-.32-.02-.11-.04-.22-.04-.33-.29.3-.64.51-1.04.63Zm-.53-1.03c-.15,0-.29-.01-.43-.04-.14-.03-.26-.07-.36-.14-.1-.06-.19-.15-.25-.27-.06-.11-.09-.25-.09-.41,0-.17.03-.31.09-.43s.14-.2.24-.28c.1-.07.22-.13.35-.17.13-.04.27-.08.41-.1.15-.03.29-.05.44-.06.15-.02.29-.04.42-.06.13-.03.26-.06.38-.1.12-.04.21-.09.29-.16v.69c0,.1-.01.24-.03.41-.02.17-.08.34-.18.51-.09.17-.24.31-.44.43-.2.12-.48.18-.84.18Zm7.12,3.04c-.35.23-.85.35-1.48.35-.19,0-.38,0-.56-.02-.19-.01-.37-.03-.56-.05v-1.51c.17.02.35.03.53.05.18.02.36.02.54.01.24-.03.42-.12.54-.28.12-.16.18-.34.18-.54,0-.15-.03-.28-.08-.41l-2.34-6.27h1.95l1.51,4.58h.03l1.46-4.58h1.9l-2.79,7.52c-.2.54-.48.93-.83,1.16Zm6.08-1.84c.32,0,.61-.04.88-.12.27-.08.51-.19.72-.32.21-.14.39-.3.54-.47.15-.18.26-.36.34-.56h.03v.35c0,.14,0,.27.03.38.02.12.06.22.12.3.06.09.15.16.26.21.12.05.27.08.47.08.14,0,.27-.02.4-.05v-.41c-.15.03-.28.04-.36.04-.11,0-.2-.02-.26-.07-.06-.05-.1-.11-.13-.19s-.04-.16-.04-.26c0-.09,0-.19,0-.28v-3.87c0-.51-.18-.92-.55-1.24-.37-.31-.95-.47-1.75-.47s-1.42.18-1.86.55c-.44.37-.67.92-.71,1.65h.49c.03-.6.24-1.04.6-1.33.37-.29.85-.44,1.44-.44.34,0,.62.03.85.1.23.07.42.16.57.28.15.12.25.26.32.41s.1.32.1.5c0,.23-.01.43-.04.58-.03.16-.09.28-.19.38-.1.1-.26.18-.46.23-.2.06-.48.1-.84.12l-.76.06c-.27.03-.54.07-.83.13-.29.06-.55.16-.79.3-.24.14-.43.34-.59.58-.15.25-.23.56-.23.95,0,.64.19,1.11.58,1.42.39.31.94.46,1.64.46Zm-1.27-.78c.31.24.74.36,1.28.36s1.01-.1,1.33-.3c.33-.2.58-.44.75-.7.17-.26.28-.52.33-.76.05-.25.07-.41.07-.5v-1.24c-.12.15-.3.25-.55.3-.25.05-.52.09-.82.12l-.83.08c-.24.03-.48.06-.72.11-.24.05-.46.13-.65.24-.19.11-.35.27-.47.46-.12.19-.18.45-.18.76,0,.49.15.86.47,1.09Zm6.33,3.01v-3.76h.03c.2.54.51.94.94,1.18.43.24.92.36,1.47.36.51,0,.95-.09,1.33-.26s.69-.41.93-.72c.25-.31.43-.67.55-1.09.12-.42.18-.89.18-1.4,0-.47-.06-.91-.18-1.33s-.3-.79-.55-1.11c-.24-.32-.56-.57-.93-.76-.38-.19-.82-.28-1.33-.28-.36,0-.68.06-.96.17-.28.11-.52.25-.72.42-.2.17-.36.35-.48.55-.12.2-.21.38-.26.54h-.03v-1.53h-.49v9.03h.49Zm1.27-2.9c.31.17.7.25,1.17.25.43,0,.8-.08,1.12-.25.32-.16.57-.38.78-.66.2-.28.35-.6.45-.96s.15-.76.15-1.17c0-.38-.05-.75-.14-1.12-.09-.37-.24-.69-.44-.98-.2-.29-.46-.52-.77-.7-.31-.18-.7-.27-1.14-.27s-.82.09-1.12.26c-.31.17-.56.4-.76.69-.19.28-.33.61-.42.98-.09.37-.13.75-.13,1.14s.04.78.12,1.14.21.69.4.97c.18.28.43.5.75.67Zm5.33-6.12h.49v6.65h-.49v-6.65Z"/>
        <circle class="cls-7" cx="64.7" cy="31.46" r="1.21"/>
        <circle class="cls-7" cx="67.56" cy="34.32" r="1.21"/>
        <circle class="cls-7" cx="70.41" cy="37.18" r="1.21"/>
        <circle class="cls-7" cx="61.84" cy="34.32" r="1.21"/>
        <circle class="cls-6" cx="64.7" cy="37.18" r="1.21"/>
        <circle class="cls-6" cx="67.56" cy="40.04" r="1.21"/>
        <circle class="cls-7" cx="58.98" cy="37.18" r="1.21"/>
        <circle class="cls-6" cx="61.84" cy="40.04" r="1.21"/>
        <circle class="cls-2" cx="64.7" cy="42.89" r="1.21"/>
      </g>
    </g>
  </g>
</svg>