<?xml version="1.0" encoding="UTF-8"?>
<svg id="Layer_2" data-name="Layer 2" xmlns="http://www.w3.org/2000/svg" xmlns:xlink="http://www.w3.org/1999/xlink" viewBox="0 0 168 319.64">
  <defs>
    <style>
      .cls-1, .cls-2, .cls-3, .cls-4, .cls-5, .cls-6, .cls-7, .cls-8, .cls-9, .cls-10 {
        stroke-width: 0px;
      }

      .cls-1, .cls-5 {
        fill: #ba4270;
      }

      .cls-2 {
        fill: url(#linear-gradient-3);
      }

      .cls-2, .cls-3, .cls-4, .cls-6, .cls-7, .cls-9, .cls-10 {
        fill-rule: evenodd;
      }

      .cls-2, .cls-3, .cls-5, .cls-10 {
        isolation: isolate;
      }

      .cls-2, .cls-10 {
        opacity: .75;
      }

      .cls-3 {
        fill: url(#linear-gradient);
        fill-opacity: .65;
        opacity: .6;
      }

      .cls-4 {
        fill: #36536b;
      }

      .cls-11 {
        fill: none;
        stroke: #ba4270;
        stroke-width: 3px;
      }

      .cls-5 {
        opacity: .25;
      }

      .cls-6, .cls-8 {
        fill: #fbfcfe;
      }

      .cls-7 {
        fill: #213648;
      }

      .cls-9 {
        fill: #2e423c;
      }

      .cls-10 {
        fill: url(#linear-gradient-2);
      }
    </style>
    <linearGradient id="linear-gradient" x1="84.05" y1="369.89" x2="84.05" y2="362" gradientTransform="translate(0 369.89) scale(1 -1)" gradientUnits="userSpaceOnUse">
      <stop offset="0" stop-color="#454545"/>
      <stop offset=".23" stop-color="#999"/>
      <stop offset="1" stop-color="#fff"/>
    </linearGradient>
    <linearGradient id="linear-gradient-2" x1="166.47" y1="210.64" x2="160.41" y2="210.64" gradientTransform="translate(0 369.89) scale(1 -1)" gradientUnits="userSpaceOnUse">
      <stop offset="0" stop-color="#fff" stop-opacity="0"/>
      <stop offset=".22" stop-color="#bababa"/>
      <stop offset=".55" stop-color="#fff" stop-opacity="0"/>
      <stop offset="1" stop-color="#fff" stop-opacity="0"/>
    </linearGradient>
    <linearGradient id="linear-gradient-3" x1="1.64" y1="210.64" x2="7.71" y2="210.64" xlink:href="#linear-gradient-2"/>
  </defs>
  <g id="Layer_1-2" data-name="Layer 1">
    <path class="cls-7" d="m22.9.36h122.39c11.74,0,21.25,9.11,21.25,20.35v278.57c0,11.24-9.52,20.35-21.25,20.35H22.9c-11.74,0-21.25-9.11-21.25-20.35V20.71C1.64,9.47,11.16.36,22.9.36Z"/>
    <path class="cls-3" d="m145.76,0H22.35c-5.76.35-11.08,2.98-15.94,7.89C9.54,5.16,15.12,1.5,22.5,1.5h123.11c7.38,0,12.96,3.66,16.09,6.39-4.86-4.91-10.18-7.54-15.94-7.89Z"/>
    <path class="cls-10" d="m163.2,296.11V22.39c0-7.34-2.7-10.06-4.31-11.8-1.61-1.74-1.68-2.63.64-1.32,2.31,1.32,6.94,5.15,6.94,13.12v273.72c0,7.97-4.63,11.8-6.94,13.12-2.31,1.32-2.24.43-.64-1.32,1.61-1.74,4.31-4.46,4.31-11.8Z"/>
    <path class="cls-2" d="m4.91,296.11V22.39c0-7.34,2.7-10.06,4.31-11.8,1.61-1.74,1.68-2.63-.64-1.32-2.31,1.32-6.94,5.15-6.94,13.12v273.72c0,7.97,4.63,11.8,6.94,13.12,2.31,1.32,2.25.43.64-1.32-1.61-1.74-4.31-4.46-4.31-11.8Z"/>
    <path class="cls-9" d="m0,66.58c0-.88.71-1.59,1.59-1.59s1.59.71,1.59,1.59v38.01c0,.88-.71,1.59-1.59,1.59s-1.59-.71-1.59-1.59v-38.01Z"/>
    <path class="cls-9" d="m164.82,100.18c0-.88.71-1.59,1.59-1.59s1.59.71,1.59,1.59v26.87c0,.88-.71,1.59-1.59,1.59s-1.59-.71-1.59-1.59v-26.87Z"/>
    <path class="cls-4" d="m69.55,7.96H21.93c-7.11,0-12.29,4.84-12.29,11.16v270.33c0,8.24,8,15.55,17.05,15.55h114.77c8.71,0,17.05-7.36,17.05-15.55V19.86c0-7.58-5.62-11.85-12.29-11.89h-48.38c-.18.03-3.51,1.4-4.91,4.84-1.4,3.44-4.23,6.19-7.33,6.19h-3.59c-1.47,0-5.34-1.43-7.3-6.19-1.96-4.76-4.99-4.81-5.17-4.84Z"/>
    <rect class="cls-8" x="27.52" y="90.88" width="112.64" height="122.24" rx="5" ry="5"/>
    <path class="cls-4" d="m96.73,166.45v.74h-1.05v-.74h-.02c-.47-.06-.87-.19-1.2-.4-.45-.29-.71-.74-.77-1.34l1.27-.02c.07.27.21.48.43.63.22.14.5.21.83.21.2,0,.38-.03.53-.1.15-.07.28-.15.36-.27.09-.11.13-.24.13-.39,0-.22-.07-.39-.21-.5-.14-.11-.36-.2-.65-.26l-.99-.21c-.46-.09-.82-.27-1.1-.55-.28-.27-.42-.64-.42-1.1,0-.38.1-.7.31-.98.21-.28.49-.49.84-.64l.15-.06c.16-.06.33-.1.5-.12h.03v-.83h1.05v.83l.1.02c.2.04.38.1.54.18.33.16.59.38.76.65.18.27.27.58.26.9l-1.23.02c-.04-.27-.13-.48-.27-.63-.14-.15-.37-.23-.69-.23-.17,0-.32.02-.45.05-.13.04-.24.09-.34.15s-.17.14-.21.23c-.05.09-.07.19-.07.3,0,.18.06.31.18.41.12.1.34.19.67.28l.97.24c.55.13.94.35,1.18.67.24.32.36.7.36,1.15,0,.35-.1.65-.29.91s-.46.46-.8.6l-.15.06c-.16.05-.32.09-.5.12h-.06Zm-46.92-2.26v2.2h-.91v-6.01h2.08c.43,0,.81.07,1.15.22.34.15.61.36.8.65.2.29.29.64.29,1.05s-.09.74-.27,1.02c-.18.28-.43.5-.75.65-.32.15-.69.22-1.11.22h-1.3Zm0-.73h1.28c.38,0,.7-.11.94-.33.24-.22.36-.51.36-.88s-.12-.66-.37-.86c-.25-.2-.57-.3-.96-.3h-1.24v2.36Zm5.33,3.02c.31,0,.58-.06.83-.19.25-.13.45-.35.61-.68l.07.79h.75v-3.01c0-.29-.06-.54-.18-.75-.12-.21-.31-.36-.56-.47-.25-.11-.57-.16-.96-.16-.35,0-.66.05-.92.15-.26.1-.46.25-.61.44-.15.2-.23.44-.25.72h.77c.06-.24.17-.42.35-.52.18-.11.38-.16.61-.16.3,0,.53.07.68.21.15.14.22.34.22.58v.31l-.71.02c-.74.01-1.28.14-1.62.37-.34.24-.51.59-.51,1.07,0,.27.06.49.18.68.12.19.29.33.51.43.21.1.46.15.74.15Zm-.33-.81c.16.13.36.19.61.19.14,0,.27-.02.4-.07.13-.05.25-.11.36-.2.11-.09.19-.18.26-.29.07-.11.1-.21.1-.32v-.71h-.58c-.3.01-.55.05-.76.1-.21.06-.36.15-.48.27-.11.12-.16.29-.16.49,0,.23.08.41.24.54Zm4.13,2.1c.21,0,.39-.03.57-.1.17-.06.33-.18.48-.34.15-.16.28-.4.4-.69l1.79-4.54h-.87l-1.2,3.18-1.21-3.18h-.89l1.68,4.18-.13.36s-.04.1-.07.15c-.03.05-.08.11-.14.16-.06.05-.15.09-.25.11-.11.03-.24.04-.41.03h-.44s0,.57,0,.57l.15.06c.1.04.28.06.55.06Zm4.84-4.21v2.84h-.89v-4.3h.87v.62c.12-.19.29-.35.5-.49.21-.14.48-.21.82-.21.15,0,.31.03.47.08.16.05.31.13.44.24.13.1.24.23.32.39.14-.21.32-.37.55-.5.23-.13.48-.2.77-.2.15,0,.31.02.47.07.16.05.32.13.45.25.14.12.25.27.34.48.09.2.13.46.13.77v2.82h-.89v-2.72c0-.24-.04-.42-.12-.55-.08-.13-.18-.23-.31-.28-.13-.05-.26-.08-.4-.08-.13,0-.26.03-.4.08-.14.05-.26.13-.35.25-.1.12-.14.27-.14.48v2.84h-.89v-2.92c0-.16-.04-.29-.13-.4-.09-.11-.19-.19-.32-.24-.13-.05-.25-.08-.38-.08-.14,0-.28.03-.42.08-.14.06-.26.14-.35.26-.09.12-.14.27-.14.46Zm8.15,2.92c.29,0,.56-.05.82-.16.26-.1.48-.26.67-.46.18-.21.3-.46.35-.75h-.82c-.06.23-.18.4-.37.52-.19.12-.41.18-.66.18s-.47-.06-.64-.18c-.17-.12-.3-.28-.39-.48-.08-.2-.13-.43-.13-.69h3.03v-.29c0-.44-.07-.81-.22-1.13-.15-.32-.36-.57-.65-.75-.29-.18-.64-.27-1.05-.27s-.78.1-1.08.29c-.3.2-.53.46-.69.8-.16.34-.24.74-.24,1.18s.09.84.26,1.17c.17.33.41.58.73.75.31.18.67.26,1.08.26Zm-1.17-2.6h2.18c0-.22-.04-.43-.12-.61-.08-.18-.2-.33-.36-.44-.16-.11-.36-.16-.6-.16s-.45.06-.62.18c-.16.12-.29.27-.37.46-.08.19-.12.38-.12.57Zm4.85,2.52v-2.84c0-.18.05-.33.15-.44.1-.12.22-.21.38-.26.16-.06.33-.09.5-.09.26,0,.47.07.64.22.17.15.25.38.25.69v2.72h.89v-2.82c0-.36-.07-.65-.21-.88-.14-.23-.32-.39-.55-.5-.23-.11-.48-.16-.75-.16-.23,0-.43.03-.6.1-.17.06-.32.15-.44.25-.12.1-.21.21-.28.33v-.62h-.87v4.3h.89Zm5.76,0c-.11.02-.25.02-.42.02-.32,0-.57-.04-.74-.13-.18-.09-.3-.21-.37-.37-.07-.16-.1-.36-.1-.59v-2.6h-.7v-.64h.72l.22-1.26h.64v1.26h.96v.65h-.96v2.57c0,.14.02.24.05.31.03.07.08.11.15.12.07.02.17.03.29.03h.5v.58c-.05.02-.14.04-.25.06Zm4.67.08c.43,0,.79-.09,1.09-.28.3-.19.52-.45.67-.78.15-.33.23-.72.23-1.15,0-.48-.08-.88-.24-1.22-.16-.34-.39-.59-.69-.77-.3-.18-.65-.26-1.05-.26s-.79.09-1.09.28c-.3.19-.53.45-.68.79-.16.34-.24.73-.24,1.19s.08.87.25,1.2c.16.33.4.58.7.76.3.17.65.26,1.05.26Zm-.65-.9c.17.14.38.21.65.21.24,0,.45-.07.61-.19.17-.13.29-.31.37-.54.08-.23.12-.51.12-.81,0-.29-.04-.55-.11-.78-.07-.23-.19-.42-.36-.56-.16-.14-.38-.21-.64-.21-.25,0-.46.06-.62.19-.17.13-.29.31-.38.54-.08.23-.13.51-.13.82,0,.28.04.54.11.77.08.24.2.42.36.57Zm4.85.81v-3.66h1.01v-.64h-1.02v-.55c0-.18.03-.32.09-.41.06-.09.18-.13.35-.13h.62v-.62h-.86c-.36,0-.62.09-.81.27-.18.18-.27.44-.27.79v.65h-.88v.64h.88v3.66h.89Zm11.21.09c.53,0,.98-.12,1.36-.35s.67-.6.88-1.07c.2-.48.31-1.08.31-1.79,0-.6-.1-1.12-.3-1.57-.2-.45-.48-.79-.85-1.03-.37-.24-.81-.36-1.32-.36-.45,0-.85.09-1.19.26-.34.18-.6.42-.79.72-.19.31-.28.66-.28,1.05s.09.73.27,1.01c.18.28.43.5.74.66.32.15.68.23,1.08.23.23,0,.43-.03.61-.09.18-.06.34-.14.48-.25.14-.11.24-.24.32-.38.03.48,0,.87-.11,1.16-.11.3-.27.51-.49.65-.22.14-.47.2-.76.2-.26,0-.48-.07-.65-.22s-.28-.33-.33-.57h-1.16c.03.35.14.66.35.92.21.26.47.46.8.61.32.14.67.22,1.05.22Zm-.61-3.47c.18.17.42.26.72.26.17,0,.33-.04.49-.12.16-.08.29-.17.39-.29.1-.12.15-.24.15-.36,0-.27-.04-.5-.13-.69-.09-.19-.21-.34-.37-.44-.16-.1-.34-.15-.55-.15-.19,0-.36.04-.51.13-.15.09-.27.21-.35.37-.09.16-.13.35-.13.56,0,.31.09.56.27.73Zm8.34,3.38v-1.02h-3.07v-.05c0-.18.05-.34.17-.47.11-.13.26-.25.44-.35.18-.1.38-.21.6-.31.22-.1.44-.21.65-.32.22-.12.42-.25.6-.41.18-.15.33-.34.44-.56.11-.22.17-.48.17-.78,0-.36-.09-.68-.27-.95-.18-.27-.43-.48-.76-.64-.33-.15-.71-.23-1.16-.23-.52,0-.96.09-1.31.28-.35.18-.61.43-.78.74-.17.31-.26.66-.27,1.04h1.16c.05-.35.18-.62.39-.79.21-.18.47-.26.77-.26s.52.08.69.23c.17.15.25.35.25.59,0,.19-.06.35-.17.49-.11.14-.26.26-.45.38-.19.11-.39.22-.62.34-.22.11-.45.23-.67.35-.22.12-.43.27-.61.43-.19.17-.34.36-.45.58-.11.22-.17.49-.17.79v.91h4.42Zm4.72-.7c-.41.53-.98.8-1.7.8s-1.3-.26-1.71-.79-.61-1.29-.61-2.29c0-.67.09-1.23.28-1.69.19-.46.46-.82.8-1.06.35-.24.76-.36,1.24-.36.72,0,1.28.27,1.69.8.41.53.62,1.3.62,2.3s-.2,1.76-.61,2.29Zm-1.7-.2c-.36,0-.63-.16-.8-.48-.17-.32-.26-.86-.26-1.61s.09-1.31.26-1.65c.17-.34.44-.5.79-.5s.62.17.79.5c.17.33.25.88.25,1.65s-.08,1.29-.25,1.61c-.17.32-.43.48-.79.48Zm6.88-.43v1.33h-1.17v-1.33s-2.77,0-2.77,0v-1l2.74-3.69h1.19v3.67h.93v1.02h-.93Zm-1.17-1.02h-1.65l1.65-2.21v2.21Zm-64.68,7.86v.88h-.89v-.88h.89Zm-.02,6.01v-4.3h-.86v4.3h.86Zm3.7-.07c-.25.1-.56.16-.91.16-.3,0-.58-.05-.84-.14-.26-.1-.48-.24-.66-.44-.18-.2-.29-.46-.33-.78h.8c.04.16.1.3.2.4.1.11.22.19.37.24.14.05.3.08.46.08.27,0,.49-.05.66-.15.17-.1.25-.25.25-.46,0-.15-.05-.26-.14-.35-.09-.09-.23-.15-.43-.2l-.86-.2c-.36-.08-.64-.21-.85-.4-.21-.18-.32-.44-.33-.76,0-.25.06-.48.19-.67s.31-.35.56-.46c.25-.11.56-.17.93-.17.49,0,.88.11,1.17.32.29.22.45.53.46.94h-.77c-.03-.2-.12-.35-.27-.46s-.35-.17-.6-.17-.46.05-.63.15c-.16.1-.25.26-.25.46,0,.14.06.25.18.33.12.08.3.15.54.2l.82.2c.21.05.38.13.52.22.14.09.24.19.32.3.08.11.13.22.16.34.03.12.05.23.05.33,0,.27-.07.5-.21.7-.14.19-.33.34-.59.45Zm5.17.16c.32,0,.6-.06.85-.18.25-.12.45-.29.61-.51.16-.22.25-.47.28-.76h-.76c-.02.13-.07.26-.15.38-.08.12-.19.22-.33.3-.14.08-.3.12-.49.12-.38,0-.68-.14-.88-.42-.2-.28-.3-.66-.3-1.14,0-.52.11-.91.32-1.16.22-.25.5-.38.84-.38.19,0,.35.04.49.11.14.07.25.17.33.29.08.12.14.25.16.4h.77c-.03-.3-.13-.56-.28-.79-.15-.23-.36-.4-.61-.53-.25-.13-.54-.19-.86-.19-.42,0-.78.1-1.08.28-.3.19-.53.45-.69.79-.16.34-.24.73-.24,1.18,0,.47.08.88.26,1.21.17.33.41.58.71.75.3.17.65.26,1.04.26Zm5.51-.28c-.3.19-.66.28-1.09.28-.4,0-.75-.09-1.05-.26-.3-.17-.53-.43-.7-.75-.17-.33-.25-.73-.25-1.2s.08-.85.24-1.19c.16-.34.38-.6.68-.79.3-.19.66-.28,1.09-.28s.76.09,1.05.26c.3.18.53.43.69.77.16.34.25.74.25,1.22,0,.44-.08.82-.23,1.15-.15.33-.38.59-.67.78Zm-1.08-.4c-.27,0-.49-.07-.65-.21-.17-.14-.29-.33-.36-.57-.08-.24-.11-.49-.11-.77,0-.32.04-.59.13-.82.08-.23.21-.41.38-.54.17-.13.38-.19.62-.19.27,0,.48.07.64.21.16.14.28.33.36.56.07.23.11.49.11.78,0,.31-.04.58-.12.81-.08.24-.21.42-.37.54-.17.13-.37.19-.61.19Zm3.77-2.24v2.84h-.89v-4.3h.86v.62c.12-.19.29-.35.5-.49.21-.14.48-.21.82-.21.15,0,.31.03.47.08.16.05.31.13.44.24.13.1.24.23.32.38.14-.2.32-.37.54-.5.23-.13.48-.2.77-.2.15,0,.31.02.47.07.16.05.32.13.46.25.14.11.25.27.34.48.09.2.13.46.13.77v2.82h-.89v-2.72c0-.24-.04-.42-.12-.55-.08-.13-.18-.23-.31-.28-.13-.05-.26-.08-.4-.08-.13,0-.26.02-.4.07-.14.05-.26.13-.35.25-.1.12-.15.27-.15.47v2.84h-.89v-2.92c0-.16-.04-.29-.13-.4-.08-.11-.19-.19-.32-.24-.13-.05-.25-.08-.38-.08-.14,0-.28.03-.42.08-.14.06-.25.14-.35.26-.09.12-.14.27-.14.46Zm7.2,4.18v-2.08c.05.1.11.19.19.29.08.1.17.18.28.27.11.08.23.15.38.2.14.05.3.08.48.08.37,0,.69-.09.96-.26.27-.17.48-.43.62-.77.14-.34.22-.76.22-1.26s-.07-.91-.22-1.23c-.15-.32-.35-.56-.61-.72-.26-.16-.56-.24-.9-.24-.18,0-.35.02-.49.07-.15.05-.28.11-.39.19-.12.08-.21.17-.3.26-.08.09-.15.19-.2.28v-.72h-.9v5.64h.89Zm.5-2.15c.17.14.38.22.63.22.33,0,.6-.13.81-.38.21-.26.32-.66.32-1.2,0-.47-.1-.84-.29-1.11-.2-.27-.48-.41-.84-.41s-.66.14-.85.43c-.19.28-.29.65-.29,1.1,0,.29.04.56.13.8.08.24.21.43.38.58Zm4.67.87c.06,0,.13,0,.21-.02.07-.01.14-.03.21-.05v-.57h-.22c-.16-.02-.29-.08-.36-.19-.08-.1-.12-.26-.12-.46v-4.95h-.88v5.05c0,.15.01.3.04.44.03.14.08.27.16.38.08.11.2.2.35.27.15.07.36.1.61.1Zm3.9-.13c-.26.1-.53.16-.82.16-.41,0-.77-.09-1.08-.26-.31-.18-.55-.43-.73-.76-.17-.33-.26-.72-.26-1.17s.08-.84.24-1.18c.16-.34.39-.61.69-.8.3-.19.66-.29,1.08-.29s.77.09,1.05.27c.28.18.5.43.65.75.15.32.22.7.22,1.13v.29h-3.03c0,.26.04.49.13.69.08.2.21.37.38.48.17.12.39.18.64.18s.48-.06.66-.17c.19-.12.31-.29.37-.52h.82c-.05.29-.17.54-.35.75-.18.21-.41.36-.67.46Zm.19-2.45h-2.18c0-.2.04-.39.12-.57.08-.19.2-.34.37-.46.16-.12.37-.18.61-.18s.44.05.6.16c.16.11.28.25.35.44.08.18.12.39.12.61Zm3.73,2.52c-.11.02-.25.03-.42.03-.32,0-.57-.04-.74-.13-.18-.09-.3-.21-.37-.37s-.1-.36-.1-.59v-2.6h-.7v-.64h.72l.22-1.26h.65v1.26h.96v.65h-.96v2.57c0,.14.02.24.05.31s.08.11.15.12c.07.02.17.03.29.03h.5v.58c-.06.02-.14.04-.25.06Zm2.93.08c.29,0,.56-.05.82-.16.26-.1.48-.26.67-.46.18-.21.3-.46.35-.75h-.82c-.06.23-.18.4-.37.52-.19.12-.41.17-.66.17s-.47-.06-.64-.18c-.17-.12-.3-.28-.38-.48-.08-.2-.13-.43-.13-.69h3.03v-.29c0-.44-.07-.81-.22-1.13-.15-.32-.36-.57-.65-.75-.28-.18-.63-.27-1.05-.27s-.78.1-1.08.29c-.3.19-.53.46-.69.8-.16.34-.24.74-.24,1.18s.09.84.26,1.17c.17.33.42.58.73.76.31.18.67.26,1.08.26Zm-1.17-2.6h2.18c0-.23-.04-.43-.12-.61-.08-.18-.2-.33-.36-.44-.16-.11-.36-.16-.6-.16s-.45.06-.61.18c-.16.12-.29.27-.37.46-.08.19-.12.38-.12.57Zm5.53,2.6c.24,0,.44-.03.61-.1.17-.06.31-.15.42-.24.11-.1.2-.21.26-.32.06-.11.11-.21.14-.31l.1.88h.67v-6.18h-.9v2.53c-.04-.07-.1-.16-.18-.24-.08-.09-.17-.17-.29-.24-.11-.07-.25-.14-.4-.18s-.32-.07-.52-.07c-.38,0-.7.09-.96.27s-.45.44-.58.77c-.13.33-.2.72-.2,1.17,0,.73.16,1.29.49,1.68.32.39.77.58,1.34.58Zm-.65-1.09c.19.28.46.42.82.42.4,0,.69-.12.86-.38.18-.25.27-.66.27-1.24,0-.32-.04-.6-.12-.82-.08-.22-.2-.39-.36-.51-.16-.12-.38-.17-.64-.17-.33,0-.6.12-.81.36-.21.24-.31.62-.31,1.15s.1.92.29,1.2Zm7.01,1.09c.31,0,.58-.06.83-.19.25-.13.45-.35.61-.68l.07.79h.75v-3.01c0-.29-.06-.54-.18-.75-.12-.21-.31-.36-.56-.47-.25-.11-.57-.16-.96-.16-.35,0-.66.05-.92.15-.26.1-.46.25-.61.44-.15.2-.23.44-.25.72h.77c.06-.24.17-.42.35-.52.18-.11.38-.16.61-.16.31,0,.53.07.68.21.15.14.22.33.22.58v.31l-.71.02c-.74.01-1.28.14-1.62.37-.34.24-.51.59-.51,1.07,0,.27.06.49.18.68.12.19.29.33.51.43.21.1.46.15.74.15Zm-.33-.81c.16.13.36.19.61.19.14,0,.27-.02.4-.07.13-.05.25-.11.36-.2.11-.08.2-.18.26-.28.07-.11.1-.21.1-.32v-.71h-.58c-.3.01-.55.05-.76.1-.21.06-.36.15-.48.27-.11.12-.16.29-.16.49,0,.23.08.41.24.54Zm4.67.73v-2.84c0-.18.05-.33.15-.44.1-.12.22-.21.38-.26.16-.06.33-.09.5-.09.26,0,.47.07.64.23.17.15.25.38.25.69v2.72h.89v-2.82c0-.36-.07-.65-.21-.88-.14-.23-.32-.39-.55-.5-.23-.11-.48-.16-.75-.16-.23,0-.43.03-.6.1-.17.06-.32.15-.44.25-.12.1-.21.21-.28.33v-.62h-.87v4.3h.89Zm6.06-.01c-.17.06-.37.1-.61.1-.57,0-1.01-.19-1.33-.58-.33-.39-.49-.95-.49-1.68,0-.45.07-.84.19-1.17.13-.33.33-.59.59-.77.26-.18.58-.27.96-.27.19,0,.37.02.52.07s.28.11.4.18c.11.07.21.15.29.24s.14.17.18.24v-2.53h.89v6.18h-.67l-.1-.88c-.03.09-.08.2-.14.31-.06.11-.15.22-.26.32-.11.1-.25.18-.42.24Zm-.44-.57c-.36,0-.63-.14-.82-.42-.19-.28-.29-.68-.29-1.2s.1-.91.31-1.15c.21-.24.48-.36.81-.36.26,0,.48.06.64.17.16.12.28.29.36.51.08.22.12.5.12.82,0,.57-.09.99-.27,1.24-.18.25-.47.38-.87.38Zm-73.11,11.37v2.08h-.89v-5.64h.89v.72c.06-.09.13-.19.21-.28.08-.09.18-.18.3-.26.11-.08.25-.14.39-.19.15-.05.31-.07.49-.07.34,0,.64.08.9.24.26.16.46.4.61.72.15.32.22.73.22,1.23s-.07.92-.22,1.26c-.15.34-.35.59-.62.77-.27.17-.59.26-.96.26-.18,0-.34-.02-.48-.07-.14-.05-.27-.12-.37-.2-.11-.08-.2-.17-.28-.27-.08-.09-.14-.19-.19-.28Zm1.13.15c-.25,0-.46-.07-.63-.22-.17-.14-.3-.34-.38-.58-.08-.24-.13-.51-.13-.8,0-.45.1-.81.29-1.1.19-.29.47-.43.85-.43s.64.14.84.41c.2.27.29.64.29,1.11,0,.55-.11.95-.32,1.2-.21.26-.48.38-.81.38Zm3.76-1.99v2.59h-.89v-4.3h.85v.88c.07-.21.17-.39.3-.53.13-.14.28-.25.45-.32.17-.07.35-.11.55-.11.06,0,.11,0,.17.01.05,0,.1.02.12.04v.86s-.08-.03-.14-.03c-.06,0-.11-.01-.15-.01-.19-.01-.36,0-.52.03-.15.03-.29.09-.4.17-.11.08-.2.18-.26.3-.06.12-.09.27-.09.44Zm3.99,2.67c.43,0,.79-.09,1.09-.28.3-.19.52-.45.67-.78.15-.33.23-.72.23-1.15,0-.48-.08-.88-.24-1.22-.16-.34-.39-.59-.69-.77-.3-.18-.65-.26-1.05-.26-.42,0-.79.09-1.09.28-.3.19-.53.45-.68.79-.16.34-.24.73-.24,1.19s.08.87.25,1.2.4.58.7.76.65.26,1.05.26Zm-.65-.9c.17.14.38.21.65.21.24,0,.45-.07.61-.19s.29-.31.37-.54c.08-.23.12-.51.12-.81,0-.29-.04-.55-.11-.78-.07-.23-.19-.42-.35-.56-.16-.14-.38-.21-.65-.21-.25,0-.46.06-.62.19-.17.13-.29.3-.38.54-.08.23-.13.51-.13.82,0,.28.04.54.11.77.07.24.19.42.36.57Zm5.28.9c.32,0,.6-.06.85-.18.25-.12.45-.29.61-.51.16-.22.25-.47.28-.76h-.76c-.02.13-.07.26-.15.38-.08.12-.19.22-.33.3-.14.08-.3.12-.49.12-.39,0-.68-.14-.88-.43-.2-.28-.3-.66-.3-1.14,0-.52.11-.91.32-1.16.22-.25.5-.38.84-.38.19,0,.35.04.49.11.14.07.25.17.33.29.08.12.14.25.16.4h.77c-.03-.3-.13-.56-.28-.79-.16-.22-.36-.4-.61-.53-.25-.13-.54-.19-.86-.19-.42,0-.78.1-1.08.28-.3.19-.53.45-.69.79-.16.34-.24.73-.24,1.18,0,.47.08.88.26,1.21.17.33.41.58.71.75.3.17.65.26,1.04.26Zm5.34-.16c-.26.1-.53.16-.82.16-.41,0-.77-.09-1.08-.26-.31-.18-.55-.43-.73-.76-.17-.33-.26-.72-.26-1.17s.08-.84.24-1.18c.16-.34.39-.61.69-.81.3-.19.66-.29,1.08-.29s.77.09,1.05.27c.29.18.5.43.65.75.15.32.22.7.22,1.13v.29h-3.03c0,.26.04.49.13.69.08.2.21.36.38.48.17.12.39.18.64.18s.48-.06.66-.18c.19-.12.31-.29.37-.52h.82c-.05.29-.17.54-.35.75-.18.21-.41.36-.67.46Zm.19-2.45h-2.18c0-.2.04-.39.12-.57s.2-.34.37-.46c.16-.12.37-.18.62-.18s.44.05.6.16c.16.11.28.25.36.44.08.19.12.39.12.61Zm4.24,2.45c-.25.1-.56.16-.9.16-.3,0-.58-.05-.84-.14-.26-.1-.48-.24-.66-.45-.18-.2-.29-.46-.33-.78h.79c.04.16.11.3.21.4.1.11.22.19.37.24.14.05.3.08.46.08.27,0,.49-.05.66-.15.17-.1.25-.25.25-.46,0-.15-.04-.26-.13-.35-.09-.09-.23-.15-.43-.2l-.86-.2c-.35-.08-.64-.21-.85-.4-.21-.18-.32-.44-.32-.76,0-.25.06-.48.19-.67.13-.2.31-.35.56-.46.25-.11.56-.17.93-.17.48,0,.88.11,1.17.33.29.22.45.53.46.94h-.77c-.03-.2-.12-.35-.27-.46-.15-.11-.35-.17-.6-.17s-.46.05-.63.15c-.16.1-.24.26-.24.46,0,.14.06.25.18.34.12.08.3.15.54.2l.82.2c.21.05.38.13.52.22.14.09.24.19.32.3.08.11.13.22.17.34.03.12.05.23.05.33,0,.27-.07.5-.21.7-.14.19-.33.34-.59.45Zm3.25.16c.35,0,.65-.05.9-.16.25-.1.45-.25.59-.45.14-.19.21-.43.21-.7,0-.1-.02-.21-.05-.33-.03-.12-.09-.23-.16-.34-.08-.11-.18-.21-.32-.3-.14-.09-.31-.16-.52-.22l-.82-.2c-.24-.05-.42-.12-.54-.2s-.18-.19-.18-.34c0-.21.08-.36.24-.46.16-.1.37-.15.63-.15s.44.06.6.17c.15.11.24.27.27.46h.77c-.01-.41-.16-.72-.46-.94-.29-.22-.68-.33-1.17-.33-.37,0-.68.06-.93.17-.25.11-.44.27-.56.46-.13.2-.19.42-.19.67,0,.33.11.58.32.76.21.18.5.31.85.4l.86.2c.19.04.34.11.43.2.09.09.14.21.14.35,0,.21-.08.36-.25.46-.17.1-.39.15-.66.15-.16,0-.32-.03-.46-.08-.14-.05-.27-.13-.37-.24-.1-.11-.17-.24-.21-.4h-.79c.04.32.15.57.33.78.18.2.4.35.66.45.26.09.54.14.84.14Zm5.31-.16c-.26.1-.53.16-.82.16-.41,0-.77-.09-1.08-.26-.31-.18-.55-.43-.73-.76-.17-.33-.26-.72-.26-1.17s.08-.84.24-1.18c.16-.34.39-.61.69-.81.3-.19.66-.29,1.08-.29s.77.09,1.05.27c.28.18.5.43.65.75.15.32.22.7.22,1.13v.29h-3.03c0,.26.04.49.13.69.08.2.21.36.38.48.17.12.39.18.64.18s.48-.06.66-.18c.19-.12.31-.29.37-.52h.82c-.05.29-.17.54-.35.75-.18.21-.41.36-.67.46Zm.19-2.45h-2.18c0-.2.04-.39.12-.57.08-.19.2-.34.37-.46.16-.12.37-.18.62-.18s.44.05.6.16c.16.11.28.25.36.44.08.19.12.39.12.61Zm3.96,2.51c-.17.06-.37.1-.61.1-.57,0-1.01-.19-1.33-.58-.32-.39-.49-.94-.49-1.67,0-.45.07-.84.2-1.17.13-.33.33-.59.58-.77.26-.18.58-.28.96-.28.19,0,.37.02.52.07.15.05.29.11.4.18.12.07.21.15.29.24.08.09.14.17.18.24v-2.53h.89v6.18h-.67l-.1-.88c-.03.09-.08.2-.14.31-.06.11-.15.22-.26.32-.11.1-.25.18-.42.24Zm-.44-.57c-.36,0-.63-.14-.82-.42-.19-.28-.29-.68-.29-1.2s.1-.91.31-1.15.48-.36.81-.36c.26,0,.48.06.64.17.16.11.28.28.36.51.08.22.12.5.12.82,0,.57-.09.99-.27,1.24-.18.25-.47.38-.87.38Zm7.46.51c-.25.1-.55.16-.9.16-.3,0-.58-.05-.84-.14-.26-.1-.48-.24-.66-.45-.18-.2-.29-.46-.33-.78h.8c.04.16.1.3.2.4.1.11.22.19.37.24.14.05.3.08.46.08.27,0,.49-.05.66-.15.17-.1.25-.25.25-.46,0-.15-.04-.26-.13-.35-.09-.09-.23-.15-.43-.2l-.86-.2c-.35-.08-.64-.21-.85-.4-.21-.18-.32-.44-.32-.76,0-.25.06-.48.19-.67.13-.2.31-.35.56-.46.25-.11.56-.17.93-.17.49,0,.88.11,1.17.33.29.22.45.53.46.94h-.77c-.03-.2-.12-.35-.27-.46s-.35-.17-.6-.17-.47.05-.63.15c-.16.1-.25.26-.25.46,0,.14.06.25.18.34.12.08.3.15.54.2l.82.2c.21.05.38.13.52.22.14.09.24.19.32.3.08.11.13.22.16.34.03.12.05.23.05.33,0,.27-.07.5-.21.7-.14.19-.33.34-.59.45Zm3.32.16c.2,0,.38-.03.56-.08.18-.06.33-.16.46-.29.13-.14.22-.31.27-.54l.1.83h.69v-4.3h-.89v2.8c0,.3-.09.52-.27.68-.18.15-.41.23-.71.23-.32,0-.57-.08-.73-.24-.16-.16-.24-.37-.24-.63v-2.84h-.89v2.93c0,.24.04.45.13.63.09.18.21.33.37.45.15.12.33.21.53.27.2.06.4.09.62.1Zm5.76-.18c-.25.12-.53.18-.85.18-.39,0-.74-.08-1.04-.26-.3-.17-.54-.42-.71-.75-.17-.33-.26-.73-.26-1.21,0-.45.08-.84.24-1.18.16-.34.39-.6.69-.79.3-.19.66-.28,1.08-.28.32,0,.61.06.86.19.25.13.45.3.61.53.15.22.25.49.28.79h-.77c-.02-.14-.08-.27-.16-.4-.08-.12-.19-.22-.33-.29-.14-.07-.3-.11-.49-.11-.34,0-.62.13-.84.38-.22.25-.32.64-.32,1.16,0,.48.1.86.3,1.14.2.28.49.43.88.43.19,0,.35-.04.48-.12.14-.08.25-.18.33-.3.08-.12.13-.25.15-.38h.76c-.03.29-.12.54-.28.76-.16.22-.36.39-.61.51Zm3.58.18c.32,0,.6-.06.85-.18.25-.12.45-.29.61-.51.16-.22.25-.47.28-.76h-.76c-.02.13-.07.26-.15.38-.08.12-.19.22-.33.3-.14.08-.3.12-.48.12-.39,0-.68-.14-.88-.43-.2-.28-.3-.66-.3-1.14,0-.52.11-.91.33-1.16.22-.25.5-.38.84-.38.19,0,.35.04.49.11.14.07.25.17.33.29.08.12.14.25.16.4h.77c-.03-.3-.13-.56-.28-.79-.15-.22-.36-.4-.61-.53-.25-.13-.54-.19-.86-.19-.42,0-.78.1-1.08.28-.3.19-.53.45-.69.79-.16.34-.24.73-.24,1.18,0,.47.08.88.26,1.21.17.33.41.58.71.75.3.17.65.26,1.04.26Zm5.34-.16c-.26.1-.53.16-.82.16-.41,0-.77-.09-1.08-.26-.31-.18-.55-.43-.72-.76-.17-.33-.26-.72-.26-1.17s.08-.84.24-1.18c.16-.34.39-.61.69-.81.3-.19.66-.29,1.08-.29s.77.09,1.05.27c.28.18.5.43.65.75.15.32.22.7.22,1.13v.29h-3.03c0,.26.04.49.13.69.08.2.21.36.39.48.17.12.38.18.64.18s.48-.06.66-.18c.19-.12.31-.29.37-.52h.82c-.05.29-.17.54-.35.75-.18.21-.41.36-.67.46Zm.19-2.45h-2.18c0-.2.04-.39.12-.57.08-.19.2-.34.37-.46.16-.12.37-.18.62-.18s.44.05.6.16c.16.11.28.25.36.44.08.19.12.39.12.61Zm4.23,2.45c-.25.1-.56.16-.9.16-.3,0-.58-.05-.84-.14-.26-.1-.48-.24-.66-.45-.18-.2-.29-.46-.33-.78h.8c.04.16.1.3.21.4.1.11.22.19.37.24.14.05.3.08.46.08.27,0,.49-.05.66-.15.17-.1.25-.25.25-.46,0-.15-.05-.26-.14-.35-.09-.09-.23-.15-.43-.2l-.86-.2c-.36-.08-.64-.21-.85-.4-.21-.18-.32-.44-.32-.76,0-.25.06-.48.19-.67.13-.2.31-.35.56-.46.25-.11.56-.17.93-.17.49,0,.88.11,1.17.33.29.22.45.53.46.94h-.77c-.03-.2-.12-.35-.27-.46s-.35-.17-.6-.17-.46.05-.63.15c-.16.1-.24.26-.24.46,0,.14.06.25.18.34.12.08.3.15.54.2l.82.2c.21.05.38.13.52.22.14.09.24.19.32.3.08.11.13.22.16.34.03.12.05.23.05.33,0,.27-.07.5-.21.7-.14.19-.33.34-.59.45Zm3.25.16c.35,0,.65-.05.9-.16.25-.1.45-.25.59-.45.14-.19.21-.43.21-.7,0-.1-.02-.21-.05-.33-.03-.12-.09-.23-.16-.34-.08-.11-.18-.21-.32-.3-.14-.09-.31-.16-.52-.22l-.82-.2c-.24-.05-.42-.12-.54-.2-.12-.08-.18-.19-.18-.34,0-.21.08-.36.24-.46.16-.1.37-.15.63-.15s.45.06.6.17.24.27.27.46h.77c-.01-.41-.16-.72-.46-.94-.29-.22-.68-.33-1.17-.33-.37,0-.68.06-.93.17-.25.11-.44.27-.56.46-.13.2-.19.42-.19.67,0,.33.11.58.32.76.21.18.5.31.85.4l.86.2c.19.04.34.11.43.2.09.09.14.21.14.35,0,.21-.08.36-.25.46-.17.1-.39.15-.66.15-.16,0-.32-.03-.46-.08-.14-.05-.26-.13-.37-.24-.1-.11-.17-.24-.21-.4h-.8c.05.32.15.57.33.78.18.2.39.35.66.45.26.09.54.14.84.14Zm4.12-3.74v3.66h-.89v-3.66h-.88v-.64h.88v-.65c0-.34.09-.61.27-.79.18-.18.45-.27.81-.27h.86v.61s-.62,0-.62,0c-.17,0-.29.05-.35.14-.06.09-.09.23-.09.41v.55h1.02v.64h-1.01Zm3.41,3.74c.2,0,.38-.03.56-.08.18-.06.33-.16.46-.29.13-.14.22-.31.27-.54l.1.83h.69v-4.3h-.89v2.8c0,.3-.09.52-.27.68-.18.15-.41.23-.71.23-.32,0-.57-.08-.73-.24-.16-.16-.24-.37-.24-.63v-2.84h-.89v2.93c0,.24.04.45.14.63.09.18.21.33.37.45s.33.21.53.27.4.09.62.1Zm4.57-.05c-.07.01-.14.02-.21.02-.26,0-.46-.03-.61-.1-.15-.07-.27-.16-.35-.27-.08-.11-.13-.24-.16-.38-.03-.14-.04-.29-.04-.44v-5.05h.88v4.96c0,.2.04.35.12.46.08.11.2.17.36.18h.22v.57c-.07.02-.14.04-.21.05Zm2.14.02c.06,0,.13,0,.21-.02.07-.01.14-.03.21-.05v-.57h-.23c-.16-.02-.28-.08-.36-.19-.08-.1-.12-.26-.12-.46v-4.96h-.88v5.05c0,.15.01.3.04.44.03.14.08.27.16.38.08.11.2.2.35.27.15.07.36.1.61.1Zm2.19,1.22c-.17.06-.36.1-.57.1-.26,0-.45-.02-.55-.06l-.15-.06v-.57h.44c.17.02.3,0,.41-.02.11-.03.19-.07.25-.11.06-.05.11-.1.14-.16.03-.06.06-.11.08-.15l.13-.36-1.68-4.18h.89l1.21,3.18,1.2-3.18h.87l-1.79,4.54c-.12.3-.26.53-.4.7-.14.16-.3.28-.48.34Z"/>
    <circle class="cls-5" cx="83.2" cy="131.84" r="17.92"/>
    <path class="cls-11" d="m77.44,132.93l2.93,2.93,8.49-8.49"/>
    <path class="cls-1" d="m51.84,203.52h64.64c5.3,0,9.6,4.3,9.6,9.6h0c0,5.3-4.3,9.6-9.6,9.6H51.84c-5.3,0-9.6-4.3-9.6-9.6h0c0-5.3,4.3-9.6,9.6-9.6Z"/>
    <path class="cls-6" d="m75.06,215.37c-.39.21-.9.31-1.5.31h-1.49v-5.09h.64c.16,0,.32,0,.48,0,.16,0,.29,0,.4,0,.62.01,1.12.12,1.51.33.39.21.67.49.86.87s.27.81.27,1.32-.1.98-.29,1.37c-.19.38-.49.68-.88.89Zm-1.95-.52h.47c.29,0,.55-.06.79-.17.24-.11.43-.3.57-.55.14-.26.21-.6.21-1.02,0-.4-.06-.72-.19-.97-.13-.25-.31-.43-.54-.54-.24-.11-.51-.17-.83-.17h-.49v3.43Zm4.89-3.33v-.93h-1v.93h1Zm-.01.52v3.64h-.98v-3.64h.98Zm2.32,3.71c.3,0,.57-.05.8-.13.23-.09.41-.22.54-.39.13-.17.19-.38.19-.62,0-.08-.01-.17-.04-.28-.03-.1-.07-.2-.15-.31-.07-.1-.17-.19-.3-.28-.13-.09-.29-.15-.5-.2l-.59-.13c-.2-.04-.34-.09-.44-.14s-.14-.13-.14-.23c0-.13.06-.23.17-.29.11-.06.26-.1.44-.1s.31.04.43.11c.11.08.18.19.21.33h.86c0-.36-.14-.64-.41-.83-.27-.2-.63-.3-1.08-.3-.33,0-.61.05-.84.15-.23.1-.4.24-.52.41-.12.17-.17.37-.17.59,0,.3.1.53.3.7.19.16.45.28.77.35l.64.13c.16.03.28.08.35.13.07.06.11.14.11.23,0,.13-.06.23-.18.29-.12.06-.28.09-.48.09-.09,0-.19-.02-.3-.05-.1-.03-.2-.08-.28-.16-.08-.07-.14-.18-.17-.31h-.89c.04.29.15.52.31.7.16.18.36.31.59.4.23.08.48.12.73.12Zm3.22-2.4v2.33h-1.03v-3.64h1.01v.51c.11-.16.26-.3.45-.41.19-.11.42-.17.7-.17.12,0,.25.02.38.07.13.05.25.11.36.2.11.09.21.19.28.32.12-.17.27-.3.46-.42.19-.11.4-.17.64-.17.14,0,.27.02.41.07.14.05.27.12.38.22.12.1.21.24.28.4.07.17.11.38.11.62v2.4h-1.03v-2.27c0-.15-.03-.26-.09-.35-.06-.09-.13-.15-.22-.19s-.18-.06-.28-.06c-.09,0-.18.02-.28.05-.09.04-.17.1-.24.17-.07.08-.1.18-.1.31v2.33h-1.03v-2.36c0-.11-.03-.2-.09-.28-.06-.07-.13-.13-.22-.17-.09-.04-.18-.06-.27-.06s-.19.02-.28.06c-.09.04-.17.1-.24.18-.06.08-.1.18-.1.3Zm6.27-1.83v-.93h-1v.93h1Zm0,.52v3.64h-.98v-3.64h.98Zm2.32,3.71c.3,0,.57-.05.8-.13.23-.09.41-.22.54-.39.13-.17.19-.38.19-.62,0-.08-.01-.17-.04-.28-.03-.1-.08-.2-.15-.31-.07-.1-.17-.19-.3-.28-.13-.09-.29-.15-.5-.2l-.59-.13c-.2-.04-.34-.09-.44-.14-.09-.05-.14-.13-.14-.23,0-.13.06-.23.17-.29.11-.06.26-.1.44-.1s.31.04.43.11c.11.08.18.19.21.33h.86c0-.36-.14-.64-.41-.83-.27-.2-.63-.3-1.07-.3-.33,0-.61.05-.84.15-.23.1-.4.24-.52.41-.12.17-.17.37-.17.59,0,.3.1.53.3.7.2.16.45.28.77.35l.64.13c.16.03.28.08.35.13.07.06.11.14.11.23,0,.13-.06.23-.18.29-.12.06-.28.09-.48.09-.09,0-.19-.02-.3-.05-.1-.03-.2-.08-.28-.16-.08-.07-.14-.18-.17-.31h-.89c.04.29.15.52.31.7.16.18.36.31.6.4.23.08.48.12.73.12Zm4.39-.13c-.23.09-.5.13-.8.13-.25,0-.5-.04-.73-.12-.23-.08-.43-.21-.6-.4-.16-.18-.26-.41-.31-.7h.89c.03.13.09.23.17.31.08.08.17.13.28.16.1.03.2.05.3.05.2,0,.36-.03.48-.09.12-.06.18-.16.18-.29,0-.1-.04-.18-.11-.23-.07-.06-.19-.1-.35-.13l-.64-.13c-.32-.07-.58-.18-.78-.35-.19-.16-.29-.39-.3-.7,0-.22.06-.41.17-.59.12-.17.29-.31.52-.41.23-.1.51-.15.84-.15.45,0,.81.1,1.08.3.27.2.4.48.41.83h-.86c-.03-.14-.1-.25-.21-.33-.11-.08-.26-.11-.43-.11s-.33.03-.44.1c-.11.06-.17.16-.17.29,0,.1.05.17.14.23.09.05.24.1.44.14l.59.13c.2.05.37.12.5.2.13.08.23.18.3.28.07.1.12.2.15.31.03.1.04.19.04.28,0,.24-.06.45-.19.62-.13.17-.31.3-.54.39Z"/>
  </g>
</svg>