<?xml version="1.0" encoding="UTF-8"?>
<svg id="Layer_2" data-name="Layer 2" xmlns="http://www.w3.org/2000/svg" xmlns:xlink="http://www.w3.org/1999/xlink" viewBox="0 0 158.7 299.66">
  <defs>
    <style>
      .cls-1 {
        fill: #ba4270;
      }

      .cls-1, .cls-2, .cls-3, .cls-4, .cls-5, .cls-6, .cls-7, .cls-8, .cls-9, .cls-10, .cls-11, .cls-12 {
        stroke-width: 0px;
      }

      .cls-1, .cls-2, .cls-3, .cls-5, .cls-7, .cls-8, .cls-10, .cls-11 {
        fill-rule: evenodd;
      }

      .cls-2 {
        fill: url(#linear-gradient-3);
      }

      .cls-2, .cls-3, .cls-5, .cls-11 {
        isolation: isolate;
      }

      .cls-2, .cls-11 {
        opacity: .75;
      }

      .cls-3 {
        fill: url(#linear-gradient);
        fill-opacity: .65;
        opacity: .6;
      }

      .cls-4 {
        fill: none;
      }

      .cls-5 {
        opacity: .5;
      }

      .cls-5, .cls-6 {
        fill: #36536b;
      }

      .cls-7 {
        fill: #fff;
      }

      .cls-13 {
        clip-path: url(#clippath);
      }

      .cls-8 {
        fill: #213648;
      }

      .cls-9 {
        fill: #fbfcfe;
      }

      .cls-10 {
        fill: #2e423c;
      }

      .cls-14 {
        mask: url(#mask);
      }

      .cls-11 {
        fill: url(#linear-gradient-2);
      }

      .cls-12 {
        fill: url(#linear-gradient-4);
      }
    </style>
    <linearGradient id="linear-gradient" x1="79.4" y1="349.89" x2="79.4" y2="342.5" gradientTransform="translate(0 349.89) scale(1 -1)" gradientUnits="userSpaceOnUse">
      <stop offset="0" stop-color="#454545"/>
      <stop offset=".23" stop-color="#999"/>
      <stop offset="1" stop-color="#fff"/>
    </linearGradient>
    <linearGradient id="linear-gradient-2" x1="157.25" y1="200.59" x2="151.53" y2="200.59" gradientTransform="translate(0 349.89) scale(1 -1)" gradientUnits="userSpaceOnUse">
      <stop offset="0" stop-color="#fff" stop-opacity="0"/>
      <stop offset=".22" stop-color="#bababa"/>
      <stop offset=".55" stop-color="#fff" stop-opacity="0"/>
      <stop offset="1" stop-color="#fff" stop-opacity="0"/>
    </linearGradient>
    <linearGradient id="linear-gradient-3" x1="1.55" y1="200.59" x2="7.28" y2="200.59" xlink:href="#linear-gradient-2"/>
    <mask id="mask" x="9" y="7" width="141" height="279" maskUnits="userSpaceOnUse">
      <g id="mask0_0_2411" data-name="mask0 0 2411">
        <path id="Screen_Mask_2" data-name="Screen Mask_2" class="cls-7" d="m65.7,7.47H20.72c-6.71,0-11.6,4.54-11.6,10.46v253.43c0,7.73,7.56,14.58,16.1,14.58h108.42c8.23,0,16.1-6.9,16.1-14.58V18.62c0-7.1-5.31-11.11-11.6-11.15h-45.7c-.17.03-3.31,1.31-4.64,4.54-1.33,3.23-4,5.8-6.92,5.8h-3.39c-1.39,0-5.05-1.34-6.9-5.8-1.85-4.47-4.71-4.51-4.89-4.54Z"/>
      </g>
    </mask>
    <linearGradient id="linear-gradient-4" x1="79.5" y1="342.89" x2="79.5" y2="66.06" gradientTransform="translate(0 349.89) scale(1 -1)" gradientUnits="userSpaceOnUse">
      <stop offset="0" stop-color="#9cb6cd"/>
      <stop offset=".42" stop-color="#9ab3ca"/>
      <stop offset=".72" stop-color="#557496"/>
      <stop offset="1" stop-color="#475178"/>
    </linearGradient>
    <clipPath id="clippath">
      <rect class="cls-4" x="12.81" y="100" width="132" height="54"/>
    </clipPath>
  </defs>
  <g id="Layer_1-2" data-name="Layer 1">
    <g id="Group_30" data-name="Group 30">
      <g id="Group_2" data-name="Group 2">
        <g id="iPhone-X-Mockup">
          <g id="phone">
            <g id="body">
              <path class="cls-8" d="m21.63.34h115.61c11.09,0,20.08,8.54,20.08,19.08v261.16c0,10.54-8.99,19.08-20.08,19.08H21.63c-11.09,0-20.08-8.54-20.08-19.08V19.42C1.55,8.88,10.54.34,21.63.34Z"/>
            </g>
            <g id="frame">
              <path id="reflect-frame-top" class="cls-3" d="m137.69,0H21.11c-5.44.33-10.46,2.79-15.06,7.39,2.96-2.56,8.23-5.99,15.2-5.99h116.29c6.97,0,12.24,3.43,15.2,5.99-4.6-4.6-9.62-7.07-15.06-7.39Z"/>
              <path id="reflect-frame-right" class="cls-11" d="m154.16,277.6V20.99c0-6.89-2.55-9.43-4.07-11.06-1.52-1.63-1.58-2.47.6-1.23,2.19,1.23,6.56,4.83,6.56,12.3v256.61c0,7.47-4.37,11.06-6.56,12.3-2.18,1.23-2.12.4-.6-1.23,1.52-1.63,4.07-4.18,4.07-11.06Z"/>
              <path id="reflect-frame-left" class="cls-2" d="m4.64,277.6V20.99c0-6.89,2.55-9.43,4.07-11.06,1.52-1.63,1.59-2.47-.6-1.23-2.19,1.23-6.56,4.83-6.56,12.3v256.61c0,7.47,4.37,11.06,6.56,12.3,2.19,1.23,2.12.4.6-1.23-1.52-1.63-4.07-4.18-4.07-11.06Z"/>
            </g>
            <g id="controls">
              <path id="vol_" data-name="vol+" class="cls-10" d="m0,62.43c0-.83.67-1.5,1.5-1.5s1.5.67,1.5,1.5v35.61c0,.83-.67,1.5-1.5,1.5s-1.5-.67-1.5-1.5v-35.61Z"/>
              <path id="power" class="cls-10" d="m155.7,93.93c0-.83.67-1.5,1.5-1.5s1.5.67,1.5,1.5v25.17c0,.83-.67,1.5-1.5,1.5s-1.5-.67-1.5-1.5v-25.17Z"/>
            </g>
          </g>
          <g id="Screen">
            <path id="Screen_Mask" data-name="Screen Mask" class="cls-7" d="m65.7,7.47H20.72c-6.71,0-11.6,4.54-11.6,10.46v253.43c0,7.73,7.56,14.58,16.1,14.58h108.42c8.23,0,16.1-6.9,16.1-14.58V18.62c0-7.1-5.31-11.11-11.6-11.15h-45.7c-.17.03-3.31,1.31-4.64,4.54-1.33,3.23-4,5.8-6.92,5.8h-3.39c-1.39,0-5.05-1.34-6.9-5.8-1.85-4.47-4.71-4.51-4.89-4.54Z"/>
            <g class="cls-14">
              <g>
                <rect id="Rectangle" class="cls-12" x="9" y="7" width="141" height="279"/>
                <path id="_12:49" data-name="12:49" class="cls-7" d="m73.45,81.64v2.36h-10.27v-2.09c0-.7.13-1.31.4-1.83.26-.52.61-.96,1.05-1.34.44-.38.91-.72,1.43-1,.52-.29,1.04-.56,1.56-.82.52-.26,1-.51,1.44-.77.43-.26.79-.55,1.05-.87.26-.32.4-.7.4-1.13,0-.56-.19-1.01-.59-1.36-.39-.35-.92-.53-1.6-.53s-1.3.2-1.79.61c-.49.4-.79,1.01-.91,1.82h-2.7c.01-.88.22-1.68.62-2.4s1.01-1.29,1.81-1.71c.81-.42,1.82-.63,3.04-.63,1.05,0,1.95.18,2.7.53.76.35,1.34.84,1.75,1.47.41.63.62,1.36.62,2.2,0,.7-.13,1.3-.39,1.81-.26.51-.6.94-1.03,1.3-.43.36-.89.67-1.4.94-.51.27-1.02.52-1.52.75-.51.23-.97.47-1.4.71-.43.24-.77.51-1.03.81-.26.3-.39.66-.39,1.09v.12h7.13Zm-13.46-11.52v13.88h-2.86v-10.4h-2.5v-1.58c.8,0,1.45-.07,1.94-.22.49-.15.86-.37,1.11-.65.25-.28.39-.63.44-1.02h1.88Zm18.43,7.2v-3.01h-3.1v3.01h3.1Zm0,3.63v3h-3.1v-3h3.1Zm11.14,3.05v-3.07h2.16v-2.35h-2.16v-8.46h-2.78l-6.38,8.5v2.3h6.44v3.07s2.71,0,2.71,0Zm-6.54-5.42h3.83v-5.09l-3.83,5.09Zm15.24,5.63c1.23,0,2.28-.27,3.16-.82.88-.55,1.56-1.37,2.04-2.48s.71-2.49.71-4.14c0-1.39-.23-2.6-.69-3.62-.46-1.03-1.12-1.82-1.98-2.38-.86-.56-1.88-.84-3.07-.84-1.06,0-1.98.2-2.77.6-.79.4-1.4.96-1.84,1.67-.44.71-.66,1.52-.66,2.43s.21,1.68.62,2.34c.42.66.99,1.16,1.72,1.52s1.57.53,2.52.53c.52,0,1-.07,1.42-.21.43-.14.8-.33,1.12-.59.32-.25.57-.55.75-.89.08,1.11-.01,2-.27,2.69s-.63,1.18-1.14,1.5c-.51.31-1.09.47-1.76.47-.61,0-1.11-.17-1.51-.5s-.66-.77-.77-1.31h-2.69c.06.81.33,1.52.8,2.13.48.6,1.09,1.07,1.85,1.41.75.33,1.57.5,2.44.5Zm-1.42-8.02c.43.4.98.6,1.67.6.39,0,.77-.09,1.15-.26.37-.18.68-.4.91-.67.24-.27.36-.55.36-.83,0-.62-.09-1.15-.29-1.6-.2-.44-.49-.79-.85-1.02-.37-.24-.79-.36-1.27-.36-.44,0-.84.1-1.19.31-.35.2-.62.49-.82.86-.2.37-.3.8-.3,1.29,0,.72.21,1.29.64,1.68Z"/>
              </g>
            </g>
          </g>
        </g>
      </g>
      <g class="cls-13">
        <g id="Group_29" data-name="Group 29">
          <g id="Rectangle_2" data-name="Rectangle 2">
            <rect class="cls-9" x="12.81" y="100" width="131.25" height="53.19" rx="5" ry="5"/>
          </g>
          <g id="Group_28" data-name="Group 28">
            <path id="YourApp" class="cls-1" d="m24.89,115.29v-1.86l1.51-2.56h-.96l-.99,1.79-1-1.79h-.95l1.51,2.56v1.86h.88Zm3.28.06c.32,0,.59-.07.81-.21.22-.14.4-.33.51-.57.12-.24.18-.52.18-.84,0-.34-.06-.63-.18-.88-.12-.25-.3-.44-.52-.58-.22-.14-.49-.2-.8-.2s-.57.07-.8.21c-.23.14-.4.33-.52.58-.12.25-.19.54-.19.87s.06.62.19.86c.12.24.3.43.52.56.23.13.49.2.8.2Zm-.39-.81c.09.1.22.14.39.14.15,0,.28-.05.37-.14.09-.09.16-.21.21-.36.04-.15.06-.31.06-.49,0-.17-.02-.32-.06-.47-.04-.15-.11-.27-.2-.36-.09-.09-.22-.14-.39-.14s-.28.04-.37.13c-.1.09-.17.2-.21.35-.04.15-.07.31-.07.49,0,.16.02.32.06.48.04.15.11.27.2.37Zm3.62.81c.12,0,.25-.02.37-.06.13-.04.24-.1.34-.2.1-.1.17-.24.2-.43l.1.63h.66v-3.16h-.87v2.06c0,.16-.05.29-.15.38-.1.09-.24.14-.41.14-.18,0-.32-.05-.42-.14-.09-.09-.14-.21-.14-.36v-2.07h-.88v2.19c0,.17.03.32.1.45.07.13.16.24.28.32.11.09.24.15.38.2.14.04.28.07.43.07Zm3.28-1.79v1.73h-.88v-3.16h.85v.75c.05-.16.12-.3.21-.42.09-.12.2-.22.33-.29.13-.07.28-.1.44-.1.03,0,.05,0,.08,0s.04,0,.06.01v.85s-.04-.01-.06-.01-.05,0-.07,0c-.17-.01-.32-.01-.44.01-.12.02-.22.07-.3.12-.08.06-.13.13-.17.22-.03.09-.05.18-.05.29Zm3.52,1.73l.36-1.02h1.57l.36,1.02h.88l-1.56-4.42h-.93l-1.56,4.42h.88Zm.56-1.8h1.16l-.58-1.75-.58,1.75Zm4.02,2.79v-1.46c.04.07.1.14.16.21.06.07.13.12.2.17.08.05.16.09.25.11.09.03.18.04.28.04.24,0,.46-.06.66-.18.19-.12.35-.3.46-.55.11-.25.17-.56.17-.94s-.05-.67-.15-.91c-.1-.24-.25-.42-.43-.53-.18-.12-.39-.17-.62-.17-.11,0-.21.01-.3.04-.1.03-.19.06-.27.11-.08.05-.16.1-.22.16-.07.06-.12.13-.17.21v-.46h-.89v4.15h.88Zm.3-1.72c.1.09.23.14.38.14.19,0,.35-.08.48-.24.13-.16.19-.41.19-.76,0-.31-.06-.54-.19-.72-.12-.17-.29-.26-.49-.26-.23,0-.4.09-.51.28-.11.19-.17.42-.17.7,0,.18.02.34.07.49.05.15.12.28.22.37Zm3.34,1.72v-1.46c.04.07.1.14.15.21.06.07.13.12.2.17.07.05.16.09.24.11.09.03.18.04.28.04.24,0,.46-.06.66-.18.19-.12.35-.3.46-.55.11-.25.17-.56.17-.94s-.05-.67-.15-.91c-.1-.24-.25-.42-.43-.53-.18-.12-.39-.17-.62-.17-.11,0-.21.01-.3.04-.1.03-.18.06-.27.11-.08.05-.16.1-.22.16-.07.06-.12.13-.17.21v-.46h-.88v4.15h.88Zm.3-1.72c.1.09.22.14.38.14.19,0,.35-.08.48-.24.13-.16.19-.41.19-.76,0-.31-.06-.54-.18-.72-.12-.17-.29-.26-.49-.26-.23,0-.4.09-.51.28-.11.19-.17.42-.17.7,0,.18.03.34.07.49.05.15.12.28.22.37Z"/>
            <path id="JustNow" class="cls-5" d="m110.69,115.22c-.13.08-.32.13-.57.13-.15,0-.3-.02-.43-.05-.14-.04-.23-.06-.27-.08l.04-.54c.06.02.13.05.22.08.08.03.18.05.3.05.2,0,.33-.06.4-.17s.11-.3.11-.56v-3.21h.56v3.38c0,.24-.03.43-.08.6-.05.17-.15.29-.28.38Zm2.83.06c-.13.05-.26.07-.41.07-.16,0-.32-.03-.46-.07-.14-.05-.27-.11-.38-.2-.11-.09-.2-.2-.26-.34-.06-.13-.1-.29-.1-.47v-2.15h.56v2.09c0,.21.06.37.19.5.12.13.32.19.57.19.23,0,.41-.06.55-.18.14-.12.21-.3.21-.54v-2.06h.55v3.16h-.44l-.06-.61c-.04.16-.1.29-.19.39-.09.1-.2.17-.33.21Zm3,.07c.25,0,.47-.04.65-.11.18-.08.31-.18.41-.32.1-.14.14-.31.14-.5,0-.08-.01-.16-.03-.24-.02-.08-.06-.17-.12-.24-.06-.08-.13-.15-.22-.21-.09-.06-.21-.12-.36-.15l-.62-.16c-.17-.04-.3-.1-.39-.16-.09-.06-.13-.15-.13-.26,0-.17.06-.29.19-.38.12-.08.29-.12.49-.12s.34.04.46.13c.11.09.18.21.2.36h.49c0-.3-.12-.52-.32-.68-.21-.15-.48-.23-.82-.23-.26,0-.48.04-.66.12-.18.08-.31.19-.4.33-.09.14-.13.3-.13.49,0,.24.07.42.23.55.15.13.35.23.6.29l.64.16c.14.03.24.08.31.15.07.07.1.16.1.28,0,.16-.06.29-.19.37-.13.08-.3.12-.51.12-.13,0-.25-.02-.36-.06-.11-.04-.2-.1-.28-.19-.07-.08-.12-.19-.15-.31h-.51c.03.23.11.41.23.56.12.14.28.25.46.32.19.07.39.1.6.1Zm3.44-.06c-.08,0-.17.01-.29.01-.21,0-.38-.03-.5-.09-.12-.06-.2-.15-.25-.26-.05-.12-.07-.26-.07-.43v-1.98h-.51v-.41h.52l.14-.92h.41v.92h.7v.42h-.7v1.96c0,.11.01.19.03.25.02.05.06.08.12.1.05.01.13.02.23.02h.34v.38s-.1.03-.17.04Zm3.01,0v-3.49l2.34,3.49h.5v-4.42h-.56v3.44l-2.3-3.44h-.53v4.42h.56Zm5.88-.15c-.21.14-.47.21-.78.21-.29,0-.54-.06-.75-.19-.21-.12-.38-.31-.5-.55-.12-.24-.18-.54-.18-.89,0-.33.05-.62.17-.87.11-.25.27-.44.49-.58.21-.14.47-.21.78-.21.29,0,.54.06.75.19s.38.31.49.56c.12.25.17.55.17.9,0,.32-.05.61-.16.85-.11.24-.27.43-.48.57Zm-.78-.24c-.21,0-.37-.05-.5-.16-.13-.11-.22-.25-.28-.43-.06-.18-.09-.38-.09-.61,0-.25.03-.46.1-.64.07-.18.17-.32.3-.41.13-.1.29-.14.48-.14.21,0,.37.05.5.16.13.11.22.25.28.43.06.18.09.38.09.61,0,.25-.03.46-.1.64-.07.18-.16.32-.29.41-.13.1-.29.14-.47.14Zm4.04-1.95l-.67,2.33h-.54l-.96-3.16h.51l.71,2.43h.05l.7-2.43h.42l.73,2.42h.05l.68-2.42h.52l-.94,3.16h-.55l-.71-2.33Z"/>
          </g>
          <path id="The_payment_has_been" data-name="The payment has been" class="cls-6" d="m22.15,122.35v-.55h3.56v.55h-1.43v4.15h-.6v-4.15h-1.52Zm4.21,4.15v-4.83h.58v1.96c.06-.09.13-.18.23-.26.1-.08.21-.15.35-.2.14-.05.29-.08.47-.08.22,0,.42.04.59.12.18.08.32.2.42.34.1.15.16.33.16.53v2.4h-.6v-2.28c0-.2-.07-.36-.21-.46-.14-.11-.32-.17-.54-.17-.15,0-.29.03-.42.07-.13.05-.24.12-.32.22-.08.1-.12.22-.12.37v2.24h-.6Zm4.17-1.54c0,.21.03.41.1.58.07.17.18.31.32.41.15.1.33.15.54.15s.4-.05.55-.15c.16-.1.26-.24.3-.43h.57c-.04.23-.13.42-.27.58-.14.16-.31.27-.51.35-.2.08-.41.12-.62.12-.31,0-.59-.07-.83-.21-.24-.14-.42-.33-.56-.59s-.2-.56-.2-.92.06-.66.18-.93c.12-.27.3-.48.53-.62.23-.15.51-.22.84-.22s.58.07.8.21c.22.14.38.33.5.58.11.25.17.54.17.88v.22h-2.41Zm0-.41h1.83c0-.19-.03-.37-.1-.52-.07-.16-.16-.28-.3-.37-.13-.09-.3-.14-.5-.14s-.38.05-.52.15c-.14.1-.24.23-.31.39-.07.16-.1.32-.1.48Zm4.68,2.99v-4.41h.6v.58c.05-.07.1-.14.16-.22.06-.08.14-.15.23-.21.09-.07.2-.12.32-.16.12-.04.26-.06.41-.06.27,0,.5.06.71.19.21.12.37.31.48.56.11.25.17.57.17.96s-.06.71-.17.98c-.11.26-.27.47-.48.6-.21.14-.46.21-.76.21-.15,0-.28-.02-.4-.07-.11-.04-.22-.1-.3-.16-.08-.07-.16-.14-.21-.22-.06-.08-.1-.15-.14-.22v1.65h-.6Zm1.55-1.45c.28,0,.5-.1.68-.32.18-.21.26-.54.26-.99,0-.38-.08-.69-.24-.91-.16-.23-.39-.34-.7-.34s-.55.12-.71.35c-.16.23-.24.53-.24.9,0,.24.04.46.11.66.07.2.18.35.32.47.14.12.32.18.52.18Zm3.2.47c-.22,0-.41-.04-.58-.11-.17-.08-.3-.19-.39-.34-.09-.15-.14-.32-.14-.53,0-.37.13-.65.39-.83.26-.18.68-.28,1.25-.29l.6-.02v-.26c0-.21-.06-.37-.19-.49-.12-.12-.32-.18-.58-.18-.19,0-.36.05-.51.14-.15.09-.24.23-.28.43h-.53c.01-.22.07-.4.19-.55.11-.15.26-.27.46-.35.2-.08.43-.12.71-.12.29,0,.54.04.73.12.19.08.34.2.44.36.1.16.15.36.15.59v2.35h-.51l-.04-.63c-.13.26-.3.44-.5.55-.2.1-.42.15-.66.15Zm.18-.43c.11,0,.22-.02.33-.06.11-.04.22-.1.31-.17.09-.07.17-.15.22-.24.06-.09.09-.18.09-.27v-.57h-.5c-.26.01-.47.04-.64.09-.17.05-.3.12-.39.23-.08.1-.13.24-.13.4,0,.19.06.34.19.44.13.11.3.16.51.16Zm2.78,1.44c-.2,0-.33-.01-.41-.04-.07-.03-.11-.04-.11-.04v-.39h.34c.13.01.23,0,.31-.02.08-.02.15-.05.2-.09.05-.04.09-.08.11-.12.03-.04.05-.09.07-.13l.12-.32-1.31-3.28h.61l.99,2.59.98-2.59h.59l-1.42,3.61c-.09.21-.18.38-.29.5-.11.12-.23.2-.36.25-.13.05-.27.07-.43.07Zm3.13-1.07v-3.36h.58v.49c.09-.15.22-.28.38-.39.16-.11.37-.17.63-.17.12,0,.24.02.37.06.13.04.25.1.35.18.11.08.19.18.25.3.1-.16.25-.3.42-.4.18-.1.38-.15.6-.15.12,0,.24.02.37.06.13.03.25.1.35.19.11.09.2.21.27.37.07.16.1.36.1.61v2.2h-.6v-2.14c0-.2-.03-.36-.1-.47-.07-.11-.15-.19-.26-.24-.1-.05-.21-.07-.33-.07-.1,0-.21.02-.33.06-.12.04-.22.11-.3.21-.08.1-.12.23-.12.4v2.25h-.6v-2.31c0-.13-.04-.24-.11-.33-.07-.09-.16-.16-.26-.2-.1-.05-.21-.07-.31-.07-.11,0-.23.02-.35.07-.11.04-.21.12-.29.22-.08.1-.12.22-.12.38v2.25h-.6Zm6.05-1.54c0,.21.03.41.1.58.07.17.18.31.32.41.14.1.33.15.54.15s.4-.05.55-.15c.16-.1.25-.24.3-.43h.57c-.04.23-.13.42-.27.58-.14.16-.31.27-.51.35-.2.08-.41.12-.62.12-.31,0-.59-.07-.83-.21-.24-.14-.42-.33-.56-.59-.14-.26-.2-.56-.2-.92s.06-.66.18-.93c.12-.27.3-.48.53-.62.23-.15.51-.22.84-.22s.58.07.8.21c.22.14.38.33.5.58.11.25.17.54.17.88v.22h-2.41Zm0-.41h1.83c0-.19-.03-.37-.1-.52-.07-.16-.17-.28-.3-.37-.13-.09-.3-.14-.5-.14-.21,0-.38.05-.52.15-.14.1-.24.23-.31.39-.07.16-.1.32-.1.48Zm3.23,1.95v-3.36h.58v.49c.05-.09.13-.18.22-.26.1-.08.21-.15.35-.2.14-.05.3-.07.48-.07.21,0,.41.04.58.13.18.08.32.22.43.4.11.18.16.41.16.69v2.2h-.6v-2.14c0-.26-.07-.46-.21-.58-.14-.13-.31-.19-.53-.19-.15,0-.29.03-.43.07-.13.05-.24.12-.32.22-.08.1-.12.22-.12.37v2.25h-.6Zm5.3-2.92h-.76v2.09c0,.12.01.21.04.26.03.05.07.09.13.1.06.01.14.02.25.02h.37v.4s-.1.03-.19.04c-.08.01-.18.02-.31.02-.23,0-.41-.03-.54-.09-.13-.06-.22-.16-.27-.28-.05-.12-.07-.27-.07-.45v-2.11h-.55v-.44h.56l.15-.98h.44v.98h.76v.44Zm2.36,2.92v-4.83h.58v1.96c.06-.09.13-.18.23-.26.1-.08.21-.15.35-.2.14-.05.29-.08.47-.08.22,0,.42.04.59.12.18.08.32.2.42.34.1.15.16.33.16.53v2.4h-.6v-2.28c0-.2-.07-.36-.21-.46-.14-.11-.32-.17-.54-.17-.15,0-.29.03-.42.07-.13.05-.24.12-.32.22-.08.1-.12.22-.12.37v2.24h-.6Zm4.66.07c-.22,0-.41-.04-.57-.11-.17-.08-.3-.19-.39-.34-.09-.15-.14-.32-.14-.53,0-.37.13-.65.39-.83.26-.18.68-.28,1.25-.29l.6-.02v-.26c0-.21-.06-.37-.18-.49-.12-.12-.32-.18-.58-.18-.19,0-.36.05-.51.14-.14.09-.24.23-.28.43h-.53c.01-.22.07-.4.18-.55.11-.15.26-.27.46-.35.2-.08.43-.12.71-.12.29,0,.54.04.73.12.19.08.34.2.43.36.1.16.15.36.15.59v2.35h-.51l-.04-.63c-.13.26-.3.44-.5.55-.2.1-.42.15-.66.15Zm.18-.43c.11,0,.22-.02.33-.06.11-.04.22-.1.31-.17.09-.07.17-.15.22-.24.06-.09.09-.18.09-.27v-.57h-.5c-.26.01-.47.04-.64.09-.17.05-.3.12-.39.23-.08.1-.13.24-.13.4,0,.19.06.34.19.44.13.11.3.16.51.16Zm3.69.43c-.23,0-.45-.04-.65-.11-.2-.07-.36-.19-.5-.34-.13-.16-.21-.35-.25-.59h.55c.03.13.08.24.16.33.08.09.18.15.3.2.12.04.25.07.39.07.22,0,.41-.04.55-.13.14-.09.21-.22.21-.39,0-.12-.04-.22-.11-.3-.07-.08-.18-.13-.33-.17l-.69-.17c-.27-.07-.49-.17-.65-.31-.16-.14-.24-.33-.24-.58,0-.2.04-.37.14-.52.1-.15.24-.27.43-.36.19-.09.43-.13.71-.13.36,0,.66.08.88.25.23.16.34.4.35.72h-.53c-.02-.16-.1-.29-.22-.38-.12-.1-.29-.14-.49-.14s-.39.04-.52.13c-.13.09-.2.22-.2.4,0,.12.05.21.14.28.1.07.24.12.42.17l.67.17c.16.04.28.1.38.16.1.07.18.14.24.22.06.08.1.17.13.26.03.09.04.18.04.26,0,.21-.05.38-.16.53-.1.15-.25.26-.44.35-.19.08-.42.12-.69.12Zm5.27,0c-.2,0-.36-.03-.5-.08-.13-.05-.25-.12-.33-.2-.09-.08-.15-.17-.2-.25-.05-.09-.08-.16-.1-.23l-.07.69h-.46v-4.83h.6v2c.03-.06.07-.12.13-.18.06-.07.13-.13.22-.19.09-.06.2-.12.32-.16.13-.04.27-.06.43-.06.42,0,.75.15,1,.44.25.29.37.72.37,1.29,0,.35-.05.66-.16.93-.11.26-.26.47-.47.61-.21.15-.47.22-.79.22Zm-.11-.46c.27,0,.49-.1.67-.32.17-.21.26-.55.26-1.01,0-.39-.08-.69-.24-.91-.16-.22-.39-.32-.69-.32-.22,0-.4.05-.54.15-.13.1-.23.24-.3.42-.06.18-.1.41-.1.67,0,.47.07.81.22,1.02.15.21.39.31.73.31Zm2.74-1.14c0,.21.03.41.1.58.07.17.18.31.32.41.15.1.33.15.54.15s.4-.05.55-.15c.16-.1.26-.24.3-.43h.57c-.04.23-.13.42-.27.58-.14.16-.31.27-.51.35-.2.08-.41.12-.62.12-.31,0-.59-.07-.83-.21-.24-.14-.43-.33-.56-.59-.13-.26-.2-.56-.2-.92s.06-.66.18-.93c.12-.27.3-.48.53-.62.23-.15.51-.22.84-.22s.58.07.8.21c.22.14.38.33.5.58.11.25.17.54.17.88v.22h-2.41Zm0-.41h1.83c0-.19-.03-.37-.1-.52-.06-.16-.16-.28-.3-.37-.13-.09-.3-.14-.5-.14-.21,0-.38.05-.52.15-.14.1-.24.23-.31.39-.07.16-.1.32-.1.48Zm3.66.41c0,.21.04.41.1.58.07.17.18.31.32.41.15.1.33.15.54.15s.4-.05.55-.15c.16-.1.26-.24.3-.43h.57c-.04.23-.13.42-.27.58-.14.16-.31.27-.51.35-.2.08-.41.12-.62.12-.31,0-.59-.07-.83-.21-.24-.14-.43-.33-.56-.59s-.2-.56-.2-.92.06-.66.18-.93c.12-.27.3-.48.53-.62.23-.15.51-.22.84-.22s.58.07.8.21c.22.14.38.33.5.58.12.25.17.54.17.88v.22h-2.41Zm0-.41h1.83c0-.19-.03-.37-.1-.52-.07-.16-.17-.28-.3-.37-.13-.09-.3-.14-.5-.14s-.38.05-.52.15c-.14.1-.24.23-.31.39-.07.16-.1.32-.1.48Zm3.23,1.95v-3.36h.58v.49c.05-.09.13-.18.22-.26.1-.08.21-.15.35-.2.14-.05.3-.07.48-.07.21,0,.41.04.58.13.18.08.32.22.43.4.11.18.16.41.16.69v2.2h-.6v-2.14c0-.26-.07-.46-.21-.58-.14-.13-.31-.19-.53-.19-.15,0-.29.03-.43.07-.13.05-.24.12-.32.22-.08.1-.12.22-.12.37v2.25h-.6Zm5.25,1.05v-4.41h.6v.58c.05-.07.1-.14.16-.22.06-.08.14-.15.23-.21.09-.07.2-.12.32-.16.12-.04.26-.06.41-.06.27,0,.51.06.71.19.21.12.37.31.48.56.11.25.17.57.17.96s-.06.71-.17.98c-.11.26-.27.47-.48.6-.21.14-.46.21-.76.21-.15,0-.28-.02-.4-.07-.11-.04-.22-.1-.3-.16-.08-.07-.16-.14-.21-.22-.06-.08-.1-.15-.14-.22v1.65h-.6Zm1.55-1.45c.28,0,.5-.1.68-.32.18-.21.26-.54.26-.99,0-.38-.08-.69-.24-.91-.16-.23-.39-.34-.7-.34s-.55.12-.71.35c-.16.23-.24.53-.24.9,0,.24.04.46.11.66.07.2.18.35.32.47.14.12.31.18.52.18Zm2.31.4v-3.36h.57v.65c.06-.16.14-.29.24-.4.1-.11.22-.19.35-.24.13-.05.27-.08.41-.08.05,0,.1,0,.15,0,.05,0,.08.02.11.03v.58s-.07-.02-.13-.03c-.05,0-.09-.01-.13-.01-.13,0-.26,0-.38.03-.12.02-.22.07-.31.13-.09.06-.16.14-.21.24-.05.1-.07.22-.07.36v2.09h-.6Zm3.78.07c-.31,0-.58-.07-.81-.2-.23-.14-.41-.33-.54-.59-.13-.26-.19-.57-.19-.95,0-.35.06-.66.18-.92.12-.26.29-.47.52-.62.23-.15.51-.22.84-.22.31,0,.58.07.81.21.23.13.41.33.53.59.13.26.19.58.19.96,0,.34-.06.64-.18.9-.11.26-.29.46-.51.61-.23.15-.51.22-.84.22Zm0-.48c.2,0,.37-.05.51-.15.14-.1.24-.25.32-.44.07-.19.11-.42.11-.68,0-.24-.03-.46-.09-.65-.06-.19-.16-.35-.3-.46-.14-.11-.32-.17-.54-.17-.2,0-.38.05-.52.15-.14.1-.25.24-.32.44-.07.19-.11.42-.11.69,0,.24.03.45.1.64.07.19.17.35.31.46.14.11.32.17.54.17Zm3.65-3.02c.24,0,.46.05.65.14.19.09.35.22.47.39.12.17.2.37.23.6h-.53c-.02-.12-.07-.22-.14-.32-.07-.1-.16-.18-.28-.23-.11-.06-.25-.09-.4-.09-.29,0-.52.1-.7.31-.18.21-.27.53-.27.96,0,.39.08.7.25.93.17.23.41.35.74.35.15,0,.29-.03.4-.09.11-.06.21-.14.28-.24.07-.1.11-.21.13-.32h.52c-.03.23-.1.42-.23.59-.12.16-.28.29-.48.38-.19.09-.4.13-.64.13-.3,0-.57-.07-.8-.2-.23-.13-.41-.33-.55-.59s-.2-.57-.2-.95c0-.35.06-.66.18-.92.12-.26.3-.47.53-.62.23-.15.51-.22.84-.22Zm2.59,1.88c0,.21.03.41.1.58.07.17.18.31.32.41.15.1.33.15.54.15s.4-.05.55-.15c.16-.1.26-.24.3-.43h.57c-.04.23-.13.42-.27.58-.14.16-.31.27-.51.35-.2.08-.41.12-.62.12-.31,0-.59-.07-.83-.21-.24-.14-.42-.33-.56-.59-.13-.26-.2-.56-.2-.92s.06-.66.18-.93c.12-.27.3-.48.53-.62.23-.15.51-.22.84-.22s.58.07.8.21c.22.14.38.33.5.58.11.25.17.54.17.88v.22h-2.41Zm0-.41h1.83c0-.19-.03-.37-.1-.52-.07-.16-.17-.28-.3-.37-.13-.09-.3-.14-.5-.14s-.38.05-.52.15c-.14.1-.24.23-.31.39-.07.16-.1.32-.1.48Zm4.4,2.01c-.23,0-.45-.04-.65-.11-.2-.07-.37-.19-.5-.34-.13-.16-.22-.35-.25-.59h.55c.03.13.08.24.16.33.08.09.18.15.3.2.12.04.25.07.39.07.23,0,.41-.04.55-.13.14-.09.21-.22.21-.39,0-.12-.04-.22-.11-.3-.07-.08-.18-.13-.33-.17l-.7-.17c-.27-.07-.49-.17-.65-.31-.16-.14-.24-.33-.24-.58,0-.2.04-.37.14-.52.1-.15.24-.27.43-.36.19-.09.43-.13.71-.13.36,0,.66.08.88.25.23.16.34.4.35.72h-.53c-.02-.16-.09-.29-.22-.38-.12-.1-.28-.14-.49-.14s-.39.04-.52.13c-.13.09-.2.22-.2.4,0,.12.05.21.14.28.1.07.24.12.42.17l.67.17c.16.04.28.1.38.16.1.07.18.14.24.22.06.08.1.17.13.26.03.09.04.18.04.26,0,.21-.05.38-.16.53-.1.15-.25.26-.44.35-.19.08-.42.12-.7.12Zm3.27,0c-.23,0-.45-.04-.65-.11-.2-.07-.37-.19-.5-.34-.13-.16-.22-.35-.25-.59h.55c.03.13.08.24.16.33.08.09.18.15.3.2.12.04.25.07.39.07.23,0,.41-.04.55-.13.14-.09.21-.22.21-.39,0-.12-.04-.22-.11-.3-.07-.08-.18-.13-.33-.17l-.7-.17c-.27-.07-.49-.17-.65-.31-.16-.14-.24-.33-.24-.58,0-.2.04-.37.14-.52.1-.15.24-.27.43-.36.19-.09.43-.13.71-.13.36,0,.66.08.88.25.23.16.34.4.35.72h-.53c-.02-.16-.09-.29-.22-.38-.12-.1-.29-.14-.49-.14s-.39.04-.52.13c-.14.09-.2.22-.2.4,0,.12.05.21.14.28.1.07.24.12.42.17l.67.17c.16.04.28.1.38.16.1.07.18.14.24.22.06.08.1.17.13.26.03.09.04.18.04.26,0,.21-.05.38-.16.53-.1.15-.25.26-.44.35-.19.08-.42.12-.7.12Zm2.56-1.61c0,.21.03.41.1.58.07.17.18.31.32.41.15.1.33.15.54.15s.4-.05.55-.15c.16-.1.26-.24.3-.43h.57c-.04.23-.13.42-.27.58-.14.16-.31.27-.51.35-.2.08-.41.12-.62.12-.31,0-.59-.07-.83-.21-.24-.14-.43-.33-.56-.59-.13-.26-.2-.56-.2-.92s.06-.66.18-.93c.12-.27.3-.48.53-.62.23-.15.51-.22.83-.22s.58.07.8.21c.22.14.38.33.5.58.12.25.17.54.17.88v.22h-2.41Zm0-.41h1.83c0-.19-.03-.37-.1-.52-.07-.16-.16-.28-.3-.37-.13-.09-.3-.14-.5-.14s-.39.05-.52.15c-.14.1-.24.23-.31.39-.07.16-.1.32-.1.48Zm4.44,2.01c-.44,0-.78-.15-1.04-.45s-.38-.74-.38-1.31c0-.35.05-.65.15-.91.1-.26.26-.46.46-.6.2-.14.46-.21.76-.21.16,0,.3.02.43.06.13.04.23.09.32.16.09.06.17.13.22.19.06.07.1.13.13.18v-2h.6v4.83h-.46l-.07-.69c-.02.07-.06.14-.1.23-.05.09-.11.17-.2.25-.09.08-.2.15-.34.2-.13.05-.3.08-.5.08Zm.11-.46c.34,0,.58-.1.73-.31.15-.21.22-.55.22-1.02,0-.26-.04-.48-.1-.67-.06-.18-.16-.32-.3-.42-.13-.1-.31-.15-.54-.15-.28,0-.5.1-.68.3-.17.2-.26.51-.26.94s.08.75.23.98c.16.23.39.35.69.35Zm2.41.4v-.77h.71v.77h-.71Zm-100.52,3.85v-.55h3.56v.55h-1.43v4.15h-.6v-4.15h-1.52Zm4.21,4.15v-4.83h.58v1.96c.06-.09.13-.18.23-.26.1-.08.21-.15.35-.2.14-.05.29-.08.47-.08.22,0,.42.04.59.12.18.08.32.2.42.34.1.15.16.33.16.53v2.4h-.6v-2.28c0-.2-.07-.36-.21-.46-.14-.11-.32-.17-.54-.17-.15,0-.29.03-.42.07-.13.05-.24.12-.32.22-.08.1-.12.22-.12.37v2.24h-.6Zm4.17-1.54c0,.21.03.41.1.58.07.17.18.31.32.41.15.1.33.15.54.15s.4-.05.55-.15c.16-.1.26-.24.3-.43h.57c-.04.23-.13.42-.27.58-.14.16-.31.27-.51.35-.2.08-.41.12-.62.12-.31,0-.59-.07-.83-.21-.24-.14-.42-.33-.56-.59s-.2-.56-.2-.92.06-.66.18-.93c.12-.27.3-.48.53-.62.23-.15.51-.22.84-.22s.58.07.8.21c.22.14.38.33.5.58.11.25.17.54.17.88v.22h-2.41Zm0-.41h1.83c0-.19-.03-.37-.1-.52-.07-.16-.16-.28-.3-.37-.13-.09-.3-.14-.5-.14s-.38.05-.52.15c-.14.1-.24.23-.31.39-.07.16-.1.32-.1.48Zm6.39-.97h-.76v2.09c0,.12.01.21.04.26.03.05.07.09.13.1.06.01.14.02.25.02h.37v.4s-.1.03-.19.04c-.08.01-.19.02-.31.02-.23,0-.41-.03-.54-.09-.13-.06-.22-.16-.27-.28-.05-.12-.07-.27-.07-.45v-2.11h-.55v-.44h.56l.15-.98h.44v.98h.76v.44Zm2.11,2.99c-.31,0-.58-.07-.81-.2-.23-.14-.41-.33-.54-.59-.13-.26-.19-.57-.19-.95,0-.35.06-.66.18-.92.12-.26.29-.47.52-.62.23-.15.51-.22.84-.22.31,0,.58.07.81.21.23.13.41.33.53.59.13.26.19.58.19.96,0,.34-.06.64-.18.9-.11.26-.29.46-.51.61-.23.15-.5.22-.84.22Zm0-.48c.2,0,.37-.05.51-.15.14-.1.24-.25.32-.44.07-.19.11-.42.11-.68,0-.24-.03-.46-.09-.65-.06-.19-.16-.35-.3-.46-.14-.11-.32-.17-.54-.17-.2,0-.38.05-.52.15-.14.1-.25.24-.32.44-.07.19-.11.42-.11.69,0,.24.03.45.1.64.07.19.17.35.31.46.14.11.32.17.54.17Zm3.91-2.51h-.76v2.09c0,.12.01.21.04.26.03.05.07.09.13.1.06.01.14.02.25.02h.37v.4s-.1.03-.19.04c-.08.01-.19.02-.31.02-.23,0-.41-.03-.54-.09-.13-.06-.22-.16-.27-.28-.05-.12-.07-.27-.07-.45v-2.11h-.55v-.44h.56l.15-.98h.44v.98h.76v.44Zm1.77,2.99c-.22,0-.41-.04-.58-.11-.17-.08-.3-.19-.39-.34-.09-.15-.14-.32-.14-.53,0-.37.13-.65.39-.83.26-.18.68-.28,1.25-.29l.6-.02v-.26c0-.21-.06-.37-.19-.49-.12-.12-.32-.18-.58-.18-.19,0-.36.05-.51.14-.15.09-.24.23-.28.43h-.53c.01-.22.07-.4.19-.55.11-.15.26-.27.46-.35.2-.08.43-.12.71-.12.29,0,.54.04.73.12.2.08.34.2.44.36.1.16.15.36.15.59v2.35h-.51l-.04-.63c-.13.26-.3.44-.5.55-.2.1-.42.15-.66.15Zm.18-.43c.11,0,.22-.02.33-.06.11-.04.22-.1.31-.17.09-.07.17-.15.22-.24.06-.09.09-.18.09-.27v-.57h-.5c-.26.01-.47.04-.64.09-.17.05-.3.12-.39.23-.08.1-.13.24-.13.4,0,.19.07.34.19.44.13.11.3.16.51.16Zm3.41.41c-.18,0-.33-.03-.44-.08-.11-.05-.2-.12-.26-.2-.06-.09-.1-.18-.12-.29-.02-.11-.03-.23-.03-.34v-3.96h.59v3.91c0,.17.03.3.1.38.07.09.16.13.28.14h.18v.39c-.05.01-.1.03-.16.04-.05.01-.1.02-.15.02Zm3.52.02c-.22,0-.41-.04-.57-.11-.17-.08-.3-.19-.39-.34-.09-.15-.14-.32-.14-.53,0-.37.13-.65.39-.83.26-.18.68-.28,1.25-.29l.6-.02v-.26c0-.21-.06-.37-.19-.49-.12-.12-.31-.18-.57-.18-.19,0-.36.05-.51.14-.14.09-.24.23-.28.43h-.53c.01-.22.07-.4.18-.55.11-.15.26-.27.46-.35.2-.08.43-.12.71-.12.29,0,.54.04.73.12.2.08.34.2.44.36.1.16.15.36.15.59v2.35h-.51l-.04-.63c-.13.26-.3.44-.5.55-.2.1-.42.15-.66.15Zm.18-.43c.11,0,.22-.02.33-.06.11-.04.22-.1.31-.17.09-.07.17-.15.22-.24.06-.09.09-.18.09-.27v-.57h-.5c-.26.01-.47.04-.64.09-.17.05-.3.12-.39.23-.08.1-.13.24-.13.4,0,.19.07.34.19.44.13.11.3.16.51.16Zm2.56.37v-3.36h.58v.49c.09-.15.22-.28.38-.39.16-.11.37-.17.63-.17.12,0,.25.02.37.06.13.04.24.1.35.18.11.08.19.18.25.3.1-.16.24-.3.42-.4.18-.1.38-.15.6-.15.12,0,.24.02.37.06.13.03.25.1.35.19.11.09.2.21.27.37.07.16.1.36.1.61v2.2h-.6v-2.14c0-.2-.03-.36-.1-.47-.07-.11-.15-.19-.26-.24-.1-.05-.22-.07-.33-.07-.1,0-.21.02-.33.06-.12.04-.22.11-.3.21-.08.1-.12.23-.12.4v2.25h-.6v-2.31c0-.13-.04-.24-.11-.33-.07-.09-.16-.16-.26-.2-.1-.05-.21-.07-.31-.07-.11,0-.23.02-.35.07-.11.04-.21.12-.29.22-.08.1-.12.22-.12.38v2.25h-.6Zm6.96.07c-.31,0-.58-.07-.81-.2-.23-.14-.41-.33-.54-.59-.13-.26-.19-.57-.19-.95,0-.35.06-.66.18-.92.12-.26.29-.47.52-.62.23-.15.51-.22.84-.22.31,0,.58.07.81.21.23.13.41.33.53.59.13.26.19.58.19.96,0,.34-.06.64-.18.9-.12.26-.29.46-.51.61-.23.15-.51.22-.84.22Zm0-.48c.2,0,.37-.05.51-.15.14-.1.24-.25.32-.44.07-.19.11-.42.11-.68,0-.24-.03-.46-.09-.65-.06-.19-.16-.35-.3-.46-.14-.11-.32-.17-.54-.17-.2,0-.38.05-.52.15-.14.1-.25.24-.32.44-.07.19-.11.42-.11.69,0,.24.03.45.1.64.07.19.17.35.31.46.14.11.32.17.54.17Zm3.49.48c-.18,0-.34-.03-.5-.07-.15-.05-.29-.12-.41-.22-.12-.1-.21-.21-.28-.35-.07-.14-.1-.31-.1-.5v-2.28h.6v2.22c0,.22.07.4.2.53.14.14.34.21.61.21.25,0,.44-.06.6-.19.15-.13.23-.32.23-.58v-2.19h.6v3.36h-.48l-.06-.64c-.04.17-.11.31-.21.41-.1.1-.21.18-.35.23-.14.05-.28.07-.44.07Zm2.53-.07v-3.36h.58v.49c.05-.09.13-.18.22-.26.1-.08.21-.15.35-.2.14-.05.3-.07.48-.07.21,0,.41.04.58.13.18.08.32.22.43.4.11.18.16.41.16.69v2.2h-.6v-2.14c0-.26-.07-.46-.21-.58-.14-.13-.31-.19-.53-.19-.15,0-.29.03-.43.07-.13.05-.24.12-.32.22-.08.1-.12.22-.12.37v2.25h-.6Zm5.3-2.92h-.76v2.09c0,.12.01.21.04.26.03.05.07.09.13.1.06.01.14.02.25.02h.37v.4s-.1.03-.19.04c-.08.01-.18.02-.31.02-.23,0-.41-.03-.54-.09s-.22-.16-.27-.28c-.05-.12-.07-.27-.07-.45v-2.11h-.55v-.44h.56l.15-.98h.44v.98h.76v.44Zm3.49,2.99c-.44,0-.78-.15-1.04-.45-.26-.3-.38-.74-.38-1.31,0-.35.05-.65.15-.91.1-.26.26-.46.46-.6.2-.14.46-.21.76-.21.16,0,.3.02.43.06.12.04.23.09.32.16.09.06.16.13.22.19.06.07.1.13.13.18v-2h.6v4.83h-.46l-.07-.69c-.02.07-.06.14-.1.23-.05.09-.12.17-.2.25-.09.08-.2.15-.34.2-.13.05-.3.08-.5.08Zm.11-.46c.34,0,.58-.1.73-.31.15-.21.22-.55.22-1.02,0-.26-.04-.48-.1-.67-.06-.18-.16-.32-.3-.42-.13-.1-.31-.15-.54-.15-.28,0-.5.1-.68.3-.17.2-.26.51-.26.94s.08.75.23.98c.16.23.39.35.69.35Zm2.98-1.14c0,.21.04.41.1.58.07.17.18.31.32.41.15.1.33.15.54.15s.4-.05.55-.15c.16-.1.26-.24.3-.43h.57c-.04.23-.13.42-.27.58-.14.16-.31.27-.51.35-.2.08-.41.12-.62.12-.32,0-.59-.07-.83-.21-.24-.14-.43-.33-.56-.59-.13-.26-.2-.56-.2-.92s.06-.66.18-.93c.12-.27.3-.48.53-.62.23-.15.51-.22.84-.22s.58.07.8.21c.22.14.38.33.5.58.12.25.17.54.17.88v.22h-2.41Zm0-.41h1.83c0-.19-.03-.37-.1-.52-.07-.16-.16-.28-.3-.37-.13-.09-.3-.14-.5-.14s-.38.05-.52.15c-.14.1-.24.23-.31.39-.07.16-.1.32-.1.48Zm4.44,2.01c-.44,0-.78-.15-1.04-.45s-.38-.74-.38-1.31c0-.35.05-.65.15-.91.1-.26.26-.46.46-.6s.46-.21.76-.21c.16,0,.3.02.43.06.13.04.23.09.32.16.09.06.16.13.22.19.06.07.1.13.13.18v-2h.6v4.83h-.46l-.07-.69c-.02.07-.06.14-.1.23-.05.09-.11.17-.2.25-.09.08-.2.15-.34.2-.13.05-.3.08-.5.08Zm.11-.46c.34,0,.58-.1.73-.31.15-.21.22-.55.22-1.02,0-.26-.04-.48-.1-.67-.06-.18-.16-.32-.3-.42-.13-.1-.31-.15-.54-.15-.28,0-.5.1-.68.3-.17.2-.26.51-.26.94s.08.75.23.98c.16.23.39.35.69.35Zm3.78.46c-.18,0-.34-.03-.5-.07-.15-.05-.29-.12-.41-.22-.12-.1-.21-.21-.28-.35-.07-.14-.1-.31-.1-.5v-2.28h.6v2.22c0,.22.07.4.2.53.14.14.34.21.61.21.25,0,.45-.06.6-.19.15-.13.23-.32.23-.58v-2.19h.6v3.36h-.48l-.06-.64c-.04.17-.11.31-.21.41-.1.1-.22.18-.35.23-.14.05-.28.07-.44.07Zm3.82-3.49c.24,0,.46.05.65.14.19.09.35.22.47.39.12.17.2.37.23.6h-.53c-.02-.12-.07-.22-.14-.32-.07-.1-.16-.18-.28-.23-.11-.06-.25-.09-.4-.09-.29,0-.52.1-.7.31-.18.21-.27.53-.27.96,0,.39.08.7.25.93.17.23.41.35.73.35.15,0,.29-.03.4-.09.12-.06.21-.14.28-.24.07-.1.11-.21.13-.32h.52c-.03.23-.1.42-.23.59-.12.16-.28.29-.47.38-.19.09-.41.13-.64.13-.3,0-.57-.07-.8-.2-.23-.13-.41-.33-.55-.59-.13-.26-.2-.57-.2-.95,0-.35.06-.66.18-.92.12-.26.3-.47.53-.62.23-.15.51-.22.84-.22Zm3.76.5h-.76v2.09c0,.12.01.21.04.26.03.05.07.09.13.1.06.01.14.02.25.02h.37v.4s-.1.03-.19.04c-.08.01-.19.02-.31.02-.23,0-.41-.03-.54-.09s-.22-.16-.27-.28c-.05-.12-.07-.27-.07-.45v-2.11h-.55v-.44h.56l.15-.98h.44v.98h.76v.44Zm1.2,1.38c0,.21.04.41.1.58.07.17.18.31.32.41.14.1.33.15.54.15s.4-.05.55-.15c.16-.1.26-.24.3-.43h.57c-.04.23-.13.42-.27.58-.14.16-.31.27-.51.35-.2.08-.41.12-.62.12-.32,0-.59-.07-.83-.21-.24-.14-.42-.33-.56-.59-.14-.26-.2-.56-.2-.92s.06-.66.18-.93c.12-.27.3-.48.53-.62.23-.15.51-.22.83-.22s.58.07.8.21c.22.14.38.33.5.58.12.25.17.54.17.88v.22h-2.41Zm0-.41h1.83c0-.19-.03-.37-.1-.52-.07-.16-.16-.28-.3-.37-.13-.09-.3-.14-.5-.14s-.39.05-.52.15c-.14.1-.24.23-.31.39-.07.16-.1.32-.1.48Zm4.44,2.01c-.44,0-.78-.15-1.04-.45-.26-.3-.38-.74-.38-1.31,0-.35.05-.65.15-.91.1-.26.26-.46.46-.6.2-.14.46-.21.76-.21.16,0,.3.02.43.06.13.04.23.09.32.16.09.06.17.13.22.19.06.07.1.13.13.18v-2h.6v4.83h-.46l-.07-.69c-.02.07-.06.14-.1.23-.05.09-.11.17-.2.25-.09.08-.2.15-.33.2-.13.05-.3.08-.5.08Zm.11-.46c.34,0,.58-.1.73-.31.15-.21.22-.55.22-1.02,0-.26-.04-.48-.1-.67-.06-.18-.16-.32-.3-.42-.13-.1-.31-.15-.54-.15-.28,0-.5.1-.68.3-.17.2-.26.51-.26.94s.08.75.23.98c.16.23.39.35.69.35Zm5.94-2.96v.44h-.82v2.92h-.6v-2.92h-.71v-.44h.71v-.52c0-.27.07-.47.21-.61.14-.14.34-.21.61-.21h.63v.43s-.5,0-.5,0c-.14,0-.23.04-.28.11-.05.07-.07.18-.07.33v.47h.82Zm.74,3.36v-3.36h.57v.65c.06-.16.13-.29.24-.4.1-.11.22-.19.35-.24.13-.05.27-.08.41-.08.05,0,.1,0,.15,0,.05,0,.08.02.11.03v.58s-.07-.02-.13-.03c-.05,0-.09-.01-.13-.01-.14,0-.26,0-.38.03-.12.02-.22.07-.31.13-.09.06-.16.14-.21.24-.05.1-.07.22-.07.36v2.09h-.6Zm3.78.07c-.31,0-.58-.07-.81-.2-.23-.14-.41-.33-.54-.59-.13-.26-.19-.57-.19-.95,0-.35.06-.66.18-.92.12-.26.29-.47.52-.62.23-.15.51-.22.84-.22.31,0,.58.07.81.21.23.13.41.33.53.59.12.26.19.58.19.96,0,.34-.06.64-.18.9-.12.26-.29.46-.51.61-.22.15-.5.22-.84.22Zm0-.48c.2,0,.37-.05.51-.15.14-.1.24-.25.32-.44.07-.19.11-.42.11-.68,0-.24-.03-.46-.09-.65-.06-.19-.16-.35-.3-.46-.14-.11-.31-.17-.54-.17-.2,0-.38.05-.52.15-.14.1-.25.24-.32.44-.07.19-.11.42-.11.69,0,.24.03.45.1.64.07.19.17.35.31.46.14.11.32.17.54.17Zm2.31.41v-3.36h.58v.49c.09-.15.22-.28.38-.39.16-.11.37-.17.63-.17.12,0,.24.02.37.06.13.04.24.1.35.18.11.08.19.18.25.3.1-.16.24-.3.42-.4.18-.1.38-.15.6-.15.12,0,.24.02.37.06.13.03.25.1.35.19.11.09.2.21.27.37.07.16.1.36.1.61v2.2h-.6v-2.14c0-.2-.03-.36-.1-.47-.07-.11-.15-.19-.26-.24-.1-.05-.21-.07-.33-.07-.1,0-.21.02-.33.06-.12.04-.22.11-.3.21-.08.1-.12.23-.12.4v2.25h-.6v-2.31c0-.13-.04-.24-.11-.33-.07-.09-.16-.16-.26-.2-.1-.05-.21-.07-.31-.07-.12,0-.23.02-.35.07-.11.04-.21.12-.29.22-.08.1-.12.22-.12.38v2.25h-.6Zm7.41,1.07c-.2,0-.33-.01-.41-.04-.07-.03-.11-.04-.11-.04v-.39h.34c.13.01.23,0,.31-.02.08-.02.15-.05.2-.09.05-.04.09-.08.11-.12.03-.04.05-.09.07-.13l.12-.32-1.31-3.28h.61l.99,2.59.98-2.59h.59l-1.42,3.61c-.09.21-.18.38-.29.5-.11.12-.22.2-.36.25-.13.05-.27.07-.43.07Zm4.35-1.01c-.31,0-.58-.07-.81-.2-.23-.14-.41-.33-.54-.59-.13-.26-.19-.57-.19-.95,0-.35.06-.66.18-.92.12-.26.29-.47.52-.62.23-.15.51-.22.84-.22.31,0,.58.07.81.21.23.13.41.33.53.59.13.26.19.58.19.96,0,.34-.06.64-.18.9-.11.26-.29.46-.51.61-.22.15-.5.22-.84.22Zm0-.48c.2,0,.37-.05.51-.15.14-.1.24-.25.31-.44.07-.19.11-.42.11-.68,0-.24-.03-.46-.09-.65-.06-.19-.16-.35-.3-.46-.14-.11-.32-.17-.54-.17-.2,0-.38.05-.52.15-.14.1-.25.24-.32.44-.07.19-.11.42-.11.69,0,.24.03.45.1.64.07.19.17.35.31.46.14.11.32.17.54.17Zm3.49.48c-.17,0-.34-.03-.5-.07-.15-.05-.29-.12-.41-.22-.12-.1-.21-.21-.28-.35-.07-.14-.1-.31-.1-.5v-2.28h.6v2.22c0,.22.07.4.2.53.14.14.34.21.61.21.25,0,.45-.06.6-.19.15-.13.23-.32.23-.58v-2.19h.6v3.36h-.48l-.06-.64c-.04.17-.11.31-.21.41-.1.1-.22.18-.36.23-.14.05-.28.07-.44.07Zm2.53-.07v-3.36h.57v.65c.06-.16.13-.29.24-.4.1-.11.22-.19.35-.24.13-.05.27-.08.41-.08.05,0,.1,0,.15,0,.05,0,.09.02.11.03v.58s-.08-.02-.13-.03c-.05,0-.09-.01-.13-.01-.13,0-.26,0-.38.03-.12.02-.22.07-.31.13-.09.06-.16.14-.21.24-.05.1-.07.22-.07.36v2.09h-.6Zm-108.23,9.07c-.22,0-.41-.04-.58-.11-.17-.08-.3-.19-.39-.34-.09-.15-.14-.32-.14-.53,0-.37.13-.65.39-.83.26-.18.68-.28,1.25-.29l.6-.02v-.26c0-.21-.06-.37-.19-.49-.12-.12-.32-.18-.58-.18-.19,0-.36.05-.51.14-.15.09-.24.23-.28.43h-.53c.01-.22.07-.4.19-.55.11-.15.26-.27.46-.35.2-.08.43-.12.71-.12.29,0,.54.04.73.12.19.08.34.2.44.36.1.16.15.36.15.59v2.35h-.51l-.04-.63c-.13.26-.3.44-.5.55-.2.1-.42.15-.66.15Zm.18-.43c.11,0,.22-.02.33-.06.11-.04.22-.1.31-.17.09-.07.17-.15.22-.24.06-.09.09-.18.09-.27v-.57h-.5c-.26.01-.47.04-.64.09-.17.05-.3.12-.39.23-.08.1-.13.24-.13.4,0,.19.06.34.19.44.13.11.3.16.51.16Zm3.9-3.06c.24,0,.46.05.65.14.19.09.35.22.47.39.12.17.2.37.23.6h-.53c-.02-.12-.07-.22-.14-.32-.07-.1-.16-.18-.28-.23-.11-.06-.25-.09-.4-.09-.29,0-.52.1-.7.31-.18.21-.27.53-.27.96,0,.39.08.7.25.93.17.23.41.35.73.35.15,0,.29-.03.4-.09.11-.06.21-.14.28-.24.07-.1.11-.21.13-.32h.52c-.03.23-.1.42-.23.59-.12.16-.28.29-.47.38-.19.09-.41.13-.64.13-.3,0-.57-.07-.8-.2-.23-.13-.41-.33-.55-.59-.13-.26-.2-.57-.2-.95,0-.35.06-.66.18-.92.12-.26.3-.47.53-.62.23-.15.51-.22.84-.22Zm3.5,0c.24,0,.46.05.65.14.19.09.35.22.47.39.12.17.2.37.23.6h-.53c-.02-.12-.07-.22-.14-.32-.07-.1-.16-.18-.28-.23-.11-.06-.25-.09-.4-.09-.29,0-.52.1-.7.31-.18.21-.27.53-.27.96,0,.39.08.7.25.93.17.23.41.35.73.35.15,0,.29-.03.4-.09.11-.06.21-.14.28-.24.07-.1.11-.21.13-.32h.52c-.03.23-.1.42-.23.59-.12.16-.28.29-.47.38-.19.09-.41.13-.64.13-.3,0-.57-.07-.8-.2-.23-.13-.41-.33-.55-.59-.13-.26-.2-.57-.2-.95,0-.35.06-.66.18-.92.12-.26.3-.47.53-.62.23-.15.51-.22.84-.22Zm3.5,3.49c-.31,0-.58-.07-.81-.2-.23-.14-.41-.33-.54-.59-.13-.26-.19-.57-.19-.95,0-.35.06-.66.18-.92.12-.26.29-.47.52-.62.23-.15.51-.22.84-.22.31,0,.58.07.81.21.23.13.41.33.53.59.13.26.19.58.19.96,0,.34-.06.64-.18.9-.11.26-.29.46-.51.61-.23.15-.5.22-.84.22Zm0-.48c.2,0,.37-.05.51-.15.14-.1.24-.25.32-.44.07-.19.11-.42.11-.68,0-.24-.03-.46-.09-.65-.06-.19-.16-.35-.3-.46-.14-.11-.32-.17-.54-.17-.2,0-.38.05-.52.15-.14.1-.25.24-.32.44-.07.19-.11.42-.11.69,0,.24.03.45.1.64.07.19.17.35.31.46.14.11.32.17.54.17Zm3.49.48c-.18,0-.34-.03-.5-.07-.15-.05-.29-.12-.41-.22-.12-.1-.21-.21-.28-.35-.07-.14-.1-.31-.1-.5v-2.28h.6v2.22c0,.22.07.4.2.53.14.14.34.21.61.21.25,0,.45-.06.59-.19.15-.13.23-.32.23-.58v-2.19h.6v3.36h-.48l-.06-.64c-.04.17-.11.31-.21.41-.1.1-.22.18-.35.23-.14.05-.28.07-.44.07Zm2.53-.07v-3.36h.58v.49c.05-.09.13-.18.22-.26.1-.08.21-.15.35-.2.14-.05.3-.07.48-.07.21,0,.41.04.58.13.18.08.32.22.43.4.11.18.16.41.16.69v2.2h-.6v-2.14c0-.26-.07-.46-.21-.58-.14-.13-.31-.19-.53-.19-.15,0-.29.03-.43.07-.13.05-.24.12-.32.22-.08.1-.12.22-.12.37v2.25h-.6Zm5.3-2.92h-.76v2.09c0,.12.01.21.04.26.03.05.07.09.13.1.06.01.14.02.25.02h.37v.4s-.1.03-.19.04c-.08.01-.19.02-.31.02-.23,0-.41-.03-.54-.09-.13-.06-.22-.16-.27-.28-.05-.12-.07-.27-.07-.45v-2.11h-.55v-.44h.56l.15-.98h.44v.98h.76v.44Zm3.01-.44v3.36h-.58v-3.36h.58Zm.01-1.34v.62h-.62v-.62h.62Zm2.24,4.76c-.23,0-.45-.04-.65-.11-.2-.07-.37-.19-.5-.34-.13-.16-.22-.35-.25-.59h.55c.03.13.08.24.16.33.08.09.18.15.3.2.12.04.25.07.39.07.23,0,.41-.04.55-.13.14-.09.21-.22.21-.39,0-.12-.04-.22-.11-.3-.07-.08-.18-.13-.33-.17l-.69-.17c-.27-.07-.49-.17-.65-.31-.16-.14-.24-.33-.24-.58,0-.2.04-.37.14-.52.1-.15.24-.27.43-.36.19-.09.43-.13.71-.13.36,0,.66.08.88.25.23.16.34.4.35.72h-.53c-.02-.16-.1-.29-.22-.38-.12-.1-.28-.14-.49-.14s-.39.04-.52.13c-.13.09-.2.22-.2.4,0,.12.05.21.14.28.1.07.24.12.42.17l.67.17c.16.04.28.1.38.16.1.07.18.14.24.22.06.08.1.17.13.26.03.09.04.18.04.26,0,.21-.05.38-.16.53-.1.15-.25.26-.44.35-.19.08-.42.12-.69.12Zm7.3-1.86c0,.38-.06.71-.18.99-.12.28-.32.49-.6.64-.28.15-.64.22-1.1.22s-.82-.08-1.1-.23c-.28-.15-.47-.37-.6-.65-.12-.28-.18-.62-.18-1.01v-2.88h.96v2.95c0,.35.08.61.25.77.17.16.39.24.66.24.18,0,.34-.04.48-.1.14-.07.25-.18.33-.33.08-.15.12-.34.12-.58v-2.95h.96v2.91Zm2.71,1.86c-.23,0-.46-.03-.68-.09-.22-.06-.43-.15-.61-.26-.18-.12-.34-.26-.46-.44-.12-.17-.19-.38-.21-.62h.97c.03.14.09.26.18.36.09.1.21.17.35.22.14.05.29.08.46.08s.33-.02.47-.07c.14-.04.26-.11.34-.19.09-.09.13-.2.13-.33,0-.12-.04-.22-.11-.29-.07-.08-.16-.14-.28-.19-.12-.05-.25-.09-.41-.12l-.81-.17c-.36-.07-.64-.21-.85-.42-.21-.22-.32-.51-.32-.86,0-.3.07-.55.23-.76.16-.22.38-.38.65-.5.28-.12.58-.18.92-.18.4,0,.74.06,1.02.19.28.12.49.3.63.51.14.21.22.45.22.72h-.95c-.02-.16-.07-.29-.15-.39-.08-.1-.19-.17-.32-.21-.13-.04-.27-.07-.44-.07-.13,0-.24.01-.35.04-.1.03-.19.07-.26.12-.07.05-.13.11-.17.18-.04.07-.06.15-.06.23,0,.14.05.25.14.33.09.08.26.15.51.21l.81.17c.29.06.52.14.69.25.17.11.3.24.38.37.09.14.14.28.17.43.03.14.04.27.04.4,0,.25-.08.48-.24.68-.16.2-.38.36-.66.48-.28.12-.62.18-1,.18Zm5.89,0c-.56,0-1.02-.11-1.37-.34-.35-.23-.55-.58-.61-1.05l.99-.02c.05.21.16.38.33.49.17.11.39.17.65.17.16,0,.29-.02.41-.07.12-.05.22-.12.29-.21.07-.09.1-.19.1-.3,0-.17-.06-.3-.17-.39-.11-.09-.28-.16-.51-.21l-.77-.17c-.36-.07-.64-.21-.86-.43-.21-.21-.32-.5-.33-.86,0-.3.08-.55.24-.76.16-.22.38-.38.66-.5.28-.12.59-.18.94-.18s.66.06.92.19c.26.12.46.29.6.51.14.21.21.45.2.71l-.96.02c-.03-.21-.1-.37-.21-.49-.11-.12-.29-.18-.54-.18-.13,0-.25.01-.35.04-.1.03-.19.07-.26.12-.07.05-.13.11-.17.18-.04.07-.06.15-.06.23,0,.14.05.24.14.32.09.08.27.15.52.22l.76.18c.43.1.74.28.92.52.19.25.29.55.29.9,0,.27-.08.51-.22.71-.15.2-.36.36-.63.47-.27.11-.59.17-.96.17Zm-.41-5.44h.82v.85h-.82v-.85Zm-.02,5.15h.82v.85h-.82v-.85Zm3.67.22v-3.52h-.84v-.54c.27,0,.49-.02.65-.07.17-.05.29-.12.37-.22.08-.1.13-.21.15-.35h.63v4.7h-.96Zm3.76-4.76c.56,0,1,.21,1.32.63.32.42.48,1.01.48,1.8s-.16,1.38-.48,1.79c-.32.41-.76.62-1.33.62s-1.01-.21-1.33-.62c-.32-.41-.48-1.01-.48-1.79,0-.52.07-.96.22-1.32.15-.36.36-.63.63-.82.27-.19.59-.28.97-.28Zm0,4.06c.28,0,.49-.12.62-.37.13-.25.19-.67.19-1.26s-.07-1.03-.2-1.29c-.13-.26-.34-.39-.61-.39s-.48.13-.62.39c-.13.26-.2.69-.2,1.29s.07,1,.2,1.26c.14.25.34.38.62.38Zm4.49-3.99h.93v2.86h.72v.8h-.72v1.04h-.91v-1.04s-2.16,0-2.16,0v-.78l2.14-2.88Zm-1.26,2.86h1.29v-1.72l-1.29,1.72Zm3.43,1.84v-1.03h1.04v1.03h-1.04Zm3.44.07c-.29,0-.57-.06-.82-.17-.25-.11-.46-.27-.62-.47-.16-.21-.25-.45-.27-.72h.9c.04.18.13.33.26.45.13.11.3.17.51.17.23,0,.42-.05.59-.16.17-.11.3-.27.38-.51.09-.23.12-.54.09-.91-.06.11-.15.22-.25.3-.11.08-.23.15-.37.2-.14.04-.3.07-.48.07-.32,0-.6-.06-.85-.18-.24-.12-.44-.29-.58-.51-.14-.22-.21-.49-.21-.79s.07-.58.22-.82c.15-.24.35-.43.62-.57.26-.14.57-.21.93-.21.4,0,.74.1,1.03.29.29.19.51.46.67.81.16.35.23.75.23,1.22,0,.56-.08,1.03-.24,1.4-.16.37-.39.65-.68.84-.3.18-.65.28-1.06.28Zm.09-2.51c.13,0,.26-.03.38-.09.13-.06.23-.14.31-.23s.12-.18.12-.28c0-.21-.03-.39-.1-.54-.07-.15-.16-.27-.29-.35-.12-.08-.26-.12-.43-.12-.15,0-.28.03-.4.1-.12.07-.21.17-.28.29-.07.13-.1.27-.1.44,0,.25.07.43.22.57.14.13.33.2.56.2Zm4.27-2.32c.56,0,1,.21,1.32.63.32.42.49,1.01.49,1.8s-.16,1.38-.48,1.79c-.32.41-.76.62-1.33.62s-1.01-.21-1.34-.62c-.32-.41-.48-1.01-.48-1.79,0-.52.07-.96.22-1.32.15-.36.36-.63.63-.82.27-.19.59-.28.97-.28Zm0,4.06c.28,0,.48-.12.61-.37.13-.25.2-.67.2-1.26s-.07-1.03-.2-1.29c-.13-.26-.34-.39-.62-.39s-.48.13-.62.39c-.14.26-.2.69-.2,1.29s.07,1,.2,1.26c.13.25.34.38.62.38Zm2.45.71v-.77h.71v.77h-.71Z"/>
        </g>
      </g>
    </g>
  </g>
</svg>